M48
; DRILL file {KiCad 9.0.7} date 2026-02-26T21:28:15-0800
; FORMAT={-:-/ absolute / metric / decimal}
; #@! TF.CreationDate,2026-02-26T21:28:15-08:00
; #@! TF.GenerationSoftware,Kicad,Pcbnew,9.0.7
; #@! TF.FileFunction,Plated,1,2,PTH
FMAT,2
METRIC
; #@! TA.AperFunction,Plated,PTH,ViaDrill
T1C0.300
; #@! TA.AperFunction,Plated,PTH,ComponentDrill
T2C0.300
; #@! TA.AperFunction,Plated,PTH,ComponentDrill
T3C1.000
; #@! TA.AperFunction,Plated,PTH,ComponentDrill
T4C1.200
; #@! TA.AperFunction,Plated,PTH,ComponentDrill
T5C1.300
%
G90
G05
T1
X109.98Y-67.16
X111.43Y-66.686
X112.35Y-76.775
X113.6Y-68.975
X113.825Y-75.125
X114.85Y-62.425
X114.85Y-74.175
X117.476Y-66.081
X118.75Y-66.3
X121.5Y-75.0
X122.175Y-73.294
X123.0Y-73.5
X123.0Y-80.5
X124.5Y-60.0
X124.5Y-62.5
X126.0Y-64.0
X126.0Y-85.0
X127.495Y-73.41
X127.75Y-93.75
X127.75Y-94.5
X127.75Y-95.25
X127.995Y-72.66
X127.995Y-74.11
X128.0Y-68.0
X128.0Y-68.75
X128.0Y-69.5
X129.0Y-64.0
X129.0Y-76.5
X129.0Y-80.25
X129.0Y-90.888
X131.5Y-84.0
X132.5Y-70.0
X132.5Y-74.5
X132.5Y-77.0
X132.5Y-94.0
X132.5Y-96.05
X132.575Y-67.975
X134.825Y-96.25
X135.405Y-68.0
X135.405Y-74.5
X135.5Y-94.0
X137.175Y-96.25
T2
X116.49Y-70.63
X116.49Y-72.0
X117.63Y-69.49
X117.63Y-70.63
X117.63Y-72.0
X117.63Y-73.14
X119.0Y-69.49
X119.0Y-70.63
X119.0Y-72.0
X119.0Y-73.14
X120.14Y-70.63
X120.14Y-72.0
T3
X101.4Y-64.375
X101.46Y-75.46
X101.46Y-78.0
X101.46Y-80.54
X103.03Y-60.25
X103.94Y-64.375
X104.0Y-75.46
X104.0Y-78.0
X104.0Y-80.54
X105.57Y-60.25
X108.11Y-60.25
X110.65Y-60.25
X115.92Y-60.0
X118.46Y-60.0
X121.0Y-60.0
T4
X144.5Y-72.965
X144.5Y-75.505
X144.5Y-78.045
T5
X103.0Y-91.96
X103.0Y-94.5
X103.075Y-68.15
X103.075Y-70.69
M30
