%TF.GenerationSoftware,KiCad,Pcbnew,9.0.7*%
%TF.CreationDate,2026-03-23T23:57:09-07:00*%
%TF.ProjectId,drv8323-breakout,64727638-3332-4332-9d62-7265616b6f75,rev?*%
%TF.SameCoordinates,Original*%
%TF.FileFunction,Legend,Bot*%
%TF.FilePolarity,Positive*%
%FSLAX46Y46*%
G04 Gerber Fmt 4.6, Leading zero omitted, Abs format (unit mm)*
G04 Created by KiCad (PCBNEW 9.0.7) date 2026-03-23 23:57:09*
%MOMM*%
%LPD*%
G01*
G04 APERTURE LIST*
%ADD10C,0.130000*%
%ADD11C,0.150000*%
%ADD12C,0.120000*%
%ADD13C,0.100000*%
G04 APERTURE END LIST*
D10*
X107217807Y-70427573D02*
X106984474Y-71127573D01*
X106984474Y-71127573D02*
X106751140Y-70427573D01*
X106117807Y-71127573D02*
X106351140Y-70794240D01*
X106517807Y-71127573D02*
X106517807Y-70427573D01*
X106517807Y-70427573D02*
X106251140Y-70427573D01*
X106251140Y-70427573D02*
X106184474Y-70460906D01*
X106184474Y-70460906D02*
X106151140Y-70494240D01*
X106151140Y-70494240D02*
X106117807Y-70560906D01*
X106117807Y-70560906D02*
X106117807Y-70660906D01*
X106117807Y-70660906D02*
X106151140Y-70727573D01*
X106151140Y-70727573D02*
X106184474Y-70760906D01*
X106184474Y-70760906D02*
X106251140Y-70794240D01*
X106251140Y-70794240D02*
X106517807Y-70794240D01*
X105817807Y-70760906D02*
X105584474Y-70760906D01*
X105484474Y-71127573D02*
X105817807Y-71127573D01*
X105817807Y-71127573D02*
X105817807Y-70427573D01*
X105817807Y-70427573D02*
X105484474Y-70427573D01*
X104951141Y-70760906D02*
X105184474Y-70760906D01*
X105184474Y-71127573D02*
X105184474Y-70427573D01*
X105184474Y-70427573D02*
X104851141Y-70427573D01*
D11*
X107507982Y-68166533D02*
X107174649Y-68166533D01*
X107574649Y-68366533D02*
X107341316Y-67666533D01*
X107341316Y-67666533D02*
X107107982Y-68366533D01*
X106507982Y-67699866D02*
X106574649Y-67666533D01*
X106574649Y-67666533D02*
X106674649Y-67666533D01*
X106674649Y-67666533D02*
X106774649Y-67699866D01*
X106774649Y-67699866D02*
X106841316Y-67766533D01*
X106841316Y-67766533D02*
X106874649Y-67833200D01*
X106874649Y-67833200D02*
X106907982Y-67966533D01*
X106907982Y-67966533D02*
X106907982Y-68066533D01*
X106907982Y-68066533D02*
X106874649Y-68199866D01*
X106874649Y-68199866D02*
X106841316Y-68266533D01*
X106841316Y-68266533D02*
X106774649Y-68333200D01*
X106774649Y-68333200D02*
X106674649Y-68366533D01*
X106674649Y-68366533D02*
X106607982Y-68366533D01*
X106607982Y-68366533D02*
X106507982Y-68333200D01*
X106507982Y-68333200D02*
X106474649Y-68299866D01*
X106474649Y-68299866D02*
X106474649Y-68066533D01*
X106474649Y-68066533D02*
X106607982Y-68066533D01*
X106174649Y-68366533D02*
X106174649Y-67666533D01*
X106174649Y-67666533D02*
X105774649Y-68366533D01*
X105774649Y-68366533D02*
X105774649Y-67666533D01*
X105441316Y-68366533D02*
X105441316Y-67666533D01*
X105441316Y-67666533D02*
X105274649Y-67666533D01*
X105274649Y-67666533D02*
X105174649Y-67699866D01*
X105174649Y-67699866D02*
X105107983Y-67766533D01*
X105107983Y-67766533D02*
X105074649Y-67833200D01*
X105074649Y-67833200D02*
X105041316Y-67966533D01*
X105041316Y-67966533D02*
X105041316Y-68066533D01*
X105041316Y-68066533D02*
X105074649Y-68199866D01*
X105074649Y-68199866D02*
X105107983Y-68266533D01*
X105107983Y-68266533D02*
X105174649Y-68333200D01*
X105174649Y-68333200D02*
X105274649Y-68366533D01*
X105274649Y-68366533D02*
X105441316Y-68366533D01*
D10*
X107077807Y-94367573D02*
X106844474Y-95067573D01*
X106844474Y-95067573D02*
X106611140Y-94367573D01*
X106377807Y-95067573D02*
X106377807Y-94367573D01*
X106377807Y-94367573D02*
X106144474Y-94867573D01*
X106144474Y-94867573D02*
X105911140Y-94367573D01*
X105911140Y-94367573D02*
X105911140Y-95067573D01*
X105444474Y-94367573D02*
X105311140Y-94367573D01*
X105311140Y-94367573D02*
X105244474Y-94400906D01*
X105244474Y-94400906D02*
X105177807Y-94467573D01*
X105177807Y-94467573D02*
X105144474Y-94600906D01*
X105144474Y-94600906D02*
X105144474Y-94834240D01*
X105144474Y-94834240D02*
X105177807Y-94967573D01*
X105177807Y-94967573D02*
X105244474Y-95034240D01*
X105244474Y-95034240D02*
X105311140Y-95067573D01*
X105311140Y-95067573D02*
X105444474Y-95067573D01*
X105444474Y-95067573D02*
X105511140Y-95034240D01*
X105511140Y-95034240D02*
X105577807Y-94967573D01*
X105577807Y-94967573D02*
X105611140Y-94834240D01*
X105611140Y-94834240D02*
X105611140Y-94600906D01*
X105611140Y-94600906D02*
X105577807Y-94467573D01*
X105577807Y-94467573D02*
X105511140Y-94400906D01*
X105511140Y-94400906D02*
X105444474Y-94367573D01*
X104944474Y-94367573D02*
X104544474Y-94367573D01*
X104744474Y-95067573D02*
X104744474Y-94367573D01*
D11*
X106934649Y-92296533D02*
X106934649Y-91596533D01*
X106934649Y-91596533D02*
X106667982Y-91596533D01*
X106667982Y-91596533D02*
X106601316Y-91629866D01*
X106601316Y-91629866D02*
X106567982Y-91663200D01*
X106567982Y-91663200D02*
X106534649Y-91729866D01*
X106534649Y-91729866D02*
X106534649Y-91829866D01*
X106534649Y-91829866D02*
X106567982Y-91896533D01*
X106567982Y-91896533D02*
X106601316Y-91929866D01*
X106601316Y-91929866D02*
X106667982Y-91963200D01*
X106667982Y-91963200D02*
X106934649Y-91963200D01*
X105867982Y-91629866D02*
X105934649Y-91596533D01*
X105934649Y-91596533D02*
X106034649Y-91596533D01*
X106034649Y-91596533D02*
X106134649Y-91629866D01*
X106134649Y-91629866D02*
X106201316Y-91696533D01*
X106201316Y-91696533D02*
X106234649Y-91763200D01*
X106234649Y-91763200D02*
X106267982Y-91896533D01*
X106267982Y-91896533D02*
X106267982Y-91996533D01*
X106267982Y-91996533D02*
X106234649Y-92129866D01*
X106234649Y-92129866D02*
X106201316Y-92196533D01*
X106201316Y-92196533D02*
X106134649Y-92263200D01*
X106134649Y-92263200D02*
X106034649Y-92296533D01*
X106034649Y-92296533D02*
X105967982Y-92296533D01*
X105967982Y-92296533D02*
X105867982Y-92263200D01*
X105867982Y-92263200D02*
X105834649Y-92229866D01*
X105834649Y-92229866D02*
X105834649Y-91996533D01*
X105834649Y-91996533D02*
X105967982Y-91996533D01*
X105534649Y-92296533D02*
X105534649Y-91596533D01*
X105534649Y-91596533D02*
X105134649Y-92296533D01*
X105134649Y-92296533D02*
X105134649Y-91596533D01*
X104801316Y-92296533D02*
X104801316Y-91596533D01*
X104801316Y-91596533D02*
X104634649Y-91596533D01*
X104634649Y-91596533D02*
X104534649Y-91629866D01*
X104534649Y-91629866D02*
X104467983Y-91696533D01*
X104467983Y-91696533D02*
X104434649Y-91763200D01*
X104434649Y-91763200D02*
X104401316Y-91896533D01*
X104401316Y-91896533D02*
X104401316Y-91996533D01*
X104401316Y-91996533D02*
X104434649Y-92129866D01*
X104434649Y-92129866D02*
X104467983Y-92196533D01*
X104467983Y-92196533D02*
X104534649Y-92263200D01*
X104534649Y-92263200D02*
X104634649Y-92296533D01*
X104634649Y-92296533D02*
X104801316Y-92296533D01*
D12*
X118671428Y-62517760D02*
X118557142Y-62555855D01*
X118557142Y-62555855D02*
X118366666Y-62555855D01*
X118366666Y-62555855D02*
X118290475Y-62517760D01*
X118290475Y-62517760D02*
X118252380Y-62479664D01*
X118252380Y-62479664D02*
X118214285Y-62403474D01*
X118214285Y-62403474D02*
X118214285Y-62327283D01*
X118214285Y-62327283D02*
X118252380Y-62251093D01*
X118252380Y-62251093D02*
X118290475Y-62212998D01*
X118290475Y-62212998D02*
X118366666Y-62174902D01*
X118366666Y-62174902D02*
X118519047Y-62136807D01*
X118519047Y-62136807D02*
X118595237Y-62098712D01*
X118595237Y-62098712D02*
X118633332Y-62060617D01*
X118633332Y-62060617D02*
X118671428Y-61984426D01*
X118671428Y-61984426D02*
X118671428Y-61908236D01*
X118671428Y-61908236D02*
X118633332Y-61832045D01*
X118633332Y-61832045D02*
X118595237Y-61793950D01*
X118595237Y-61793950D02*
X118519047Y-61755855D01*
X118519047Y-61755855D02*
X118328570Y-61755855D01*
X118328570Y-61755855D02*
X118214285Y-61793950D01*
X117909523Y-62327283D02*
X117528570Y-62327283D01*
X117985713Y-62555855D02*
X117719046Y-61755855D01*
X117719046Y-61755855D02*
X117452380Y-62555855D01*
X123808571Y-62517760D02*
X123694285Y-62555855D01*
X123694285Y-62555855D02*
X123503809Y-62555855D01*
X123503809Y-62555855D02*
X123427618Y-62517760D01*
X123427618Y-62517760D02*
X123389523Y-62479664D01*
X123389523Y-62479664D02*
X123351428Y-62403474D01*
X123351428Y-62403474D02*
X123351428Y-62327283D01*
X123351428Y-62327283D02*
X123389523Y-62251093D01*
X123389523Y-62251093D02*
X123427618Y-62212998D01*
X123427618Y-62212998D02*
X123503809Y-62174902D01*
X123503809Y-62174902D02*
X123656190Y-62136807D01*
X123656190Y-62136807D02*
X123732380Y-62098712D01*
X123732380Y-62098712D02*
X123770475Y-62060617D01*
X123770475Y-62060617D02*
X123808571Y-61984426D01*
X123808571Y-61984426D02*
X123808571Y-61908236D01*
X123808571Y-61908236D02*
X123770475Y-61832045D01*
X123770475Y-61832045D02*
X123732380Y-61793950D01*
X123732380Y-61793950D02*
X123656190Y-61755855D01*
X123656190Y-61755855D02*
X123465713Y-61755855D01*
X123465713Y-61755855D02*
X123351428Y-61793950D01*
X122551427Y-62479664D02*
X122589523Y-62517760D01*
X122589523Y-62517760D02*
X122703808Y-62555855D01*
X122703808Y-62555855D02*
X122779999Y-62555855D01*
X122779999Y-62555855D02*
X122894285Y-62517760D01*
X122894285Y-62517760D02*
X122970475Y-62441569D01*
X122970475Y-62441569D02*
X123008570Y-62365379D01*
X123008570Y-62365379D02*
X123046666Y-62212998D01*
X123046666Y-62212998D02*
X123046666Y-62098712D01*
X123046666Y-62098712D02*
X123008570Y-61946331D01*
X123008570Y-61946331D02*
X122970475Y-61870140D01*
X122970475Y-61870140D02*
X122894285Y-61793950D01*
X122894285Y-61793950D02*
X122779999Y-61755855D01*
X122779999Y-61755855D02*
X122703808Y-61755855D01*
X122703808Y-61755855D02*
X122589523Y-61793950D01*
X122589523Y-61793950D02*
X122551427Y-61832045D01*
X121268571Y-62517760D02*
X121154285Y-62555855D01*
X121154285Y-62555855D02*
X120963809Y-62555855D01*
X120963809Y-62555855D02*
X120887618Y-62517760D01*
X120887618Y-62517760D02*
X120849523Y-62479664D01*
X120849523Y-62479664D02*
X120811428Y-62403474D01*
X120811428Y-62403474D02*
X120811428Y-62327283D01*
X120811428Y-62327283D02*
X120849523Y-62251093D01*
X120849523Y-62251093D02*
X120887618Y-62212998D01*
X120887618Y-62212998D02*
X120963809Y-62174902D01*
X120963809Y-62174902D02*
X121116190Y-62136807D01*
X121116190Y-62136807D02*
X121192380Y-62098712D01*
X121192380Y-62098712D02*
X121230475Y-62060617D01*
X121230475Y-62060617D02*
X121268571Y-61984426D01*
X121268571Y-61984426D02*
X121268571Y-61908236D01*
X121268571Y-61908236D02*
X121230475Y-61832045D01*
X121230475Y-61832045D02*
X121192380Y-61793950D01*
X121192380Y-61793950D02*
X121116190Y-61755855D01*
X121116190Y-61755855D02*
X120925713Y-61755855D01*
X120925713Y-61755855D02*
X120811428Y-61793950D01*
X120201904Y-62136807D02*
X120087618Y-62174902D01*
X120087618Y-62174902D02*
X120049523Y-62212998D01*
X120049523Y-62212998D02*
X120011427Y-62289188D01*
X120011427Y-62289188D02*
X120011427Y-62403474D01*
X120011427Y-62403474D02*
X120049523Y-62479664D01*
X120049523Y-62479664D02*
X120087618Y-62517760D01*
X120087618Y-62517760D02*
X120163808Y-62555855D01*
X120163808Y-62555855D02*
X120468570Y-62555855D01*
X120468570Y-62555855D02*
X120468570Y-61755855D01*
X120468570Y-61755855D02*
X120201904Y-61755855D01*
X120201904Y-61755855D02*
X120125713Y-61793950D01*
X120125713Y-61793950D02*
X120087618Y-61832045D01*
X120087618Y-61832045D02*
X120049523Y-61908236D01*
X120049523Y-61908236D02*
X120049523Y-61984426D01*
X120049523Y-61984426D02*
X120087618Y-62060617D01*
X120087618Y-62060617D02*
X120125713Y-62098712D01*
X120125713Y-62098712D02*
X120201904Y-62136807D01*
X120201904Y-62136807D02*
X120468570Y-62136807D01*
D11*
X112174649Y-62256533D02*
X112174649Y-61556533D01*
X112174649Y-61556533D02*
X111941316Y-62056533D01*
X111941316Y-62056533D02*
X111707982Y-61556533D01*
X111707982Y-61556533D02*
X111707982Y-62256533D01*
X111374649Y-62256533D02*
X111374649Y-61556533D01*
X111074649Y-62223200D02*
X110974649Y-62256533D01*
X110974649Y-62256533D02*
X110807983Y-62256533D01*
X110807983Y-62256533D02*
X110741316Y-62223200D01*
X110741316Y-62223200D02*
X110707983Y-62189866D01*
X110707983Y-62189866D02*
X110674649Y-62123200D01*
X110674649Y-62123200D02*
X110674649Y-62056533D01*
X110674649Y-62056533D02*
X110707983Y-61989866D01*
X110707983Y-61989866D02*
X110741316Y-61956533D01*
X110741316Y-61956533D02*
X110807983Y-61923200D01*
X110807983Y-61923200D02*
X110941316Y-61889866D01*
X110941316Y-61889866D02*
X111007983Y-61856533D01*
X111007983Y-61856533D02*
X111041316Y-61823200D01*
X111041316Y-61823200D02*
X111074649Y-61756533D01*
X111074649Y-61756533D02*
X111074649Y-61689866D01*
X111074649Y-61689866D02*
X111041316Y-61623200D01*
X111041316Y-61623200D02*
X111007983Y-61589866D01*
X111007983Y-61589866D02*
X110941316Y-61556533D01*
X110941316Y-61556533D02*
X110774649Y-61556533D01*
X110774649Y-61556533D02*
X110674649Y-61589866D01*
X110241316Y-61556533D02*
X110107982Y-61556533D01*
X110107982Y-61556533D02*
X110041316Y-61589866D01*
X110041316Y-61589866D02*
X109974649Y-61656533D01*
X109974649Y-61656533D02*
X109941316Y-61789866D01*
X109941316Y-61789866D02*
X109941316Y-62023200D01*
X109941316Y-62023200D02*
X109974649Y-62156533D01*
X109974649Y-62156533D02*
X110041316Y-62223200D01*
X110041316Y-62223200D02*
X110107982Y-62256533D01*
X110107982Y-62256533D02*
X110241316Y-62256533D01*
X110241316Y-62256533D02*
X110307982Y-62223200D01*
X110307982Y-62223200D02*
X110374649Y-62156533D01*
X110374649Y-62156533D02*
X110407982Y-62023200D01*
X110407982Y-62023200D02*
X110407982Y-61789866D01*
X110407982Y-61789866D02*
X110374649Y-61656533D01*
X110374649Y-61656533D02*
X110307982Y-61589866D01*
X110307982Y-61589866D02*
X110241316Y-61556533D01*
X109174649Y-62216533D02*
X109174649Y-61516533D01*
X109174649Y-61516533D02*
X108941316Y-62016533D01*
X108941316Y-62016533D02*
X108707982Y-61516533D01*
X108707982Y-61516533D02*
X108707982Y-62216533D01*
X108241316Y-61516533D02*
X108107982Y-61516533D01*
X108107982Y-61516533D02*
X108041316Y-61549866D01*
X108041316Y-61549866D02*
X107974649Y-61616533D01*
X107974649Y-61616533D02*
X107941316Y-61749866D01*
X107941316Y-61749866D02*
X107941316Y-61983200D01*
X107941316Y-61983200D02*
X107974649Y-62116533D01*
X107974649Y-62116533D02*
X108041316Y-62183200D01*
X108041316Y-62183200D02*
X108107982Y-62216533D01*
X108107982Y-62216533D02*
X108241316Y-62216533D01*
X108241316Y-62216533D02*
X108307982Y-62183200D01*
X108307982Y-62183200D02*
X108374649Y-62116533D01*
X108374649Y-62116533D02*
X108407982Y-61983200D01*
X108407982Y-61983200D02*
X108407982Y-61749866D01*
X108407982Y-61749866D02*
X108374649Y-61616533D01*
X108374649Y-61616533D02*
X108307982Y-61549866D01*
X108307982Y-61549866D02*
X108241316Y-61516533D01*
X107674649Y-62183200D02*
X107574649Y-62216533D01*
X107574649Y-62216533D02*
X107407983Y-62216533D01*
X107407983Y-62216533D02*
X107341316Y-62183200D01*
X107341316Y-62183200D02*
X107307983Y-62149866D01*
X107307983Y-62149866D02*
X107274649Y-62083200D01*
X107274649Y-62083200D02*
X107274649Y-62016533D01*
X107274649Y-62016533D02*
X107307983Y-61949866D01*
X107307983Y-61949866D02*
X107341316Y-61916533D01*
X107341316Y-61916533D02*
X107407983Y-61883200D01*
X107407983Y-61883200D02*
X107541316Y-61849866D01*
X107541316Y-61849866D02*
X107607983Y-61816533D01*
X107607983Y-61816533D02*
X107641316Y-61783200D01*
X107641316Y-61783200D02*
X107674649Y-61716533D01*
X107674649Y-61716533D02*
X107674649Y-61649866D01*
X107674649Y-61649866D02*
X107641316Y-61583200D01*
X107641316Y-61583200D02*
X107607983Y-61549866D01*
X107607983Y-61549866D02*
X107541316Y-61516533D01*
X107541316Y-61516533D02*
X107374649Y-61516533D01*
X107374649Y-61516533D02*
X107274649Y-61549866D01*
X106974649Y-62216533D02*
X106974649Y-61516533D01*
X103154649Y-62129866D02*
X103187982Y-62163200D01*
X103187982Y-62163200D02*
X103287982Y-62196533D01*
X103287982Y-62196533D02*
X103354649Y-62196533D01*
X103354649Y-62196533D02*
X103454649Y-62163200D01*
X103454649Y-62163200D02*
X103521316Y-62096533D01*
X103521316Y-62096533D02*
X103554649Y-62029866D01*
X103554649Y-62029866D02*
X103587982Y-61896533D01*
X103587982Y-61896533D02*
X103587982Y-61796533D01*
X103587982Y-61796533D02*
X103554649Y-61663200D01*
X103554649Y-61663200D02*
X103521316Y-61596533D01*
X103521316Y-61596533D02*
X103454649Y-61529866D01*
X103454649Y-61529866D02*
X103354649Y-61496533D01*
X103354649Y-61496533D02*
X103287982Y-61496533D01*
X103287982Y-61496533D02*
X103187982Y-61529866D01*
X103187982Y-61529866D02*
X103154649Y-61563200D01*
X102887982Y-62163200D02*
X102787982Y-62196533D01*
X102787982Y-62196533D02*
X102621316Y-62196533D01*
X102621316Y-62196533D02*
X102554649Y-62163200D01*
X102554649Y-62163200D02*
X102521316Y-62129866D01*
X102521316Y-62129866D02*
X102487982Y-62063200D01*
X102487982Y-62063200D02*
X102487982Y-61996533D01*
X102487982Y-61996533D02*
X102521316Y-61929866D01*
X102521316Y-61929866D02*
X102554649Y-61896533D01*
X102554649Y-61896533D02*
X102621316Y-61863200D01*
X102621316Y-61863200D02*
X102754649Y-61829866D01*
X102754649Y-61829866D02*
X102821316Y-61796533D01*
X102821316Y-61796533D02*
X102854649Y-61763200D01*
X102854649Y-61763200D02*
X102887982Y-61696533D01*
X102887982Y-61696533D02*
X102887982Y-61629866D01*
X102887982Y-61629866D02*
X102854649Y-61563200D01*
X102854649Y-61563200D02*
X102821316Y-61529866D01*
X102821316Y-61529866D02*
X102754649Y-61496533D01*
X102754649Y-61496533D02*
X102587982Y-61496533D01*
X102587982Y-61496533D02*
X102487982Y-61529866D01*
X105774649Y-62119866D02*
X105807982Y-62153200D01*
X105807982Y-62153200D02*
X105907982Y-62186533D01*
X105907982Y-62186533D02*
X105974649Y-62186533D01*
X105974649Y-62186533D02*
X106074649Y-62153200D01*
X106074649Y-62153200D02*
X106141316Y-62086533D01*
X106141316Y-62086533D02*
X106174649Y-62019866D01*
X106174649Y-62019866D02*
X106207982Y-61886533D01*
X106207982Y-61886533D02*
X106207982Y-61786533D01*
X106207982Y-61786533D02*
X106174649Y-61653200D01*
X106174649Y-61653200D02*
X106141316Y-61586533D01*
X106141316Y-61586533D02*
X106074649Y-61519866D01*
X106074649Y-61519866D02*
X105974649Y-61486533D01*
X105974649Y-61486533D02*
X105907982Y-61486533D01*
X105907982Y-61486533D02*
X105807982Y-61519866D01*
X105807982Y-61519866D02*
X105774649Y-61553200D01*
X105141316Y-62186533D02*
X105474649Y-62186533D01*
X105474649Y-62186533D02*
X105474649Y-61486533D01*
X104907982Y-62186533D02*
X104907982Y-61486533D01*
X104507982Y-62186533D02*
X104807982Y-61786533D01*
X104507982Y-61486533D02*
X104907982Y-61886533D01*
X102164649Y-62699866D02*
X102164649Y-63166533D01*
X102164649Y-62766533D02*
X102131316Y-62733200D01*
X102131316Y-62733200D02*
X102064649Y-62699866D01*
X102064649Y-62699866D02*
X101964649Y-62699866D01*
X101964649Y-62699866D02*
X101897982Y-62733200D01*
X101897982Y-62733200D02*
X101864649Y-62799866D01*
X101864649Y-62799866D02*
X101864649Y-63166533D01*
X101297983Y-62799866D02*
X101531316Y-62799866D01*
X101531316Y-63166533D02*
X101531316Y-62466533D01*
X101531316Y-62466533D02*
X101197983Y-62466533D01*
X100597983Y-63166533D02*
X100931316Y-63166533D01*
X100931316Y-63166533D02*
X100931316Y-62466533D01*
X100464649Y-62466533D02*
X100064649Y-62466533D01*
X100264649Y-63166533D02*
X100264649Y-62466533D01*
X105554649Y-63156533D02*
X105554649Y-62456533D01*
X105554649Y-62456533D02*
X105321316Y-62956533D01*
X105321316Y-62956533D02*
X105087982Y-62456533D01*
X105087982Y-62456533D02*
X105087982Y-63156533D01*
X104921316Y-63223200D02*
X104387982Y-63223200D01*
X104221316Y-62789866D02*
X103987983Y-62789866D01*
X103887983Y-63156533D02*
X104221316Y-63156533D01*
X104221316Y-63156533D02*
X104221316Y-62456533D01*
X104221316Y-62456533D02*
X103887983Y-62456533D01*
X103587983Y-63156533D02*
X103587983Y-62456533D01*
X103587983Y-62456533D02*
X103187983Y-63156533D01*
X103187983Y-63156533D02*
X103187983Y-62456533D01*
X104271316Y-73666533D02*
X104604649Y-73666533D01*
X104604649Y-73666533D02*
X104604649Y-72966533D01*
X103904649Y-72966533D02*
X103771315Y-72966533D01*
X103771315Y-72966533D02*
X103704649Y-72999866D01*
X103704649Y-72999866D02*
X103637982Y-73066533D01*
X103637982Y-73066533D02*
X103604649Y-73199866D01*
X103604649Y-73199866D02*
X103604649Y-73433200D01*
X103604649Y-73433200D02*
X103637982Y-73566533D01*
X103637982Y-73566533D02*
X103704649Y-73633200D01*
X103704649Y-73633200D02*
X103771315Y-73666533D01*
X103771315Y-73666533D02*
X103904649Y-73666533D01*
X103904649Y-73666533D02*
X103971315Y-73633200D01*
X103971315Y-73633200D02*
X104037982Y-73566533D01*
X104037982Y-73566533D02*
X104071315Y-73433200D01*
X104071315Y-73433200D02*
X104071315Y-73199866D01*
X104071315Y-73199866D02*
X104037982Y-73066533D01*
X104037982Y-73066533D02*
X103971315Y-72999866D01*
X103971315Y-72999866D02*
X103904649Y-72966533D01*
X106357982Y-75498533D02*
X106024649Y-75498533D01*
X106424649Y-75698533D02*
X106191316Y-74998533D01*
X106191316Y-74998533D02*
X105957982Y-75698533D01*
X105874649Y-80791866D02*
X105907982Y-80825200D01*
X105907982Y-80825200D02*
X106007982Y-80858533D01*
X106007982Y-80858533D02*
X106074649Y-80858533D01*
X106074649Y-80858533D02*
X106174649Y-80825200D01*
X106174649Y-80825200D02*
X106241316Y-80758533D01*
X106241316Y-80758533D02*
X106274649Y-80691866D01*
X106274649Y-80691866D02*
X106307982Y-80558533D01*
X106307982Y-80558533D02*
X106307982Y-80458533D01*
X106307982Y-80458533D02*
X106274649Y-80325200D01*
X106274649Y-80325200D02*
X106241316Y-80258533D01*
X106241316Y-80258533D02*
X106174649Y-80191866D01*
X106174649Y-80191866D02*
X106074649Y-80158533D01*
X106074649Y-80158533D02*
X106007982Y-80158533D01*
X106007982Y-80158533D02*
X105907982Y-80191866D01*
X105907982Y-80191866D02*
X105874649Y-80225200D01*
X101834649Y-73696533D02*
X101834649Y-72996533D01*
X101834649Y-73329866D02*
X101434649Y-73329866D01*
X101434649Y-73696533D02*
X101434649Y-72996533D01*
X101101316Y-73696533D02*
X101101316Y-72996533D01*
X105981316Y-77901866D02*
X105881316Y-77935200D01*
X105881316Y-77935200D02*
X105847982Y-77968533D01*
X105847982Y-77968533D02*
X105814649Y-78035200D01*
X105814649Y-78035200D02*
X105814649Y-78135200D01*
X105814649Y-78135200D02*
X105847982Y-78201866D01*
X105847982Y-78201866D02*
X105881316Y-78235200D01*
X105881316Y-78235200D02*
X105947982Y-78268533D01*
X105947982Y-78268533D02*
X106214649Y-78268533D01*
X106214649Y-78268533D02*
X106214649Y-77568533D01*
X106214649Y-77568533D02*
X105981316Y-77568533D01*
X105981316Y-77568533D02*
X105914649Y-77601866D01*
X105914649Y-77601866D02*
X105881316Y-77635200D01*
X105881316Y-77635200D02*
X105847982Y-77701866D01*
X105847982Y-77701866D02*
X105847982Y-77768533D01*
X105847982Y-77768533D02*
X105881316Y-77835200D01*
X105881316Y-77835200D02*
X105914649Y-77868533D01*
X105914649Y-77868533D02*
X105981316Y-77901866D01*
X105981316Y-77901866D02*
X106214649Y-77901866D01*
D13*
X100180000Y-74180000D02*
X105260000Y-74180000D01*
X105260000Y-81800000D01*
X100180000Y-81800000D01*
X100180000Y-74180000D01*
X100180000Y-74180000D02*
X102720000Y-74180000D01*
X102720000Y-81800000D01*
X100180000Y-81800000D01*
X100180000Y-74180000D01*
X100180000Y-74180000D02*
X102720000Y-74180000D01*
X102720000Y-76720000D01*
X100180000Y-76720000D01*
X100180000Y-74180000D01*
X137507544Y-91439133D02*
X137274211Y-92139133D01*
X137274211Y-92139133D02*
X137040877Y-91439133D01*
X136807544Y-92139133D02*
X136807544Y-91439133D01*
X136807544Y-91439133D02*
X136574211Y-91939133D01*
X136574211Y-91939133D02*
X136340877Y-91439133D01*
X136340877Y-91439133D02*
X136340877Y-92139133D01*
X135874211Y-91439133D02*
X135740877Y-91439133D01*
X135740877Y-91439133D02*
X135674211Y-91472466D01*
X135674211Y-91472466D02*
X135607544Y-91539133D01*
X135607544Y-91539133D02*
X135574211Y-91672466D01*
X135574211Y-91672466D02*
X135574211Y-91905800D01*
X135574211Y-91905800D02*
X135607544Y-92039133D01*
X135607544Y-92039133D02*
X135674211Y-92105800D01*
X135674211Y-92105800D02*
X135740877Y-92139133D01*
X135740877Y-92139133D02*
X135874211Y-92139133D01*
X135874211Y-92139133D02*
X135940877Y-92105800D01*
X135940877Y-92105800D02*
X136007544Y-92039133D01*
X136007544Y-92039133D02*
X136040877Y-91905800D01*
X136040877Y-91905800D02*
X136040877Y-91672466D01*
X136040877Y-91672466D02*
X136007544Y-91539133D01*
X136007544Y-91539133D02*
X135940877Y-91472466D01*
X135940877Y-91472466D02*
X135874211Y-91439133D01*
X135374211Y-91439133D02*
X134974211Y-91439133D01*
X135174211Y-92139133D02*
X135174211Y-91439133D01*
D11*
X146761316Y-75459866D02*
X146661316Y-75493200D01*
X146661316Y-75493200D02*
X146627982Y-75526533D01*
X146627982Y-75526533D02*
X146594649Y-75593200D01*
X146594649Y-75593200D02*
X146594649Y-75693200D01*
X146594649Y-75693200D02*
X146627982Y-75759866D01*
X146627982Y-75759866D02*
X146661316Y-75793200D01*
X146661316Y-75793200D02*
X146727982Y-75826533D01*
X146727982Y-75826533D02*
X146994649Y-75826533D01*
X146994649Y-75826533D02*
X146994649Y-75126533D01*
X146994649Y-75126533D02*
X146761316Y-75126533D01*
X146761316Y-75126533D02*
X146694649Y-75159866D01*
X146694649Y-75159866D02*
X146661316Y-75193200D01*
X146661316Y-75193200D02*
X146627982Y-75259866D01*
X146627982Y-75259866D02*
X146627982Y-75326533D01*
X146627982Y-75326533D02*
X146661316Y-75393200D01*
X146661316Y-75393200D02*
X146694649Y-75426533D01*
X146694649Y-75426533D02*
X146761316Y-75459866D01*
X146761316Y-75459866D02*
X146994649Y-75459866D01*
D13*
X113880877Y-63305800D02*
X113780877Y-63339133D01*
X113780877Y-63339133D02*
X113614211Y-63339133D01*
X113614211Y-63339133D02*
X113547544Y-63305800D01*
X113547544Y-63305800D02*
X113514211Y-63272466D01*
X113514211Y-63272466D02*
X113480877Y-63205800D01*
X113480877Y-63205800D02*
X113480877Y-63139133D01*
X113480877Y-63139133D02*
X113514211Y-63072466D01*
X113514211Y-63072466D02*
X113547544Y-63039133D01*
X113547544Y-63039133D02*
X113614211Y-63005800D01*
X113614211Y-63005800D02*
X113747544Y-62972466D01*
X113747544Y-62972466D02*
X113814211Y-62939133D01*
X113814211Y-62939133D02*
X113847544Y-62905800D01*
X113847544Y-62905800D02*
X113880877Y-62839133D01*
X113880877Y-62839133D02*
X113880877Y-62772466D01*
X113880877Y-62772466D02*
X113847544Y-62705800D01*
X113847544Y-62705800D02*
X113814211Y-62672466D01*
X113814211Y-62672466D02*
X113747544Y-62639133D01*
X113747544Y-62639133D02*
X113580877Y-62639133D01*
X113580877Y-62639133D02*
X113480877Y-62672466D01*
X113180877Y-63339133D02*
X113180877Y-62639133D01*
X113180877Y-62639133D02*
X112914210Y-62639133D01*
X112914210Y-62639133D02*
X112847544Y-62672466D01*
X112847544Y-62672466D02*
X112814210Y-62705800D01*
X112814210Y-62705800D02*
X112780877Y-62772466D01*
X112780877Y-62772466D02*
X112780877Y-62872466D01*
X112780877Y-62872466D02*
X112814210Y-62939133D01*
X112814210Y-62939133D02*
X112847544Y-62972466D01*
X112847544Y-62972466D02*
X112914210Y-63005800D01*
X112914210Y-63005800D02*
X113180877Y-63005800D01*
X112480877Y-63339133D02*
X112480877Y-62639133D01*
X111314211Y-63305800D02*
X111380878Y-63339133D01*
X111380878Y-63339133D02*
X111514211Y-63339133D01*
X111514211Y-63339133D02*
X111580878Y-63305800D01*
X111580878Y-63305800D02*
X111614211Y-63272466D01*
X111614211Y-63272466D02*
X111647544Y-63205800D01*
X111647544Y-63205800D02*
X111647544Y-63005800D01*
X111647544Y-63005800D02*
X111614211Y-62939133D01*
X111614211Y-62939133D02*
X111580878Y-62905800D01*
X111580878Y-62905800D02*
X111514211Y-62872466D01*
X111514211Y-62872466D02*
X111380878Y-62872466D01*
X111380878Y-62872466D02*
X111314211Y-62905800D01*
X110914211Y-63339133D02*
X110980878Y-63305800D01*
X110980878Y-63305800D02*
X111014211Y-63272466D01*
X111014211Y-63272466D02*
X111047544Y-63205800D01*
X111047544Y-63205800D02*
X111047544Y-63005800D01*
X111047544Y-63005800D02*
X111014211Y-62939133D01*
X111014211Y-62939133D02*
X110980878Y-62905800D01*
X110980878Y-62905800D02*
X110914211Y-62872466D01*
X110914211Y-62872466D02*
X110814211Y-62872466D01*
X110814211Y-62872466D02*
X110747544Y-62905800D01*
X110747544Y-62905800D02*
X110714211Y-62939133D01*
X110714211Y-62939133D02*
X110680878Y-63005800D01*
X110680878Y-63005800D02*
X110680878Y-63205800D01*
X110680878Y-63205800D02*
X110714211Y-63272466D01*
X110714211Y-63272466D02*
X110747544Y-63305800D01*
X110747544Y-63305800D02*
X110814211Y-63339133D01*
X110814211Y-63339133D02*
X110914211Y-63339133D01*
X110380878Y-62872466D02*
X110380878Y-63339133D01*
X110380878Y-62939133D02*
X110347545Y-62905800D01*
X110347545Y-62905800D02*
X110280878Y-62872466D01*
X110280878Y-62872466D02*
X110180878Y-62872466D01*
X110180878Y-62872466D02*
X110114211Y-62905800D01*
X110114211Y-62905800D02*
X110080878Y-62972466D01*
X110080878Y-62972466D02*
X110080878Y-63339133D01*
X109847545Y-62872466D02*
X109580878Y-62872466D01*
X109747545Y-63339133D02*
X109747545Y-62739133D01*
X109747545Y-62739133D02*
X109714212Y-62672466D01*
X109714212Y-62672466D02*
X109647545Y-62639133D01*
X109647545Y-62639133D02*
X109580878Y-62639133D01*
X109347545Y-63339133D02*
X109347545Y-62872466D01*
X109347545Y-62639133D02*
X109380878Y-62672466D01*
X109380878Y-62672466D02*
X109347545Y-62705800D01*
X109347545Y-62705800D02*
X109314212Y-62672466D01*
X109314212Y-62672466D02*
X109347545Y-62639133D01*
X109347545Y-62639133D02*
X109347545Y-62705800D01*
X108714212Y-62872466D02*
X108714212Y-63439133D01*
X108714212Y-63439133D02*
X108747545Y-63505800D01*
X108747545Y-63505800D02*
X108780879Y-63539133D01*
X108780879Y-63539133D02*
X108847545Y-63572466D01*
X108847545Y-63572466D02*
X108947545Y-63572466D01*
X108947545Y-63572466D02*
X109014212Y-63539133D01*
X108714212Y-63305800D02*
X108780879Y-63339133D01*
X108780879Y-63339133D02*
X108914212Y-63339133D01*
X108914212Y-63339133D02*
X108980879Y-63305800D01*
X108980879Y-63305800D02*
X109014212Y-63272466D01*
X109014212Y-63272466D02*
X109047545Y-63205800D01*
X109047545Y-63205800D02*
X109047545Y-63005800D01*
X109047545Y-63005800D02*
X109014212Y-62939133D01*
X109014212Y-62939133D02*
X108980879Y-62905800D01*
X108980879Y-62905800D02*
X108914212Y-62872466D01*
X108914212Y-62872466D02*
X108780879Y-62872466D01*
X108780879Y-62872466D02*
X108714212Y-62905800D01*
X123429999Y-64005505D02*
X123463332Y-64038839D01*
X123463332Y-64038839D02*
X123563332Y-64072172D01*
X123563332Y-64072172D02*
X123629999Y-64072172D01*
X123629999Y-64072172D02*
X123729999Y-64038839D01*
X123729999Y-64038839D02*
X123796666Y-63972172D01*
X123796666Y-63972172D02*
X123829999Y-63905505D01*
X123829999Y-63905505D02*
X123863332Y-63772172D01*
X123863332Y-63772172D02*
X123863332Y-63672172D01*
X123863332Y-63672172D02*
X123829999Y-63538839D01*
X123829999Y-63538839D02*
X123796666Y-63472172D01*
X123796666Y-63472172D02*
X123729999Y-63405505D01*
X123729999Y-63405505D02*
X123629999Y-63372172D01*
X123629999Y-63372172D02*
X123563332Y-63372172D01*
X123563332Y-63372172D02*
X123463332Y-63405505D01*
X123463332Y-63405505D02*
X123429999Y-63438839D01*
X122829999Y-63605505D02*
X122829999Y-64072172D01*
X123129999Y-63605505D02*
X123129999Y-63972172D01*
X123129999Y-63972172D02*
X123096666Y-64038839D01*
X123096666Y-64038839D02*
X123029999Y-64072172D01*
X123029999Y-64072172D02*
X122929999Y-64072172D01*
X122929999Y-64072172D02*
X122863332Y-64038839D01*
X122863332Y-64038839D02*
X122829999Y-64005505D01*
X122496666Y-64072172D02*
X122496666Y-63605505D01*
X122496666Y-63738839D02*
X122463333Y-63672172D01*
X122463333Y-63672172D02*
X122429999Y-63638839D01*
X122429999Y-63638839D02*
X122363333Y-63605505D01*
X122363333Y-63605505D02*
X122296666Y-63605505D01*
X122063333Y-64072172D02*
X122063333Y-63605505D01*
X122063333Y-63738839D02*
X122030000Y-63672172D01*
X122030000Y-63672172D02*
X121996666Y-63638839D01*
X121996666Y-63638839D02*
X121930000Y-63605505D01*
X121930000Y-63605505D02*
X121863333Y-63605505D01*
X121363333Y-64038839D02*
X121430000Y-64072172D01*
X121430000Y-64072172D02*
X121563333Y-64072172D01*
X121563333Y-64072172D02*
X121630000Y-64038839D01*
X121630000Y-64038839D02*
X121663333Y-63972172D01*
X121663333Y-63972172D02*
X121663333Y-63705505D01*
X121663333Y-63705505D02*
X121630000Y-63638839D01*
X121630000Y-63638839D02*
X121563333Y-63605505D01*
X121563333Y-63605505D02*
X121430000Y-63605505D01*
X121430000Y-63605505D02*
X121363333Y-63638839D01*
X121363333Y-63638839D02*
X121330000Y-63705505D01*
X121330000Y-63705505D02*
X121330000Y-63772172D01*
X121330000Y-63772172D02*
X121663333Y-63838839D01*
X121030000Y-63605505D02*
X121030000Y-64072172D01*
X121030000Y-63672172D02*
X120996667Y-63638839D01*
X120996667Y-63638839D02*
X120930000Y-63605505D01*
X120930000Y-63605505D02*
X120830000Y-63605505D01*
X120830000Y-63605505D02*
X120763333Y-63638839D01*
X120763333Y-63638839D02*
X120730000Y-63705505D01*
X120730000Y-63705505D02*
X120730000Y-64072172D01*
X120496667Y-63605505D02*
X120230000Y-63605505D01*
X120396667Y-63372172D02*
X120396667Y-63972172D01*
X120396667Y-63972172D02*
X120363334Y-64038839D01*
X120363334Y-64038839D02*
X120296667Y-64072172D01*
X120296667Y-64072172D02*
X120230000Y-64072172D01*
X119496667Y-64038839D02*
X119396667Y-64072172D01*
X119396667Y-64072172D02*
X119230001Y-64072172D01*
X119230001Y-64072172D02*
X119163334Y-64038839D01*
X119163334Y-64038839D02*
X119130001Y-64005505D01*
X119130001Y-64005505D02*
X119096667Y-63938839D01*
X119096667Y-63938839D02*
X119096667Y-63872172D01*
X119096667Y-63872172D02*
X119130001Y-63805505D01*
X119130001Y-63805505D02*
X119163334Y-63772172D01*
X119163334Y-63772172D02*
X119230001Y-63738839D01*
X119230001Y-63738839D02*
X119363334Y-63705505D01*
X119363334Y-63705505D02*
X119430001Y-63672172D01*
X119430001Y-63672172D02*
X119463334Y-63638839D01*
X119463334Y-63638839D02*
X119496667Y-63572172D01*
X119496667Y-63572172D02*
X119496667Y-63505505D01*
X119496667Y-63505505D02*
X119463334Y-63438839D01*
X119463334Y-63438839D02*
X119430001Y-63405505D01*
X119430001Y-63405505D02*
X119363334Y-63372172D01*
X119363334Y-63372172D02*
X119196667Y-63372172D01*
X119196667Y-63372172D02*
X119096667Y-63405505D01*
X118530000Y-64038839D02*
X118596667Y-64072172D01*
X118596667Y-64072172D02*
X118730000Y-64072172D01*
X118730000Y-64072172D02*
X118796667Y-64038839D01*
X118796667Y-64038839D02*
X118830000Y-63972172D01*
X118830000Y-63972172D02*
X118830000Y-63705505D01*
X118830000Y-63705505D02*
X118796667Y-63638839D01*
X118796667Y-63638839D02*
X118730000Y-63605505D01*
X118730000Y-63605505D02*
X118596667Y-63605505D01*
X118596667Y-63605505D02*
X118530000Y-63638839D01*
X118530000Y-63638839D02*
X118496667Y-63705505D01*
X118496667Y-63705505D02*
X118496667Y-63772172D01*
X118496667Y-63772172D02*
X118830000Y-63838839D01*
X118196667Y-63605505D02*
X118196667Y-64072172D01*
X118196667Y-63672172D02*
X118163334Y-63638839D01*
X118163334Y-63638839D02*
X118096667Y-63605505D01*
X118096667Y-63605505D02*
X117996667Y-63605505D01*
X117996667Y-63605505D02*
X117930000Y-63638839D01*
X117930000Y-63638839D02*
X117896667Y-63705505D01*
X117896667Y-63705505D02*
X117896667Y-64072172D01*
X117596667Y-64038839D02*
X117530001Y-64072172D01*
X117530001Y-64072172D02*
X117396667Y-64072172D01*
X117396667Y-64072172D02*
X117330001Y-64038839D01*
X117330001Y-64038839D02*
X117296667Y-63972172D01*
X117296667Y-63972172D02*
X117296667Y-63938839D01*
X117296667Y-63938839D02*
X117330001Y-63872172D01*
X117330001Y-63872172D02*
X117396667Y-63838839D01*
X117396667Y-63838839D02*
X117496667Y-63838839D01*
X117496667Y-63838839D02*
X117563334Y-63805505D01*
X117563334Y-63805505D02*
X117596667Y-63738839D01*
X117596667Y-63738839D02*
X117596667Y-63705505D01*
X117596667Y-63705505D02*
X117563334Y-63638839D01*
X117563334Y-63638839D02*
X117496667Y-63605505D01*
X117496667Y-63605505D02*
X117396667Y-63605505D01*
X117396667Y-63605505D02*
X117330001Y-63638839D01*
X116730000Y-64038839D02*
X116796667Y-64072172D01*
X116796667Y-64072172D02*
X116930000Y-64072172D01*
X116930000Y-64072172D02*
X116996667Y-64038839D01*
X116996667Y-64038839D02*
X117030000Y-63972172D01*
X117030000Y-63972172D02*
X117030000Y-63705505D01*
X117030000Y-63705505D02*
X116996667Y-63638839D01*
X116996667Y-63638839D02*
X116930000Y-63605505D01*
X116930000Y-63605505D02*
X116796667Y-63605505D01*
X116796667Y-63605505D02*
X116730000Y-63638839D01*
X116730000Y-63638839D02*
X116696667Y-63705505D01*
X116696667Y-63705505D02*
X116696667Y-63772172D01*
X116696667Y-63772172D02*
X117030000Y-63838839D01*
X124446664Y-64999133D02*
X124113331Y-64999133D01*
X124513331Y-65199133D02*
X124279998Y-64499133D01*
X124279998Y-64499133D02*
X124046664Y-65199133D01*
X123813331Y-65199133D02*
X123813331Y-64732466D01*
X123813331Y-64799133D02*
X123779998Y-64765800D01*
X123779998Y-64765800D02*
X123713331Y-64732466D01*
X123713331Y-64732466D02*
X123613331Y-64732466D01*
X123613331Y-64732466D02*
X123546664Y-64765800D01*
X123546664Y-64765800D02*
X123513331Y-64832466D01*
X123513331Y-64832466D02*
X123513331Y-65199133D01*
X123513331Y-64832466D02*
X123479998Y-64765800D01*
X123479998Y-64765800D02*
X123413331Y-64732466D01*
X123413331Y-64732466D02*
X123313331Y-64732466D01*
X123313331Y-64732466D02*
X123246664Y-64765800D01*
X123246664Y-64765800D02*
X123213331Y-64832466D01*
X123213331Y-64832466D02*
X123213331Y-65199133D01*
X122879998Y-64732466D02*
X122879998Y-65432466D01*
X122879998Y-64765800D02*
X122813331Y-64732466D01*
X122813331Y-64732466D02*
X122679998Y-64732466D01*
X122679998Y-64732466D02*
X122613331Y-64765800D01*
X122613331Y-64765800D02*
X122579998Y-64799133D01*
X122579998Y-64799133D02*
X122546665Y-64865800D01*
X122546665Y-64865800D02*
X122546665Y-65065800D01*
X122546665Y-65065800D02*
X122579998Y-65132466D01*
X122579998Y-65132466D02*
X122613331Y-65165800D01*
X122613331Y-65165800D02*
X122679998Y-65199133D01*
X122679998Y-65199133D02*
X122813331Y-65199133D01*
X122813331Y-65199133D02*
X122879998Y-65165800D01*
X122146665Y-65199133D02*
X122213332Y-65165800D01*
X122213332Y-65165800D02*
X122246665Y-65099133D01*
X122246665Y-65099133D02*
X122246665Y-64499133D01*
X121879998Y-65199133D02*
X121879998Y-64732466D01*
X121879998Y-64499133D02*
X121913331Y-64532466D01*
X121913331Y-64532466D02*
X121879998Y-64565800D01*
X121879998Y-64565800D02*
X121846665Y-64532466D01*
X121846665Y-64532466D02*
X121879998Y-64499133D01*
X121879998Y-64499133D02*
X121879998Y-64565800D01*
X121646665Y-64732466D02*
X121379998Y-64732466D01*
X121546665Y-65199133D02*
X121546665Y-64599133D01*
X121546665Y-64599133D02*
X121513332Y-64532466D01*
X121513332Y-64532466D02*
X121446665Y-64499133D01*
X121446665Y-64499133D02*
X121379998Y-64499133D01*
X121146665Y-65199133D02*
X121146665Y-64732466D01*
X121146665Y-64499133D02*
X121179998Y-64532466D01*
X121179998Y-64532466D02*
X121146665Y-64565800D01*
X121146665Y-64565800D02*
X121113332Y-64532466D01*
X121113332Y-64532466D02*
X121146665Y-64499133D01*
X121146665Y-64499133D02*
X121146665Y-64565800D01*
X120546665Y-65165800D02*
X120613332Y-65199133D01*
X120613332Y-65199133D02*
X120746665Y-65199133D01*
X120746665Y-65199133D02*
X120813332Y-65165800D01*
X120813332Y-65165800D02*
X120846665Y-65099133D01*
X120846665Y-65099133D02*
X120846665Y-64832466D01*
X120846665Y-64832466D02*
X120813332Y-64765800D01*
X120813332Y-64765800D02*
X120746665Y-64732466D01*
X120746665Y-64732466D02*
X120613332Y-64732466D01*
X120613332Y-64732466D02*
X120546665Y-64765800D01*
X120546665Y-64765800D02*
X120513332Y-64832466D01*
X120513332Y-64832466D02*
X120513332Y-64899133D01*
X120513332Y-64899133D02*
X120846665Y-64965800D01*
X120213332Y-65199133D02*
X120213332Y-64732466D01*
X120213332Y-64865800D02*
X120179999Y-64799133D01*
X120179999Y-64799133D02*
X120146665Y-64765800D01*
X120146665Y-64765800D02*
X120079999Y-64732466D01*
X120079999Y-64732466D02*
X120013332Y-64732466D01*
X119113333Y-64499133D02*
X118979999Y-64499133D01*
X118979999Y-64499133D02*
X118913333Y-64532466D01*
X118913333Y-64532466D02*
X118846666Y-64599133D01*
X118846666Y-64599133D02*
X118813333Y-64732466D01*
X118813333Y-64732466D02*
X118813333Y-64965800D01*
X118813333Y-64965800D02*
X118846666Y-65099133D01*
X118846666Y-65099133D02*
X118913333Y-65165800D01*
X118913333Y-65165800D02*
X118979999Y-65199133D01*
X118979999Y-65199133D02*
X119113333Y-65199133D01*
X119113333Y-65199133D02*
X119179999Y-65165800D01*
X119179999Y-65165800D02*
X119246666Y-65099133D01*
X119246666Y-65099133D02*
X119279999Y-64965800D01*
X119279999Y-64965800D02*
X119279999Y-64732466D01*
X119279999Y-64732466D02*
X119246666Y-64599133D01*
X119246666Y-64599133D02*
X119179999Y-64532466D01*
X119179999Y-64532466D02*
X119113333Y-64499133D01*
X118213333Y-64732466D02*
X118213333Y-65199133D01*
X118513333Y-64732466D02*
X118513333Y-65099133D01*
X118513333Y-65099133D02*
X118480000Y-65165800D01*
X118480000Y-65165800D02*
X118413333Y-65199133D01*
X118413333Y-65199133D02*
X118313333Y-65199133D01*
X118313333Y-65199133D02*
X118246666Y-65165800D01*
X118246666Y-65165800D02*
X118213333Y-65132466D01*
X117980000Y-64732466D02*
X117713333Y-64732466D01*
X117880000Y-64499133D02*
X117880000Y-65099133D01*
X117880000Y-65099133D02*
X117846667Y-65165800D01*
X117846667Y-65165800D02*
X117780000Y-65199133D01*
X117780000Y-65199133D02*
X117713333Y-65199133D01*
X117480000Y-64732466D02*
X117480000Y-65432466D01*
X117480000Y-64765800D02*
X117413333Y-64732466D01*
X117413333Y-64732466D02*
X117280000Y-64732466D01*
X117280000Y-64732466D02*
X117213333Y-64765800D01*
X117213333Y-64765800D02*
X117180000Y-64799133D01*
X117180000Y-64799133D02*
X117146667Y-64865800D01*
X117146667Y-64865800D02*
X117146667Y-65065800D01*
X117146667Y-65065800D02*
X117180000Y-65132466D01*
X117180000Y-65132466D02*
X117213333Y-65165800D01*
X117213333Y-65165800D02*
X117280000Y-65199133D01*
X117280000Y-65199133D02*
X117413333Y-65199133D01*
X117413333Y-65199133D02*
X117480000Y-65165800D01*
X116546667Y-64732466D02*
X116546667Y-65199133D01*
X116846667Y-64732466D02*
X116846667Y-65099133D01*
X116846667Y-65099133D02*
X116813334Y-65165800D01*
X116813334Y-65165800D02*
X116746667Y-65199133D01*
X116746667Y-65199133D02*
X116646667Y-65199133D01*
X116646667Y-65199133D02*
X116580000Y-65165800D01*
X116580000Y-65165800D02*
X116546667Y-65132466D01*
X116313334Y-64732466D02*
X116046667Y-64732466D01*
X116213334Y-64499133D02*
X116213334Y-65099133D01*
X116213334Y-65099133D02*
X116180001Y-65165800D01*
X116180001Y-65165800D02*
X116113334Y-65199133D01*
X116113334Y-65199133D02*
X116046667Y-65199133D01*
D11*
X147077982Y-78336533D02*
X146744649Y-78336533D01*
X147144649Y-78536533D02*
X146911316Y-77836533D01*
X146911316Y-77836533D02*
X146677982Y-78536533D01*
D13*
X146633333Y-69402172D02*
X146199999Y-69402172D01*
X146199999Y-69402172D02*
X146433333Y-69668839D01*
X146433333Y-69668839D02*
X146333333Y-69668839D01*
X146333333Y-69668839D02*
X146266666Y-69702172D01*
X146266666Y-69702172D02*
X146233333Y-69735505D01*
X146233333Y-69735505D02*
X146199999Y-69802172D01*
X146199999Y-69802172D02*
X146199999Y-69968839D01*
X146199999Y-69968839D02*
X146233333Y-70035505D01*
X146233333Y-70035505D02*
X146266666Y-70068839D01*
X146266666Y-70068839D02*
X146333333Y-70102172D01*
X146333333Y-70102172D02*
X146533333Y-70102172D01*
X146533333Y-70102172D02*
X146599999Y-70068839D01*
X146599999Y-70068839D02*
X146633333Y-70035505D01*
X145899999Y-69835505D02*
X145366666Y-69835505D01*
X145033332Y-70102172D02*
X145033332Y-69402172D01*
X145033332Y-69402172D02*
X144766665Y-69402172D01*
X144766665Y-69402172D02*
X144699999Y-69435505D01*
X144699999Y-69435505D02*
X144666665Y-69468839D01*
X144666665Y-69468839D02*
X144633332Y-69535505D01*
X144633332Y-69535505D02*
X144633332Y-69635505D01*
X144633332Y-69635505D02*
X144666665Y-69702172D01*
X144666665Y-69702172D02*
X144699999Y-69735505D01*
X144699999Y-69735505D02*
X144766665Y-69768839D01*
X144766665Y-69768839D02*
X145033332Y-69768839D01*
X144333332Y-70102172D02*
X144333332Y-69402172D01*
X144333332Y-69735505D02*
X143933332Y-69735505D01*
X143933332Y-70102172D02*
X143933332Y-69402172D01*
X143633332Y-69902172D02*
X143299999Y-69902172D01*
X143699999Y-70102172D02*
X143466666Y-69402172D01*
X143466666Y-69402172D02*
X143233332Y-70102172D01*
X143033332Y-70068839D02*
X142933332Y-70102172D01*
X142933332Y-70102172D02*
X142766666Y-70102172D01*
X142766666Y-70102172D02*
X142699999Y-70068839D01*
X142699999Y-70068839D02*
X142666666Y-70035505D01*
X142666666Y-70035505D02*
X142633332Y-69968839D01*
X142633332Y-69968839D02*
X142633332Y-69902172D01*
X142633332Y-69902172D02*
X142666666Y-69835505D01*
X142666666Y-69835505D02*
X142699999Y-69802172D01*
X142699999Y-69802172D02*
X142766666Y-69768839D01*
X142766666Y-69768839D02*
X142899999Y-69735505D01*
X142899999Y-69735505D02*
X142966666Y-69702172D01*
X142966666Y-69702172D02*
X142999999Y-69668839D01*
X142999999Y-69668839D02*
X143033332Y-69602172D01*
X143033332Y-69602172D02*
X143033332Y-69535505D01*
X143033332Y-69535505D02*
X142999999Y-69468839D01*
X142999999Y-69468839D02*
X142966666Y-69435505D01*
X142966666Y-69435505D02*
X142899999Y-69402172D01*
X142899999Y-69402172D02*
X142733332Y-69402172D01*
X142733332Y-69402172D02*
X142633332Y-69435505D01*
X142333332Y-69735505D02*
X142099999Y-69735505D01*
X141999999Y-70102172D02*
X142333332Y-70102172D01*
X142333332Y-70102172D02*
X142333332Y-69402172D01*
X142333332Y-69402172D02*
X141999999Y-69402172D01*
X144999999Y-70529133D02*
X144866665Y-70529133D01*
X144866665Y-70529133D02*
X144799999Y-70562466D01*
X144799999Y-70562466D02*
X144733332Y-70629133D01*
X144733332Y-70629133D02*
X144699999Y-70762466D01*
X144699999Y-70762466D02*
X144699999Y-70995800D01*
X144699999Y-70995800D02*
X144733332Y-71129133D01*
X144733332Y-71129133D02*
X144799999Y-71195800D01*
X144799999Y-71195800D02*
X144866665Y-71229133D01*
X144866665Y-71229133D02*
X144999999Y-71229133D01*
X144999999Y-71229133D02*
X145066665Y-71195800D01*
X145066665Y-71195800D02*
X145133332Y-71129133D01*
X145133332Y-71129133D02*
X145166665Y-70995800D01*
X145166665Y-70995800D02*
X145166665Y-70762466D01*
X145166665Y-70762466D02*
X145133332Y-70629133D01*
X145133332Y-70629133D02*
X145066665Y-70562466D01*
X145066665Y-70562466D02*
X144999999Y-70529133D01*
X144399999Y-70529133D02*
X144399999Y-71095800D01*
X144399999Y-71095800D02*
X144366666Y-71162466D01*
X144366666Y-71162466D02*
X144333332Y-71195800D01*
X144333332Y-71195800D02*
X144266666Y-71229133D01*
X144266666Y-71229133D02*
X144133332Y-71229133D01*
X144133332Y-71229133D02*
X144066666Y-71195800D01*
X144066666Y-71195800D02*
X144033332Y-71162466D01*
X144033332Y-71162466D02*
X143999999Y-71095800D01*
X143999999Y-71095800D02*
X143999999Y-70529133D01*
X143766666Y-70529133D02*
X143366666Y-70529133D01*
X143566666Y-71229133D02*
X143566666Y-70529133D01*
X112384211Y-68929133D02*
X111950877Y-68929133D01*
X111950877Y-68929133D02*
X112184211Y-69195800D01*
X112184211Y-69195800D02*
X112084211Y-69195800D01*
X112084211Y-69195800D02*
X112017544Y-69229133D01*
X112017544Y-69229133D02*
X111984211Y-69262466D01*
X111984211Y-69262466D02*
X111950877Y-69329133D01*
X111950877Y-69329133D02*
X111950877Y-69495800D01*
X111950877Y-69495800D02*
X111984211Y-69562466D01*
X111984211Y-69562466D02*
X112017544Y-69595800D01*
X112017544Y-69595800D02*
X112084211Y-69629133D01*
X112084211Y-69629133D02*
X112284211Y-69629133D01*
X112284211Y-69629133D02*
X112350877Y-69595800D01*
X112350877Y-69595800D02*
X112384211Y-69562466D01*
X111717544Y-69162466D02*
X111550877Y-69629133D01*
X111550877Y-69629133D02*
X111384210Y-69162466D01*
X111184211Y-68929133D02*
X110750877Y-68929133D01*
X110750877Y-68929133D02*
X110984211Y-69195800D01*
X110984211Y-69195800D02*
X110884211Y-69195800D01*
X110884211Y-69195800D02*
X110817544Y-69229133D01*
X110817544Y-69229133D02*
X110784211Y-69262466D01*
X110784211Y-69262466D02*
X110750877Y-69329133D01*
X110750877Y-69329133D02*
X110750877Y-69495800D01*
X110750877Y-69495800D02*
X110784211Y-69562466D01*
X110784211Y-69562466D02*
X110817544Y-69595800D01*
X110817544Y-69595800D02*
X110884211Y-69629133D01*
X110884211Y-69629133D02*
X111084211Y-69629133D01*
X111084211Y-69629133D02*
X111150877Y-69595800D01*
X111150877Y-69595800D02*
X111184211Y-69562466D01*
X110417544Y-69595800D02*
X110417544Y-69629133D01*
X110417544Y-69629133D02*
X110450877Y-69695800D01*
X110450877Y-69695800D02*
X110484210Y-69729133D01*
X109650878Y-68929133D02*
X109217544Y-68929133D01*
X109217544Y-68929133D02*
X109450878Y-69195800D01*
X109450878Y-69195800D02*
X109350878Y-69195800D01*
X109350878Y-69195800D02*
X109284211Y-69229133D01*
X109284211Y-69229133D02*
X109250878Y-69262466D01*
X109250878Y-69262466D02*
X109217544Y-69329133D01*
X109217544Y-69329133D02*
X109217544Y-69495800D01*
X109217544Y-69495800D02*
X109250878Y-69562466D01*
X109250878Y-69562466D02*
X109284211Y-69595800D01*
X109284211Y-69595800D02*
X109350878Y-69629133D01*
X109350878Y-69629133D02*
X109550878Y-69629133D01*
X109550878Y-69629133D02*
X109617544Y-69595800D01*
X109617544Y-69595800D02*
X109650878Y-69562466D01*
X108784211Y-68929133D02*
X108717544Y-68929133D01*
X108717544Y-68929133D02*
X108650877Y-68962466D01*
X108650877Y-68962466D02*
X108617544Y-68995800D01*
X108617544Y-68995800D02*
X108584211Y-69062466D01*
X108584211Y-69062466D02*
X108550877Y-69195800D01*
X108550877Y-69195800D02*
X108550877Y-69362466D01*
X108550877Y-69362466D02*
X108584211Y-69495800D01*
X108584211Y-69495800D02*
X108617544Y-69562466D01*
X108617544Y-69562466D02*
X108650877Y-69595800D01*
X108650877Y-69595800D02*
X108717544Y-69629133D01*
X108717544Y-69629133D02*
X108784211Y-69629133D01*
X108784211Y-69629133D02*
X108850877Y-69595800D01*
X108850877Y-69595800D02*
X108884211Y-69562466D01*
X108884211Y-69562466D02*
X108917544Y-69495800D01*
X108917544Y-69495800D02*
X108950877Y-69362466D01*
X108950877Y-69362466D02*
X108950877Y-69195800D01*
X108950877Y-69195800D02*
X108917544Y-69062466D01*
X108917544Y-69062466D02*
X108884211Y-68995800D01*
X108884211Y-68995800D02*
X108850877Y-68962466D01*
X108850877Y-68962466D02*
X108784211Y-68929133D01*
X108250877Y-69629133D02*
X108250877Y-69162466D01*
X108250877Y-69229133D02*
X108217544Y-69195800D01*
X108217544Y-69195800D02*
X108150877Y-69162466D01*
X108150877Y-69162466D02*
X108050877Y-69162466D01*
X108050877Y-69162466D02*
X107984210Y-69195800D01*
X107984210Y-69195800D02*
X107950877Y-69262466D01*
X107950877Y-69262466D02*
X107950877Y-69629133D01*
X107950877Y-69262466D02*
X107917544Y-69195800D01*
X107917544Y-69195800D02*
X107850877Y-69162466D01*
X107850877Y-69162466D02*
X107750877Y-69162466D01*
X107750877Y-69162466D02*
X107684210Y-69195800D01*
X107684210Y-69195800D02*
X107650877Y-69262466D01*
X107650877Y-69262466D02*
X107650877Y-69629133D01*
X107350877Y-69429133D02*
X107017544Y-69429133D01*
X107417544Y-69629133D02*
X107184211Y-68929133D01*
X107184211Y-68929133D02*
X106950877Y-69629133D01*
X114427544Y-76508250D02*
X114427544Y-75808250D01*
X114427544Y-75808250D02*
X114160877Y-75808250D01*
X114160877Y-75808250D02*
X114094211Y-75841583D01*
X114094211Y-75841583D02*
X114060877Y-75874917D01*
X114060877Y-75874917D02*
X114027544Y-75941583D01*
X114027544Y-75941583D02*
X114027544Y-76041583D01*
X114027544Y-76041583D02*
X114060877Y-76108250D01*
X114060877Y-76108250D02*
X114094211Y-76141583D01*
X114094211Y-76141583D02*
X114160877Y-76174917D01*
X114160877Y-76174917D02*
X114427544Y-76174917D01*
X113794211Y-75808250D02*
X113627544Y-76508250D01*
X113627544Y-76508250D02*
X113494211Y-76008250D01*
X113494211Y-76008250D02*
X113360877Y-76508250D01*
X113360877Y-76508250D02*
X113194211Y-75808250D01*
X112927544Y-76508250D02*
X112927544Y-75808250D01*
X112927544Y-75808250D02*
X112694211Y-76308250D01*
X112694211Y-76308250D02*
X112460877Y-75808250D01*
X112460877Y-75808250D02*
X112460877Y-76508250D01*
X111594211Y-76508250D02*
X111594211Y-75808250D01*
X111260878Y-76508250D02*
X111260878Y-75808250D01*
X111260878Y-75808250D02*
X110860878Y-76508250D01*
X110860878Y-76508250D02*
X110860878Y-75808250D01*
X114060877Y-77635211D02*
X114460877Y-77635211D01*
X114260877Y-77635211D02*
X114260877Y-76935211D01*
X114260877Y-76935211D02*
X114327544Y-77035211D01*
X114327544Y-77035211D02*
X114394211Y-77101878D01*
X114394211Y-77101878D02*
X114460877Y-77135211D01*
X112927544Y-77601878D02*
X112994211Y-77635211D01*
X112994211Y-77635211D02*
X113127544Y-77635211D01*
X113127544Y-77635211D02*
X113194211Y-77601878D01*
X113194211Y-77601878D02*
X113227544Y-77568544D01*
X113227544Y-77568544D02*
X113260877Y-77501878D01*
X113260877Y-77501878D02*
X113260877Y-77301878D01*
X113260877Y-77301878D02*
X113227544Y-77235211D01*
X113227544Y-77235211D02*
X113194211Y-77201878D01*
X113194211Y-77201878D02*
X113127544Y-77168544D01*
X113127544Y-77168544D02*
X112994211Y-77168544D01*
X112994211Y-77168544D02*
X112927544Y-77201878D01*
X112627544Y-77635211D02*
X112627544Y-76935211D01*
X112327544Y-77635211D02*
X112327544Y-77268544D01*
X112327544Y-77268544D02*
X112360877Y-77201878D01*
X112360877Y-77201878D02*
X112427544Y-77168544D01*
X112427544Y-77168544D02*
X112527544Y-77168544D01*
X112527544Y-77168544D02*
X112594211Y-77201878D01*
X112594211Y-77201878D02*
X112627544Y-77235211D01*
X111260878Y-77901878D02*
X111294211Y-77868544D01*
X111294211Y-77868544D02*
X111360878Y-77768544D01*
X111360878Y-77768544D02*
X111394211Y-77701878D01*
X111394211Y-77701878D02*
X111427545Y-77601878D01*
X111427545Y-77601878D02*
X111460878Y-77435211D01*
X111460878Y-77435211D02*
X111460878Y-77301878D01*
X111460878Y-77301878D02*
X111427545Y-77135211D01*
X111427545Y-77135211D02*
X111394211Y-77035211D01*
X111394211Y-77035211D02*
X111360878Y-76968544D01*
X111360878Y-76968544D02*
X111294211Y-76868544D01*
X111294211Y-76868544D02*
X111260878Y-76835211D01*
X110994211Y-77635211D02*
X110994211Y-76935211D01*
X110994211Y-77268544D02*
X110594211Y-77268544D01*
X110594211Y-77635211D02*
X110594211Y-76935211D01*
X110294211Y-77435211D02*
X109960878Y-77435211D01*
X110360878Y-77635211D02*
X110127545Y-76935211D01*
X110127545Y-76935211D02*
X109894211Y-77635211D01*
X109727545Y-77901878D02*
X109694211Y-77868544D01*
X109694211Y-77868544D02*
X109627545Y-77768544D01*
X109627545Y-77768544D02*
X109594211Y-77701878D01*
X109594211Y-77701878D02*
X109560878Y-77601878D01*
X109560878Y-77601878D02*
X109527545Y-77435211D01*
X109527545Y-77435211D02*
X109527545Y-77301878D01*
X109527545Y-77301878D02*
X109560878Y-77135211D01*
X109560878Y-77135211D02*
X109594211Y-77035211D01*
X109594211Y-77035211D02*
X109627545Y-76968544D01*
X109627545Y-76968544D02*
X109694211Y-76868544D01*
X109694211Y-76868544D02*
X109727545Y-76835211D01*
X114494211Y-78062172D02*
X114060877Y-78062172D01*
X114060877Y-78062172D02*
X114294211Y-78328839D01*
X114294211Y-78328839D02*
X114194211Y-78328839D01*
X114194211Y-78328839D02*
X114127544Y-78362172D01*
X114127544Y-78362172D02*
X114094211Y-78395505D01*
X114094211Y-78395505D02*
X114060877Y-78462172D01*
X114060877Y-78462172D02*
X114060877Y-78628839D01*
X114060877Y-78628839D02*
X114094211Y-78695505D01*
X114094211Y-78695505D02*
X114127544Y-78728839D01*
X114127544Y-78728839D02*
X114194211Y-78762172D01*
X114194211Y-78762172D02*
X114394211Y-78762172D01*
X114394211Y-78762172D02*
X114460877Y-78728839D01*
X114460877Y-78728839D02*
X114494211Y-78695505D01*
X112927544Y-78728839D02*
X112994211Y-78762172D01*
X112994211Y-78762172D02*
X113127544Y-78762172D01*
X113127544Y-78762172D02*
X113194211Y-78728839D01*
X113194211Y-78728839D02*
X113227544Y-78695505D01*
X113227544Y-78695505D02*
X113260877Y-78628839D01*
X113260877Y-78628839D02*
X113260877Y-78428839D01*
X113260877Y-78428839D02*
X113227544Y-78362172D01*
X113227544Y-78362172D02*
X113194211Y-78328839D01*
X113194211Y-78328839D02*
X113127544Y-78295505D01*
X113127544Y-78295505D02*
X112994211Y-78295505D01*
X112994211Y-78295505D02*
X112927544Y-78328839D01*
X112627544Y-78762172D02*
X112627544Y-78062172D01*
X112327544Y-78762172D02*
X112327544Y-78395505D01*
X112327544Y-78395505D02*
X112360877Y-78328839D01*
X112360877Y-78328839D02*
X112427544Y-78295505D01*
X112427544Y-78295505D02*
X112527544Y-78295505D01*
X112527544Y-78295505D02*
X112594211Y-78328839D01*
X112594211Y-78328839D02*
X112627544Y-78362172D01*
X111260878Y-79028839D02*
X111294211Y-78995505D01*
X111294211Y-78995505D02*
X111360878Y-78895505D01*
X111360878Y-78895505D02*
X111394211Y-78828839D01*
X111394211Y-78828839D02*
X111427545Y-78728839D01*
X111427545Y-78728839D02*
X111460878Y-78562172D01*
X111460878Y-78562172D02*
X111460878Y-78428839D01*
X111460878Y-78428839D02*
X111427545Y-78262172D01*
X111427545Y-78262172D02*
X111394211Y-78162172D01*
X111394211Y-78162172D02*
X111360878Y-78095505D01*
X111360878Y-78095505D02*
X111294211Y-77995505D01*
X111294211Y-77995505D02*
X111260878Y-77962172D01*
X110994211Y-78762172D02*
X110994211Y-78062172D01*
X110994211Y-78395505D02*
X110594211Y-78395505D01*
X110594211Y-78762172D02*
X110594211Y-78062172D01*
X110294211Y-78562172D02*
X109960878Y-78562172D01*
X110360878Y-78762172D02*
X110127545Y-78062172D01*
X110127545Y-78062172D02*
X109894211Y-78762172D01*
X109627545Y-78728839D02*
X109627545Y-78762172D01*
X109627545Y-78762172D02*
X109660878Y-78828839D01*
X109660878Y-78828839D02*
X109694211Y-78862172D01*
X109094212Y-78395505D02*
X108994212Y-78428839D01*
X108994212Y-78428839D02*
X108960878Y-78462172D01*
X108960878Y-78462172D02*
X108927545Y-78528839D01*
X108927545Y-78528839D02*
X108927545Y-78628839D01*
X108927545Y-78628839D02*
X108960878Y-78695505D01*
X108960878Y-78695505D02*
X108994212Y-78728839D01*
X108994212Y-78728839D02*
X109060878Y-78762172D01*
X109060878Y-78762172D02*
X109327545Y-78762172D01*
X109327545Y-78762172D02*
X109327545Y-78062172D01*
X109327545Y-78062172D02*
X109094212Y-78062172D01*
X109094212Y-78062172D02*
X109027545Y-78095505D01*
X109027545Y-78095505D02*
X108994212Y-78128839D01*
X108994212Y-78128839D02*
X108960878Y-78195505D01*
X108960878Y-78195505D02*
X108960878Y-78262172D01*
X108960878Y-78262172D02*
X108994212Y-78328839D01*
X108994212Y-78328839D02*
X109027545Y-78362172D01*
X109027545Y-78362172D02*
X109094212Y-78395505D01*
X109094212Y-78395505D02*
X109327545Y-78395505D01*
X108594212Y-78728839D02*
X108594212Y-78762172D01*
X108594212Y-78762172D02*
X108627545Y-78828839D01*
X108627545Y-78828839D02*
X108660878Y-78862172D01*
X107894212Y-78695505D02*
X107927545Y-78728839D01*
X107927545Y-78728839D02*
X108027545Y-78762172D01*
X108027545Y-78762172D02*
X108094212Y-78762172D01*
X108094212Y-78762172D02*
X108194212Y-78728839D01*
X108194212Y-78728839D02*
X108260879Y-78662172D01*
X108260879Y-78662172D02*
X108294212Y-78595505D01*
X108294212Y-78595505D02*
X108327545Y-78462172D01*
X108327545Y-78462172D02*
X108327545Y-78362172D01*
X108327545Y-78362172D02*
X108294212Y-78228839D01*
X108294212Y-78228839D02*
X108260879Y-78162172D01*
X108260879Y-78162172D02*
X108194212Y-78095505D01*
X108194212Y-78095505D02*
X108094212Y-78062172D01*
X108094212Y-78062172D02*
X108027545Y-78062172D01*
X108027545Y-78062172D02*
X107927545Y-78095505D01*
X107927545Y-78095505D02*
X107894212Y-78128839D01*
X107660879Y-79028839D02*
X107627545Y-78995505D01*
X107627545Y-78995505D02*
X107560879Y-78895505D01*
X107560879Y-78895505D02*
X107527545Y-78828839D01*
X107527545Y-78828839D02*
X107494212Y-78728839D01*
X107494212Y-78728839D02*
X107460879Y-78562172D01*
X107460879Y-78562172D02*
X107460879Y-78428839D01*
X107460879Y-78428839D02*
X107494212Y-78262172D01*
X107494212Y-78262172D02*
X107527545Y-78162172D01*
X107527545Y-78162172D02*
X107560879Y-78095505D01*
X107560879Y-78095505D02*
X107627545Y-77995505D01*
X107627545Y-77995505D02*
X107660879Y-77962172D01*
X114127544Y-79189133D02*
X114260877Y-79189133D01*
X114260877Y-79189133D02*
X114327544Y-79222466D01*
X114327544Y-79222466D02*
X114360877Y-79255800D01*
X114360877Y-79255800D02*
X114427544Y-79355800D01*
X114427544Y-79355800D02*
X114460877Y-79489133D01*
X114460877Y-79489133D02*
X114460877Y-79755800D01*
X114460877Y-79755800D02*
X114427544Y-79822466D01*
X114427544Y-79822466D02*
X114394211Y-79855800D01*
X114394211Y-79855800D02*
X114327544Y-79889133D01*
X114327544Y-79889133D02*
X114194211Y-79889133D01*
X114194211Y-79889133D02*
X114127544Y-79855800D01*
X114127544Y-79855800D02*
X114094211Y-79822466D01*
X114094211Y-79822466D02*
X114060877Y-79755800D01*
X114060877Y-79755800D02*
X114060877Y-79589133D01*
X114060877Y-79589133D02*
X114094211Y-79522466D01*
X114094211Y-79522466D02*
X114127544Y-79489133D01*
X114127544Y-79489133D02*
X114194211Y-79455800D01*
X114194211Y-79455800D02*
X114327544Y-79455800D01*
X114327544Y-79455800D02*
X114394211Y-79489133D01*
X114394211Y-79489133D02*
X114427544Y-79522466D01*
X114427544Y-79522466D02*
X114460877Y-79589133D01*
X112927544Y-79855800D02*
X112994211Y-79889133D01*
X112994211Y-79889133D02*
X113127544Y-79889133D01*
X113127544Y-79889133D02*
X113194211Y-79855800D01*
X113194211Y-79855800D02*
X113227544Y-79822466D01*
X113227544Y-79822466D02*
X113260877Y-79755800D01*
X113260877Y-79755800D02*
X113260877Y-79555800D01*
X113260877Y-79555800D02*
X113227544Y-79489133D01*
X113227544Y-79489133D02*
X113194211Y-79455800D01*
X113194211Y-79455800D02*
X113127544Y-79422466D01*
X113127544Y-79422466D02*
X112994211Y-79422466D01*
X112994211Y-79422466D02*
X112927544Y-79455800D01*
X112627544Y-79889133D02*
X112627544Y-79189133D01*
X112327544Y-79889133D02*
X112327544Y-79522466D01*
X112327544Y-79522466D02*
X112360877Y-79455800D01*
X112360877Y-79455800D02*
X112427544Y-79422466D01*
X112427544Y-79422466D02*
X112527544Y-79422466D01*
X112527544Y-79422466D02*
X112594211Y-79455800D01*
X112594211Y-79455800D02*
X112627544Y-79489133D01*
D11*
X146594649Y-73099866D02*
X146627982Y-73133200D01*
X146627982Y-73133200D02*
X146727982Y-73166533D01*
X146727982Y-73166533D02*
X146794649Y-73166533D01*
X146794649Y-73166533D02*
X146894649Y-73133200D01*
X146894649Y-73133200D02*
X146961316Y-73066533D01*
X146961316Y-73066533D02*
X146994649Y-72999866D01*
X146994649Y-72999866D02*
X147027982Y-72866533D01*
X147027982Y-72866533D02*
X147027982Y-72766533D01*
X147027982Y-72766533D02*
X146994649Y-72633200D01*
X146994649Y-72633200D02*
X146961316Y-72566533D01*
X146961316Y-72566533D02*
X146894649Y-72499866D01*
X146894649Y-72499866D02*
X146794649Y-72466533D01*
X146794649Y-72466533D02*
X146727982Y-72466533D01*
X146727982Y-72466533D02*
X146627982Y-72499866D01*
X146627982Y-72499866D02*
X146594649Y-72533200D01*
D13*
X126064687Y-88487460D02*
X126112306Y-88535080D01*
X126112306Y-88535080D02*
X126255163Y-88582699D01*
X126255163Y-88582699D02*
X126350401Y-88582699D01*
X126350401Y-88582699D02*
X126493258Y-88535080D01*
X126493258Y-88535080D02*
X126588496Y-88439841D01*
X126588496Y-88439841D02*
X126636115Y-88344603D01*
X126636115Y-88344603D02*
X126683734Y-88154127D01*
X126683734Y-88154127D02*
X126683734Y-88011270D01*
X126683734Y-88011270D02*
X126636115Y-87820794D01*
X126636115Y-87820794D02*
X126588496Y-87725556D01*
X126588496Y-87725556D02*
X126493258Y-87630318D01*
X126493258Y-87630318D02*
X126350401Y-87582699D01*
X126350401Y-87582699D02*
X126255163Y-87582699D01*
X126255163Y-87582699D02*
X126112306Y-87630318D01*
X126112306Y-87630318D02*
X126064687Y-87677937D01*
X125112306Y-88582699D02*
X125683734Y-88582699D01*
X125398020Y-88582699D02*
X125398020Y-87582699D01*
X125398020Y-87582699D02*
X125493258Y-87725556D01*
X125493258Y-87725556D02*
X125588496Y-87820794D01*
X125588496Y-87820794D02*
X125683734Y-87868413D01*
X117398018Y-87916032D02*
X117398018Y-88582699D01*
X117636113Y-87535080D02*
X117874208Y-88249365D01*
X117874208Y-88249365D02*
X117255161Y-88249365D01*
X116969446Y-87582699D02*
X116302780Y-87582699D01*
X116302780Y-87582699D02*
X116731351Y-88582699D01*
X115493256Y-87916032D02*
X115493256Y-88582699D01*
X115921827Y-87916032D02*
X115921827Y-88439841D01*
X115921827Y-88439841D02*
X115874208Y-88535080D01*
X115874208Y-88535080D02*
X115778970Y-88582699D01*
X115778970Y-88582699D02*
X115636113Y-88582699D01*
X115636113Y-88582699D02*
X115540875Y-88535080D01*
X115540875Y-88535080D02*
X115493256Y-88487460D01*
X114683732Y-88058889D02*
X115017065Y-88058889D01*
X115017065Y-88582699D02*
X115017065Y-87582699D01*
X115017065Y-87582699D02*
X114540875Y-87582699D01*
X126064687Y-90097404D02*
X126112306Y-90145024D01*
X126112306Y-90145024D02*
X126255163Y-90192643D01*
X126255163Y-90192643D02*
X126350401Y-90192643D01*
X126350401Y-90192643D02*
X126493258Y-90145024D01*
X126493258Y-90145024D02*
X126588496Y-90049785D01*
X126588496Y-90049785D02*
X126636115Y-89954547D01*
X126636115Y-89954547D02*
X126683734Y-89764071D01*
X126683734Y-89764071D02*
X126683734Y-89621214D01*
X126683734Y-89621214D02*
X126636115Y-89430738D01*
X126636115Y-89430738D02*
X126588496Y-89335500D01*
X126588496Y-89335500D02*
X126493258Y-89240262D01*
X126493258Y-89240262D02*
X126350401Y-89192643D01*
X126350401Y-89192643D02*
X126255163Y-89192643D01*
X126255163Y-89192643D02*
X126112306Y-89240262D01*
X126112306Y-89240262D02*
X126064687Y-89287881D01*
X125683734Y-89287881D02*
X125636115Y-89240262D01*
X125636115Y-89240262D02*
X125540877Y-89192643D01*
X125540877Y-89192643D02*
X125302782Y-89192643D01*
X125302782Y-89192643D02*
X125207544Y-89240262D01*
X125207544Y-89240262D02*
X125159925Y-89287881D01*
X125159925Y-89287881D02*
X125112306Y-89383119D01*
X125112306Y-89383119D02*
X125112306Y-89478357D01*
X125112306Y-89478357D02*
X125159925Y-89621214D01*
X125159925Y-89621214D02*
X125731353Y-90192643D01*
X125731353Y-90192643D02*
X125112306Y-90192643D01*
X124636115Y-90145024D02*
X124636115Y-90192643D01*
X124636115Y-90192643D02*
X124683734Y-90287881D01*
X124683734Y-90287881D02*
X124731353Y-90335500D01*
X123731354Y-89192643D02*
X124207544Y-89192643D01*
X124207544Y-89192643D02*
X124255163Y-89668833D01*
X124255163Y-89668833D02*
X124207544Y-89621214D01*
X124207544Y-89621214D02*
X124112306Y-89573595D01*
X124112306Y-89573595D02*
X123874211Y-89573595D01*
X123874211Y-89573595D02*
X123778973Y-89621214D01*
X123778973Y-89621214D02*
X123731354Y-89668833D01*
X123731354Y-89668833D02*
X123683735Y-89764071D01*
X123683735Y-89764071D02*
X123683735Y-90002166D01*
X123683735Y-90002166D02*
X123731354Y-90097404D01*
X123731354Y-90097404D02*
X123778973Y-90145024D01*
X123778973Y-90145024D02*
X123874211Y-90192643D01*
X123874211Y-90192643D02*
X124112306Y-90192643D01*
X124112306Y-90192643D02*
X124207544Y-90145024D01*
X124207544Y-90145024D02*
X124255163Y-90097404D01*
X123207544Y-90145024D02*
X123207544Y-90192643D01*
X123207544Y-90192643D02*
X123255163Y-90287881D01*
X123255163Y-90287881D02*
X123302782Y-90335500D01*
X122874211Y-89192643D02*
X122207545Y-89192643D01*
X122207545Y-89192643D02*
X122636116Y-90192643D01*
X121826592Y-89811690D02*
X121064688Y-89811690D01*
X120540878Y-90192643D02*
X120350402Y-90192643D01*
X120350402Y-90192643D02*
X120255164Y-90145024D01*
X120255164Y-90145024D02*
X120207545Y-90097404D01*
X120207545Y-90097404D02*
X120112307Y-89954547D01*
X120112307Y-89954547D02*
X120064688Y-89764071D01*
X120064688Y-89764071D02*
X120064688Y-89383119D01*
X120064688Y-89383119D02*
X120112307Y-89287881D01*
X120112307Y-89287881D02*
X120159926Y-89240262D01*
X120159926Y-89240262D02*
X120255164Y-89192643D01*
X120255164Y-89192643D02*
X120445640Y-89192643D01*
X120445640Y-89192643D02*
X120540878Y-89240262D01*
X120540878Y-89240262D02*
X120588497Y-89287881D01*
X120588497Y-89287881D02*
X120636116Y-89383119D01*
X120636116Y-89383119D02*
X120636116Y-89621214D01*
X120636116Y-89621214D02*
X120588497Y-89716452D01*
X120588497Y-89716452D02*
X120540878Y-89764071D01*
X120540878Y-89764071D02*
X120445640Y-89811690D01*
X120445640Y-89811690D02*
X120255164Y-89811690D01*
X120255164Y-89811690D02*
X120159926Y-89764071D01*
X120159926Y-89764071D02*
X120112307Y-89716452D01*
X120112307Y-89716452D02*
X120064688Y-89621214D01*
X116826592Y-90192643D02*
X117398020Y-90192643D01*
X117112306Y-90192643D02*
X117112306Y-89192643D01*
X117112306Y-89192643D02*
X117207544Y-89335500D01*
X117207544Y-89335500D02*
X117302782Y-89430738D01*
X117302782Y-89430738D02*
X117398020Y-89478357D01*
X115207544Y-89525976D02*
X115207544Y-90192643D01*
X115636115Y-89525976D02*
X115636115Y-90049785D01*
X115636115Y-90049785D02*
X115588496Y-90145024D01*
X115588496Y-90145024D02*
X115493258Y-90192643D01*
X115493258Y-90192643D02*
X115350401Y-90192643D01*
X115350401Y-90192643D02*
X115255163Y-90145024D01*
X115255163Y-90145024D02*
X115207544Y-90097404D01*
X114398020Y-89668833D02*
X114731353Y-89668833D01*
X114731353Y-90192643D02*
X114731353Y-89192643D01*
X114731353Y-89192643D02*
X114255163Y-89192643D01*
X126064687Y-91707348D02*
X126112306Y-91754968D01*
X126112306Y-91754968D02*
X126255163Y-91802587D01*
X126255163Y-91802587D02*
X126350401Y-91802587D01*
X126350401Y-91802587D02*
X126493258Y-91754968D01*
X126493258Y-91754968D02*
X126588496Y-91659729D01*
X126588496Y-91659729D02*
X126636115Y-91564491D01*
X126636115Y-91564491D02*
X126683734Y-91374015D01*
X126683734Y-91374015D02*
X126683734Y-91231158D01*
X126683734Y-91231158D02*
X126636115Y-91040682D01*
X126636115Y-91040682D02*
X126588496Y-90945444D01*
X126588496Y-90945444D02*
X126493258Y-90850206D01*
X126493258Y-90850206D02*
X126350401Y-90802587D01*
X126350401Y-90802587D02*
X126255163Y-90802587D01*
X126255163Y-90802587D02*
X126112306Y-90850206D01*
X126112306Y-90850206D02*
X126064687Y-90897825D01*
X125731353Y-90802587D02*
X125112306Y-90802587D01*
X125112306Y-90802587D02*
X125445639Y-91183539D01*
X125445639Y-91183539D02*
X125302782Y-91183539D01*
X125302782Y-91183539D02*
X125207544Y-91231158D01*
X125207544Y-91231158D02*
X125159925Y-91278777D01*
X125159925Y-91278777D02*
X125112306Y-91374015D01*
X125112306Y-91374015D02*
X125112306Y-91612110D01*
X125112306Y-91612110D02*
X125159925Y-91707348D01*
X125159925Y-91707348D02*
X125207544Y-91754968D01*
X125207544Y-91754968D02*
X125302782Y-91802587D01*
X125302782Y-91802587D02*
X125588496Y-91802587D01*
X125588496Y-91802587D02*
X125683734Y-91754968D01*
X125683734Y-91754968D02*
X125731353Y-91707348D01*
X124636115Y-91754968D02*
X124636115Y-91802587D01*
X124636115Y-91802587D02*
X124683734Y-91897825D01*
X124683734Y-91897825D02*
X124731353Y-91945444D01*
X123778973Y-91135920D02*
X123778973Y-91802587D01*
X124017068Y-90754968D02*
X124255163Y-91469253D01*
X124255163Y-91469253D02*
X123636116Y-91469253D01*
X117731352Y-90802587D02*
X117636114Y-90802587D01*
X117636114Y-90802587D02*
X117540876Y-90850206D01*
X117540876Y-90850206D02*
X117493257Y-90897825D01*
X117493257Y-90897825D02*
X117445638Y-90993063D01*
X117445638Y-90993063D02*
X117398019Y-91183539D01*
X117398019Y-91183539D02*
X117398019Y-91421634D01*
X117398019Y-91421634D02*
X117445638Y-91612110D01*
X117445638Y-91612110D02*
X117493257Y-91707348D01*
X117493257Y-91707348D02*
X117540876Y-91754968D01*
X117540876Y-91754968D02*
X117636114Y-91802587D01*
X117636114Y-91802587D02*
X117731352Y-91802587D01*
X117731352Y-91802587D02*
X117826590Y-91754968D01*
X117826590Y-91754968D02*
X117874209Y-91707348D01*
X117874209Y-91707348D02*
X117921828Y-91612110D01*
X117921828Y-91612110D02*
X117969447Y-91421634D01*
X117969447Y-91421634D02*
X117969447Y-91183539D01*
X117969447Y-91183539D02*
X117921828Y-90993063D01*
X117921828Y-90993063D02*
X117874209Y-90897825D01*
X117874209Y-90897825D02*
X117826590Y-90850206D01*
X117826590Y-90850206D02*
X117731352Y-90802587D01*
X116969447Y-91707348D02*
X116921828Y-91754968D01*
X116921828Y-91754968D02*
X116969447Y-91802587D01*
X116969447Y-91802587D02*
X117017066Y-91754968D01*
X117017066Y-91754968D02*
X116969447Y-91707348D01*
X116969447Y-91707348D02*
X116969447Y-91802587D01*
X115969448Y-91802587D02*
X116540876Y-91802587D01*
X116255162Y-91802587D02*
X116255162Y-90802587D01*
X116255162Y-90802587D02*
X116350400Y-90945444D01*
X116350400Y-90945444D02*
X116445638Y-91040682D01*
X116445638Y-91040682D02*
X116540876Y-91088301D01*
X114350400Y-91135920D02*
X114350400Y-91802587D01*
X114778971Y-91135920D02*
X114778971Y-91659729D01*
X114778971Y-91659729D02*
X114731352Y-91754968D01*
X114731352Y-91754968D02*
X114636114Y-91802587D01*
X114636114Y-91802587D02*
X114493257Y-91802587D01*
X114493257Y-91802587D02*
X114398019Y-91754968D01*
X114398019Y-91754968D02*
X114350400Y-91707348D01*
X113540876Y-91278777D02*
X113874209Y-91278777D01*
X113874209Y-91802587D02*
X113874209Y-90802587D01*
X113874209Y-90802587D02*
X113398019Y-90802587D01*
X126064687Y-93317292D02*
X126112306Y-93364912D01*
X126112306Y-93364912D02*
X126255163Y-93412531D01*
X126255163Y-93412531D02*
X126350401Y-93412531D01*
X126350401Y-93412531D02*
X126493258Y-93364912D01*
X126493258Y-93364912D02*
X126588496Y-93269673D01*
X126588496Y-93269673D02*
X126636115Y-93174435D01*
X126636115Y-93174435D02*
X126683734Y-92983959D01*
X126683734Y-92983959D02*
X126683734Y-92841102D01*
X126683734Y-92841102D02*
X126636115Y-92650626D01*
X126636115Y-92650626D02*
X126588496Y-92555388D01*
X126588496Y-92555388D02*
X126493258Y-92460150D01*
X126493258Y-92460150D02*
X126350401Y-92412531D01*
X126350401Y-92412531D02*
X126255163Y-92412531D01*
X126255163Y-92412531D02*
X126112306Y-92460150D01*
X126112306Y-92460150D02*
X126064687Y-92507769D01*
X125207544Y-92412531D02*
X125398020Y-92412531D01*
X125398020Y-92412531D02*
X125493258Y-92460150D01*
X125493258Y-92460150D02*
X125540877Y-92507769D01*
X125540877Y-92507769D02*
X125636115Y-92650626D01*
X125636115Y-92650626D02*
X125683734Y-92841102D01*
X125683734Y-92841102D02*
X125683734Y-93222054D01*
X125683734Y-93222054D02*
X125636115Y-93317292D01*
X125636115Y-93317292D02*
X125588496Y-93364912D01*
X125588496Y-93364912D02*
X125493258Y-93412531D01*
X125493258Y-93412531D02*
X125302782Y-93412531D01*
X125302782Y-93412531D02*
X125207544Y-93364912D01*
X125207544Y-93364912D02*
X125159925Y-93317292D01*
X125159925Y-93317292D02*
X125112306Y-93222054D01*
X125112306Y-93222054D02*
X125112306Y-92983959D01*
X125112306Y-92983959D02*
X125159925Y-92888721D01*
X125159925Y-92888721D02*
X125207544Y-92841102D01*
X125207544Y-92841102D02*
X125302782Y-92793483D01*
X125302782Y-92793483D02*
X125493258Y-92793483D01*
X125493258Y-92793483D02*
X125588496Y-92841102D01*
X125588496Y-92841102D02*
X125636115Y-92888721D01*
X125636115Y-92888721D02*
X125683734Y-92983959D01*
X117398018Y-92745864D02*
X117398018Y-93412531D01*
X117636113Y-92364912D02*
X117874208Y-93079197D01*
X117874208Y-93079197D02*
X117255161Y-93079197D01*
X116969446Y-92412531D02*
X116302780Y-92412531D01*
X116302780Y-92412531D02*
X116731351Y-93412531D01*
X115159922Y-92745864D02*
X115159922Y-93412531D01*
X115159922Y-92841102D02*
X115112303Y-92793483D01*
X115112303Y-92793483D02*
X115017065Y-92745864D01*
X115017065Y-92745864D02*
X114874208Y-92745864D01*
X114874208Y-92745864D02*
X114778970Y-92793483D01*
X114778970Y-92793483D02*
X114731351Y-92888721D01*
X114731351Y-92888721D02*
X114731351Y-93412531D01*
X113921827Y-92888721D02*
X114255160Y-92888721D01*
X114255160Y-93412531D02*
X114255160Y-92412531D01*
X114255160Y-92412531D02*
X113778970Y-92412531D01*
X126064687Y-95022475D02*
X126398020Y-94546284D01*
X126636115Y-95022475D02*
X126636115Y-94022475D01*
X126636115Y-94022475D02*
X126255163Y-94022475D01*
X126255163Y-94022475D02*
X126159925Y-94070094D01*
X126159925Y-94070094D02*
X126112306Y-94117713D01*
X126112306Y-94117713D02*
X126064687Y-94212951D01*
X126064687Y-94212951D02*
X126064687Y-94355808D01*
X126064687Y-94355808D02*
X126112306Y-94451046D01*
X126112306Y-94451046D02*
X126159925Y-94498665D01*
X126159925Y-94498665D02*
X126255163Y-94546284D01*
X126255163Y-94546284D02*
X126636115Y-94546284D01*
X125112306Y-95022475D02*
X125683734Y-95022475D01*
X125398020Y-95022475D02*
X125398020Y-94022475D01*
X125398020Y-94022475D02*
X125493258Y-94165332D01*
X125493258Y-94165332D02*
X125588496Y-94260570D01*
X125588496Y-94260570D02*
X125683734Y-94308189D01*
X117302780Y-95022475D02*
X117874208Y-95022475D01*
X117588494Y-95022475D02*
X117588494Y-94022475D01*
X117588494Y-94022475D02*
X117683732Y-94165332D01*
X117683732Y-94165332D02*
X117778970Y-94260570D01*
X117778970Y-94260570D02*
X117874208Y-94308189D01*
X116683732Y-94022475D02*
X116588494Y-94022475D01*
X116588494Y-94022475D02*
X116493256Y-94070094D01*
X116493256Y-94070094D02*
X116445637Y-94117713D01*
X116445637Y-94117713D02*
X116398018Y-94212951D01*
X116398018Y-94212951D02*
X116350399Y-94403427D01*
X116350399Y-94403427D02*
X116350399Y-94641522D01*
X116350399Y-94641522D02*
X116398018Y-94831998D01*
X116398018Y-94831998D02*
X116445637Y-94927236D01*
X116445637Y-94927236D02*
X116493256Y-94974856D01*
X116493256Y-94974856D02*
X116588494Y-95022475D01*
X116588494Y-95022475D02*
X116683732Y-95022475D01*
X116683732Y-95022475D02*
X116778970Y-94974856D01*
X116778970Y-94974856D02*
X116826589Y-94927236D01*
X116826589Y-94927236D02*
X116874208Y-94831998D01*
X116874208Y-94831998D02*
X116921827Y-94641522D01*
X116921827Y-94641522D02*
X116921827Y-94403427D01*
X116921827Y-94403427D02*
X116874208Y-94212951D01*
X116874208Y-94212951D02*
X116826589Y-94117713D01*
X116826589Y-94117713D02*
X116778970Y-94070094D01*
X116778970Y-94070094D02*
X116683732Y-94022475D01*
X115921827Y-95022475D02*
X115921827Y-94022475D01*
X115826589Y-94641522D02*
X115540875Y-95022475D01*
X115540875Y-94355808D02*
X115921827Y-94736760D01*
X115159922Y-95022475D02*
X114921827Y-95022475D01*
X114921827Y-95022475D02*
X114921827Y-94831998D01*
X114921827Y-94831998D02*
X115017065Y-94784379D01*
X115017065Y-94784379D02*
X115112303Y-94689141D01*
X115112303Y-94689141D02*
X115159922Y-94546284D01*
X115159922Y-94546284D02*
X115159922Y-94308189D01*
X115159922Y-94308189D02*
X115112303Y-94165332D01*
X115112303Y-94165332D02*
X115017065Y-94070094D01*
X115017065Y-94070094D02*
X114874208Y-94022475D01*
X114874208Y-94022475D02*
X114683732Y-94022475D01*
X114683732Y-94022475D02*
X114540875Y-94070094D01*
X114540875Y-94070094D02*
X114445637Y-94165332D01*
X114445637Y-94165332D02*
X114398018Y-94308189D01*
X114398018Y-94308189D02*
X114398018Y-94546284D01*
X114398018Y-94546284D02*
X114445637Y-94689141D01*
X114445637Y-94689141D02*
X114540875Y-94784379D01*
X114540875Y-94784379D02*
X114636113Y-94831998D01*
X114636113Y-94831998D02*
X114636113Y-95022475D01*
X114636113Y-95022475D02*
X114398018Y-95022475D01*
X126064687Y-96632419D02*
X126398020Y-96156228D01*
X126636115Y-96632419D02*
X126636115Y-95632419D01*
X126636115Y-95632419D02*
X126255163Y-95632419D01*
X126255163Y-95632419D02*
X126159925Y-95680038D01*
X126159925Y-95680038D02*
X126112306Y-95727657D01*
X126112306Y-95727657D02*
X126064687Y-95822895D01*
X126064687Y-95822895D02*
X126064687Y-95965752D01*
X126064687Y-95965752D02*
X126112306Y-96060990D01*
X126112306Y-96060990D02*
X126159925Y-96108609D01*
X126159925Y-96108609D02*
X126255163Y-96156228D01*
X126255163Y-96156228D02*
X126636115Y-96156228D01*
X125683734Y-95727657D02*
X125636115Y-95680038D01*
X125636115Y-95680038D02*
X125540877Y-95632419D01*
X125540877Y-95632419D02*
X125302782Y-95632419D01*
X125302782Y-95632419D02*
X125207544Y-95680038D01*
X125207544Y-95680038D02*
X125159925Y-95727657D01*
X125159925Y-95727657D02*
X125112306Y-95822895D01*
X125112306Y-95822895D02*
X125112306Y-95918133D01*
X125112306Y-95918133D02*
X125159925Y-96060990D01*
X125159925Y-96060990D02*
X125731353Y-96632419D01*
X125731353Y-96632419D02*
X125112306Y-96632419D01*
X124683734Y-96251466D02*
X123921830Y-96251466D01*
X123017068Y-95965752D02*
X123017068Y-96632419D01*
X123255163Y-95584800D02*
X123493258Y-96299085D01*
X123493258Y-96299085D02*
X122874211Y-96299085D01*
X117398019Y-96632419D02*
X117969447Y-96632419D01*
X117683733Y-96632419D02*
X117683733Y-95632419D01*
X117683733Y-95632419D02*
X117778971Y-95775276D01*
X117778971Y-95775276D02*
X117874209Y-95870514D01*
X117874209Y-95870514D02*
X117969447Y-95918133D01*
X116493257Y-95632419D02*
X116969447Y-95632419D01*
X116969447Y-95632419D02*
X117017066Y-96108609D01*
X117017066Y-96108609D02*
X116969447Y-96060990D01*
X116969447Y-96060990D02*
X116874209Y-96013371D01*
X116874209Y-96013371D02*
X116636114Y-96013371D01*
X116636114Y-96013371D02*
X116540876Y-96060990D01*
X116540876Y-96060990D02*
X116493257Y-96108609D01*
X116493257Y-96108609D02*
X116445638Y-96203847D01*
X116445638Y-96203847D02*
X116445638Y-96441942D01*
X116445638Y-96441942D02*
X116493257Y-96537180D01*
X116493257Y-96537180D02*
X116540876Y-96584800D01*
X116540876Y-96584800D02*
X116636114Y-96632419D01*
X116636114Y-96632419D02*
X116874209Y-96632419D01*
X116874209Y-96632419D02*
X116969447Y-96584800D01*
X116969447Y-96584800D02*
X117017066Y-96537180D01*
X116017066Y-96632419D02*
X116017066Y-95965752D01*
X116017066Y-96060990D02*
X115969447Y-96013371D01*
X115969447Y-96013371D02*
X115874209Y-95965752D01*
X115874209Y-95965752D02*
X115731352Y-95965752D01*
X115731352Y-95965752D02*
X115636114Y-96013371D01*
X115636114Y-96013371D02*
X115588495Y-96108609D01*
X115588495Y-96108609D02*
X115588495Y-96632419D01*
X115588495Y-96108609D02*
X115540876Y-96013371D01*
X115540876Y-96013371D02*
X115445638Y-95965752D01*
X115445638Y-95965752D02*
X115302781Y-95965752D01*
X115302781Y-95965752D02*
X115207542Y-96013371D01*
X115207542Y-96013371D02*
X115159923Y-96108609D01*
X115159923Y-96108609D02*
X115159923Y-96632419D01*
X114731352Y-96632419D02*
X114493257Y-96632419D01*
X114493257Y-96632419D02*
X114493257Y-96441942D01*
X114493257Y-96441942D02*
X114588495Y-96394323D01*
X114588495Y-96394323D02*
X114683733Y-96299085D01*
X114683733Y-96299085D02*
X114731352Y-96156228D01*
X114731352Y-96156228D02*
X114731352Y-95918133D01*
X114731352Y-95918133D02*
X114683733Y-95775276D01*
X114683733Y-95775276D02*
X114588495Y-95680038D01*
X114588495Y-95680038D02*
X114445638Y-95632419D01*
X114445638Y-95632419D02*
X114255162Y-95632419D01*
X114255162Y-95632419D02*
X114112305Y-95680038D01*
X114112305Y-95680038D02*
X114017067Y-95775276D01*
X114017067Y-95775276D02*
X113969448Y-95918133D01*
X113969448Y-95918133D02*
X113969448Y-96156228D01*
X113969448Y-96156228D02*
X114017067Y-96299085D01*
X114017067Y-96299085D02*
X114112305Y-96394323D01*
X114112305Y-96394323D02*
X114207543Y-96441942D01*
X114207543Y-96441942D02*
X114207543Y-96632419D01*
X114207543Y-96632419D02*
X113969448Y-96632419D01*
X110547544Y-92852172D02*
X110547544Y-92152172D01*
X110547544Y-92152172D02*
X110314211Y-92652172D01*
X110314211Y-92652172D02*
X110080877Y-92152172D01*
X110080877Y-92152172D02*
X110080877Y-92852172D01*
X109780877Y-92652172D02*
X109447544Y-92652172D01*
X109847544Y-92852172D02*
X109614211Y-92152172D01*
X109614211Y-92152172D02*
X109380877Y-92852172D01*
X109147544Y-92852172D02*
X109147544Y-92152172D01*
X108814211Y-92852172D02*
X108814211Y-92152172D01*
X108814211Y-92152172D02*
X108414211Y-92852172D01*
X108414211Y-92852172D02*
X108414211Y-92152172D01*
X110580877Y-93945800D02*
X110480877Y-93979133D01*
X110480877Y-93979133D02*
X110314211Y-93979133D01*
X110314211Y-93979133D02*
X110247544Y-93945800D01*
X110247544Y-93945800D02*
X110214211Y-93912466D01*
X110214211Y-93912466D02*
X110180877Y-93845800D01*
X110180877Y-93845800D02*
X110180877Y-93779133D01*
X110180877Y-93779133D02*
X110214211Y-93712466D01*
X110214211Y-93712466D02*
X110247544Y-93679133D01*
X110247544Y-93679133D02*
X110314211Y-93645800D01*
X110314211Y-93645800D02*
X110447544Y-93612466D01*
X110447544Y-93612466D02*
X110514211Y-93579133D01*
X110514211Y-93579133D02*
X110547544Y-93545800D01*
X110547544Y-93545800D02*
X110580877Y-93479133D01*
X110580877Y-93479133D02*
X110580877Y-93412466D01*
X110580877Y-93412466D02*
X110547544Y-93345800D01*
X110547544Y-93345800D02*
X110514211Y-93312466D01*
X110514211Y-93312466D02*
X110447544Y-93279133D01*
X110447544Y-93279133D02*
X110280877Y-93279133D01*
X110280877Y-93279133D02*
X110180877Y-93312466D01*
X109880877Y-93279133D02*
X109880877Y-93845800D01*
X109880877Y-93845800D02*
X109847544Y-93912466D01*
X109847544Y-93912466D02*
X109814210Y-93945800D01*
X109814210Y-93945800D02*
X109747544Y-93979133D01*
X109747544Y-93979133D02*
X109614210Y-93979133D01*
X109614210Y-93979133D02*
X109547544Y-93945800D01*
X109547544Y-93945800D02*
X109514210Y-93912466D01*
X109514210Y-93912466D02*
X109480877Y-93845800D01*
X109480877Y-93845800D02*
X109480877Y-93279133D01*
X109147544Y-93979133D02*
X109147544Y-93279133D01*
X109147544Y-93279133D02*
X108880877Y-93279133D01*
X108880877Y-93279133D02*
X108814211Y-93312466D01*
X108814211Y-93312466D02*
X108780877Y-93345800D01*
X108780877Y-93345800D02*
X108747544Y-93412466D01*
X108747544Y-93412466D02*
X108747544Y-93512466D01*
X108747544Y-93512466D02*
X108780877Y-93579133D01*
X108780877Y-93579133D02*
X108814211Y-93612466D01*
X108814211Y-93612466D02*
X108880877Y-93645800D01*
X108880877Y-93645800D02*
X109147544Y-93645800D01*
X108447544Y-93979133D02*
X108447544Y-93279133D01*
X108447544Y-93279133D02*
X108180877Y-93279133D01*
X108180877Y-93279133D02*
X108114211Y-93312466D01*
X108114211Y-93312466D02*
X108080877Y-93345800D01*
X108080877Y-93345800D02*
X108047544Y-93412466D01*
X108047544Y-93412466D02*
X108047544Y-93512466D01*
X108047544Y-93512466D02*
X108080877Y-93579133D01*
X108080877Y-93579133D02*
X108114211Y-93612466D01*
X108114211Y-93612466D02*
X108180877Y-93645800D01*
X108180877Y-93645800D02*
X108447544Y-93645800D01*
X107414211Y-93979133D02*
X107747544Y-93979133D01*
X107747544Y-93979133D02*
X107747544Y-93279133D01*
X107047544Y-93645800D02*
X107047544Y-93979133D01*
X107280877Y-93279133D02*
X107047544Y-93645800D01*
X107047544Y-93645800D02*
X106814210Y-93279133D01*
X129397544Y-69588250D02*
X129397544Y-68888250D01*
X129397544Y-68888250D02*
X129230877Y-68888250D01*
X129230877Y-68888250D02*
X129130877Y-68921583D01*
X129130877Y-68921583D02*
X129064211Y-68988250D01*
X129064211Y-68988250D02*
X129030877Y-69054917D01*
X129030877Y-69054917D02*
X128997544Y-69188250D01*
X128997544Y-69188250D02*
X128997544Y-69288250D01*
X128997544Y-69288250D02*
X129030877Y-69421583D01*
X129030877Y-69421583D02*
X129064211Y-69488250D01*
X129064211Y-69488250D02*
X129130877Y-69554917D01*
X129130877Y-69554917D02*
X129230877Y-69588250D01*
X129230877Y-69588250D02*
X129397544Y-69588250D01*
X128297544Y-69588250D02*
X128530877Y-69254917D01*
X128697544Y-69588250D02*
X128697544Y-68888250D01*
X128697544Y-68888250D02*
X128430877Y-68888250D01*
X128430877Y-68888250D02*
X128364211Y-68921583D01*
X128364211Y-68921583D02*
X128330877Y-68954917D01*
X128330877Y-68954917D02*
X128297544Y-69021583D01*
X128297544Y-69021583D02*
X128297544Y-69121583D01*
X128297544Y-69121583D02*
X128330877Y-69188250D01*
X128330877Y-69188250D02*
X128364211Y-69221583D01*
X128364211Y-69221583D02*
X128430877Y-69254917D01*
X128430877Y-69254917D02*
X128697544Y-69254917D01*
X128097544Y-68888250D02*
X127864211Y-69588250D01*
X127864211Y-69588250D02*
X127630877Y-68888250D01*
X127297544Y-69188250D02*
X127364211Y-69154917D01*
X127364211Y-69154917D02*
X127397544Y-69121583D01*
X127397544Y-69121583D02*
X127430877Y-69054917D01*
X127430877Y-69054917D02*
X127430877Y-69021583D01*
X127430877Y-69021583D02*
X127397544Y-68954917D01*
X127397544Y-68954917D02*
X127364211Y-68921583D01*
X127364211Y-68921583D02*
X127297544Y-68888250D01*
X127297544Y-68888250D02*
X127164211Y-68888250D01*
X127164211Y-68888250D02*
X127097544Y-68921583D01*
X127097544Y-68921583D02*
X127064211Y-68954917D01*
X127064211Y-68954917D02*
X127030877Y-69021583D01*
X127030877Y-69021583D02*
X127030877Y-69054917D01*
X127030877Y-69054917D02*
X127064211Y-69121583D01*
X127064211Y-69121583D02*
X127097544Y-69154917D01*
X127097544Y-69154917D02*
X127164211Y-69188250D01*
X127164211Y-69188250D02*
X127297544Y-69188250D01*
X127297544Y-69188250D02*
X127364211Y-69221583D01*
X127364211Y-69221583D02*
X127397544Y-69254917D01*
X127397544Y-69254917D02*
X127430877Y-69321583D01*
X127430877Y-69321583D02*
X127430877Y-69454917D01*
X127430877Y-69454917D02*
X127397544Y-69521583D01*
X127397544Y-69521583D02*
X127364211Y-69554917D01*
X127364211Y-69554917D02*
X127297544Y-69588250D01*
X127297544Y-69588250D02*
X127164211Y-69588250D01*
X127164211Y-69588250D02*
X127097544Y-69554917D01*
X127097544Y-69554917D02*
X127064211Y-69521583D01*
X127064211Y-69521583D02*
X127030877Y-69454917D01*
X127030877Y-69454917D02*
X127030877Y-69321583D01*
X127030877Y-69321583D02*
X127064211Y-69254917D01*
X127064211Y-69254917D02*
X127097544Y-69221583D01*
X127097544Y-69221583D02*
X127164211Y-69188250D01*
X126797544Y-68888250D02*
X126364210Y-68888250D01*
X126364210Y-68888250D02*
X126597544Y-69154917D01*
X126597544Y-69154917D02*
X126497544Y-69154917D01*
X126497544Y-69154917D02*
X126430877Y-69188250D01*
X126430877Y-69188250D02*
X126397544Y-69221583D01*
X126397544Y-69221583D02*
X126364210Y-69288250D01*
X126364210Y-69288250D02*
X126364210Y-69454917D01*
X126364210Y-69454917D02*
X126397544Y-69521583D01*
X126397544Y-69521583D02*
X126430877Y-69554917D01*
X126430877Y-69554917D02*
X126497544Y-69588250D01*
X126497544Y-69588250D02*
X126697544Y-69588250D01*
X126697544Y-69588250D02*
X126764210Y-69554917D01*
X126764210Y-69554917D02*
X126797544Y-69521583D01*
X126097543Y-68954917D02*
X126064210Y-68921583D01*
X126064210Y-68921583D02*
X125997543Y-68888250D01*
X125997543Y-68888250D02*
X125830877Y-68888250D01*
X125830877Y-68888250D02*
X125764210Y-68921583D01*
X125764210Y-68921583D02*
X125730877Y-68954917D01*
X125730877Y-68954917D02*
X125697543Y-69021583D01*
X125697543Y-69021583D02*
X125697543Y-69088250D01*
X125697543Y-69088250D02*
X125730877Y-69188250D01*
X125730877Y-69188250D02*
X126130877Y-69588250D01*
X126130877Y-69588250D02*
X125697543Y-69588250D01*
X125464210Y-68888250D02*
X125030876Y-68888250D01*
X125030876Y-68888250D02*
X125264210Y-69154917D01*
X125264210Y-69154917D02*
X125164210Y-69154917D01*
X125164210Y-69154917D02*
X125097543Y-69188250D01*
X125097543Y-69188250D02*
X125064210Y-69221583D01*
X125064210Y-69221583D02*
X125030876Y-69288250D01*
X125030876Y-69288250D02*
X125030876Y-69454917D01*
X125030876Y-69454917D02*
X125064210Y-69521583D01*
X125064210Y-69521583D02*
X125097543Y-69554917D01*
X125097543Y-69554917D02*
X125164210Y-69588250D01*
X125164210Y-69588250D02*
X125364210Y-69588250D01*
X125364210Y-69588250D02*
X125430876Y-69554917D01*
X125430876Y-69554917D02*
X125464210Y-69521583D01*
X124764209Y-69554917D02*
X124664209Y-69588250D01*
X124664209Y-69588250D02*
X124497543Y-69588250D01*
X124497543Y-69588250D02*
X124430876Y-69554917D01*
X124430876Y-69554917D02*
X124397543Y-69521583D01*
X124397543Y-69521583D02*
X124364209Y-69454917D01*
X124364209Y-69454917D02*
X124364209Y-69388250D01*
X124364209Y-69388250D02*
X124397543Y-69321583D01*
X124397543Y-69321583D02*
X124430876Y-69288250D01*
X124430876Y-69288250D02*
X124497543Y-69254917D01*
X124497543Y-69254917D02*
X124630876Y-69221583D01*
X124630876Y-69221583D02*
X124697543Y-69188250D01*
X124697543Y-69188250D02*
X124730876Y-69154917D01*
X124730876Y-69154917D02*
X124764209Y-69088250D01*
X124764209Y-69088250D02*
X124764209Y-69021583D01*
X124764209Y-69021583D02*
X124730876Y-68954917D01*
X124730876Y-68954917D02*
X124697543Y-68921583D01*
X124697543Y-68921583D02*
X124630876Y-68888250D01*
X124630876Y-68888250D02*
X124464209Y-68888250D01*
X124464209Y-68888250D02*
X124364209Y-68921583D01*
X129164211Y-70348544D02*
X129064211Y-70381878D01*
X129064211Y-70381878D02*
X129030877Y-70415211D01*
X129030877Y-70415211D02*
X128997544Y-70481878D01*
X128997544Y-70481878D02*
X128997544Y-70581878D01*
X128997544Y-70581878D02*
X129030877Y-70648544D01*
X129030877Y-70648544D02*
X129064211Y-70681878D01*
X129064211Y-70681878D02*
X129130877Y-70715211D01*
X129130877Y-70715211D02*
X129397544Y-70715211D01*
X129397544Y-70715211D02*
X129397544Y-70015211D01*
X129397544Y-70015211D02*
X129164211Y-70015211D01*
X129164211Y-70015211D02*
X129097544Y-70048544D01*
X129097544Y-70048544D02*
X129064211Y-70081878D01*
X129064211Y-70081878D02*
X129030877Y-70148544D01*
X129030877Y-70148544D02*
X129030877Y-70215211D01*
X129030877Y-70215211D02*
X129064211Y-70281878D01*
X129064211Y-70281878D02*
X129097544Y-70315211D01*
X129097544Y-70315211D02*
X129164211Y-70348544D01*
X129164211Y-70348544D02*
X129397544Y-70348544D01*
X128364211Y-70715211D02*
X128697544Y-70715211D01*
X128697544Y-70715211D02*
X128697544Y-70015211D01*
X128130877Y-70715211D02*
X128130877Y-70015211D01*
X128130877Y-70015211D02*
X127964210Y-70015211D01*
X127964210Y-70015211D02*
X127864210Y-70048544D01*
X127864210Y-70048544D02*
X127797544Y-70115211D01*
X127797544Y-70115211D02*
X127764210Y-70181878D01*
X127764210Y-70181878D02*
X127730877Y-70315211D01*
X127730877Y-70315211D02*
X127730877Y-70415211D01*
X127730877Y-70415211D02*
X127764210Y-70548544D01*
X127764210Y-70548544D02*
X127797544Y-70615211D01*
X127797544Y-70615211D02*
X127864210Y-70681878D01*
X127864210Y-70681878D02*
X127964210Y-70715211D01*
X127964210Y-70715211D02*
X128130877Y-70715211D01*
X127030877Y-70648544D02*
X127064210Y-70681878D01*
X127064210Y-70681878D02*
X127164210Y-70715211D01*
X127164210Y-70715211D02*
X127230877Y-70715211D01*
X127230877Y-70715211D02*
X127330877Y-70681878D01*
X127330877Y-70681878D02*
X127397544Y-70615211D01*
X127397544Y-70615211D02*
X127430877Y-70548544D01*
X127430877Y-70548544D02*
X127464210Y-70415211D01*
X127464210Y-70415211D02*
X127464210Y-70315211D01*
X127464210Y-70315211D02*
X127430877Y-70181878D01*
X127430877Y-70181878D02*
X127397544Y-70115211D01*
X127397544Y-70115211D02*
X127330877Y-70048544D01*
X127330877Y-70048544D02*
X127230877Y-70015211D01*
X127230877Y-70015211D02*
X127164210Y-70015211D01*
X127164210Y-70015211D02*
X127064210Y-70048544D01*
X127064210Y-70048544D02*
X127030877Y-70081878D01*
X126197544Y-70715211D02*
X126197544Y-70015211D01*
X126197544Y-70015211D02*
X126030877Y-70015211D01*
X126030877Y-70015211D02*
X125930877Y-70048544D01*
X125930877Y-70048544D02*
X125864211Y-70115211D01*
X125864211Y-70115211D02*
X125830877Y-70181878D01*
X125830877Y-70181878D02*
X125797544Y-70315211D01*
X125797544Y-70315211D02*
X125797544Y-70415211D01*
X125797544Y-70415211D02*
X125830877Y-70548544D01*
X125830877Y-70548544D02*
X125864211Y-70615211D01*
X125864211Y-70615211D02*
X125930877Y-70681878D01*
X125930877Y-70681878D02*
X126030877Y-70715211D01*
X126030877Y-70715211D02*
X126197544Y-70715211D01*
X125497544Y-70715211D02*
X125497544Y-70248544D01*
X125497544Y-70381878D02*
X125464211Y-70315211D01*
X125464211Y-70315211D02*
X125430877Y-70281878D01*
X125430877Y-70281878D02*
X125364211Y-70248544D01*
X125364211Y-70248544D02*
X125297544Y-70248544D01*
X125064211Y-70715211D02*
X125064211Y-70248544D01*
X125064211Y-70015211D02*
X125097544Y-70048544D01*
X125097544Y-70048544D02*
X125064211Y-70081878D01*
X125064211Y-70081878D02*
X125030878Y-70048544D01*
X125030878Y-70048544D02*
X125064211Y-70015211D01*
X125064211Y-70015211D02*
X125064211Y-70081878D01*
X124797545Y-70248544D02*
X124630878Y-70715211D01*
X124630878Y-70715211D02*
X124464211Y-70248544D01*
X123930878Y-70681878D02*
X123997545Y-70715211D01*
X123997545Y-70715211D02*
X124130878Y-70715211D01*
X124130878Y-70715211D02*
X124197545Y-70681878D01*
X124197545Y-70681878D02*
X124230878Y-70615211D01*
X124230878Y-70615211D02*
X124230878Y-70348544D01*
X124230878Y-70348544D02*
X124197545Y-70281878D01*
X124197545Y-70281878D02*
X124130878Y-70248544D01*
X124130878Y-70248544D02*
X123997545Y-70248544D01*
X123997545Y-70248544D02*
X123930878Y-70281878D01*
X123930878Y-70281878D02*
X123897545Y-70348544D01*
X123897545Y-70348544D02*
X123897545Y-70415211D01*
X123897545Y-70415211D02*
X124230878Y-70481878D01*
X123597545Y-70715211D02*
X123597545Y-70248544D01*
X123597545Y-70381878D02*
X123564212Y-70315211D01*
X123564212Y-70315211D02*
X123530878Y-70281878D01*
X123530878Y-70281878D02*
X123464212Y-70248544D01*
X123464212Y-70248544D02*
X123397545Y-70248544D01*
X129464211Y-71375505D02*
X129330877Y-71842172D01*
X129330877Y-71842172D02*
X129197544Y-71508839D01*
X129197544Y-71508839D02*
X129064211Y-71842172D01*
X129064211Y-71842172D02*
X128930877Y-71375505D01*
X128164211Y-71108839D02*
X128764211Y-72008839D01*
X127064212Y-71842172D02*
X127397545Y-71842172D01*
X127397545Y-71842172D02*
X127397545Y-71142172D01*
X126730878Y-71842172D02*
X126797545Y-71808839D01*
X126797545Y-71808839D02*
X126830878Y-71775505D01*
X126830878Y-71775505D02*
X126864211Y-71708839D01*
X126864211Y-71708839D02*
X126864211Y-71508839D01*
X126864211Y-71508839D02*
X126830878Y-71442172D01*
X126830878Y-71442172D02*
X126797545Y-71408839D01*
X126797545Y-71408839D02*
X126730878Y-71375505D01*
X126730878Y-71375505D02*
X126630878Y-71375505D01*
X126630878Y-71375505D02*
X126564211Y-71408839D01*
X126564211Y-71408839D02*
X126530878Y-71442172D01*
X126530878Y-71442172D02*
X126497545Y-71508839D01*
X126497545Y-71508839D02*
X126497545Y-71708839D01*
X126497545Y-71708839D02*
X126530878Y-71775505D01*
X126530878Y-71775505D02*
X126564211Y-71808839D01*
X126564211Y-71808839D02*
X126630878Y-71842172D01*
X126630878Y-71842172D02*
X126730878Y-71842172D01*
X126264212Y-71375505D02*
X126130878Y-71842172D01*
X126130878Y-71842172D02*
X125997545Y-71508839D01*
X125997545Y-71508839D02*
X125864212Y-71842172D01*
X125864212Y-71842172D02*
X125730878Y-71375505D01*
X124964212Y-71808839D02*
X124864212Y-71842172D01*
X124864212Y-71842172D02*
X124697546Y-71842172D01*
X124697546Y-71842172D02*
X124630879Y-71808839D01*
X124630879Y-71808839D02*
X124597546Y-71775505D01*
X124597546Y-71775505D02*
X124564212Y-71708839D01*
X124564212Y-71708839D02*
X124564212Y-71642172D01*
X124564212Y-71642172D02*
X124597546Y-71575505D01*
X124597546Y-71575505D02*
X124630879Y-71542172D01*
X124630879Y-71542172D02*
X124697546Y-71508839D01*
X124697546Y-71508839D02*
X124830879Y-71475505D01*
X124830879Y-71475505D02*
X124897546Y-71442172D01*
X124897546Y-71442172D02*
X124930879Y-71408839D01*
X124930879Y-71408839D02*
X124964212Y-71342172D01*
X124964212Y-71342172D02*
X124964212Y-71275505D01*
X124964212Y-71275505D02*
X124930879Y-71208839D01*
X124930879Y-71208839D02*
X124897546Y-71175505D01*
X124897546Y-71175505D02*
X124830879Y-71142172D01*
X124830879Y-71142172D02*
X124664212Y-71142172D01*
X124664212Y-71142172D02*
X124564212Y-71175505D01*
X124264212Y-71842172D02*
X124264212Y-71375505D01*
X124264212Y-71142172D02*
X124297545Y-71175505D01*
X124297545Y-71175505D02*
X124264212Y-71208839D01*
X124264212Y-71208839D02*
X124230879Y-71175505D01*
X124230879Y-71175505D02*
X124264212Y-71142172D01*
X124264212Y-71142172D02*
X124264212Y-71208839D01*
X123630879Y-71842172D02*
X123630879Y-71142172D01*
X123630879Y-71808839D02*
X123697546Y-71842172D01*
X123697546Y-71842172D02*
X123830879Y-71842172D01*
X123830879Y-71842172D02*
X123897546Y-71808839D01*
X123897546Y-71808839D02*
X123930879Y-71775505D01*
X123930879Y-71775505D02*
X123964212Y-71708839D01*
X123964212Y-71708839D02*
X123964212Y-71508839D01*
X123964212Y-71508839D02*
X123930879Y-71442172D01*
X123930879Y-71442172D02*
X123897546Y-71408839D01*
X123897546Y-71408839D02*
X123830879Y-71375505D01*
X123830879Y-71375505D02*
X123697546Y-71375505D01*
X123697546Y-71375505D02*
X123630879Y-71408839D01*
X123030879Y-71808839D02*
X123097546Y-71842172D01*
X123097546Y-71842172D02*
X123230879Y-71842172D01*
X123230879Y-71842172D02*
X123297546Y-71808839D01*
X123297546Y-71808839D02*
X123330879Y-71742172D01*
X123330879Y-71742172D02*
X123330879Y-71475505D01*
X123330879Y-71475505D02*
X123297546Y-71408839D01*
X123297546Y-71408839D02*
X123230879Y-71375505D01*
X123230879Y-71375505D02*
X123097546Y-71375505D01*
X123097546Y-71375505D02*
X123030879Y-71408839D01*
X123030879Y-71408839D02*
X122997546Y-71475505D01*
X122997546Y-71475505D02*
X122997546Y-71542172D01*
X122997546Y-71542172D02*
X123330879Y-71608839D01*
X121764213Y-71775505D02*
X121797546Y-71808839D01*
X121797546Y-71808839D02*
X121897546Y-71842172D01*
X121897546Y-71842172D02*
X121964213Y-71842172D01*
X121964213Y-71842172D02*
X122064213Y-71808839D01*
X122064213Y-71808839D02*
X122130880Y-71742172D01*
X122130880Y-71742172D02*
X122164213Y-71675505D01*
X122164213Y-71675505D02*
X122197546Y-71542172D01*
X122197546Y-71542172D02*
X122197546Y-71442172D01*
X122197546Y-71442172D02*
X122164213Y-71308839D01*
X122164213Y-71308839D02*
X122130880Y-71242172D01*
X122130880Y-71242172D02*
X122064213Y-71175505D01*
X122064213Y-71175505D02*
X121964213Y-71142172D01*
X121964213Y-71142172D02*
X121897546Y-71142172D01*
X121897546Y-71142172D02*
X121797546Y-71175505D01*
X121797546Y-71175505D02*
X121764213Y-71208839D01*
X121497546Y-71808839D02*
X121397546Y-71842172D01*
X121397546Y-71842172D02*
X121230880Y-71842172D01*
X121230880Y-71842172D02*
X121164213Y-71808839D01*
X121164213Y-71808839D02*
X121130880Y-71775505D01*
X121130880Y-71775505D02*
X121097546Y-71708839D01*
X121097546Y-71708839D02*
X121097546Y-71642172D01*
X121097546Y-71642172D02*
X121130880Y-71575505D01*
X121130880Y-71575505D02*
X121164213Y-71542172D01*
X121164213Y-71542172D02*
X121230880Y-71508839D01*
X121230880Y-71508839D02*
X121364213Y-71475505D01*
X121364213Y-71475505D02*
X121430880Y-71442172D01*
X121430880Y-71442172D02*
X121464213Y-71408839D01*
X121464213Y-71408839D02*
X121497546Y-71342172D01*
X121497546Y-71342172D02*
X121497546Y-71275505D01*
X121497546Y-71275505D02*
X121464213Y-71208839D01*
X121464213Y-71208839D02*
X121430880Y-71175505D01*
X121430880Y-71175505D02*
X121364213Y-71142172D01*
X121364213Y-71142172D02*
X121197546Y-71142172D01*
X121197546Y-71142172D02*
X121097546Y-71175505D01*
X129430877Y-72935800D02*
X129330877Y-72969133D01*
X129330877Y-72969133D02*
X129164211Y-72969133D01*
X129164211Y-72969133D02*
X129097544Y-72935800D01*
X129097544Y-72935800D02*
X129064211Y-72902466D01*
X129064211Y-72902466D02*
X129030877Y-72835800D01*
X129030877Y-72835800D02*
X129030877Y-72769133D01*
X129030877Y-72769133D02*
X129064211Y-72702466D01*
X129064211Y-72702466D02*
X129097544Y-72669133D01*
X129097544Y-72669133D02*
X129164211Y-72635800D01*
X129164211Y-72635800D02*
X129297544Y-72602466D01*
X129297544Y-72602466D02*
X129364211Y-72569133D01*
X129364211Y-72569133D02*
X129397544Y-72535800D01*
X129397544Y-72535800D02*
X129430877Y-72469133D01*
X129430877Y-72469133D02*
X129430877Y-72402466D01*
X129430877Y-72402466D02*
X129397544Y-72335800D01*
X129397544Y-72335800D02*
X129364211Y-72302466D01*
X129364211Y-72302466D02*
X129297544Y-72269133D01*
X129297544Y-72269133D02*
X129130877Y-72269133D01*
X129130877Y-72269133D02*
X129030877Y-72302466D01*
X128730877Y-72969133D02*
X128730877Y-72269133D01*
X128730877Y-72269133D02*
X128464210Y-72269133D01*
X128464210Y-72269133D02*
X128397544Y-72302466D01*
X128397544Y-72302466D02*
X128364210Y-72335800D01*
X128364210Y-72335800D02*
X128330877Y-72402466D01*
X128330877Y-72402466D02*
X128330877Y-72502466D01*
X128330877Y-72502466D02*
X128364210Y-72569133D01*
X128364210Y-72569133D02*
X128397544Y-72602466D01*
X128397544Y-72602466D02*
X128464210Y-72635800D01*
X128464210Y-72635800D02*
X128730877Y-72635800D01*
X128030877Y-72969133D02*
X128030877Y-72269133D01*
X126864211Y-72935800D02*
X126930878Y-72969133D01*
X126930878Y-72969133D02*
X127064211Y-72969133D01*
X127064211Y-72969133D02*
X127130878Y-72935800D01*
X127130878Y-72935800D02*
X127164211Y-72902466D01*
X127164211Y-72902466D02*
X127197544Y-72835800D01*
X127197544Y-72835800D02*
X127197544Y-72635800D01*
X127197544Y-72635800D02*
X127164211Y-72569133D01*
X127164211Y-72569133D02*
X127130878Y-72535800D01*
X127130878Y-72535800D02*
X127064211Y-72502466D01*
X127064211Y-72502466D02*
X126930878Y-72502466D01*
X126930878Y-72502466D02*
X126864211Y-72535800D01*
X126464211Y-72969133D02*
X126530878Y-72935800D01*
X126530878Y-72935800D02*
X126564211Y-72902466D01*
X126564211Y-72902466D02*
X126597544Y-72835800D01*
X126597544Y-72835800D02*
X126597544Y-72635800D01*
X126597544Y-72635800D02*
X126564211Y-72569133D01*
X126564211Y-72569133D02*
X126530878Y-72535800D01*
X126530878Y-72535800D02*
X126464211Y-72502466D01*
X126464211Y-72502466D02*
X126364211Y-72502466D01*
X126364211Y-72502466D02*
X126297544Y-72535800D01*
X126297544Y-72535800D02*
X126264211Y-72569133D01*
X126264211Y-72569133D02*
X126230878Y-72635800D01*
X126230878Y-72635800D02*
X126230878Y-72835800D01*
X126230878Y-72835800D02*
X126264211Y-72902466D01*
X126264211Y-72902466D02*
X126297544Y-72935800D01*
X126297544Y-72935800D02*
X126364211Y-72969133D01*
X126364211Y-72969133D02*
X126464211Y-72969133D01*
X125930878Y-72502466D02*
X125930878Y-72969133D01*
X125930878Y-72569133D02*
X125897545Y-72535800D01*
X125897545Y-72535800D02*
X125830878Y-72502466D01*
X125830878Y-72502466D02*
X125730878Y-72502466D01*
X125730878Y-72502466D02*
X125664211Y-72535800D01*
X125664211Y-72535800D02*
X125630878Y-72602466D01*
X125630878Y-72602466D02*
X125630878Y-72969133D01*
X125397545Y-72502466D02*
X125130878Y-72502466D01*
X125297545Y-72969133D02*
X125297545Y-72369133D01*
X125297545Y-72369133D02*
X125264212Y-72302466D01*
X125264212Y-72302466D02*
X125197545Y-72269133D01*
X125197545Y-72269133D02*
X125130878Y-72269133D01*
X124897545Y-72969133D02*
X124897545Y-72502466D01*
X124897545Y-72269133D02*
X124930878Y-72302466D01*
X124930878Y-72302466D02*
X124897545Y-72335800D01*
X124897545Y-72335800D02*
X124864212Y-72302466D01*
X124864212Y-72302466D02*
X124897545Y-72269133D01*
X124897545Y-72269133D02*
X124897545Y-72335800D01*
X124264212Y-72502466D02*
X124264212Y-73069133D01*
X124264212Y-73069133D02*
X124297545Y-73135800D01*
X124297545Y-73135800D02*
X124330879Y-73169133D01*
X124330879Y-73169133D02*
X124397545Y-73202466D01*
X124397545Y-73202466D02*
X124497545Y-73202466D01*
X124497545Y-73202466D02*
X124564212Y-73169133D01*
X124264212Y-72935800D02*
X124330879Y-72969133D01*
X124330879Y-72969133D02*
X124464212Y-72969133D01*
X124464212Y-72969133D02*
X124530879Y-72935800D01*
X124530879Y-72935800D02*
X124564212Y-72902466D01*
X124564212Y-72902466D02*
X124597545Y-72835800D01*
X124597545Y-72835800D02*
X124597545Y-72635800D01*
X124597545Y-72635800D02*
X124564212Y-72569133D01*
X124564212Y-72569133D02*
X124530879Y-72535800D01*
X124530879Y-72535800D02*
X124464212Y-72502466D01*
X124464212Y-72502466D02*
X124330879Y-72502466D01*
X124330879Y-72502466D02*
X124264212Y-72535800D01*
X123630879Y-72502466D02*
X123630879Y-72969133D01*
X123930879Y-72502466D02*
X123930879Y-72869133D01*
X123930879Y-72869133D02*
X123897546Y-72935800D01*
X123897546Y-72935800D02*
X123830879Y-72969133D01*
X123830879Y-72969133D02*
X123730879Y-72969133D01*
X123730879Y-72969133D02*
X123664212Y-72935800D01*
X123664212Y-72935800D02*
X123630879Y-72902466D01*
X123297546Y-72969133D02*
X123297546Y-72502466D01*
X123297546Y-72635800D02*
X123264213Y-72569133D01*
X123264213Y-72569133D02*
X123230879Y-72535800D01*
X123230879Y-72535800D02*
X123164213Y-72502466D01*
X123164213Y-72502466D02*
X123097546Y-72502466D01*
X122564213Y-72969133D02*
X122564213Y-72602466D01*
X122564213Y-72602466D02*
X122597546Y-72535800D01*
X122597546Y-72535800D02*
X122664213Y-72502466D01*
X122664213Y-72502466D02*
X122797546Y-72502466D01*
X122797546Y-72502466D02*
X122864213Y-72535800D01*
X122564213Y-72935800D02*
X122630880Y-72969133D01*
X122630880Y-72969133D02*
X122797546Y-72969133D01*
X122797546Y-72969133D02*
X122864213Y-72935800D01*
X122864213Y-72935800D02*
X122897546Y-72869133D01*
X122897546Y-72869133D02*
X122897546Y-72802466D01*
X122897546Y-72802466D02*
X122864213Y-72735800D01*
X122864213Y-72735800D02*
X122797546Y-72702466D01*
X122797546Y-72702466D02*
X122630880Y-72702466D01*
X122630880Y-72702466D02*
X122564213Y-72669133D01*
X122230880Y-72969133D02*
X122230880Y-72269133D01*
X122230880Y-72535800D02*
X122164213Y-72502466D01*
X122164213Y-72502466D02*
X122030880Y-72502466D01*
X122030880Y-72502466D02*
X121964213Y-72535800D01*
X121964213Y-72535800D02*
X121930880Y-72569133D01*
X121930880Y-72569133D02*
X121897547Y-72635800D01*
X121897547Y-72635800D02*
X121897547Y-72835800D01*
X121897547Y-72835800D02*
X121930880Y-72902466D01*
X121930880Y-72902466D02*
X121964213Y-72935800D01*
X121964213Y-72935800D02*
X122030880Y-72969133D01*
X122030880Y-72969133D02*
X122164213Y-72969133D01*
X122164213Y-72969133D02*
X122230880Y-72935800D01*
X121497547Y-72969133D02*
X121564214Y-72935800D01*
X121564214Y-72935800D02*
X121597547Y-72869133D01*
X121597547Y-72869133D02*
X121597547Y-72269133D01*
X120964213Y-72935800D02*
X121030880Y-72969133D01*
X121030880Y-72969133D02*
X121164213Y-72969133D01*
X121164213Y-72969133D02*
X121230880Y-72935800D01*
X121230880Y-72935800D02*
X121264213Y-72869133D01*
X121264213Y-72869133D02*
X121264213Y-72602466D01*
X121264213Y-72602466D02*
X121230880Y-72535800D01*
X121230880Y-72535800D02*
X121164213Y-72502466D01*
X121164213Y-72502466D02*
X121030880Y-72502466D01*
X121030880Y-72502466D02*
X120964213Y-72535800D01*
X120964213Y-72535800D02*
X120930880Y-72602466D01*
X120930880Y-72602466D02*
X120930880Y-72669133D01*
X120930880Y-72669133D02*
X121264213Y-72735800D01*
M02*
