%TF.GenerationSoftware,KiCad,Pcbnew,9.0.7*%
%TF.CreationDate,2026-03-23T23:57:09-07:00*%
%TF.ProjectId,drv8323-breakout,64727638-3332-4332-9d62-7265616b6f75,rev?*%
%TF.SameCoordinates,Original*%
%TF.FileFunction,Soldermask,Top*%
%TF.FilePolarity,Negative*%
%FSLAX46Y46*%
G04 Gerber Fmt 4.6, Leading zero omitted, Abs format (unit mm)*
G04 Created by KiCad (PCBNEW 9.0.7) date 2026-03-23 23:57:09*
%MOMM*%
%LPD*%
G01*
G04 APERTURE LIST*
G04 Aperture macros list*
%AMRoundRect*
0 Rectangle with rounded corners*
0 $1 Rounding radius*
0 $2 $3 $4 $5 $6 $7 $8 $9 X,Y pos of 4 corners*
0 Add a 4 corners polygon primitive as box body*
4,1,4,$2,$3,$4,$5,$6,$7,$8,$9,$2,$3,0*
0 Add four circle primitives for the rounded corners*
1,1,$1+$1,$2,$3*
1,1,$1+$1,$4,$5*
1,1,$1+$1,$6,$7*
1,1,$1+$1,$8,$9*
0 Add four rect primitives between the rounded corners*
20,1,$1+$1,$2,$3,$4,$5,0*
20,1,$1+$1,$4,$5,$6,$7,0*
20,1,$1+$1,$6,$7,$8,$9,0*
20,1,$1+$1,$8,$9,$2,$3,0*%
G04 Aperture macros list end*
%ADD10C,0.000000*%
%ADD11C,1.700000*%
%ADD12R,1.700000X1.700000*%
%ADD13RoundRect,0.250000X-0.650000X1.450000X-0.650000X-1.450000X0.650000X-1.450000X0.650000X1.450000X0*%
%ADD14RoundRect,0.250000X0.337500X0.475000X-0.337500X0.475000X-0.337500X-0.475000X0.337500X-0.475000X0*%
%ADD15RoundRect,0.249999X1.425001X-0.450001X1.425001X0.450001X-1.425001X0.450001X-1.425001X-0.450001X0*%
%ADD16R,3.911600X1.498600*%
%ADD17RoundRect,0.250000X0.450000X-0.325000X0.450000X0.325000X-0.450000X0.325000X-0.450000X-0.325000X0*%
%ADD18RoundRect,0.249999X-1.425001X0.450001X-1.425001X-0.450001X1.425001X-0.450001X1.425001X0.450001X0*%
%ADD19C,1.500000*%
%ADD20R,0.630000X0.650000*%
%ADD21R,4.280270X4.459998*%
%ADD22O,0.230000X0.599999*%
%ADD23O,0.599999X0.230000*%
%ADD24C,0.499999*%
%ADD25R,4.150000X4.150000*%
%ADD26RoundRect,0.250000X1.450000X0.650000X-1.450000X0.650000X-1.450000X-0.650000X1.450000X-0.650000X0*%
%ADD27RoundRect,0.250000X-0.475000X0.337500X-0.475000X-0.337500X0.475000X-0.337500X0.475000X0.337500X0*%
%ADD28RoundRect,0.250000X-0.337500X-0.475000X0.337500X-0.475000X0.337500X0.475000X-0.337500X0.475000X0*%
%ADD29RoundRect,0.250000X0.750000X-0.750000X0.750000X0.750000X-0.750000X0.750000X-0.750000X-0.750000X0*%
%ADD30C,2.000000*%
%ADD31C,2.154000*%
%ADD32RoundRect,0.250000X0.450000X-0.350000X0.450000X0.350000X-0.450000X0.350000X-0.450000X-0.350000X0*%
%ADD33RoundRect,0.250000X-0.574524X-0.097227X-0.097227X-0.574524X0.574524X0.097227X0.097227X0.574524X0*%
%ADD34C,4.400000*%
%ADD35C,2.600000*%
G04 APERTURE END LIST*
D10*
%TO.C,U2*%
G36*
X133649928Y-85990000D02*
G01*
X132879928Y-85990000D01*
X132879928Y-85200000D01*
X133649928Y-85200000D01*
X133649928Y-85990000D01*
G37*
G36*
X133649928Y-87260000D02*
G01*
X132879928Y-87260000D01*
X132879928Y-86470000D01*
X133649928Y-86470000D01*
X133649928Y-87260000D01*
G37*
G36*
X133649928Y-88530000D02*
G01*
X132879928Y-88530000D01*
X132879928Y-87740000D01*
X133649928Y-87740000D01*
X133649928Y-88530000D01*
G37*
G36*
X133649928Y-89800000D02*
G01*
X132879928Y-89800000D01*
X132879928Y-89010000D01*
X133649928Y-89010000D01*
X133649928Y-89800000D01*
G37*
G36*
X139120072Y-85990000D02*
G01*
X138350072Y-85990000D01*
X138350072Y-85200000D01*
X139120072Y-85200000D01*
X139120072Y-85990000D01*
G37*
G36*
X139120072Y-87260000D02*
G01*
X138350072Y-87260000D01*
X138350072Y-86470000D01*
X139120072Y-86470000D01*
X139120072Y-87260000D01*
G37*
G36*
X139120072Y-88530000D02*
G01*
X138350072Y-88530000D01*
X138350072Y-87740000D01*
X139120072Y-87740000D01*
X139120072Y-88530000D01*
G37*
G36*
X139120072Y-89800000D02*
G01*
X138350072Y-89800000D01*
X138350072Y-89010000D01*
X139120072Y-89010000D01*
X139120072Y-89800000D01*
G37*
G36*
X138745201Y-87500000D02*
G01*
X134454801Y-87500000D01*
X134454801Y-85270001D01*
X138745201Y-85270001D01*
X138745201Y-87500000D01*
G37*
G36*
X138745201Y-89729999D02*
G01*
X134454801Y-89729999D01*
X134454801Y-87500000D01*
X138745201Y-87500000D01*
X138745201Y-89729999D01*
G37*
%TO.C,U5*%
G36*
X133649928Y-66490000D02*
G01*
X132879928Y-66490000D01*
X132879928Y-65700000D01*
X133649928Y-65700000D01*
X133649928Y-66490000D01*
G37*
G36*
X133649928Y-67760000D02*
G01*
X132879928Y-67760000D01*
X132879928Y-66970000D01*
X133649928Y-66970000D01*
X133649928Y-67760000D01*
G37*
G36*
X133649928Y-69030000D02*
G01*
X132879928Y-69030000D01*
X132879928Y-68240000D01*
X133649928Y-68240000D01*
X133649928Y-69030000D01*
G37*
G36*
X133649928Y-70300000D02*
G01*
X132879928Y-70300000D01*
X132879928Y-69510000D01*
X133649928Y-69510000D01*
X133649928Y-70300000D01*
G37*
G36*
X139120072Y-66490000D02*
G01*
X138350072Y-66490000D01*
X138350072Y-65700000D01*
X139120072Y-65700000D01*
X139120072Y-66490000D01*
G37*
G36*
X139120072Y-67760000D02*
G01*
X138350072Y-67760000D01*
X138350072Y-66970000D01*
X139120072Y-66970000D01*
X139120072Y-67760000D01*
G37*
G36*
X139120072Y-69030000D02*
G01*
X138350072Y-69030000D01*
X138350072Y-68240000D01*
X139120072Y-68240000D01*
X139120072Y-69030000D01*
G37*
G36*
X139120072Y-70300000D02*
G01*
X138350072Y-70300000D01*
X138350072Y-69510000D01*
X139120072Y-69510000D01*
X139120072Y-70300000D01*
G37*
G36*
X138745201Y-68000000D02*
G01*
X134454801Y-68000000D01*
X134454801Y-65770001D01*
X138745201Y-65770001D01*
X138745201Y-68000000D01*
G37*
G36*
X138745201Y-70229999D02*
G01*
X134454801Y-70229999D01*
X134454801Y-68000000D01*
X138745201Y-68000000D01*
X138745201Y-70229999D01*
G37*
%TO.C,U4*%
G36*
X133649928Y-79489999D02*
G01*
X132879928Y-79489999D01*
X132879928Y-78699999D01*
X133649928Y-78699999D01*
X133649928Y-79489999D01*
G37*
G36*
X133649928Y-80759999D02*
G01*
X132879928Y-80759999D01*
X132879928Y-79969999D01*
X133649928Y-79969999D01*
X133649928Y-80759999D01*
G37*
G36*
X133649928Y-82029999D02*
G01*
X132879928Y-82029999D01*
X132879928Y-81239999D01*
X133649928Y-81239999D01*
X133649928Y-82029999D01*
G37*
G36*
X133649928Y-83299999D02*
G01*
X132879928Y-83299999D01*
X132879928Y-82509999D01*
X133649928Y-82509999D01*
X133649928Y-83299999D01*
G37*
G36*
X139120072Y-79489999D02*
G01*
X138350072Y-79489999D01*
X138350072Y-78699999D01*
X139120072Y-78699999D01*
X139120072Y-79489999D01*
G37*
G36*
X139120072Y-80759999D02*
G01*
X138350072Y-80759999D01*
X138350072Y-79969999D01*
X139120072Y-79969999D01*
X139120072Y-80759999D01*
G37*
G36*
X139120072Y-82029999D02*
G01*
X138350072Y-82029999D01*
X138350072Y-81239999D01*
X139120072Y-81239999D01*
X139120072Y-82029999D01*
G37*
G36*
X139120072Y-83299999D02*
G01*
X138350072Y-83299999D01*
X138350072Y-82509999D01*
X139120072Y-82509999D01*
X139120072Y-83299999D01*
G37*
G36*
X138745201Y-80999999D02*
G01*
X134454801Y-80999999D01*
X134454801Y-78770000D01*
X138745201Y-78770000D01*
X138745201Y-80999999D01*
G37*
G36*
X138745201Y-83229998D02*
G01*
X134454801Y-83229998D01*
X134454801Y-80999999D01*
X138745201Y-80999999D01*
X138745201Y-83229998D01*
G37*
%TO.C,U6*%
G36*
X133649928Y-59990000D02*
G01*
X132879928Y-59990000D01*
X132879928Y-59200000D01*
X133649928Y-59200000D01*
X133649928Y-59990000D01*
G37*
G36*
X133649928Y-61260000D02*
G01*
X132879928Y-61260000D01*
X132879928Y-60470000D01*
X133649928Y-60470000D01*
X133649928Y-61260000D01*
G37*
G36*
X133649928Y-62530000D02*
G01*
X132879928Y-62530000D01*
X132879928Y-61740000D01*
X133649928Y-61740000D01*
X133649928Y-62530000D01*
G37*
G36*
X133649928Y-63800000D02*
G01*
X132879928Y-63800000D01*
X132879928Y-63010000D01*
X133649928Y-63010000D01*
X133649928Y-63800000D01*
G37*
G36*
X139120072Y-59990000D02*
G01*
X138350072Y-59990000D01*
X138350072Y-59200000D01*
X139120072Y-59200000D01*
X139120072Y-59990000D01*
G37*
G36*
X139120072Y-61260000D02*
G01*
X138350072Y-61260000D01*
X138350072Y-60470000D01*
X139120072Y-60470000D01*
X139120072Y-61260000D01*
G37*
G36*
X139120072Y-62530000D02*
G01*
X138350072Y-62530000D01*
X138350072Y-61740000D01*
X139120072Y-61740000D01*
X139120072Y-62530000D01*
G37*
G36*
X139120072Y-63800000D02*
G01*
X138350072Y-63800000D01*
X138350072Y-63010000D01*
X139120072Y-63010000D01*
X139120072Y-63800000D01*
G37*
G36*
X138745201Y-61500000D02*
G01*
X134454801Y-61500000D01*
X134454801Y-59270001D01*
X138745201Y-59270001D01*
X138745201Y-61500000D01*
G37*
G36*
X138745201Y-63729999D02*
G01*
X134454801Y-63729999D01*
X134454801Y-61500000D01*
X138745201Y-61500000D01*
X138745201Y-63729999D01*
G37*
%TO.C,U3*%
G36*
X137605136Y-74505001D02*
G01*
X133314736Y-74505001D01*
X133314736Y-72275002D01*
X137605136Y-72275002D01*
X137605136Y-74505001D01*
G37*
G36*
X137605136Y-76735000D02*
G01*
X133314736Y-76735000D01*
X133314736Y-74505001D01*
X137605136Y-74505001D01*
X137605136Y-76735000D01*
G37*
G36*
X133709865Y-72995001D02*
G01*
X132939865Y-72995001D01*
X132939865Y-72205001D01*
X133709865Y-72205001D01*
X133709865Y-72995001D01*
G37*
G36*
X133709865Y-74265001D02*
G01*
X132939865Y-74265001D01*
X132939865Y-73475001D01*
X133709865Y-73475001D01*
X133709865Y-74265001D01*
G37*
G36*
X133709865Y-75535001D02*
G01*
X132939865Y-75535001D01*
X132939865Y-74745001D01*
X133709865Y-74745001D01*
X133709865Y-75535001D01*
G37*
G36*
X133709865Y-76805001D02*
G01*
X132939865Y-76805001D01*
X132939865Y-76015001D01*
X133709865Y-76015001D01*
X133709865Y-76805001D01*
G37*
G36*
X139180009Y-72995001D02*
G01*
X138410009Y-72995001D01*
X138410009Y-72205001D01*
X139180009Y-72205001D01*
X139180009Y-72995001D01*
G37*
G36*
X139180009Y-74265001D02*
G01*
X138410009Y-74265001D01*
X138410009Y-73475001D01*
X139180009Y-73475001D01*
X139180009Y-74265001D01*
G37*
G36*
X139180009Y-75535001D02*
G01*
X138410009Y-75535001D01*
X138410009Y-74745001D01*
X139180009Y-74745001D01*
X139180009Y-75535001D01*
G37*
G36*
X139180009Y-76805001D02*
G01*
X138410009Y-76805001D01*
X138410009Y-76015001D01*
X139180009Y-76015001D01*
X139180009Y-76805001D01*
G37*
%TO.C,U1*%
G36*
X137545199Y-94000000D02*
G01*
X133254799Y-94000000D01*
X133254799Y-91770001D01*
X137545199Y-91770001D01*
X137545199Y-94000000D01*
G37*
G36*
X137545199Y-96229999D02*
G01*
X133254799Y-96229999D01*
X133254799Y-94000000D01*
X137545199Y-94000000D01*
X137545199Y-96229999D01*
G37*
G36*
X133649928Y-92490000D02*
G01*
X132879928Y-92490000D01*
X132879928Y-91700000D01*
X133649928Y-91700000D01*
X133649928Y-92490000D01*
G37*
G36*
X133649928Y-93760000D02*
G01*
X132879928Y-93760000D01*
X132879928Y-92970000D01*
X133649928Y-92970000D01*
X133649928Y-93760000D01*
G37*
G36*
X133649928Y-95030000D02*
G01*
X132879928Y-95030000D01*
X132879928Y-94240000D01*
X133649928Y-94240000D01*
X133649928Y-95030000D01*
G37*
G36*
X133649928Y-96300000D02*
G01*
X132879928Y-96300000D01*
X132879928Y-95510000D01*
X133649928Y-95510000D01*
X133649928Y-96300000D01*
G37*
G36*
X139120072Y-92490000D02*
G01*
X138350072Y-92490000D01*
X138350072Y-91700000D01*
X139120072Y-91700000D01*
X139120072Y-92490000D01*
G37*
G36*
X139120072Y-93760000D02*
G01*
X138350072Y-93760000D01*
X138350072Y-92970000D01*
X139120072Y-92970000D01*
X139120072Y-93760000D01*
G37*
G36*
X139120072Y-95030000D02*
G01*
X138350072Y-95030000D01*
X138350072Y-94240000D01*
X139120072Y-94240000D01*
X139120072Y-95030000D01*
G37*
G36*
X139120072Y-96300000D02*
G01*
X138350072Y-96300000D01*
X138350072Y-95510000D01*
X139120072Y-95510000D01*
X139120072Y-96300000D01*
G37*
%TD*%
D11*
%TO.C,J7*%
X104000000Y-80540000D03*
X101460000Y-80540000D03*
X104000000Y-78000000D03*
X101460000Y-78000000D03*
X104000000Y-75460000D03*
D12*
X101460000Y-75460000D03*
%TD*%
D13*
%TO.C,TP1*%
X142000000Y-93500000D03*
%TD*%
D14*
%TO.C,C8*%
X131205000Y-73250000D03*
X129130000Y-73250000D03*
%TD*%
D15*
%TO.C,R4*%
X129000000Y-81550000D03*
X129000000Y-75450000D03*
%TD*%
D16*
%TO.C,C1*%
X117152900Y-89000000D03*
X108847100Y-89000000D03*
%TD*%
D17*
%TO.C,D1*%
X107696000Y-71383000D03*
X107696000Y-69333000D03*
%TD*%
D14*
%TO.C,C4*%
X117000000Y-81750000D03*
X114925000Y-81750000D03*
%TD*%
D13*
%TO.C,TP2*%
X142000000Y-82500000D03*
%TD*%
D18*
%TO.C,R3*%
X129032000Y-86356000D03*
X129032000Y-92456000D03*
%TD*%
D12*
%TO.C,J2*%
X110650000Y-60250000D03*
D11*
X108110000Y-60250000D03*
X105570000Y-60250000D03*
X103030000Y-60250000D03*
%TD*%
D19*
%TO.C,TP4*%
X123698000Y-62738000D03*
%TD*%
D20*
%TO.C,U2*%
X133264928Y-85595000D03*
X133264928Y-86865000D03*
X133264928Y-88135000D03*
X133264928Y-89405000D03*
X138735072Y-89405000D03*
X138735072Y-88135000D03*
X138735072Y-86865000D03*
X138735072Y-85595000D03*
D21*
X136594937Y-87500001D03*
%TD*%
D14*
%TO.C,C9*%
X131450000Y-69000000D03*
X129375000Y-69000000D03*
%TD*%
D12*
%TO.C,J1*%
X101400000Y-64375000D03*
D11*
X103940000Y-64375000D03*
%TD*%
D22*
%TO.C,U7*%
X116064999Y-74214999D03*
X116564998Y-74214999D03*
X117065000Y-74214999D03*
X117564999Y-74214999D03*
X118065000Y-74214999D03*
X118565000Y-74214999D03*
X119064998Y-74214999D03*
X119565000Y-74214999D03*
X120064999Y-74214999D03*
X120565001Y-74214999D03*
D23*
X121214999Y-73565001D03*
X121214999Y-73065002D03*
X121214999Y-72565000D03*
X121214999Y-72065001D03*
X121214999Y-71565000D03*
X121214999Y-71065000D03*
X121214999Y-70565002D03*
X121214999Y-70065000D03*
X121214999Y-69565001D03*
X121214999Y-69064999D03*
D22*
X120565001Y-68415001D03*
X120064999Y-68415001D03*
X119565000Y-68415001D03*
X119064998Y-68415001D03*
X118565000Y-68415001D03*
X118065000Y-68415001D03*
X117564999Y-68415001D03*
X117065000Y-68415001D03*
X116564998Y-68415001D03*
X116064999Y-68415001D03*
D23*
X115415001Y-69064999D03*
X115415001Y-69565001D03*
X115415001Y-70065000D03*
X115415001Y-70565002D03*
X115415001Y-71065000D03*
X115415001Y-71565000D03*
X115415001Y-72065001D03*
X115415001Y-72565000D03*
X115415001Y-73065002D03*
X115415001Y-73565001D03*
D24*
X117630000Y-73140000D03*
X119000000Y-73140000D03*
X116490000Y-72000000D03*
X117630000Y-72000000D03*
X119000000Y-72000000D03*
X120140000Y-72000000D03*
D25*
X118315000Y-71315000D03*
D24*
X116490000Y-70630000D03*
X117630000Y-70630000D03*
X119000000Y-70630000D03*
X120140000Y-70630000D03*
X117630000Y-69490000D03*
X119000000Y-69490000D03*
%TD*%
D26*
%TO.C,TP13*%
X121620000Y-95570000D03*
%TD*%
D20*
%TO.C,U5*%
X133264928Y-66095000D03*
X133264928Y-67365000D03*
X133264928Y-68635000D03*
X133264928Y-69905000D03*
X138735072Y-69905000D03*
X138735072Y-68635000D03*
X138735072Y-67365000D03*
X138735072Y-66095000D03*
D21*
X136594937Y-68000001D03*
%TD*%
D19*
%TO.C,TP14*%
X115062000Y-60706000D03*
%TD*%
D20*
%TO.C,U4*%
X133264928Y-79094999D03*
X133264928Y-80364999D03*
X133264928Y-81634999D03*
X133264928Y-82904999D03*
X138735072Y-82904999D03*
X138735072Y-81634999D03*
X138735072Y-80364999D03*
X138735072Y-79094999D03*
D21*
X136594937Y-81000000D03*
%TD*%
D19*
%TO.C,TP12*%
X109425000Y-80455000D03*
%TD*%
D27*
%TO.C,C2*%
X112550000Y-68332500D03*
X112550000Y-70407500D03*
%TD*%
D19*
%TO.C,TP11*%
X107250000Y-79075000D03*
%TD*%
%TO.C,TP6*%
X118618000Y-62738000D03*
%TD*%
%TO.C,TP8*%
X109425000Y-74935000D03*
%TD*%
D28*
%TO.C,C7*%
X129425000Y-95000000D03*
X131500000Y-95000000D03*
%TD*%
D18*
%TO.C,R2*%
X129000000Y-59950000D03*
X129000000Y-66050000D03*
%TD*%
D29*
%TO.C,J3*%
X144500000Y-78045000D03*
D30*
X144500000Y-75505000D03*
X144500000Y-72965000D03*
%TD*%
D12*
%TO.C,J4*%
X118110000Y-59944000D03*
D11*
X120650000Y-59944000D03*
X123190000Y-59944000D03*
%TD*%
D31*
%TO.C,J5*%
X103000000Y-91960000D03*
X103000000Y-94500000D03*
%TD*%
D20*
%TO.C,U6*%
X133264928Y-59595000D03*
X133264928Y-60865000D03*
X133264928Y-62135000D03*
X133264928Y-63405000D03*
X138735072Y-63405000D03*
X138735072Y-62135000D03*
X138735072Y-60865000D03*
X138735072Y-59595000D03*
D21*
X136594937Y-61500001D03*
%TD*%
D19*
%TO.C,TP10*%
X109425000Y-77695000D03*
%TD*%
%TO.C,TP15*%
X109075000Y-64575000D03*
%TD*%
%TO.C,TP7*%
X107250000Y-73660000D03*
%TD*%
D14*
%TO.C,C5*%
X117000000Y-79600000D03*
X114925000Y-79600000D03*
%TD*%
D13*
%TO.C,TP3*%
X142000000Y-67000000D03*
%TD*%
D19*
%TO.C,TP5*%
X121158000Y-62738000D03*
%TD*%
D31*
%TO.C,J6*%
X103075000Y-68150000D03*
X103075000Y-70690000D03*
%TD*%
D14*
%TO.C,C6*%
X116000000Y-76800000D03*
X113925000Y-76800000D03*
%TD*%
D20*
%TO.C,U3*%
X138795009Y-76410001D03*
X138795009Y-75140001D03*
X138795009Y-73870001D03*
X138795009Y-72600001D03*
X133324865Y-72600001D03*
X133324865Y-73870001D03*
X133324865Y-75140001D03*
X133324865Y-76410001D03*
D21*
X135465000Y-74505000D03*
%TD*%
D32*
%TO.C,R1*%
X110120000Y-70370000D03*
X110120000Y-68370000D03*
%TD*%
D33*
%TO.C,C3*%
X115932754Y-63257754D03*
X117400000Y-64725000D03*
%TD*%
D20*
%TO.C,U1*%
X138735072Y-95905000D03*
X138735072Y-94635000D03*
X138735072Y-93365000D03*
X138735072Y-92095000D03*
X133264928Y-92095000D03*
X133264928Y-93365000D03*
X133264928Y-94635000D03*
X133264928Y-95905000D03*
D21*
X135405063Y-93999999D03*
%TD*%
D19*
%TO.C,TP9*%
X107250000Y-76315000D03*
%TD*%
D34*
%TO.C,REF\u002A\u002A*%
X146000000Y-95157192D03*
D35*
X146000000Y-95157192D03*
%TD*%
%TO.C,REF\u002A\u002A*%
X103000000Y-86657192D03*
D34*
X103000000Y-86657192D03*
%TD*%
%TO.C,REF\u002A\u002A*%
X146000000Y-61157192D03*
D35*
X146000000Y-61157192D03*
%TD*%
M02*
