%TF.GenerationSoftware,KiCad,Pcbnew,9.0.7*%
%TF.CreationDate,2026-03-18T09:16:50-07:00*%
%TF.ProjectId,drv8323-breakout,64727638-3332-4332-9d62-7265616b6f75,rev?*%
%TF.SameCoordinates,Original*%
%TF.FileFunction,Copper,L1,Top*%
%TF.FilePolarity,Positive*%
%FSLAX46Y46*%
G04 Gerber Fmt 4.6, Leading zero omitted, Abs format (unit mm)*
G04 Created by KiCad (PCBNEW 9.0.7) date 2026-03-18 09:16:50*
%MOMM*%
%LPD*%
G01*
G04 APERTURE LIST*
G04 Aperture macros list*
%AMRoundRect*
0 Rectangle with rounded corners*
0 $1 Rounding radius*
0 $2 $3 $4 $5 $6 $7 $8 $9 X,Y pos of 4 corners*
0 Add a 4 corners polygon primitive as box body*
4,1,4,$2,$3,$4,$5,$6,$7,$8,$9,$2,$3,0*
0 Add four circle primitives for the rounded corners*
1,1,$1+$1,$2,$3*
1,1,$1+$1,$4,$5*
1,1,$1+$1,$6,$7*
1,1,$1+$1,$8,$9*
0 Add four rect primitives between the rounded corners*
20,1,$1+$1,$2,$3,$4,$5,0*
20,1,$1+$1,$4,$5,$6,$7,0*
20,1,$1+$1,$6,$7,$8,$9,0*
20,1,$1+$1,$8,$9,$2,$3,0*%
G04 Aperture macros list end*
%ADD10C,0.300000*%
%TA.AperFunction,NonConductor*%
%ADD11C,0.300000*%
%TD*%
%TA.AperFunction,NonConductor*%
%ADD12C,0.200000*%
%TD*%
%TA.AperFunction,EtchedComponent*%
%ADD13C,0.000000*%
%TD*%
%TA.AperFunction,SMDPad,CuDef*%
%ADD14RoundRect,0.250000X-0.650000X1.450000X-0.650000X-1.450000X0.650000X-1.450000X0.650000X1.450000X0*%
%TD*%
%TA.AperFunction,SMDPad,CuDef*%
%ADD15C,1.500000*%
%TD*%
%TA.AperFunction,SMDPad,CuDef*%
%ADD16RoundRect,0.250000X1.450000X0.650000X-1.450000X0.650000X-1.450000X-0.650000X1.450000X-0.650000X0*%
%TD*%
%TA.AperFunction,SMDPad,CuDef*%
%ADD17R,0.630000X0.650000*%
%TD*%
%TA.AperFunction,SMDPad,CuDef*%
%ADD18R,4.280270X4.459998*%
%TD*%
%TA.AperFunction,ComponentPad*%
%ADD19C,1.950000*%
%TD*%
%TA.AperFunction,SMDPad,CuDef*%
%ADD20RoundRect,0.250000X0.337500X0.475000X-0.337500X0.475000X-0.337500X-0.475000X0.337500X-0.475000X0*%
%TD*%
%TA.AperFunction,SMDPad,CuDef*%
%ADD21RoundRect,0.249999X1.425001X-0.450001X1.425001X0.450001X-1.425001X0.450001X-1.425001X-0.450001X0*%
%TD*%
%TA.AperFunction,SMDPad,CuDef*%
%ADD22R,3.911600X1.498600*%
%TD*%
%TA.AperFunction,SMDPad,CuDef*%
%ADD23RoundRect,0.249999X-1.425001X0.450001X-1.425001X-0.450001X1.425001X-0.450001X1.425001X0.450001X0*%
%TD*%
%TA.AperFunction,ComponentPad*%
%ADD24R,1.700000X1.700000*%
%TD*%
%TA.AperFunction,ComponentPad*%
%ADD25C,1.700000*%
%TD*%
%TA.AperFunction,SMDPad,CuDef*%
%ADD26O,0.230000X0.599999*%
%TD*%
%TA.AperFunction,SMDPad,CuDef*%
%ADD27O,0.599999X0.230000*%
%TD*%
%TA.AperFunction,ComponentPad*%
%ADD28C,0.499999*%
%TD*%
%TA.AperFunction,HeatsinkPad*%
%ADD29R,4.150000X4.150000*%
%TD*%
%TA.AperFunction,SMDPad,CuDef*%
%ADD30RoundRect,0.250000X-0.475000X0.337500X-0.475000X-0.337500X0.475000X-0.337500X0.475000X0.337500X0*%
%TD*%
%TA.AperFunction,SMDPad,CuDef*%
%ADD31RoundRect,0.250000X-0.337500X-0.475000X0.337500X-0.475000X0.337500X0.475000X-0.337500X0.475000X0*%
%TD*%
%TA.AperFunction,ComponentPad*%
%ADD32RoundRect,0.250000X0.750000X-0.750000X0.750000X0.750000X-0.750000X0.750000X-0.750000X-0.750000X0*%
%TD*%
%TA.AperFunction,ComponentPad*%
%ADD33C,2.000000*%
%TD*%
%TA.AperFunction,SMDPad,CuDef*%
%ADD34C,0.280000*%
%TD*%
%TA.AperFunction,SMDPad,CuDef*%
%ADD35RoundRect,0.250000X0.450000X-0.350000X0.450000X0.350000X-0.450000X0.350000X-0.450000X-0.350000X0*%
%TD*%
%TA.AperFunction,SMDPad,CuDef*%
%ADD36RoundRect,0.250000X-0.574524X-0.097227X-0.097227X-0.574524X0.574524X0.097227X0.097227X0.574524X0*%
%TD*%
%TA.AperFunction,ViaPad*%
%ADD37C,0.600000*%
%TD*%
%TA.AperFunction,Conductor*%
%ADD38C,0.200000*%
%TD*%
%TA.AperFunction,Conductor*%
%ADD39C,0.800000*%
%TD*%
G04 APERTURE END LIST*
D10*
D11*
X117885716Y-101878328D02*
X117885716Y-102878328D01*
X117528573Y-101306900D02*
X117171430Y-102378328D01*
X117171430Y-102378328D02*
X118100001Y-102378328D01*
X118742858Y-102878328D02*
X119028572Y-102878328D01*
X119028572Y-102878328D02*
X119171429Y-102806900D01*
X119171429Y-102806900D02*
X119242858Y-102735471D01*
X119242858Y-102735471D02*
X119385715Y-102521185D01*
X119385715Y-102521185D02*
X119457144Y-102235471D01*
X119457144Y-102235471D02*
X119457144Y-101664042D01*
X119457144Y-101664042D02*
X119385715Y-101521185D01*
X119385715Y-101521185D02*
X119314287Y-101449757D01*
X119314287Y-101449757D02*
X119171429Y-101378328D01*
X119171429Y-101378328D02*
X118885715Y-101378328D01*
X118885715Y-101378328D02*
X118742858Y-101449757D01*
X118742858Y-101449757D02*
X118671429Y-101521185D01*
X118671429Y-101521185D02*
X118600001Y-101664042D01*
X118600001Y-101664042D02*
X118600001Y-102021185D01*
X118600001Y-102021185D02*
X118671429Y-102164042D01*
X118671429Y-102164042D02*
X118742858Y-102235471D01*
X118742858Y-102235471D02*
X118885715Y-102306900D01*
X118885715Y-102306900D02*
X119171429Y-102306900D01*
X119171429Y-102306900D02*
X119314287Y-102235471D01*
X119314287Y-102235471D02*
X119385715Y-102164042D01*
X119385715Y-102164042D02*
X119457144Y-102021185D01*
X120100000Y-102735471D02*
X120171429Y-102806900D01*
X120171429Y-102806900D02*
X120100000Y-102878328D01*
X120100000Y-102878328D02*
X120028572Y-102806900D01*
X120028572Y-102806900D02*
X120100000Y-102735471D01*
X120100000Y-102735471D02*
X120100000Y-102878328D01*
X121028572Y-102021185D02*
X120885715Y-101949757D01*
X120885715Y-101949757D02*
X120814286Y-101878328D01*
X120814286Y-101878328D02*
X120742858Y-101735471D01*
X120742858Y-101735471D02*
X120742858Y-101664042D01*
X120742858Y-101664042D02*
X120814286Y-101521185D01*
X120814286Y-101521185D02*
X120885715Y-101449757D01*
X120885715Y-101449757D02*
X121028572Y-101378328D01*
X121028572Y-101378328D02*
X121314286Y-101378328D01*
X121314286Y-101378328D02*
X121457144Y-101449757D01*
X121457144Y-101449757D02*
X121528572Y-101521185D01*
X121528572Y-101521185D02*
X121600001Y-101664042D01*
X121600001Y-101664042D02*
X121600001Y-101735471D01*
X121600001Y-101735471D02*
X121528572Y-101878328D01*
X121528572Y-101878328D02*
X121457144Y-101949757D01*
X121457144Y-101949757D02*
X121314286Y-102021185D01*
X121314286Y-102021185D02*
X121028572Y-102021185D01*
X121028572Y-102021185D02*
X120885715Y-102092614D01*
X120885715Y-102092614D02*
X120814286Y-102164042D01*
X120814286Y-102164042D02*
X120742858Y-102306900D01*
X120742858Y-102306900D02*
X120742858Y-102592614D01*
X120742858Y-102592614D02*
X120814286Y-102735471D01*
X120814286Y-102735471D02*
X120885715Y-102806900D01*
X120885715Y-102806900D02*
X121028572Y-102878328D01*
X121028572Y-102878328D02*
X121314286Y-102878328D01*
X121314286Y-102878328D02*
X121457144Y-102806900D01*
X121457144Y-102806900D02*
X121528572Y-102735471D01*
X121528572Y-102735471D02*
X121600001Y-102592614D01*
X121600001Y-102592614D02*
X121600001Y-102306900D01*
X121600001Y-102306900D02*
X121528572Y-102164042D01*
X121528572Y-102164042D02*
X121457144Y-102092614D01*
X121457144Y-102092614D02*
X121314286Y-102021185D01*
X122528572Y-101378328D02*
X122671429Y-101378328D01*
X122671429Y-101378328D02*
X122814286Y-101449757D01*
X122814286Y-101449757D02*
X122885715Y-101521185D01*
X122885715Y-101521185D02*
X122957143Y-101664042D01*
X122957143Y-101664042D02*
X123028572Y-101949757D01*
X123028572Y-101949757D02*
X123028572Y-102306900D01*
X123028572Y-102306900D02*
X122957143Y-102592614D01*
X122957143Y-102592614D02*
X122885715Y-102735471D01*
X122885715Y-102735471D02*
X122814286Y-102806900D01*
X122814286Y-102806900D02*
X122671429Y-102878328D01*
X122671429Y-102878328D02*
X122528572Y-102878328D01*
X122528572Y-102878328D02*
X122385715Y-102806900D01*
X122385715Y-102806900D02*
X122314286Y-102735471D01*
X122314286Y-102735471D02*
X122242857Y-102592614D01*
X122242857Y-102592614D02*
X122171429Y-102306900D01*
X122171429Y-102306900D02*
X122171429Y-101949757D01*
X122171429Y-101949757D02*
X122242857Y-101664042D01*
X122242857Y-101664042D02*
X122314286Y-101521185D01*
X122314286Y-101521185D02*
X122385715Y-101449757D01*
X122385715Y-101449757D02*
X122528572Y-101378328D01*
X123957143Y-101378328D02*
X124100000Y-101378328D01*
X124100000Y-101378328D02*
X124242857Y-101449757D01*
X124242857Y-101449757D02*
X124314286Y-101521185D01*
X124314286Y-101521185D02*
X124385714Y-101664042D01*
X124385714Y-101664042D02*
X124457143Y-101949757D01*
X124457143Y-101949757D02*
X124457143Y-102306900D01*
X124457143Y-102306900D02*
X124385714Y-102592614D01*
X124385714Y-102592614D02*
X124314286Y-102735471D01*
X124314286Y-102735471D02*
X124242857Y-102806900D01*
X124242857Y-102806900D02*
X124100000Y-102878328D01*
X124100000Y-102878328D02*
X123957143Y-102878328D01*
X123957143Y-102878328D02*
X123814286Y-102806900D01*
X123814286Y-102806900D02*
X123742857Y-102735471D01*
X123742857Y-102735471D02*
X123671428Y-102592614D01*
X123671428Y-102592614D02*
X123600000Y-102306900D01*
X123600000Y-102306900D02*
X123600000Y-101949757D01*
X123600000Y-101949757D02*
X123671428Y-101664042D01*
X123671428Y-101664042D02*
X123742857Y-101521185D01*
X123742857Y-101521185D02*
X123814286Y-101449757D01*
X123814286Y-101449757D02*
X123957143Y-101378328D01*
X125385714Y-101378328D02*
X125528571Y-101378328D01*
X125528571Y-101378328D02*
X125671428Y-101449757D01*
X125671428Y-101449757D02*
X125742857Y-101521185D01*
X125742857Y-101521185D02*
X125814285Y-101664042D01*
X125814285Y-101664042D02*
X125885714Y-101949757D01*
X125885714Y-101949757D02*
X125885714Y-102306900D01*
X125885714Y-102306900D02*
X125814285Y-102592614D01*
X125814285Y-102592614D02*
X125742857Y-102735471D01*
X125742857Y-102735471D02*
X125671428Y-102806900D01*
X125671428Y-102806900D02*
X125528571Y-102878328D01*
X125528571Y-102878328D02*
X125385714Y-102878328D01*
X125385714Y-102878328D02*
X125242857Y-102806900D01*
X125242857Y-102806900D02*
X125171428Y-102735471D01*
X125171428Y-102735471D02*
X125099999Y-102592614D01*
X125099999Y-102592614D02*
X125028571Y-102306900D01*
X125028571Y-102306900D02*
X125028571Y-101949757D01*
X125028571Y-101949757D02*
X125099999Y-101664042D01*
X125099999Y-101664042D02*
X125171428Y-101521185D01*
X125171428Y-101521185D02*
X125242857Y-101449757D01*
X125242857Y-101449757D02*
X125385714Y-101378328D01*
X127671427Y-102878328D02*
X127671427Y-101878328D01*
X127671427Y-102021185D02*
X127742856Y-101949757D01*
X127742856Y-101949757D02*
X127885713Y-101878328D01*
X127885713Y-101878328D02*
X128099999Y-101878328D01*
X128099999Y-101878328D02*
X128242856Y-101949757D01*
X128242856Y-101949757D02*
X128314285Y-102092614D01*
X128314285Y-102092614D02*
X128314285Y-102878328D01*
X128314285Y-102092614D02*
X128385713Y-101949757D01*
X128385713Y-101949757D02*
X128528570Y-101878328D01*
X128528570Y-101878328D02*
X128742856Y-101878328D01*
X128742856Y-101878328D02*
X128885713Y-101949757D01*
X128885713Y-101949757D02*
X128957142Y-102092614D01*
X128957142Y-102092614D02*
X128957142Y-102878328D01*
X129671427Y-102878328D02*
X129671427Y-101878328D01*
X129671427Y-102021185D02*
X129742856Y-101949757D01*
X129742856Y-101949757D02*
X129885713Y-101878328D01*
X129885713Y-101878328D02*
X130099999Y-101878328D01*
X130099999Y-101878328D02*
X130242856Y-101949757D01*
X130242856Y-101949757D02*
X130314285Y-102092614D01*
X130314285Y-102092614D02*
X130314285Y-102878328D01*
X130314285Y-102092614D02*
X130385713Y-101949757D01*
X130385713Y-101949757D02*
X130528570Y-101878328D01*
X130528570Y-101878328D02*
X130742856Y-101878328D01*
X130742856Y-101878328D02*
X130885713Y-101949757D01*
X130885713Y-101949757D02*
X130957142Y-102092614D01*
X130957142Y-102092614D02*
X130957142Y-102878328D01*
D12*
X149000000Y-98657192D02*
X149000000Y-104586420D01*
X99200000Y-104586420D02*
X99200000Y-98657192D01*
X149000000Y-104000000D02*
X99200000Y-104000000D01*
X149000000Y-104000000D02*
X147873496Y-104586421D01*
X149000000Y-104000000D02*
X147873496Y-103413579D01*
X99200000Y-104000000D02*
X100326504Y-103413579D01*
X99200000Y-104000000D02*
X100326504Y-104586421D01*
D10*
D11*
X157378328Y-84371476D02*
X158378328Y-84371476D01*
X156806900Y-84728618D02*
X157878328Y-85085761D01*
X157878328Y-85085761D02*
X157878328Y-84157190D01*
X156878328Y-83300047D02*
X156878328Y-83157190D01*
X156878328Y-83157190D02*
X156949757Y-83014333D01*
X156949757Y-83014333D02*
X157021185Y-82942905D01*
X157021185Y-82942905D02*
X157164042Y-82871476D01*
X157164042Y-82871476D02*
X157449757Y-82800047D01*
X157449757Y-82800047D02*
X157806900Y-82800047D01*
X157806900Y-82800047D02*
X158092614Y-82871476D01*
X158092614Y-82871476D02*
X158235471Y-82942905D01*
X158235471Y-82942905D02*
X158306900Y-83014333D01*
X158306900Y-83014333D02*
X158378328Y-83157190D01*
X158378328Y-83157190D02*
X158378328Y-83300047D01*
X158378328Y-83300047D02*
X158306900Y-83442905D01*
X158306900Y-83442905D02*
X158235471Y-83514333D01*
X158235471Y-83514333D02*
X158092614Y-83585762D01*
X158092614Y-83585762D02*
X157806900Y-83657190D01*
X157806900Y-83657190D02*
X157449757Y-83657190D01*
X157449757Y-83657190D02*
X157164042Y-83585762D01*
X157164042Y-83585762D02*
X157021185Y-83514333D01*
X157021185Y-83514333D02*
X156949757Y-83442905D01*
X156949757Y-83442905D02*
X156878328Y-83300047D01*
X158235471Y-82157191D02*
X158306900Y-82085762D01*
X158306900Y-82085762D02*
X158378328Y-82157191D01*
X158378328Y-82157191D02*
X158306900Y-82228619D01*
X158306900Y-82228619D02*
X158235471Y-82157191D01*
X158235471Y-82157191D02*
X158378328Y-82157191D01*
X156878328Y-81157190D02*
X156878328Y-81014333D01*
X156878328Y-81014333D02*
X156949757Y-80871476D01*
X156949757Y-80871476D02*
X157021185Y-80800048D01*
X157021185Y-80800048D02*
X157164042Y-80728619D01*
X157164042Y-80728619D02*
X157449757Y-80657190D01*
X157449757Y-80657190D02*
X157806900Y-80657190D01*
X157806900Y-80657190D02*
X158092614Y-80728619D01*
X158092614Y-80728619D02*
X158235471Y-80800048D01*
X158235471Y-80800048D02*
X158306900Y-80871476D01*
X158306900Y-80871476D02*
X158378328Y-81014333D01*
X158378328Y-81014333D02*
X158378328Y-81157190D01*
X158378328Y-81157190D02*
X158306900Y-81300048D01*
X158306900Y-81300048D02*
X158235471Y-81371476D01*
X158235471Y-81371476D02*
X158092614Y-81442905D01*
X158092614Y-81442905D02*
X157806900Y-81514333D01*
X157806900Y-81514333D02*
X157449757Y-81514333D01*
X157449757Y-81514333D02*
X157164042Y-81442905D01*
X157164042Y-81442905D02*
X157021185Y-81371476D01*
X157021185Y-81371476D02*
X156949757Y-81300048D01*
X156949757Y-81300048D02*
X156878328Y-81157190D01*
X156878328Y-79728619D02*
X156878328Y-79585762D01*
X156878328Y-79585762D02*
X156949757Y-79442905D01*
X156949757Y-79442905D02*
X157021185Y-79371477D01*
X157021185Y-79371477D02*
X157164042Y-79300048D01*
X157164042Y-79300048D02*
X157449757Y-79228619D01*
X157449757Y-79228619D02*
X157806900Y-79228619D01*
X157806900Y-79228619D02*
X158092614Y-79300048D01*
X158092614Y-79300048D02*
X158235471Y-79371477D01*
X158235471Y-79371477D02*
X158306900Y-79442905D01*
X158306900Y-79442905D02*
X158378328Y-79585762D01*
X158378328Y-79585762D02*
X158378328Y-79728619D01*
X158378328Y-79728619D02*
X158306900Y-79871477D01*
X158306900Y-79871477D02*
X158235471Y-79942905D01*
X158235471Y-79942905D02*
X158092614Y-80014334D01*
X158092614Y-80014334D02*
X157806900Y-80085762D01*
X157806900Y-80085762D02*
X157449757Y-80085762D01*
X157449757Y-80085762D02*
X157164042Y-80014334D01*
X157164042Y-80014334D02*
X157021185Y-79942905D01*
X157021185Y-79942905D02*
X156949757Y-79871477D01*
X156949757Y-79871477D02*
X156878328Y-79728619D01*
X156878328Y-78300048D02*
X156878328Y-78157191D01*
X156878328Y-78157191D02*
X156949757Y-78014334D01*
X156949757Y-78014334D02*
X157021185Y-77942906D01*
X157021185Y-77942906D02*
X157164042Y-77871477D01*
X157164042Y-77871477D02*
X157449757Y-77800048D01*
X157449757Y-77800048D02*
X157806900Y-77800048D01*
X157806900Y-77800048D02*
X158092614Y-77871477D01*
X158092614Y-77871477D02*
X158235471Y-77942906D01*
X158235471Y-77942906D02*
X158306900Y-78014334D01*
X158306900Y-78014334D02*
X158378328Y-78157191D01*
X158378328Y-78157191D02*
X158378328Y-78300048D01*
X158378328Y-78300048D02*
X158306900Y-78442906D01*
X158306900Y-78442906D02*
X158235471Y-78514334D01*
X158235471Y-78514334D02*
X158092614Y-78585763D01*
X158092614Y-78585763D02*
X157806900Y-78657191D01*
X157806900Y-78657191D02*
X157449757Y-78657191D01*
X157449757Y-78657191D02*
X157164042Y-78585763D01*
X157164042Y-78585763D02*
X157021185Y-78514334D01*
X157021185Y-78514334D02*
X156949757Y-78442906D01*
X156949757Y-78442906D02*
X156878328Y-78300048D01*
X156878328Y-76871477D02*
X156878328Y-76728620D01*
X156878328Y-76728620D02*
X156949757Y-76585763D01*
X156949757Y-76585763D02*
X157021185Y-76514335D01*
X157021185Y-76514335D02*
X157164042Y-76442906D01*
X157164042Y-76442906D02*
X157449757Y-76371477D01*
X157449757Y-76371477D02*
X157806900Y-76371477D01*
X157806900Y-76371477D02*
X158092614Y-76442906D01*
X158092614Y-76442906D02*
X158235471Y-76514335D01*
X158235471Y-76514335D02*
X158306900Y-76585763D01*
X158306900Y-76585763D02*
X158378328Y-76728620D01*
X158378328Y-76728620D02*
X158378328Y-76871477D01*
X158378328Y-76871477D02*
X158306900Y-77014335D01*
X158306900Y-77014335D02*
X158235471Y-77085763D01*
X158235471Y-77085763D02*
X158092614Y-77157192D01*
X158092614Y-77157192D02*
X157806900Y-77228620D01*
X157806900Y-77228620D02*
X157449757Y-77228620D01*
X157449757Y-77228620D02*
X157164042Y-77157192D01*
X157164042Y-77157192D02*
X157021185Y-77085763D01*
X157021185Y-77085763D02*
X156949757Y-77014335D01*
X156949757Y-77014335D02*
X156878328Y-76871477D01*
X158378328Y-74585764D02*
X157378328Y-74585764D01*
X157521185Y-74585764D02*
X157449757Y-74514335D01*
X157449757Y-74514335D02*
X157378328Y-74371478D01*
X157378328Y-74371478D02*
X157378328Y-74157192D01*
X157378328Y-74157192D02*
X157449757Y-74014335D01*
X157449757Y-74014335D02*
X157592614Y-73942907D01*
X157592614Y-73942907D02*
X158378328Y-73942907D01*
X157592614Y-73942907D02*
X157449757Y-73871478D01*
X157449757Y-73871478D02*
X157378328Y-73728621D01*
X157378328Y-73728621D02*
X157378328Y-73514335D01*
X157378328Y-73514335D02*
X157449757Y-73371478D01*
X157449757Y-73371478D02*
X157592614Y-73300049D01*
X157592614Y-73300049D02*
X158378328Y-73300049D01*
X158378328Y-72585764D02*
X157378328Y-72585764D01*
X157521185Y-72585764D02*
X157449757Y-72514335D01*
X157449757Y-72514335D02*
X157378328Y-72371478D01*
X157378328Y-72371478D02*
X157378328Y-72157192D01*
X157378328Y-72157192D02*
X157449757Y-72014335D01*
X157449757Y-72014335D02*
X157592614Y-71942907D01*
X157592614Y-71942907D02*
X158378328Y-71942907D01*
X157592614Y-71942907D02*
X157449757Y-71871478D01*
X157449757Y-71871478D02*
X157378328Y-71728621D01*
X157378328Y-71728621D02*
X157378328Y-71514335D01*
X157378328Y-71514335D02*
X157449757Y-71371478D01*
X157449757Y-71371478D02*
X157592614Y-71300049D01*
X157592614Y-71300049D02*
X158378328Y-71300049D01*
D12*
X149500000Y-98157192D02*
X160086420Y-98157192D01*
X160086420Y-58157192D02*
X149500000Y-58157192D01*
X159500000Y-98157192D02*
X159500000Y-58157192D01*
X159500000Y-98157192D02*
X158913579Y-97030688D01*
X159500000Y-98157192D02*
X160086421Y-97030688D01*
X159500000Y-58157192D02*
X160086421Y-59283696D01*
X159500000Y-58157192D02*
X158913579Y-59283696D01*
D13*
%TA.AperFunction,EtchedComponent*%
%TO.C,NT2*%
G36*
X116478710Y-69704355D02*
G01*
X115478710Y-69704355D01*
X115478710Y-69424355D01*
X116478710Y-69424355D01*
X116478710Y-69704355D01*
G37*
%TD.AperFunction*%
%TD*%
D14*
%TO.P,MA,1,1*%
%TO.N,MOT_A*%
X142000000Y-93500000D03*
%TD*%
%TO.P,MB,1,1*%
%TO.N,MOT_B*%
X142000000Y-82500000D03*
%TD*%
%TO.P,MC,1,1*%
%TO.N,MOT_C*%
X142000000Y-67000000D03*
%TD*%
D15*
%TO.P,SC,1,1*%
%TO.N,SNSC*%
X122025000Y-63050000D03*
%TD*%
%TO.P,SB,1,1*%
%TO.N,SNSB*%
X121000000Y-65600000D03*
%TD*%
%TO.P,SA,1,1*%
%TO.N,SNSA*%
X119175000Y-63125000D03*
%TD*%
%TO.P,HA,1,1*%
%TO.N,PWM_HA*%
X107250000Y-73555000D03*
%TD*%
%TO.P,LA,1,1*%
%TO.N,PWM_LA*%
X109425000Y-74935000D03*
%TD*%
%TO.P,HB,1,1*%
%TO.N,PWM_HB*%
X107250000Y-76315000D03*
%TD*%
%TO.P,LB,1,1*%
%TO.N,PWM_LB*%
X109425000Y-77695000D03*
%TD*%
%TO.P,HC,1,1*%
%TO.N,PWM_HC*%
X107250000Y-79075000D03*
%TD*%
%TO.P,LC,1,1*%
%TO.N,PWM_LC*%
X109425000Y-80455000D03*
%TD*%
D16*
%TO.P,VMOT,1,1*%
%TO.N,V_MOT*%
X121620000Y-95570000D03*
%TD*%
D15*
%TO.P,VCC,1,1*%
%TO.N,VCC*%
X107920000Y-69420000D03*
%TD*%
%TO.P,CAL,1,1*%
%TO.N,CAL*%
X109075000Y-64575000D03*
%TD*%
D17*
%TO.P,U2,1,S*%
%TO.N,MOT_A*%
X138735072Y-95905000D03*
%TO.P,U2,2,S*%
X138735072Y-94635000D03*
%TO.P,U2,3,S*%
X138735072Y-93365000D03*
%TO.P,U2,4,G*%
%TO.N,Net-(U1-GHA)*%
X138735072Y-92095000D03*
%TO.P,U2,5,D*%
%TO.N,V_MOT*%
X133264928Y-92095000D03*
%TO.P,U2,6,D*%
X133264928Y-93365000D03*
%TO.P,U2,7,D*%
X133264928Y-94635000D03*
%TO.P,U2,8,D*%
X133264928Y-95905000D03*
D18*
%TO.P,U2,9,ep*%
X135405063Y-93999999D03*
%TD*%
D17*
%TO.P,U3,1,S*%
%TO.N,MOT_C*%
X133264928Y-66095000D03*
%TO.P,U3,2,S*%
X133264928Y-67365000D03*
%TO.P,U3,3,S*%
X133264928Y-68635000D03*
%TO.P,U3,4,G*%
%TO.N,Net-(U1-GHC)*%
X133264928Y-69905000D03*
%TO.P,U3,5,D*%
%TO.N,V_MOT*%
X138735072Y-69905000D03*
%TO.P,U3,6,D*%
X138735072Y-68635000D03*
%TO.P,U3,7,D*%
X138735072Y-67365000D03*
%TO.P,U3,8,D*%
X138735072Y-66095000D03*
D18*
%TO.P,U3,9,ep*%
X136594937Y-68000001D03*
%TD*%
%TO.P,U4,9,ep*%
%TO.N,V_MOT*%
X135465000Y-74505000D03*
D17*
%TO.P,U4,8,D*%
X133324865Y-76410001D03*
%TO.P,U4,7,D*%
X133324865Y-75140001D03*
%TO.P,U4,6,D*%
X133324865Y-73870001D03*
%TO.P,U4,5,D*%
X133324865Y-72600001D03*
%TO.P,U4,4,G*%
%TO.N,Net-(U1-GHB)*%
X138795009Y-72600001D03*
%TO.P,U4,3,S*%
%TO.N,MOT_B*%
X138795009Y-73870001D03*
%TO.P,U4,2,S*%
X138795009Y-75140001D03*
%TO.P,U4,1,S*%
X138795009Y-76410001D03*
%TD*%
%TO.P,U5,1,S*%
%TO.N,/Motor Control/SPC*%
X133264928Y-59595000D03*
%TO.P,U5,2,S*%
X133264928Y-60865000D03*
%TO.P,U5,3,S*%
X133264928Y-62135000D03*
%TO.P,U5,4,G*%
%TO.N,Net-(U1-GLC)*%
X133264928Y-63405000D03*
%TO.P,U5,5,D*%
%TO.N,MOT_C*%
X138735072Y-63405000D03*
%TO.P,U5,6,D*%
X138735072Y-62135000D03*
%TO.P,U5,7,D*%
X138735072Y-60865000D03*
%TO.P,U5,8,D*%
X138735072Y-59595000D03*
D18*
%TO.P,U5,9,ep*%
X136594937Y-61500001D03*
%TD*%
D17*
%TO.P,U6,1,S*%
%TO.N,/Motor Control/SPB*%
X133264928Y-79094999D03*
%TO.P,U6,2,S*%
X133264928Y-80364999D03*
%TO.P,U6,3,S*%
X133264928Y-81634999D03*
%TO.P,U6,4,G*%
%TO.N,Net-(U1-GLB)*%
X133264928Y-82904999D03*
%TO.P,U6,5,D*%
%TO.N,MOT_B*%
X138735072Y-82904999D03*
%TO.P,U6,6,D*%
X138735072Y-81634999D03*
%TO.P,U6,7,D*%
X138735072Y-80364999D03*
%TO.P,U6,8,D*%
X138735072Y-79094999D03*
D18*
%TO.P,U6,9,ep*%
X136594937Y-81000000D03*
%TD*%
D17*
%TO.P,U7,1,S*%
%TO.N,/Motor Control/SPA*%
X133264928Y-85595000D03*
%TO.P,U7,2,S*%
X133264928Y-86865000D03*
%TO.P,U7,3,S*%
X133264928Y-88135000D03*
%TO.P,U7,4,G*%
%TO.N,Net-(U1-GLA)*%
X133264928Y-89405000D03*
%TO.P,U7,5,D*%
%TO.N,MOT_A*%
X138735072Y-89405000D03*
%TO.P,U7,6,D*%
X138735072Y-88135000D03*
%TO.P,U7,7,D*%
X138735072Y-86865000D03*
%TO.P,U7,8,D*%
X138735072Y-85595000D03*
D18*
%TO.P,U7,9,ep*%
X136594937Y-87500001D03*
%TD*%
D19*
%TO.P,J5,2,Pin_2*%
%TO.N,V_MOT*%
X103000000Y-94500000D03*
%TO.P,J5,1,Pin_1*%
%TO.N,PGND*%
X103000000Y-91960000D03*
%TD*%
D20*
%TO.P,C8,1*%
%TO.N,V_MOT*%
X131227500Y-73019707D03*
%TO.P,C8,2*%
%TO.N,PGND*%
X129152500Y-73019707D03*
%TD*%
D21*
%TO.P,R4,1*%
%TO.N,/Motor Control/SPB*%
X129000000Y-81550000D03*
%TO.P,R4,2*%
%TO.N,PGND*%
X129000000Y-75450000D03*
%TD*%
D22*
%TO.P,C1,1*%
%TO.N,V_MOT*%
X117152900Y-89000000D03*
%TO.P,C1,2*%
%TO.N,PGND*%
X108847100Y-89000000D03*
%TD*%
D20*
%TO.P,C4,1*%
%TO.N,V_MOT*%
X117000000Y-81750000D03*
%TO.P,C4,2*%
%TO.N,PGND*%
X114925000Y-81750000D03*
%TD*%
D23*
%TO.P,R3,1*%
%TO.N,/Motor Control/SPA*%
X129000000Y-85950000D03*
%TO.P,R3,2*%
%TO.N,PGND*%
X129000000Y-92050000D03*
%TD*%
D24*
%TO.P,J2,1,Pin_1*%
%TO.N,SPI_MISO*%
X110650000Y-60250000D03*
D25*
%TO.P,J2,2,Pin_2*%
%TO.N,SPI_MOSI*%
X108110000Y-60250000D03*
%TO.P,J2,3,Pin_3*%
%TO.N,SPI_CLK*%
X105570000Y-60250000D03*
%TO.P,J2,4,Pin_4*%
%TO.N,SPI_CS*%
X103030000Y-60250000D03*
%TD*%
D24*
%TO.P,J7,1,Pin_1*%
%TO.N,PWM_HA*%
X101460000Y-75460000D03*
D25*
%TO.P,J7,2,Pin_2*%
%TO.N,PWM_LA*%
X104000000Y-75460000D03*
%TO.P,J7,3,Pin_3*%
%TO.N,PWM_HB*%
X101460000Y-78000000D03*
%TO.P,J7,4,Pin_4*%
%TO.N,PWM_LB*%
X104000000Y-78000000D03*
%TO.P,J7,5,Pin_5*%
%TO.N,PWM_HC*%
X101460000Y-80540000D03*
%TO.P,J7,6,Pin_6*%
%TO.N,PWM_LC*%
X104000000Y-80540000D03*
%TD*%
D20*
%TO.P,C9,1*%
%TO.N,V_MOT*%
X131450000Y-69000000D03*
%TO.P,C9,2*%
%TO.N,PGND*%
X129375000Y-69000000D03*
%TD*%
D24*
%TO.P,J1,1,Pin_1*%
%TO.N,NFLT*%
X101400000Y-64375000D03*
D25*
%TO.P,J1,2,Pin_2*%
%TO.N,MOT_EN*%
X103940000Y-64375000D03*
%TD*%
D26*
%TO.P,U1,1,CPL*%
%TO.N,Net-(U1-CPL)*%
X116064999Y-74214999D03*
%TO.P,U1,2,CPH*%
%TO.N,Net-(U1-CPH)*%
X116564998Y-74214999D03*
%TO.P,U1,3,VCP*%
%TO.N,Net-(U1-VCP)*%
X117065000Y-74214999D03*
%TO.P,U1,4,VM*%
%TO.N,V_MOT*%
X117564999Y-74214999D03*
%TO.P,U1,5,VDRAIN*%
X118065000Y-74214999D03*
%TO.P,U1,6,GHA*%
%TO.N,Net-(U1-GHA)*%
X118565000Y-74214999D03*
%TO.P,U1,7,SHA*%
%TO.N,MOT_A*%
X119064998Y-74214999D03*
%TO.P,U1,8,GLA*%
%TO.N,Net-(U1-GLA)*%
X119565000Y-74214999D03*
%TO.P,U1,9,SPA*%
%TO.N,/Motor Control/SPA*%
X120064999Y-74214999D03*
%TO.P,U1,10,SNA*%
%TO.N,PGND*%
X120565001Y-74214999D03*
D27*
%TO.P,U1,11,SNB*%
X121214999Y-73565001D03*
%TO.P,U1,12,SPB*%
%TO.N,/Motor Control/SPB*%
X121214999Y-73065002D03*
%TO.P,U1,13,GLB*%
%TO.N,Net-(U1-GLB)*%
X121214999Y-72565000D03*
%TO.P,U1,14,SHB*%
%TO.N,MOT_B*%
X121214999Y-72065001D03*
%TO.P,U1,15,GHB*%
%TO.N,Net-(U1-GHB)*%
X121214999Y-71565000D03*
%TO.P,U1,16,GHC*%
%TO.N,Net-(U1-GHC)*%
X121214999Y-71065000D03*
%TO.P,U1,17,SHC*%
%TO.N,MOT_C*%
X121214999Y-70565002D03*
%TO.P,U1,18,GLC*%
%TO.N,Net-(U1-GLC)*%
X121214999Y-70065000D03*
%TO.P,U1,19,SPC*%
%TO.N,/Motor Control/SPC*%
X121214999Y-69565001D03*
%TO.P,U1,20,SNC*%
%TO.N,PGND*%
X121214999Y-69064999D03*
D26*
%TO.P,U1,21,SOC*%
%TO.N,SNSC*%
X120565001Y-68415001D03*
%TO.P,U1,22,SOB*%
%TO.N,SNSB*%
X120064999Y-68415001D03*
%TO.P,U1,23,SOA*%
%TO.N,SNSA*%
X119565000Y-68415001D03*
%TO.P,U1,24,VREF*%
%TO.N,VCC*%
X119064998Y-68415001D03*
%TO.P,U1,25,FAULT_N*%
%TO.N,NFLT*%
X118565000Y-68415001D03*
%TO.P,U1,26,MODE_SDO*%
%TO.N,SPI_MISO*%
X118065000Y-68415001D03*
%TO.P,U1,27,IDRIVE_SDI*%
%TO.N,SPI_MOSI*%
X117564999Y-68415001D03*
%TO.P,U1,28,VDS_SCLK*%
%TO.N,SPI_CLK*%
X117065000Y-68415001D03*
%TO.P,U1,29,GAIN_SCS_N*%
%TO.N,SPI_CS*%
X116564998Y-68415001D03*
%TO.P,U1,30,ENABLE*%
%TO.N,MOT_EN*%
X116064999Y-68415001D03*
D27*
%TO.P,U1,31,CAL*%
%TO.N,CAL*%
X115415001Y-69064999D03*
%TO.P,U1,32,AGND*%
%TO.N,AGND*%
X115415001Y-69565001D03*
%TO.P,U1,33,DVDD*%
%TO.N,VCC*%
X115415001Y-70065000D03*
%TO.P,U1,34,INHA*%
%TO.N,PWM_HA*%
X115415001Y-70565002D03*
%TO.P,U1,35,INLA*%
%TO.N,PWM_LA*%
X115415001Y-71065000D03*
%TO.P,U1,36,INHB*%
%TO.N,PWM_HB*%
X115415001Y-71565000D03*
%TO.P,U1,37,INLB*%
%TO.N,PWM_LB*%
X115415001Y-72065001D03*
%TO.P,U1,38,INHC*%
%TO.N,PWM_HC*%
X115415001Y-72565000D03*
%TO.P,U1,39,INLC*%
%TO.N,PWM_LC*%
X115415001Y-73065002D03*
%TO.P,U1,40,PGND*%
%TO.N,PGND*%
X115415001Y-73565001D03*
D28*
%TO.P,U1,41,PAD*%
X117630000Y-73140000D03*
X119000000Y-73140000D03*
X116490000Y-72000000D03*
X117630000Y-72000000D03*
X119000000Y-72000000D03*
X120140000Y-72000000D03*
D29*
X118315000Y-71315000D03*
D28*
X116490000Y-70630000D03*
X117630000Y-70630000D03*
X119000000Y-70630000D03*
X120140000Y-70630000D03*
X117630000Y-69490000D03*
X119000000Y-69490000D03*
%TD*%
D30*
%TO.P,C2,1*%
%TO.N,AGND*%
X112550000Y-68332500D03*
%TO.P,C2,2*%
%TO.N,VCC*%
X112550000Y-70407500D03*
%TD*%
D31*
%TO.P,C7,1*%
%TO.N,PGND*%
X129425000Y-95000000D03*
%TO.P,C7,2*%
%TO.N,V_MOT*%
X131500000Y-95000000D03*
%TD*%
D23*
%TO.P,R2,1*%
%TO.N,/Motor Control/SPC*%
X129000000Y-59950000D03*
%TO.P,R2,2*%
%TO.N,PGND*%
X129000000Y-66050000D03*
%TD*%
D32*
%TO.P,J3,1,Pin_1*%
%TO.N,MOT_A*%
X144500000Y-78045000D03*
D33*
%TO.P,J3,2,Pin_2*%
%TO.N,MOT_B*%
X144500000Y-75505000D03*
%TO.P,J3,3,Pin_3*%
%TO.N,MOT_C*%
X144500000Y-72965000D03*
%TD*%
D24*
%TO.P,J4,1,Pin_1*%
%TO.N,SNSA*%
X115920000Y-60000000D03*
D25*
%TO.P,J4,2,Pin_2*%
%TO.N,SNSB*%
X118460000Y-60000000D03*
%TO.P,J4,3,Pin_3*%
%TO.N,SNSC*%
X121000000Y-60000000D03*
%TD*%
D34*
%TO.P,NT2,1,1*%
%TO.N,PGND*%
X116478710Y-69564355D03*
%TO.P,NT2,2,2*%
%TO.N,AGND*%
X115478710Y-69564355D03*
%TD*%
D20*
%TO.P,C5,1*%
%TO.N,V_MOT*%
X117000000Y-79600000D03*
%TO.P,C5,2*%
%TO.N,Net-(U1-VCP)*%
X114925000Y-79600000D03*
%TD*%
D19*
%TO.P,J6,1,Pin_1*%
%TO.N,AGND*%
X103075000Y-68150000D03*
%TO.P,J6,2,Pin_2*%
%TO.N,VCC*%
X103075000Y-70690000D03*
%TD*%
D20*
%TO.P,C6,1*%
%TO.N,Net-(U1-CPH)*%
X116000000Y-76800000D03*
%TO.P,C6,2*%
%TO.N,Net-(U1-CPL)*%
X113925000Y-76800000D03*
%TD*%
D35*
%TO.P,R1,1*%
%TO.N,VCC*%
X110120000Y-70370000D03*
%TO.P,R1,2*%
%TO.N,NFLT*%
X110120000Y-68370000D03*
%TD*%
D36*
%TO.P,C3,1*%
%TO.N,AGND*%
X115932754Y-63257754D03*
%TO.P,C3,2*%
%TO.N,VCC*%
X117400000Y-64725000D03*
%TD*%
D37*
%TO.N,/Motor Control/SPB*%
X122175442Y-73293585D03*
X129000000Y-80250000D03*
%TO.N,V_MOT*%
X136520000Y-73330000D03*
X135539937Y-66815001D03*
X135405063Y-93999999D03*
X132100000Y-72610000D03*
X135465000Y-74505000D03*
X136594937Y-66815001D03*
X136460063Y-95184999D03*
X136594937Y-69165000D03*
X137649937Y-66815001D03*
X132500000Y-94000000D03*
X134410000Y-75690000D03*
X135539937Y-68000001D03*
X135465000Y-75690000D03*
X135465000Y-73340001D03*
X132150000Y-69970000D03*
X134350063Y-92814999D03*
X134410000Y-74505000D03*
X135405063Y-95164998D03*
X134350063Y-93999999D03*
X136460063Y-92814999D03*
X136460063Y-93999999D03*
X136594937Y-68000001D03*
X132080000Y-73450000D03*
X137649937Y-68000001D03*
X132500000Y-96050000D03*
X134350063Y-95174999D03*
X134410000Y-73320000D03*
X135539937Y-69175001D03*
X137649937Y-69185001D03*
X135405063Y-92814999D03*
X136520000Y-75690000D03*
X136520000Y-74505000D03*
X132120000Y-67980000D03*
%TO.N,PGND*%
X126000000Y-64000000D03*
X129000000Y-64000000D03*
X129000000Y-76500000D03*
X123000000Y-73500000D03*
%TO.N,VCC*%
X111430479Y-66686114D03*
X118750000Y-66300000D03*
%TO.N,PGND*%
X126000000Y-85000000D03*
X129000000Y-90887500D03*
%TO.N,AGND*%
X113600000Y-68975000D03*
X114850000Y-62425000D03*
%TO.N,PGND*%
X127700000Y-74130000D03*
X121500000Y-75000000D03*
X127750000Y-93750000D03*
X127700000Y-72680000D03*
X128000000Y-68000000D03*
X128000000Y-69500000D03*
X127750000Y-95250000D03*
X127200000Y-73430000D03*
X113825000Y-75125000D03*
X124500000Y-60000000D03*
X128000000Y-68750000D03*
X127750000Y-94500000D03*
X112350000Y-76775000D03*
X114850000Y-74175000D03*
X124500000Y-62500000D03*
X123000000Y-80500000D03*
X131500000Y-84000000D03*
%TO.N,NFLT*%
X109980000Y-67160000D03*
X117475583Y-66080824D03*
%TD*%
D38*
%TO.N,MOT_B*%
X131300000Y-77480000D02*
X137725010Y-77480000D01*
X130110000Y-72160000D02*
X130110000Y-73590000D01*
X123235396Y-71901000D02*
X129851000Y-71901000D01*
X121608023Y-72016000D02*
X123120396Y-72016000D01*
X137725010Y-77480000D02*
X138795009Y-76410001D01*
X121593023Y-72031000D02*
X121608023Y-72016000D01*
X123120396Y-72016000D02*
X123235396Y-71901000D01*
X121249000Y-72031000D02*
X121593023Y-72031000D01*
X121214999Y-72065001D02*
X121249000Y-72031000D01*
X130110000Y-73590000D02*
X131300000Y-74780000D01*
X129851000Y-71901000D02*
X130110000Y-72160000D01*
X131300000Y-74780000D02*
X131300000Y-77480000D01*
%TO.N,Net-(U1-GHB)*%
X138330000Y-71450000D02*
X138795009Y-71915009D01*
X138795009Y-71915009D02*
X138795009Y-72600001D01*
X122998586Y-71500000D02*
X123048586Y-71450000D01*
X121807969Y-71500000D02*
X122998586Y-71500000D01*
X123048586Y-71450000D02*
X138330000Y-71450000D01*
X121742969Y-71565000D02*
X121807969Y-71500000D01*
X121214999Y-71565000D02*
X121742969Y-71565000D01*
%TO.N,/Motor Control/SPA*%
X120064999Y-80064999D02*
X127500000Y-87500000D01*
X120064999Y-74214999D02*
X120064999Y-80064999D01*
X129355000Y-85595000D02*
X129000000Y-85950000D01*
X129000000Y-87000000D02*
X129000000Y-85950000D01*
X128500000Y-87500000D02*
X129000000Y-87000000D01*
X133264928Y-85595000D02*
X129355000Y-85595000D01*
X127500000Y-87500000D02*
X128500000Y-87500000D01*
%TO.N,/Motor Control/SPC*%
X121214999Y-69565001D02*
X121571395Y-69565001D01*
X129355000Y-59595000D02*
X129000000Y-59950000D01*
X129000000Y-62136396D02*
X129000000Y-59950000D01*
X133264928Y-59595000D02*
X129355000Y-59595000D01*
X121571395Y-69565001D02*
X129000000Y-62136396D01*
%TO.N,/Motor Control/SPB*%
X129000000Y-81550000D02*
X129000000Y-80250000D01*
X121946859Y-73065002D02*
X122175442Y-73293585D01*
X121214999Y-73065002D02*
X121946859Y-73065002D01*
%TO.N,CAL*%
X115415001Y-69064999D02*
X115415001Y-68540001D01*
X111506112Y-64631112D02*
X109468888Y-64631112D01*
X115415001Y-68540001D02*
X111506112Y-64631112D01*
X109468888Y-64631112D02*
X108925000Y-65175000D01*
%TO.N,MOT_A*%
X119064998Y-74214999D02*
X119064998Y-80837790D01*
X119064998Y-80837790D02*
X127277208Y-89050000D01*
X134013938Y-90081000D02*
X136594937Y-87500001D01*
X127277208Y-89050000D02*
X131567928Y-89050000D01*
X132598928Y-90081000D02*
X134013938Y-90081000D01*
X131567928Y-89050000D02*
X132598928Y-90081000D01*
%TO.N,MOT_C*%
X132000000Y-65000000D02*
X132500000Y-64500000D01*
X136594937Y-64500000D02*
X136594937Y-61500001D01*
X130451000Y-70549000D02*
X130511500Y-70488500D01*
X121214999Y-70565002D02*
X121231001Y-70549000D01*
X132500000Y-64500000D02*
X136594937Y-64500000D01*
X132000000Y-66690000D02*
X132000000Y-65000000D01*
X130511500Y-68178500D02*
X132000000Y-66690000D01*
X130511500Y-70488500D02*
X130511500Y-68178500D01*
X121231001Y-70549000D02*
X130451000Y-70549000D01*
%TO.N,V_MOT*%
X118076000Y-78103662D02*
X118065000Y-78114662D01*
X118065000Y-75885338D02*
X118076000Y-75896338D01*
X117564999Y-74214999D02*
X117564999Y-77978267D01*
X118065000Y-74214999D02*
X118065000Y-75885338D01*
X137896198Y-66933874D02*
X138735072Y-66095000D01*
X117000000Y-78543266D02*
X117000000Y-81750000D01*
X118076000Y-75896338D02*
X118076000Y-78103662D01*
X117564999Y-77978267D02*
X117000000Y-78543266D01*
X118065000Y-78114662D02*
X118065000Y-83500000D01*
%TO.N,PWM_HC*%
X114676368Y-72565000D02*
X115415001Y-72565000D01*
X101225000Y-80540000D02*
X102465000Y-79300000D01*
X110900000Y-78025000D02*
X110900000Y-76341368D01*
X110900000Y-76341368D02*
X114676368Y-72565000D01*
X109625000Y-79300000D02*
X110900000Y-78025000D01*
X102465000Y-79300000D02*
X109625000Y-79300000D01*
%TO.N,PWM_HA*%
X114129368Y-70565002D02*
X115415001Y-70565002D01*
X111067956Y-73625000D02*
X114078956Y-70614000D01*
X101225000Y-75460000D02*
X103060000Y-73625000D01*
X103060000Y-73625000D02*
X111067956Y-73625000D01*
X114078956Y-70614000D02*
X114080370Y-70614000D01*
X114080370Y-70614000D02*
X114129368Y-70565002D01*
%TO.N,PWM_LC*%
X111350000Y-78975000D02*
X111350000Y-76550000D01*
X114834998Y-73065002D02*
X115415001Y-73065002D01*
X103765000Y-80540000D02*
X109785000Y-80540000D01*
X111350000Y-76550000D02*
X114834998Y-73065002D01*
X109785000Y-80540000D02*
X111350000Y-78975000D01*
%TO.N,PWM_LA*%
X110116766Y-75214000D02*
X114265766Y-71065000D01*
X114265766Y-71065000D02*
X115415001Y-71065000D01*
X103765000Y-75460000D02*
X104011000Y-75214000D01*
X104011000Y-75214000D02*
X110116766Y-75214000D01*
%TO.N,SNSA*%
X115920000Y-60095000D02*
X119565000Y-63740000D01*
X119565000Y-63740000D02*
X119565000Y-68415001D01*
X115920000Y-60000000D02*
X115920000Y-60095000D01*
%TO.N,PWM_LB*%
X109076104Y-77426104D02*
X109458208Y-77044000D01*
X109458208Y-77044000D02*
X109560972Y-77044000D01*
X114539971Y-72065001D02*
X115415001Y-72065001D01*
X109375000Y-77725000D02*
X109076104Y-77426104D01*
X109560972Y-77044000D02*
X114539971Y-72065001D01*
X104040000Y-77725000D02*
X109375000Y-77725000D01*
X103765000Y-78000000D02*
X104040000Y-77725000D01*
%TO.N,PWM_HB*%
X107315000Y-76250000D02*
X109718576Y-76250000D01*
X106866221Y-76698779D02*
X107250000Y-76315000D01*
X101225000Y-78000000D02*
X102526221Y-76698779D01*
X109718576Y-76250000D02*
X114403576Y-71565000D01*
X102526221Y-76698779D02*
X106866221Y-76698779D01*
X114403576Y-71565000D02*
X115415001Y-71565000D01*
X107250000Y-76315000D02*
X107315000Y-76250000D01*
%TO.N,SNSB*%
X118475000Y-60000000D02*
X120600000Y-62125000D01*
X120050000Y-67875000D02*
X120050000Y-68400002D01*
X120050000Y-68400002D02*
X120064999Y-68415001D01*
X120600000Y-62125000D02*
X120600000Y-67325000D01*
X118460000Y-60000000D02*
X118475000Y-60000000D01*
X120600000Y-67325000D02*
X120050000Y-67875000D01*
%TO.N,SNSC*%
X120565001Y-68415001D02*
X122375000Y-66605002D01*
X122375000Y-66605002D02*
X122375000Y-61375000D01*
X122375000Y-61375000D02*
X121000000Y-60000000D01*
%TO.N,PGND*%
X126000000Y-64279998D02*
X126000000Y-64000000D01*
X129000000Y-64000000D02*
X129000000Y-66050000D01*
X121214999Y-69064999D02*
X126000000Y-64279998D01*
X121650998Y-74001000D02*
X122499000Y-74001000D01*
X122499000Y-74001000D02*
X123000000Y-73500000D01*
X121214999Y-73565001D02*
X121650998Y-74001000D01*
%TO.N,VCC*%
X111430479Y-66686114D02*
X111320000Y-66796593D01*
X111612456Y-66588076D02*
X111528517Y-66588076D01*
D39*
X107920000Y-69420000D02*
X107920000Y-70640000D01*
D38*
X111320000Y-66796593D02*
X111320000Y-69155000D01*
X103110000Y-70650000D02*
X103000000Y-70540000D01*
X119064998Y-68415001D02*
X119064998Y-66614998D01*
X107920000Y-70640000D02*
X107910000Y-70650000D01*
X118750000Y-66075000D02*
X117400000Y-64725000D01*
D39*
X109875000Y-70650000D02*
X107910000Y-70650000D01*
X107910000Y-70650000D02*
X103110000Y-70650000D01*
D38*
X117400000Y-64750000D02*
X117400000Y-64725000D01*
X115415001Y-70065000D02*
X112960000Y-70065000D01*
X111662456Y-66638076D02*
X111612456Y-66588076D01*
X118750000Y-66300000D02*
X118750000Y-66075000D01*
X111528517Y-66588076D02*
X111430479Y-66686114D01*
X111320000Y-69155000D02*
X109900000Y-70575000D01*
X112960000Y-70065000D02*
X112375000Y-70650000D01*
D39*
X112375000Y-70650000D02*
X109875000Y-70650000D01*
D38*
X119064998Y-66614998D02*
X118750000Y-66300000D01*
%TO.N,MOT_EN*%
X111024998Y-63375000D02*
X104900000Y-63375000D01*
X116064999Y-68415001D02*
X111024998Y-63375000D01*
X104900000Y-63375000D02*
X103900000Y-64375000D01*
%TO.N,PGND*%
X120565001Y-79565001D02*
X126000000Y-85000000D01*
X129000000Y-90887500D02*
X129000000Y-92050000D01*
X120565001Y-74214999D02*
X120565001Y-79565001D01*
%TO.N,SPI_CLK*%
X117065000Y-68415001D02*
X117065000Y-67864206D01*
X111200794Y-62000000D02*
X107420000Y-62000000D01*
X117065000Y-67864206D02*
X111200794Y-62000000D01*
X107420000Y-62000000D02*
X105420000Y-60000000D01*
%TO.N,SPI_CS*%
X116564998Y-68415001D02*
X116564998Y-68064998D01*
X116564998Y-68064998D02*
X111425000Y-62925000D01*
X111425000Y-62925000D02*
X105805000Y-62925000D01*
X105805000Y-62925000D02*
X102880000Y-60000000D01*
%TO.N,SPI_MOSI*%
X111288190Y-61451000D02*
X109449000Y-61451000D01*
X109385000Y-61425000D02*
X108000000Y-60040000D01*
X117564999Y-68415001D02*
X117564999Y-67727809D01*
X109449000Y-61451000D02*
X109449000Y-61425000D01*
X109449000Y-61425000D02*
X109385000Y-61425000D01*
X117564999Y-67727809D02*
X111288190Y-61451000D01*
%TO.N,SPI_MISO*%
X110500000Y-60025000D02*
X110500000Y-60000000D01*
X118065000Y-67590000D02*
X110500000Y-60025000D01*
X118065000Y-68415001D02*
X118065000Y-67590000D01*
%TO.N,AGND*%
X115682754Y-63257754D02*
X114850000Y-62425000D01*
X112375000Y-68575000D02*
X113365001Y-69565001D01*
X113365001Y-69565001D02*
X115415001Y-69565001D01*
X112375000Y-68575000D02*
X112375000Y-68650000D01*
X115932754Y-63257754D02*
X115682754Y-63257754D01*
%TO.N,NFLT*%
X118565000Y-67170241D02*
X117475583Y-66080824D01*
X104820000Y-67320000D02*
X109820000Y-67320000D01*
X109875000Y-67265000D02*
X109980000Y-67160000D01*
X109820000Y-67320000D02*
X109980000Y-67160000D01*
X101500000Y-64000000D02*
X104820000Y-67320000D01*
X109875000Y-68650000D02*
X109875000Y-67265000D01*
X118565000Y-68415001D02*
X118565000Y-67170241D01*
%TO.N,Net-(U1-VCP)*%
X117065000Y-77840456D02*
X115438210Y-79467246D01*
X117065000Y-74214999D02*
X117065000Y-77840456D01*
X115438210Y-79467246D02*
X114782754Y-79467246D01*
%TO.N,Net-(U1-CPH)*%
X116530999Y-74248998D02*
X116530999Y-76269001D01*
X116530999Y-76269001D02*
X116000000Y-76800000D01*
X116564998Y-74214999D02*
X116530999Y-74248998D01*
%TO.N,Net-(U1-CPL)*%
X114000000Y-76800000D02*
X113925000Y-76800000D01*
X116064999Y-74214999D02*
X116064999Y-74735001D01*
X116064999Y-74735001D02*
X114000000Y-76800000D01*
%TO.N,Net-(U1-GLA)*%
X132469928Y-88600000D02*
X133264928Y-89395000D01*
X119565000Y-74214999D02*
X119565000Y-80701396D01*
X127463604Y-88600000D02*
X132469928Y-88600000D01*
X133264928Y-89395000D02*
X133264928Y-89405000D01*
X119565000Y-80701396D02*
X127463604Y-88600000D01*
%TO.N,Net-(U1-GLB)*%
X123565000Y-72565000D02*
X121214999Y-72565000D01*
X133264928Y-82904999D02*
X133169927Y-83000000D01*
X133169927Y-83000000D02*
X126500000Y-83000000D01*
X124000000Y-73000000D02*
X123565000Y-72565000D01*
X126500000Y-83000000D02*
X124000000Y-80500000D01*
X124000000Y-80500000D02*
X124000000Y-73000000D01*
%TO.N,Net-(U1-GHA)*%
X118565000Y-80974188D02*
X127090812Y-89500000D01*
X118565000Y-74214999D02*
X118565000Y-80974188D01*
X127090812Y-89500000D02*
X130080761Y-89500000D01*
X131230761Y-90650000D02*
X137300072Y-90650000D01*
X130080761Y-89500000D02*
X131230761Y-90650000D01*
X138735072Y-92085000D02*
X138735072Y-92095000D01*
X137300072Y-90650000D02*
X138735072Y-92085000D01*
%TO.N,Net-(U1-GLC)*%
X128899999Y-62880000D02*
X132749928Y-62880000D01*
X121714999Y-70065000D02*
X128899999Y-62880000D01*
X132749928Y-62880000D02*
X133264928Y-63395000D01*
X133264928Y-63395000D02*
X133264928Y-63405000D01*
X121214999Y-70065000D02*
X121714999Y-70065000D01*
%TO.N,Net-(U1-GHC)*%
X121214999Y-71065000D02*
X121606573Y-71065000D01*
X121671573Y-71000000D02*
X132169928Y-71000000D01*
X121606573Y-71065000D02*
X121671573Y-71000000D01*
X132169928Y-71000000D02*
X133264928Y-69905000D01*
%TD*%
%TA.AperFunction,Conductor*%
%TO.N,MOT_C*%
G36*
X134000000Y-65500000D02*
G01*
X134075417Y-65500000D01*
X133928981Y-65863563D01*
X133870000Y-66009999D01*
X133870000Y-68936000D01*
X133850315Y-69003039D01*
X133797511Y-69048794D01*
X133746000Y-69060000D01*
X132972071Y-69060000D01*
X132905032Y-69040315D01*
X132859277Y-68987511D01*
X132848075Y-68935011D01*
X132853168Y-68296787D01*
X132863293Y-67027773D01*
X132863302Y-67026273D01*
X132863306Y-67024969D01*
X132850712Y-66937217D01*
X132830857Y-66870228D01*
X132807543Y-66813338D01*
X132737426Y-66725655D01*
X132737425Y-66725654D01*
X132737270Y-66725460D01*
X132710775Y-66660809D01*
X132710115Y-66647498D01*
X132714927Y-65500000D01*
X132719482Y-64413479D01*
X132739448Y-64346524D01*
X132792443Y-64300991D01*
X132843481Y-64290000D01*
X134000000Y-64290000D01*
X134000000Y-65500000D01*
G37*
%TD.AperFunction*%
%TD*%
%TA.AperFunction,Conductor*%
%TO.N,/Motor Control/SPB*%
G36*
X133424587Y-78507962D02*
G01*
X133452436Y-78512847D01*
X133457675Y-78517678D01*
X133464510Y-78519685D01*
X133483016Y-78541042D01*
X133503804Y-78560209D01*
X133507734Y-78569568D01*
X133510265Y-78572489D01*
X133515248Y-78587462D01*
X133517469Y-78592750D01*
X133518101Y-78595178D01*
X133528389Y-78642473D01*
X133535112Y-78660501D01*
X133536711Y-78666638D01*
X133536659Y-78668298D01*
X133567109Y-78749937D01*
X133574927Y-78793270D01*
X133574927Y-79396725D01*
X133574284Y-79400547D01*
X133574787Y-79402620D01*
X133570062Y-79425660D01*
X133568109Y-79437277D01*
X133567625Y-79438674D01*
X133550095Y-79485678D01*
X133551214Y-79486095D01*
X133534579Y-79534168D01*
X133533792Y-79535272D01*
X133532839Y-79538883D01*
X133531576Y-79542103D01*
X133531568Y-79542126D01*
X133516404Y-79602006D01*
X133516401Y-79602020D01*
X133500938Y-79727934D01*
X133500937Y-79727959D01*
X133500968Y-79736735D01*
X133506385Y-79808699D01*
X133506389Y-79808739D01*
X133511538Y-79843612D01*
X133511540Y-79843624D01*
X133511541Y-79843626D01*
X133527138Y-79914042D01*
X133528677Y-79917379D01*
X133532332Y-79926178D01*
X133550177Y-79974289D01*
X133550095Y-79974320D01*
X133567187Y-80020145D01*
X133567212Y-80020507D01*
X133574927Y-80063269D01*
X133574927Y-80666726D01*
X133567110Y-80710057D01*
X133546997Y-80763985D01*
X133526676Y-80833187D01*
X133526676Y-80833190D01*
X133526640Y-80833697D01*
X133523163Y-80855272D01*
X133521122Y-80863329D01*
X133521121Y-80863336D01*
X133505638Y-80989372D01*
X133505735Y-81015481D01*
X133505735Y-81015487D01*
X133511148Y-81087403D01*
X133511150Y-81087421D01*
X133516299Y-81122307D01*
X133516304Y-81122334D01*
X133531888Y-81192719D01*
X133536980Y-81203761D01*
X133541696Y-81215538D01*
X133544017Y-81222320D01*
X133546995Y-81236010D01*
X133567699Y-81291521D01*
X133568247Y-81293121D01*
X133568429Y-81297257D01*
X133574927Y-81333271D01*
X133574927Y-81936723D01*
X133567110Y-81980054D01*
X133550014Y-82025890D01*
X133526013Y-82113700D01*
X133526010Y-82113715D01*
X133518197Y-82157480D01*
X133518195Y-82157494D01*
X133518195Y-82157498D01*
X133513106Y-82216208D01*
X133487707Y-82281296D01*
X133431149Y-82322320D01*
X133389570Y-82329499D01*
X132925251Y-82329499D01*
X132852192Y-82344031D01*
X132852188Y-82344032D01*
X132769327Y-82399398D01*
X132713961Y-82482259D01*
X132713960Y-82482263D01*
X132700548Y-82549691D01*
X132668163Y-82611602D01*
X132607447Y-82646177D01*
X132578931Y-82649500D01*
X126700862Y-82649500D01*
X126633823Y-82629815D01*
X126613181Y-82613181D01*
X124536319Y-80536319D01*
X124502834Y-80474996D01*
X124500000Y-80448638D01*
X124500000Y-78624000D01*
X124519685Y-78556961D01*
X124572489Y-78511206D01*
X124624000Y-78500000D01*
X133397471Y-78500000D01*
X133424587Y-78507962D01*
G37*
%TD.AperFunction*%
%TD*%
%TA.AperFunction,Conductor*%
%TO.N,/Motor Control/SPC*%
G36*
X133443039Y-59019685D02*
G01*
X133488794Y-59072489D01*
X133500000Y-59124000D01*
X133500000Y-62655500D01*
X133497449Y-62664185D01*
X133498738Y-62673147D01*
X133487759Y-62697187D01*
X133480315Y-62722539D01*
X133473474Y-62728466D01*
X133469713Y-62736703D01*
X133447478Y-62750992D01*
X133427511Y-62768294D01*
X133416996Y-62770581D01*
X133410935Y-62774477D01*
X133376000Y-62779500D01*
X133267183Y-62779500D01*
X133200144Y-62759815D01*
X133179502Y-62743181D01*
X132995843Y-62559522D01*
X132995841Y-62559520D01*
X132950178Y-62533156D01*
X132904517Y-62506793D01*
X132853585Y-62493146D01*
X132802655Y-62479500D01*
X129624000Y-62479500D01*
X129556961Y-62459815D01*
X129511206Y-62407011D01*
X129500000Y-62355500D01*
X129500000Y-60000000D01*
X127624000Y-60000000D01*
X127556961Y-59980315D01*
X127511206Y-59927511D01*
X127500000Y-59876000D01*
X127500000Y-59124000D01*
X127519685Y-59056961D01*
X127572489Y-59011206D01*
X127624000Y-59000000D01*
X133376000Y-59000000D01*
X133443039Y-59019685D01*
G37*
%TD.AperFunction*%
%TD*%
%TA.AperFunction,Conductor*%
%TO.N,V_MOT*%
G36*
X117988891Y-75019685D02*
G01*
X118033716Y-75070498D01*
X118152365Y-75318582D01*
X118164500Y-75372081D01*
X118164500Y-80921461D01*
X118164500Y-81026915D01*
X118172534Y-81056898D01*
X118191793Y-81128777D01*
X118200257Y-81143436D01*
X118244520Y-81220101D01*
X118244522Y-81220103D01*
X123462596Y-86438177D01*
X123465108Y-86441728D01*
X123467166Y-86442999D01*
X123486772Y-86472343D01*
X123487859Y-86474615D01*
X123500000Y-86528126D01*
X123500000Y-92500000D01*
X126500000Y-96000000D01*
X126500001Y-96000000D01*
X128894645Y-96000000D01*
X128940134Y-96008645D01*
X128955936Y-96014877D01*
X129044398Y-96025500D01*
X129044403Y-96025500D01*
X129805597Y-96025500D01*
X129805602Y-96025500D01*
X129894064Y-96014877D01*
X129909865Y-96008645D01*
X129955355Y-96000000D01*
X130500000Y-96000000D01*
X130464388Y-93625860D01*
X130483065Y-93558533D01*
X130535177Y-93511991D01*
X130588374Y-93500000D01*
X132500000Y-93500000D01*
X132500000Y-91174500D01*
X132519685Y-91107461D01*
X132572489Y-91061706D01*
X132624000Y-91050500D01*
X137082817Y-91050500D01*
X137149856Y-91070185D01*
X137170498Y-91086819D01*
X137963681Y-91880002D01*
X137997166Y-91941325D01*
X138000000Y-91967683D01*
X138000000Y-92300744D01*
X137980315Y-92367783D01*
X137927511Y-92413538D01*
X137910946Y-92419718D01*
X137908198Y-92420524D01*
X137908189Y-92420529D01*
X137787159Y-92498311D01*
X137787148Y-92498319D01*
X137734354Y-92544065D01*
X137734351Y-92544068D01*
X137640135Y-92652796D01*
X137640133Y-92652800D01*
X137580357Y-92783685D01*
X137580356Y-92783688D01*
X137561304Y-92848571D01*
X137560805Y-92850162D01*
X137560672Y-92850724D01*
X137540197Y-92993138D01*
X137540197Y-96207079D01*
X137534627Y-96242462D01*
X137534921Y-96242543D01*
X137534202Y-96245162D01*
X137534201Y-96245171D01*
X137534194Y-96245190D01*
X137510348Y-96332113D01*
X137502530Y-96375447D01*
X137502530Y-96375449D01*
X137494500Y-96465187D01*
X137494500Y-97532692D01*
X137474815Y-97599731D01*
X137422011Y-97645486D01*
X137370500Y-97656692D01*
X99824500Y-97656692D01*
X99757461Y-97637007D01*
X99711706Y-97584203D01*
X99700500Y-97532692D01*
X99700500Y-93624000D01*
X99720185Y-93556961D01*
X99772989Y-93511206D01*
X99824500Y-93500000D01*
X107681700Y-93500000D01*
X107748739Y-93519685D01*
X107794494Y-93572489D01*
X107805700Y-93624000D01*
X107805700Y-94194300D01*
X118194300Y-94194300D01*
X118194300Y-89800100D01*
X116124000Y-89800100D01*
X116056961Y-89780415D01*
X116011206Y-89727611D01*
X116000000Y-89676100D01*
X116000000Y-88323900D01*
X116019685Y-88256861D01*
X116072489Y-88211106D01*
X116124000Y-88199900D01*
X118194300Y-88199900D01*
X118194300Y-83805700D01*
X116124000Y-83805700D01*
X116056961Y-83786015D01*
X116011206Y-83733211D01*
X116000000Y-83681700D01*
X116000000Y-79523211D01*
X116019685Y-79456172D01*
X116036319Y-79435530D01*
X116703269Y-78768580D01*
X117385480Y-78086369D01*
X117438206Y-77995044D01*
X117438207Y-77995043D01*
X117465500Y-77893183D01*
X117465500Y-75124000D01*
X117485185Y-75056961D01*
X117537989Y-75011206D01*
X117589500Y-75000000D01*
X117921852Y-75000000D01*
X117988891Y-75019685D01*
G37*
%TD.AperFunction*%
%TD*%
%TA.AperFunction,Conductor*%
%TO.N,MOT_C*%
G36*
X148442539Y-58677377D02*
G01*
X148488294Y-58730181D01*
X148499500Y-58781692D01*
X148499500Y-73654913D01*
X148479815Y-73721952D01*
X148427011Y-73767707D01*
X148375559Y-73778913D01*
X145252860Y-73780391D01*
X145242194Y-73780397D01*
X145234968Y-73781255D01*
X145124307Y-73794393D01*
X145124303Y-73794394D01*
X145068063Y-73807911D01*
X144956711Y-73849007D01*
X144956708Y-73849008D01*
X144890641Y-73882671D01*
X144872665Y-73890117D01*
X144742271Y-73932484D01*
X144723353Y-73937026D01*
X144619633Y-73953455D01*
X144587953Y-73958473D01*
X144568556Y-73960000D01*
X144431443Y-73960000D01*
X144412044Y-73958473D01*
X144276643Y-73937026D01*
X144257724Y-73932484D01*
X144203310Y-73914804D01*
X144203252Y-73914784D01*
X144127325Y-73890115D01*
X144109354Y-73882672D01*
X144044668Y-73849712D01*
X143933065Y-73808554D01*
X143904888Y-73801796D01*
X143876717Y-73795040D01*
X143876715Y-73795039D01*
X143876712Y-73795039D01*
X143758582Y-73781100D01*
X143758574Y-73781099D01*
X143429681Y-73781255D01*
X143362632Y-73761602D01*
X143317491Y-73710194D01*
X142290508Y-71534913D01*
X142290506Y-71534911D01*
X142290504Y-71534905D01*
X142214031Y-71418091D01*
X142214030Y-71418089D01*
X142169391Y-71367007D01*
X142063897Y-71275578D01*
X142063891Y-71275574D01*
X141933287Y-71215239D01*
X141918577Y-71210850D01*
X141866330Y-71195261D01*
X141866322Y-71195259D01*
X141866320Y-71195258D01*
X141866318Y-71195258D01*
X141723997Y-71174164D01*
X141723989Y-71174163D01*
X139624346Y-71165035D01*
X139520551Y-71175346D01*
X139470703Y-71185573D01*
X139470697Y-71185575D01*
X139371238Y-71216964D01*
X139371236Y-71216964D01*
X139371236Y-71216965D01*
X139248710Y-71292396D01*
X139211828Y-71323126D01*
X139147722Y-71350915D01*
X139078769Y-71339634D01*
X139044774Y-71315539D01*
X138819255Y-71090020D01*
X138810521Y-71081286D01*
X138810520Y-71081284D01*
X138698716Y-70969480D01*
X138673494Y-70954918D01*
X138663270Y-70945442D01*
X138652227Y-70926925D01*
X138637348Y-70911320D01*
X138634686Y-70897510D01*
X138627484Y-70885433D01*
X138628205Y-70863886D01*
X138624124Y-70842713D01*
X138629350Y-70829657D01*
X138629821Y-70815603D01*
X138642078Y-70797864D01*
X138650092Y-70777848D01*
X138661546Y-70769690D01*
X138669541Y-70758122D01*
X138689440Y-70749827D01*
X138707005Y-70737319D01*
X138727860Y-70733812D01*
X138734033Y-70731239D01*
X138738466Y-70732028D01*
X138747560Y-70730499D01*
X139097944Y-70730499D01*
X139157555Y-70724091D01*
X139292403Y-70673796D01*
X139407618Y-70587546D01*
X139493868Y-70472331D01*
X139544163Y-70337483D01*
X139550572Y-70277873D01*
X139550571Y-69532128D01*
X139544163Y-69472517D01*
X139544163Y-69472516D01*
X139493869Y-69337670D01*
X139489619Y-69329888D01*
X139492829Y-69328134D01*
X139474433Y-69279001D01*
X139489199Y-69210709D01*
X139489824Y-69209736D01*
X139493869Y-69202329D01*
X139505124Y-69172150D01*
X139544163Y-69067483D01*
X139550572Y-69007873D01*
X139550571Y-68262128D01*
X139544163Y-68202517D01*
X139544163Y-68202516D01*
X139493869Y-68067670D01*
X139489619Y-68059888D01*
X139492829Y-68058134D01*
X139474433Y-68009001D01*
X139489199Y-67940709D01*
X139489824Y-67939736D01*
X139493869Y-67932329D01*
X139505124Y-67902150D01*
X139544163Y-67797483D01*
X139550572Y-67737873D01*
X139550571Y-66992128D01*
X139544163Y-66932517D01*
X139544163Y-66932516D01*
X139493869Y-66797670D01*
X139489619Y-66789888D01*
X139492829Y-66788134D01*
X139474433Y-66739001D01*
X139489199Y-66670709D01*
X139489824Y-66669736D01*
X139493869Y-66662329D01*
X139505124Y-66632150D01*
X139544163Y-66527483D01*
X139550572Y-66467873D01*
X139550571Y-65722128D01*
X139544163Y-65662517D01*
X139493868Y-65527669D01*
X139493867Y-65527668D01*
X139493865Y-65527664D01*
X139407619Y-65412455D01*
X139407616Y-65412452D01*
X139292407Y-65326206D01*
X139292400Y-65326202D01*
X139157558Y-65275910D01*
X139157557Y-65275909D01*
X139157555Y-65275909D01*
X139097945Y-65269500D01*
X139097935Y-65269500D01*
X138369412Y-65269500D01*
X138369366Y-65269502D01*
X134406931Y-65269502D01*
X134406925Y-65269503D01*
X134347318Y-65275910D01*
X134212473Y-65326204D01*
X134212466Y-65326208D01*
X134097257Y-65412454D01*
X134097254Y-65412457D01*
X134031719Y-65500000D01*
X134000000Y-65500000D01*
X134000000Y-64045293D01*
X134019685Y-63978254D01*
X134023454Y-63972825D01*
X134023721Y-63972334D01*
X134023724Y-63972331D01*
X134074019Y-63837483D01*
X134080428Y-63777873D01*
X134080427Y-63032128D01*
X134074019Y-62972517D01*
X134023724Y-62837669D01*
X134023723Y-62837668D01*
X134019474Y-62829886D01*
X134022652Y-62828150D01*
X134004272Y-62778741D01*
X134019181Y-62710480D01*
X134019794Y-62709526D01*
X134023721Y-62702335D01*
X134023720Y-62702335D01*
X134023724Y-62702331D01*
X134074019Y-62567483D01*
X134080428Y-62507873D01*
X134080427Y-61762128D01*
X134074019Y-61702517D01*
X134023724Y-61567669D01*
X134023723Y-61567668D01*
X134019474Y-61559886D01*
X134022652Y-61558150D01*
X134004272Y-61508741D01*
X134019181Y-61440480D01*
X134019794Y-61439526D01*
X134023721Y-61432335D01*
X134023720Y-61432335D01*
X134023724Y-61432331D01*
X134074019Y-61297483D01*
X134080428Y-61237873D01*
X134080427Y-60492128D01*
X134074019Y-60432517D01*
X134023724Y-60297669D01*
X134023723Y-60297668D01*
X134019474Y-60289886D01*
X134022652Y-60288150D01*
X134004272Y-60238741D01*
X134019181Y-60170480D01*
X134019794Y-60169526D01*
X134023721Y-60162335D01*
X134023720Y-60162335D01*
X134023724Y-60162331D01*
X134074019Y-60027483D01*
X134080428Y-59967873D01*
X134080427Y-59222128D01*
X134074019Y-59162517D01*
X134023724Y-59027669D01*
X134023721Y-59027665D01*
X134019474Y-59019887D01*
X134021012Y-59019046D01*
X134016993Y-59008266D01*
X134005023Y-58989641D01*
X134001870Y-58967713D01*
X134000315Y-58963543D01*
X134000000Y-58954706D01*
X134000000Y-58781692D01*
X134019685Y-58714653D01*
X134072489Y-58668898D01*
X134124000Y-58657692D01*
X148375500Y-58657692D01*
X148442539Y-58677377D01*
G37*
%TD.AperFunction*%
%TD*%
%TA.AperFunction,Conductor*%
%TO.N,/Motor Control/SPA*%
G36*
X133460446Y-85024101D02*
G01*
X133506595Y-85076561D01*
X133515355Y-85102553D01*
X133522262Y-85134300D01*
X133546678Y-85199758D01*
X133546681Y-85199765D01*
X133547841Y-85201889D01*
X133555188Y-85217977D01*
X133567109Y-85249938D01*
X133574927Y-85293272D01*
X133574927Y-85896726D01*
X133567110Y-85940057D01*
X133540622Y-86011076D01*
X133540888Y-86012922D01*
X133534344Y-86038571D01*
X133525148Y-86063244D01*
X133510309Y-86131523D01*
X133500074Y-86275025D01*
X133523053Y-86380564D01*
X133524943Y-86389242D01*
X133525521Y-86397319D01*
X133528358Y-86404928D01*
X133530234Y-86413544D01*
X133530235Y-86413547D01*
X133530685Y-86415612D01*
X133530688Y-86415621D01*
X133530689Y-86415623D01*
X133533509Y-86423180D01*
X133534101Y-86431440D01*
X133567109Y-86519938D01*
X133574927Y-86563271D01*
X133574927Y-87166726D01*
X133574459Y-87169611D01*
X133574849Y-87171137D01*
X133571414Y-87188407D01*
X133568586Y-87205871D01*
X133567880Y-87207991D01*
X133550095Y-87255679D01*
X133551802Y-87256315D01*
X133535806Y-87304398D01*
X133535157Y-87305331D01*
X133534323Y-87308601D01*
X133525210Y-87333024D01*
X133525208Y-87333030D01*
X133525208Y-87333032D01*
X133510346Y-87401303D01*
X133500060Y-87544805D01*
X133524948Y-87659309D01*
X133525521Y-87667319D01*
X133528320Y-87674825D01*
X133530205Y-87683496D01*
X133530618Y-87685398D01*
X133530620Y-87685405D01*
X133533529Y-87693207D01*
X133534120Y-87701491D01*
X133567109Y-87789938D01*
X133574927Y-87833271D01*
X133574927Y-88436726D01*
X133574459Y-88439611D01*
X133574849Y-88441137D01*
X133571414Y-88458407D01*
X133568586Y-88475871D01*
X133567880Y-88477991D01*
X133550095Y-88525679D01*
X133551802Y-88526315D01*
X133535806Y-88574398D01*
X133535157Y-88575331D01*
X133534323Y-88578601D01*
X133525210Y-88603024D01*
X133525208Y-88603030D01*
X133510346Y-88671300D01*
X133510078Y-88673166D01*
X133509815Y-88673741D01*
X133509404Y-88675630D01*
X133508993Y-88675540D01*
X133495470Y-88705140D01*
X133481056Y-88736703D01*
X133481048Y-88736708D01*
X133481044Y-88736717D01*
X133452291Y-88755188D01*
X133422278Y-88774477D01*
X133422264Y-88774478D01*
X133422260Y-88774482D01*
X133387343Y-88779500D01*
X133267182Y-88779500D01*
X133200143Y-88759815D01*
X133179501Y-88743181D01*
X132963301Y-88526981D01*
X132715841Y-88279520D01*
X132670178Y-88253156D01*
X132624517Y-88226793D01*
X132573585Y-88213146D01*
X132522655Y-88199500D01*
X132522654Y-88199500D01*
X129648861Y-88199500D01*
X129621962Y-88196547D01*
X129620963Y-88196325D01*
X129559790Y-88162566D01*
X129526579Y-88101094D01*
X129523870Y-88076703D01*
X129519350Y-87683496D01*
X129500000Y-86000000D01*
X129499999Y-86000000D01*
X127458356Y-86046934D01*
X127390882Y-86028796D01*
X127343925Y-85977057D01*
X127331661Y-85916775D01*
X127369153Y-85166925D01*
X127392160Y-85100955D01*
X127447183Y-85057894D01*
X127492068Y-85049123D01*
X133393262Y-85004919D01*
X133460446Y-85024101D01*
G37*
%TD.AperFunction*%
%TD*%
%TA.AperFunction,Conductor*%
%TO.N,V_MOT*%
G36*
X138061670Y-71940448D02*
G01*
X138108111Y-71992650D01*
X138120000Y-72045631D01*
X138120000Y-72788109D01*
X138100315Y-72855148D01*
X138047511Y-72900903D01*
X138030936Y-72907086D01*
X137968130Y-72925528D01*
X137968126Y-72925530D01*
X137847096Y-73003312D01*
X137847085Y-73003320D01*
X137794291Y-73049066D01*
X137794288Y-73049069D01*
X137700072Y-73157797D01*
X137700070Y-73157801D01*
X137640294Y-73288686D01*
X137640293Y-73288689D01*
X137621241Y-73353572D01*
X137620742Y-73355163D01*
X137620609Y-73355725D01*
X137600134Y-73498139D01*
X137600134Y-73498142D01*
X137600135Y-76605998D01*
X137580450Y-76673037D01*
X137527646Y-76718792D01*
X137476135Y-76729998D01*
X136501656Y-76729998D01*
X136441499Y-76734497D01*
X136426458Y-76735622D01*
X136426438Y-76735624D01*
X136389966Y-76741111D01*
X136316426Y-76757865D01*
X135127239Y-77124010D01*
X135090750Y-77129500D01*
X131774500Y-77129500D01*
X131707461Y-77109815D01*
X131661706Y-77057011D01*
X131650500Y-77005500D01*
X131650500Y-74733858D01*
X131650500Y-74733856D01*
X131626614Y-74644712D01*
X131588695Y-74579035D01*
X131580470Y-74564788D01*
X131580468Y-74564786D01*
X131580467Y-74564784D01*
X131326319Y-74310636D01*
X131292834Y-74249313D01*
X131290000Y-74222955D01*
X131290000Y-74010000D01*
X131061854Y-74000080D01*
X131035263Y-73991000D01*
X131007814Y-73985029D01*
X130999458Y-73978774D01*
X130995733Y-73977502D01*
X130979560Y-73963878D01*
X130866319Y-73850637D01*
X130832834Y-73789314D01*
X130830000Y-73762956D01*
X130830000Y-72115063D01*
X130849685Y-72048024D01*
X130902489Y-72002269D01*
X130955055Y-71991068D01*
X131970699Y-71999749D01*
X131999997Y-72000000D01*
X131999998Y-71999999D01*
X132000000Y-72000000D01*
X137994379Y-71921642D01*
X138061670Y-71940448D01*
G37*
%TD.AperFunction*%
%TD*%
%TA.AperFunction,Conductor*%
%TO.N,MOT_B*%
G36*
X141721799Y-71679659D02*
G01*
X141788749Y-71699635D01*
X141833387Y-71750717D01*
X142058306Y-72227124D01*
X143030779Y-74286944D01*
X143030779Y-74286943D01*
X143030780Y-74286945D01*
X143758822Y-74286600D01*
X143815175Y-74300115D01*
X143924003Y-74355566D01*
X143924005Y-74355566D01*
X143924008Y-74355568D01*
X144044412Y-74394689D01*
X144148631Y-74428553D01*
X144381903Y-74465500D01*
X144381908Y-74465500D01*
X144618097Y-74465500D01*
X144851368Y-74428553D01*
X145075992Y-74355568D01*
X145186203Y-74299412D01*
X145242433Y-74285897D01*
X148375443Y-74284414D01*
X148442490Y-74304067D01*
X148488270Y-74356849D01*
X148499500Y-74408414D01*
X148499500Y-76567606D01*
X148479815Y-76634645D01*
X148427011Y-76680400D01*
X148375714Y-76691606D01*
X148374421Y-76691608D01*
X148374420Y-76691608D01*
X147080273Y-76693836D01*
X145744066Y-76696138D01*
X145678756Y-76677677D01*
X145569340Y-76610189D01*
X145569335Y-76610187D01*
X145569334Y-76610186D01*
X145402797Y-76555001D01*
X145402795Y-76555000D01*
X145300010Y-76544500D01*
X143699998Y-76544500D01*
X143699981Y-76544501D01*
X143597203Y-76555000D01*
X143597200Y-76555001D01*
X143430668Y-76610185D01*
X143430663Y-76610187D01*
X143281342Y-76702289D01*
X143157289Y-76826342D01*
X143065187Y-76975663D01*
X143065185Y-76975668D01*
X143064634Y-76977332D01*
X143010001Y-77142203D01*
X143010001Y-77142204D01*
X143010000Y-77142204D01*
X142999500Y-77244983D01*
X142999500Y-78845001D01*
X142999501Y-78845018D01*
X143010000Y-78947796D01*
X143010001Y-78947799D01*
X143065185Y-79114331D01*
X143065186Y-79114334D01*
X143157288Y-79263656D01*
X143281344Y-79387712D01*
X143356093Y-79433817D01*
X143402817Y-79485765D01*
X143414994Y-79538695D01*
X143437114Y-83689734D01*
X143417787Y-83756878D01*
X143365228Y-83802913D01*
X143326634Y-83813656D01*
X143266045Y-83820300D01*
X143212038Y-83832479D01*
X143104770Y-83869743D01*
X142985189Y-83949759D01*
X142940092Y-83990320D01*
X142940081Y-83990331D01*
X142933243Y-83996483D01*
X142933236Y-83996489D01*
X142892351Y-84045477D01*
X142891628Y-84046313D01*
X142863116Y-84064658D01*
X142835004Y-84083470D01*
X142833528Y-84083696D01*
X142832871Y-84084119D01*
X142830761Y-84084120D01*
X142797871Y-84089161D01*
X141207016Y-84089161D01*
X141139977Y-84069476D01*
X141109330Y-84041538D01*
X141084349Y-84009587D01*
X141084340Y-84009577D01*
X141046192Y-83970587D01*
X140959591Y-83899776D01*
X140959582Y-83899770D01*
X140828910Y-83839567D01*
X140828906Y-83839565D01*
X140761945Y-83819660D01*
X140761935Y-83819658D01*
X140619586Y-83798706D01*
X134144658Y-83777082D01*
X134136403Y-83774628D01*
X134127882Y-83775886D01*
X134103416Y-83764822D01*
X134077685Y-83757174D01*
X134072067Y-83750646D01*
X134064219Y-83747098D01*
X134049618Y-83724564D01*
X134032106Y-83704217D01*
X134029915Y-83694154D01*
X134026226Y-83688461D01*
X134021074Y-83653553D01*
X134020515Y-83503763D01*
X134028330Y-83459978D01*
X134074019Y-83337482D01*
X134080428Y-83277872D01*
X134080427Y-82532127D01*
X134074019Y-82472516D01*
X134023825Y-82337940D01*
X134022850Y-82332592D01*
X134021161Y-82329985D01*
X134016010Y-82295079D01*
X134015828Y-82246331D01*
X134023645Y-82202541D01*
X134023724Y-82202330D01*
X134074019Y-82067482D01*
X134080428Y-82007872D01*
X134080427Y-81262127D01*
X134074019Y-81202516D01*
X134023724Y-81067668D01*
X134023723Y-81067667D01*
X134020624Y-81059357D01*
X134022797Y-81058546D01*
X134022741Y-81058330D01*
X134016384Y-81048518D01*
X134011233Y-81013612D01*
X134011136Y-80987491D01*
X134022801Y-80941454D01*
X134020624Y-80940642D01*
X134029359Y-80917221D01*
X134074019Y-80797482D01*
X134080428Y-80737872D01*
X134080427Y-79992127D01*
X134074019Y-79932516D01*
X134023724Y-79797668D01*
X134023720Y-79797663D01*
X134021632Y-79793838D01*
X134017966Y-79779587D01*
X134011620Y-79769794D01*
X134006466Y-79734885D01*
X134006434Y-79726108D01*
X134021602Y-79666215D01*
X134023719Y-79662335D01*
X134023724Y-79662330D01*
X134074019Y-79527482D01*
X134080428Y-79467872D01*
X134080427Y-78722127D01*
X134074019Y-78662516D01*
X134023724Y-78527668D01*
X134023721Y-78527664D01*
X134019474Y-78519886D01*
X134021724Y-78518657D01*
X134002020Y-78465826D01*
X134001705Y-78457444D01*
X134000342Y-78091919D01*
X134019776Y-78024810D01*
X134072409Y-77978858D01*
X134087840Y-77972954D01*
X136465167Y-77240987D01*
X136501656Y-77235498D01*
X137653006Y-77235498D01*
X137653007Y-77235498D01*
X137712618Y-77229090D01*
X137847466Y-77178795D01*
X137962681Y-77092545D01*
X138048931Y-76977330D01*
X138099226Y-76842482D01*
X138105635Y-76782872D01*
X138105634Y-73498140D01*
X138125319Y-73431102D01*
X138178123Y-73385347D01*
X138247281Y-73375403D01*
X138272967Y-73381959D01*
X138372526Y-73419092D01*
X138432136Y-73425501D01*
X139157881Y-73425500D01*
X139217492Y-73419092D01*
X139352340Y-73368797D01*
X139467555Y-73282547D01*
X139553805Y-73167332D01*
X139604100Y-73032484D01*
X139610509Y-72972874D01*
X139610508Y-72227129D01*
X139604100Y-72167518D01*
X139553805Y-72032670D01*
X139520047Y-71987575D01*
X139511901Y-71965736D01*
X139499683Y-71945890D01*
X139497282Y-71926540D01*
X139495630Y-71922111D01*
X139495337Y-71910889D01*
X139497636Y-71792127D01*
X139518613Y-71725485D01*
X139572293Y-71680760D01*
X139622150Y-71670531D01*
X141721799Y-71679659D01*
G37*
%TD.AperFunction*%
%TD*%
%TA.AperFunction,Conductor*%
%TO.N,V_MOT*%
G36*
X132485032Y-66911422D02*
G01*
X132537952Y-66957043D01*
X132557807Y-67024032D01*
X132557803Y-67025336D01*
X132533915Y-70019240D01*
X132513696Y-70086121D01*
X132497600Y-70105932D01*
X132133023Y-70470510D01*
X132071700Y-70503995D01*
X132044532Y-70506826D01*
X131123704Y-70500808D01*
X131056794Y-70480686D01*
X131011385Y-70427584D01*
X131000515Y-70376294D01*
X131009174Y-68298060D01*
X131029138Y-68231106D01*
X131045483Y-68210909D01*
X132141551Y-67114841D01*
X132147731Y-67109072D01*
X132352369Y-66930839D01*
X132415848Y-66901654D01*
X132485032Y-66911422D01*
G37*
%TD.AperFunction*%
%TD*%
%TA.AperFunction,Conductor*%
%TO.N,MOT_A*%
G36*
X148442360Y-77216675D02*
G01*
X148488205Y-77269400D01*
X148499500Y-77321106D01*
X148499500Y-97532692D01*
X148479815Y-97599731D01*
X148427011Y-97645486D01*
X148375500Y-97656692D01*
X138124000Y-97656692D01*
X138056961Y-97637007D01*
X138011206Y-97584203D01*
X138000000Y-97532692D01*
X138000000Y-96465192D01*
X138007818Y-96421859D01*
X138039289Y-96337480D01*
X138045698Y-96277871D01*
X138045697Y-92993139D01*
X138065382Y-92926101D01*
X138118186Y-92880346D01*
X138187344Y-92870402D01*
X138213030Y-92876958D01*
X138312589Y-92914091D01*
X138372199Y-92920500D01*
X139097944Y-92920499D01*
X139157555Y-92914091D01*
X139292403Y-92863796D01*
X139407618Y-92777546D01*
X139493868Y-92662331D01*
X139544163Y-92527483D01*
X139550572Y-92467873D01*
X139550571Y-91722128D01*
X139544163Y-91662517D01*
X139493868Y-91527669D01*
X139493867Y-91527668D01*
X139493865Y-91527664D01*
X139407619Y-91412455D01*
X139407616Y-91412452D01*
X139292407Y-91326206D01*
X139292400Y-91326202D01*
X139157554Y-91275908D01*
X139157555Y-91275908D01*
X139097955Y-91269501D01*
X139097953Y-91269500D01*
X139097945Y-91269500D01*
X139097937Y-91269500D01*
X138820169Y-91269500D01*
X138753130Y-91249815D01*
X138732488Y-91233181D01*
X137787662Y-90288355D01*
X137787660Y-90288352D01*
X137668789Y-90169481D01*
X137668788Y-90169480D01*
X137581976Y-90119360D01*
X137581976Y-90119359D01*
X137581972Y-90119358D01*
X137531857Y-90090423D01*
X137379129Y-90049499D01*
X137221015Y-90049499D01*
X137213419Y-90049499D01*
X137213403Y-90049500D01*
X134173535Y-90049500D01*
X134106496Y-90029815D01*
X134060741Y-89977011D01*
X134050797Y-89907853D01*
X134057353Y-89882167D01*
X134058027Y-89880358D01*
X134074019Y-89837483D01*
X134080428Y-89777873D01*
X134080427Y-89032128D01*
X134074019Y-88972517D01*
X134074019Y-88972516D01*
X134023725Y-88837670D01*
X134019475Y-88829888D01*
X134022664Y-88828146D01*
X134004278Y-88778828D01*
X134019140Y-88710557D01*
X134019751Y-88709607D01*
X134023718Y-88702337D01*
X134023724Y-88702331D01*
X134074019Y-88567483D01*
X134080428Y-88507873D01*
X134080427Y-87762128D01*
X134074019Y-87702517D01*
X134023724Y-87567669D01*
X134023721Y-87567665D01*
X134023721Y-87567664D01*
X134019472Y-87559882D01*
X134022661Y-87558140D01*
X134004278Y-87508828D01*
X134019140Y-87440557D01*
X134019747Y-87439612D01*
X134023719Y-87432336D01*
X134023724Y-87432331D01*
X134074019Y-87297483D01*
X134080428Y-87237873D01*
X134080427Y-86492128D01*
X134074019Y-86432517D01*
X134023724Y-86297669D01*
X134023721Y-86297665D01*
X134023721Y-86297664D01*
X134019472Y-86289882D01*
X134022666Y-86288137D01*
X134004280Y-86238870D01*
X134019118Y-86170594D01*
X134019735Y-86169634D01*
X134023721Y-86162335D01*
X134023720Y-86162335D01*
X134023724Y-86162331D01*
X134074019Y-86027483D01*
X134080428Y-85967873D01*
X134080427Y-85222128D01*
X134074019Y-85162517D01*
X134023724Y-85027669D01*
X134023721Y-85027665D01*
X134023721Y-85027664D01*
X134020305Y-85023101D01*
X133995887Y-84957637D01*
X133995572Y-84948872D01*
X133995354Y-84406548D01*
X134015012Y-84339503D01*
X134067797Y-84293727D01*
X134119764Y-84282502D01*
X140617904Y-84304204D01*
X140684873Y-84324111D01*
X140723022Y-84363102D01*
X140757288Y-84418656D01*
X140881344Y-84542712D01*
X141030666Y-84634814D01*
X141197203Y-84689999D01*
X141299991Y-84700500D01*
X142700008Y-84700499D01*
X142802797Y-84689999D01*
X142969334Y-84634814D01*
X143118656Y-84542712D01*
X143242712Y-84418656D01*
X143271291Y-84372320D01*
X143323237Y-84325597D01*
X143377240Y-84313419D01*
X143945956Y-84315319D01*
X143945956Y-84315318D01*
X143908729Y-77329249D01*
X143928056Y-77262105D01*
X143980615Y-77216070D01*
X144032510Y-77204588D01*
X148375291Y-77197107D01*
X148442360Y-77216675D01*
G37*
%TD.AperFunction*%
%TD*%
%TA.AperFunction,Conductor*%
%TO.N,AGND*%
G36*
X114920230Y-58677377D02*
G01*
X114965985Y-58730181D01*
X114975929Y-58799339D01*
X114946904Y-58862895D01*
X114903278Y-58895125D01*
X114901172Y-58896055D01*
X114897234Y-58897794D01*
X114817794Y-58977234D01*
X114772415Y-59080006D01*
X114772415Y-59080008D01*
X114769500Y-59105131D01*
X114769500Y-60894856D01*
X114769502Y-60894882D01*
X114772413Y-60919987D01*
X114772415Y-60919991D01*
X114817793Y-61022764D01*
X114817794Y-61022765D01*
X114897235Y-61102206D01*
X115000009Y-61147585D01*
X115025135Y-61150500D01*
X116357744Y-61150499D01*
X116424783Y-61170184D01*
X116445425Y-61186818D01*
X118103455Y-62844848D01*
X118136940Y-62906171D01*
X118137392Y-62956719D01*
X118124500Y-63021536D01*
X118124500Y-63228469D01*
X118164868Y-63431412D01*
X118164870Y-63431420D01*
X118232544Y-63594800D01*
X118244059Y-63622598D01*
X118246734Y-63626601D01*
X118359024Y-63794657D01*
X118505342Y-63940975D01*
X118505345Y-63940977D01*
X118677402Y-64055941D01*
X118868580Y-64135130D01*
X118943066Y-64149946D01*
X119064691Y-64174139D01*
X119126602Y-64206524D01*
X119161176Y-64267239D01*
X119164500Y-64295756D01*
X119164500Y-65623745D01*
X119144815Y-65690784D01*
X119092011Y-65736539D01*
X119022853Y-65746483D01*
X118959297Y-65717458D01*
X118952819Y-65711426D01*
X118398674Y-65157281D01*
X118365189Y-65095958D01*
X118370173Y-65026266D01*
X118392195Y-64989645D01*
X118391974Y-64989472D01*
X118393361Y-64987705D01*
X118393608Y-64987296D01*
X118394257Y-64986563D01*
X118394264Y-64986557D01*
X118449305Y-64916494D01*
X118449308Y-64916488D01*
X118509593Y-64777697D01*
X118523233Y-64678465D01*
X118530200Y-64627773D01*
X118509594Y-64477853D01*
X118509593Y-64477851D01*
X118509593Y-64477848D01*
X118449308Y-64339057D01*
X118449305Y-64339053D01*
X118449305Y-64339052D01*
X118394264Y-64268988D01*
X118394259Y-64268983D01*
X118394256Y-64268979D01*
X117856020Y-63730743D01*
X117856015Y-63730739D01*
X117856012Y-63730736D01*
X117785948Y-63675695D01*
X117785946Y-63675694D01*
X117785942Y-63675691D01*
X117647150Y-63615406D01*
X117647151Y-63615406D01*
X117497227Y-63594800D01*
X117347302Y-63615406D01*
X117208511Y-63675691D01*
X117208507Y-63675694D01*
X117138443Y-63730735D01*
X117138433Y-63730744D01*
X116405744Y-64463433D01*
X116405735Y-64463443D01*
X116350694Y-64533507D01*
X116350691Y-64533511D01*
X116290406Y-64672302D01*
X116269800Y-64822226D01*
X116269800Y-64822228D01*
X116284314Y-64927831D01*
X116273941Y-64996927D01*
X116227859Y-65049445D01*
X116160698Y-65068713D01*
X116093782Y-65048612D01*
X116073788Y-65032396D01*
X114350181Y-63308789D01*
X111836818Y-60795425D01*
X111803333Y-60734102D01*
X111800499Y-60707744D01*
X111800499Y-59355143D01*
X111800499Y-59355136D01*
X111800497Y-59355117D01*
X111797586Y-59330012D01*
X111797585Y-59330010D01*
X111797585Y-59330009D01*
X111752206Y-59227235D01*
X111672765Y-59147794D01*
X111672763Y-59147793D01*
X111569992Y-59102415D01*
X111544865Y-59099500D01*
X109755143Y-59099500D01*
X109755117Y-59099502D01*
X109730012Y-59102413D01*
X109730008Y-59102415D01*
X109627235Y-59147793D01*
X109547794Y-59227234D01*
X109502415Y-59330006D01*
X109502415Y-59330008D01*
X109499500Y-59355131D01*
X109499500Y-60092868D01*
X109479815Y-60159907D01*
X109427011Y-60205662D01*
X109357853Y-60215606D01*
X109294297Y-60186581D01*
X109256523Y-60127803D01*
X109253027Y-60112266D01*
X109233779Y-59990744D01*
X109232171Y-59980591D01*
X109176211Y-59808361D01*
X109176211Y-59808360D01*
X109136584Y-59730589D01*
X109093996Y-59647006D01*
X109080396Y-59628287D01*
X108987558Y-59500505D01*
X108987554Y-59500500D01*
X108859499Y-59372445D01*
X108859494Y-59372441D01*
X108712997Y-59266006D01*
X108712996Y-59266005D01*
X108712994Y-59266004D01*
X108636906Y-59227235D01*
X108551639Y-59183788D01*
X108551636Y-59183787D01*
X108379410Y-59127829D01*
X108200551Y-59099500D01*
X108200546Y-59099500D01*
X108019454Y-59099500D01*
X108019449Y-59099500D01*
X107840589Y-59127829D01*
X107668363Y-59183787D01*
X107668360Y-59183788D01*
X107507002Y-59266006D01*
X107360505Y-59372441D01*
X107360500Y-59372445D01*
X107232445Y-59500500D01*
X107232441Y-59500505D01*
X107126006Y-59647002D01*
X107043788Y-59808360D01*
X107043787Y-59808363D01*
X106987829Y-59980589D01*
X106962473Y-60140678D01*
X106932544Y-60203813D01*
X106873232Y-60240744D01*
X106803369Y-60239746D01*
X106745137Y-60201136D01*
X106717527Y-60140678D01*
X106696869Y-60010253D01*
X106692171Y-59980591D01*
X106636211Y-59808361D01*
X106636211Y-59808360D01*
X106596584Y-59730589D01*
X106553996Y-59647006D01*
X106540396Y-59628287D01*
X106447558Y-59500505D01*
X106447554Y-59500500D01*
X106319499Y-59372445D01*
X106319494Y-59372441D01*
X106172997Y-59266006D01*
X106172996Y-59266005D01*
X106172994Y-59266004D01*
X106096906Y-59227235D01*
X106011639Y-59183788D01*
X106011636Y-59183787D01*
X105839410Y-59127829D01*
X105660551Y-59099500D01*
X105660546Y-59099500D01*
X105479454Y-59099500D01*
X105479449Y-59099500D01*
X105300589Y-59127829D01*
X105128363Y-59183787D01*
X105128360Y-59183788D01*
X104967002Y-59266006D01*
X104820505Y-59372441D01*
X104820500Y-59372445D01*
X104692445Y-59500500D01*
X104692441Y-59500505D01*
X104586006Y-59647002D01*
X104503788Y-59808360D01*
X104503787Y-59808363D01*
X104447829Y-59980589D01*
X104422473Y-60140678D01*
X104392544Y-60203813D01*
X104333232Y-60240744D01*
X104263369Y-60239746D01*
X104205137Y-60201136D01*
X104177527Y-60140678D01*
X104156869Y-60010253D01*
X104152171Y-59980591D01*
X104096211Y-59808361D01*
X104096211Y-59808360D01*
X104056584Y-59730589D01*
X104013996Y-59647006D01*
X104000396Y-59628287D01*
X103907558Y-59500505D01*
X103907554Y-59500500D01*
X103779499Y-59372445D01*
X103779494Y-59372441D01*
X103632997Y-59266006D01*
X103632996Y-59266005D01*
X103632994Y-59266004D01*
X103556906Y-59227235D01*
X103471639Y-59183788D01*
X103471636Y-59183787D01*
X103299410Y-59127829D01*
X103120551Y-59099500D01*
X103120546Y-59099500D01*
X102939454Y-59099500D01*
X102939449Y-59099500D01*
X102760589Y-59127829D01*
X102588363Y-59183787D01*
X102588360Y-59183788D01*
X102427002Y-59266006D01*
X102280505Y-59372441D01*
X102280500Y-59372445D01*
X102152445Y-59500500D01*
X102152441Y-59500505D01*
X102046006Y-59647002D01*
X101963788Y-59808360D01*
X101963787Y-59808363D01*
X101907829Y-59980589D01*
X101879500Y-60159448D01*
X101879500Y-60340551D01*
X101907829Y-60519410D01*
X101963787Y-60691636D01*
X101963788Y-60691639D01*
X102046006Y-60852997D01*
X102152441Y-60999494D01*
X102152445Y-60999499D01*
X102280500Y-61127554D01*
X102280505Y-61127558D01*
X102408287Y-61220396D01*
X102427006Y-61233996D01*
X102532484Y-61287740D01*
X102588360Y-61316211D01*
X102588363Y-61316212D01*
X102674476Y-61344191D01*
X102760591Y-61372171D01*
X102843429Y-61385291D01*
X102939449Y-61400500D01*
X102939454Y-61400500D01*
X103120551Y-61400500D01*
X103228120Y-61383462D01*
X103299409Y-61372171D01*
X103356819Y-61353517D01*
X103471633Y-61316213D01*
X103471633Y-61316212D01*
X103471639Y-61316211D01*
X103496152Y-61303720D01*
X103564818Y-61290821D01*
X103629559Y-61317095D01*
X103640130Y-61326522D01*
X105076427Y-62762819D01*
X105087039Y-62782255D01*
X105101540Y-62798989D01*
X105103456Y-62812320D01*
X105109912Y-62824142D01*
X105108332Y-62846228D01*
X105111484Y-62868147D01*
X105105888Y-62880398D01*
X105104928Y-62893834D01*
X105091657Y-62911560D01*
X105082459Y-62931703D01*
X105071127Y-62938985D01*
X105063056Y-62949767D01*
X105042310Y-62957504D01*
X105023681Y-62969477D01*
X105001762Y-62972628D01*
X104997592Y-62974184D01*
X104988746Y-62974500D01*
X104960339Y-62974500D01*
X104960323Y-62974499D01*
X104952727Y-62974499D01*
X104847273Y-62974499D01*
X104799217Y-62987376D01*
X104745412Y-63001793D01*
X104654084Y-63054522D01*
X104579520Y-63129086D01*
X104579520Y-63129087D01*
X104579518Y-63129089D01*
X104484107Y-63224500D01*
X104449091Y-63259516D01*
X104387768Y-63293000D01*
X104323093Y-63289765D01*
X104209412Y-63252829D01*
X104030551Y-63224500D01*
X104030546Y-63224500D01*
X103849454Y-63224500D01*
X103849449Y-63224500D01*
X103670589Y-63252829D01*
X103498363Y-63308787D01*
X103498360Y-63308788D01*
X103337002Y-63391006D01*
X103190505Y-63497441D01*
X103190500Y-63497445D01*
X103062445Y-63625500D01*
X103062441Y-63625505D01*
X102956006Y-63772002D01*
X102873788Y-63933360D01*
X102873787Y-63933363D01*
X102817829Y-64105589D01*
X102796972Y-64237273D01*
X102767043Y-64300408D01*
X102707731Y-64337339D01*
X102637868Y-64336341D01*
X102579636Y-64297731D01*
X102551522Y-64233767D01*
X102550499Y-64217875D01*
X102550499Y-63480143D01*
X102550499Y-63480136D01*
X102550497Y-63480117D01*
X102547586Y-63455012D01*
X102547585Y-63455010D01*
X102547585Y-63455009D01*
X102502206Y-63352235D01*
X102422765Y-63272794D01*
X102392693Y-63259516D01*
X102319992Y-63227415D01*
X102294865Y-63224500D01*
X100505143Y-63224500D01*
X100505117Y-63224502D01*
X100480012Y-63227413D01*
X100480008Y-63227415D01*
X100377235Y-63272793D01*
X100297794Y-63352234D01*
X100252415Y-63455006D01*
X100252415Y-63455008D01*
X100249500Y-63480131D01*
X100249500Y-65269856D01*
X100249502Y-65269882D01*
X100252413Y-65294987D01*
X100252415Y-65294991D01*
X100297793Y-65397764D01*
X100297794Y-65397765D01*
X100377235Y-65477206D01*
X100480009Y-65522585D01*
X100505135Y-65525500D01*
X102294864Y-65525499D01*
X102294879Y-65525497D01*
X102294882Y-65525497D01*
X102319985Y-65522586D01*
X102319987Y-65522585D01*
X102319991Y-65522585D01*
X102336766Y-65515177D01*
X102406041Y-65506103D01*
X102469227Y-65535923D01*
X102474536Y-65540929D01*
X103417325Y-66483718D01*
X103450810Y-66545041D01*
X103445826Y-66614733D01*
X103403954Y-66670666D01*
X103338490Y-66695083D01*
X103310247Y-66693872D01*
X103191091Y-66675000D01*
X102958910Y-66675000D01*
X102729606Y-66711318D01*
X102508794Y-66783065D01*
X102301925Y-66888470D01*
X102223791Y-66945237D01*
X102223791Y-66945238D01*
X102827511Y-67548958D01*
X102767110Y-67573978D01*
X102660649Y-67645112D01*
X102570112Y-67735649D01*
X102498978Y-67842110D01*
X102473958Y-67902511D01*
X101870238Y-67298791D01*
X101870237Y-67298791D01*
X101813470Y-67376925D01*
X101708065Y-67583794D01*
X101636318Y-67804606D01*
X101600000Y-68033909D01*
X101600000Y-68266090D01*
X101636318Y-68495393D01*
X101708065Y-68716205D01*
X101813465Y-68923064D01*
X101870238Y-69001207D01*
X102473958Y-68397487D01*
X102498978Y-68457890D01*
X102570112Y-68564351D01*
X102660649Y-68654888D01*
X102767110Y-68726022D01*
X102827510Y-68751041D01*
X102223791Y-69354759D01*
X102223791Y-69354760D01*
X102301938Y-69411536D01*
X102301937Y-69411536D01*
X102334835Y-69428298D01*
X102385631Y-69476272D01*
X102402427Y-69544093D01*
X102379890Y-69610228D01*
X102351427Y-69639100D01*
X102244074Y-69717098D01*
X102244065Y-69717105D01*
X102102105Y-69859065D01*
X102102105Y-69859066D01*
X102102103Y-69859068D01*
X102052822Y-69926897D01*
X101984095Y-70021491D01*
X101892949Y-70200373D01*
X101830907Y-70391319D01*
X101819158Y-70465500D01*
X101799500Y-70589616D01*
X101799500Y-70790384D01*
X101819647Y-70917584D01*
X101830907Y-70988680D01*
X101892949Y-71179626D01*
X101966298Y-71323580D01*
X101984095Y-71358508D01*
X102102103Y-71520932D01*
X102244068Y-71662897D01*
X102406492Y-71780905D01*
X102489514Y-71823207D01*
X102585373Y-71872050D01*
X102585375Y-71872050D01*
X102585378Y-71872052D01*
X102776320Y-71934093D01*
X102974616Y-71965500D01*
X102974617Y-71965500D01*
X103175383Y-71965500D01*
X103175384Y-71965500D01*
X103373680Y-71934093D01*
X103564622Y-71872052D01*
X103743508Y-71780905D01*
X103905932Y-71662897D01*
X104047897Y-71520932D01*
X104134586Y-71401615D01*
X104189916Y-71358949D01*
X104234904Y-71350500D01*
X112443993Y-71350500D01*
X112457596Y-71347794D01*
X112527187Y-71354020D01*
X112582365Y-71396882D01*
X112605611Y-71462771D01*
X112589545Y-71530768D01*
X112569470Y-71557092D01*
X110938382Y-73188181D01*
X110877059Y-73221666D01*
X110850701Y-73224500D01*
X108333010Y-73224500D01*
X108265971Y-73204815D01*
X108220216Y-73152011D01*
X108218449Y-73147953D01*
X108180942Y-73057404D01*
X108065975Y-72885342D01*
X107919657Y-72739024D01*
X107833626Y-72681541D01*
X107747598Y-72624059D01*
X107556420Y-72544870D01*
X107556412Y-72544868D01*
X107353469Y-72504500D01*
X107353465Y-72504500D01*
X107146535Y-72504500D01*
X107146530Y-72504500D01*
X106943587Y-72544868D01*
X106943579Y-72544870D01*
X106752403Y-72624058D01*
X106580342Y-72739024D01*
X106434024Y-72885342D01*
X106319057Y-73057404D01*
X106281551Y-73147953D01*
X106237710Y-73202356D01*
X106171415Y-73224421D01*
X106166990Y-73224500D01*
X103007273Y-73224500D01*
X102905410Y-73251793D01*
X102814087Y-73304520D01*
X102814084Y-73304522D01*
X101845424Y-74273181D01*
X101784101Y-74306666D01*
X101757743Y-74309500D01*
X100565143Y-74309500D01*
X100565117Y-74309502D01*
X100540012Y-74312413D01*
X100540008Y-74312415D01*
X100437235Y-74357793D01*
X100357794Y-74437234D01*
X100312415Y-74540006D01*
X100312415Y-74540008D01*
X100309500Y-74565131D01*
X100309500Y-76354856D01*
X100309502Y-76354882D01*
X100312413Y-76379987D01*
X100312415Y-76379991D01*
X100357793Y-76482764D01*
X100357794Y-76482765D01*
X100437235Y-76562206D01*
X100540009Y-76607585D01*
X100565135Y-76610500D01*
X101302873Y-76610499D01*
X101369911Y-76630183D01*
X101415666Y-76682987D01*
X101425610Y-76752146D01*
X101396585Y-76815702D01*
X101337807Y-76853476D01*
X101322271Y-76856972D01*
X101190589Y-76877829D01*
X101018363Y-76933787D01*
X101018360Y-76933788D01*
X100857002Y-77016006D01*
X100710505Y-77122441D01*
X100710500Y-77122445D01*
X100582445Y-77250500D01*
X100582441Y-77250505D01*
X100476006Y-77397002D01*
X100393788Y-77558360D01*
X100393787Y-77558363D01*
X100337829Y-77730589D01*
X100309500Y-77909448D01*
X100309500Y-78090551D01*
X100337829Y-78269410D01*
X100393787Y-78441636D01*
X100393788Y-78441639D01*
X100476006Y-78602997D01*
X100582441Y-78749494D01*
X100582445Y-78749499D01*
X100710500Y-78877554D01*
X100710505Y-78877558D01*
X100778272Y-78926793D01*
X100857006Y-78983996D01*
X100962484Y-79037740D01*
X101018360Y-79066211D01*
X101018363Y-79066212D01*
X101104476Y-79094191D01*
X101190591Y-79122171D01*
X101263639Y-79133740D01*
X101350678Y-79147527D01*
X101413813Y-79177456D01*
X101450744Y-79236768D01*
X101449746Y-79306631D01*
X101411136Y-79364863D01*
X101350678Y-79392473D01*
X101190589Y-79417829D01*
X101018363Y-79473787D01*
X101018360Y-79473788D01*
X100857002Y-79556006D01*
X100710505Y-79662441D01*
X100710500Y-79662445D01*
X100582445Y-79790500D01*
X100582441Y-79790505D01*
X100476006Y-79937002D01*
X100393788Y-80098360D01*
X100393788Y-80098362D01*
X100337829Y-80270589D01*
X100309500Y-80449448D01*
X100309500Y-80630551D01*
X100337829Y-80809410D01*
X100393787Y-80981636D01*
X100393788Y-80981639D01*
X100476006Y-81142997D01*
X100582441Y-81289494D01*
X100582445Y-81289499D01*
X100710500Y-81417554D01*
X100710505Y-81417558D01*
X100838287Y-81510396D01*
X100857006Y-81523996D01*
X100962484Y-81577740D01*
X101018360Y-81606211D01*
X101018363Y-81606212D01*
X101104476Y-81634191D01*
X101190591Y-81662171D01*
X101273429Y-81675291D01*
X101369449Y-81690500D01*
X101369454Y-81690500D01*
X101550551Y-81690500D01*
X101637259Y-81676765D01*
X101729409Y-81662171D01*
X101901639Y-81606211D01*
X102062994Y-81523996D01*
X102209501Y-81417553D01*
X102337553Y-81289501D01*
X102443996Y-81142994D01*
X102526211Y-80981639D01*
X102582171Y-80809409D01*
X102596422Y-80719425D01*
X102607527Y-80649321D01*
X102637456Y-80586186D01*
X102696768Y-80549255D01*
X102766630Y-80550253D01*
X102824863Y-80588863D01*
X102852473Y-80649321D01*
X102877829Y-80809410D01*
X102933787Y-80981636D01*
X102933788Y-80981639D01*
X103016006Y-81142997D01*
X103122441Y-81289494D01*
X103122445Y-81289499D01*
X103250500Y-81417554D01*
X103250505Y-81417558D01*
X103378287Y-81510396D01*
X103397006Y-81523996D01*
X103502484Y-81577740D01*
X103558360Y-81606211D01*
X103558363Y-81606212D01*
X103644476Y-81634191D01*
X103730591Y-81662171D01*
X103813429Y-81675291D01*
X103909449Y-81690500D01*
X103909454Y-81690500D01*
X104090551Y-81690500D01*
X104177259Y-81676765D01*
X104269409Y-81662171D01*
X104441639Y-81606211D01*
X104602994Y-81523996D01*
X104749501Y-81417553D01*
X104877553Y-81289501D01*
X104983996Y-81142994D01*
X105052675Y-81008205D01*
X105100650Y-80957409D01*
X105163160Y-80940500D01*
X106686300Y-80940500D01*
X106753339Y-80960185D01*
X106799094Y-81012989D01*
X106809038Y-81082147D01*
X106780013Y-81145703D01*
X106776413Y-81149681D01*
X105536694Y-82461181D01*
X105476336Y-82496377D01*
X105446581Y-82500000D01*
X99824500Y-82500000D01*
X99757461Y-82480315D01*
X99711706Y-82427511D01*
X99700500Y-82376000D01*
X99700500Y-58781692D01*
X99720185Y-58714653D01*
X99772989Y-58668898D01*
X99824500Y-58657692D01*
X114853191Y-58657692D01*
X114920230Y-58677377D01*
G37*
%TD.AperFunction*%
%TA.AperFunction,Conductor*%
G36*
X104672956Y-67695228D02*
G01*
X104767273Y-67720500D01*
X104872727Y-67720500D01*
X109014156Y-67720500D01*
X109081195Y-67740185D01*
X109126950Y-67792989D01*
X109136894Y-67862147D01*
X109131971Y-67880707D01*
X109132070Y-67880732D01*
X109130123Y-67888432D01*
X109130123Y-67888436D01*
X109119500Y-67976898D01*
X109119500Y-68763102D01*
X109122379Y-68787074D01*
X109130122Y-68851561D01*
X109185639Y-68992343D01*
X109277077Y-69112922D01*
X109397656Y-69204360D01*
X109397657Y-69204360D01*
X109397658Y-69204361D01*
X109525171Y-69254646D01*
X109580314Y-69297551D01*
X109603507Y-69363459D01*
X109587386Y-69431444D01*
X109537070Y-69479920D01*
X109525178Y-69485351D01*
X109476813Y-69504424D01*
X109397656Y-69535639D01*
X109277077Y-69627077D01*
X109185638Y-69747658D01*
X109167678Y-69793202D01*
X109124772Y-69848345D01*
X109058864Y-69871538D01*
X108990880Y-69855417D01*
X108942404Y-69805100D01*
X108928826Y-69736562D01*
X108930707Y-69723520D01*
X108953777Y-69607539D01*
X108970500Y-69523465D01*
X108970500Y-69316535D01*
X108930130Y-69113580D01*
X108850941Y-68922402D01*
X108735977Y-68750345D01*
X108735975Y-68750342D01*
X108589657Y-68604024D01*
X108439290Y-68503553D01*
X108417598Y-68489059D01*
X108226420Y-68409870D01*
X108226412Y-68409868D01*
X108023469Y-68369500D01*
X108023465Y-68369500D01*
X107816535Y-68369500D01*
X107816530Y-68369500D01*
X107613587Y-68409868D01*
X107613579Y-68409870D01*
X107422403Y-68489058D01*
X107250342Y-68604024D01*
X107104024Y-68750342D01*
X106989058Y-68922403D01*
X106909870Y-69113579D01*
X106909868Y-69113587D01*
X106869500Y-69316530D01*
X106869500Y-69523469D01*
X106909868Y-69726412D01*
X106909870Y-69726420D01*
X106931255Y-69778047D01*
X106938724Y-69847516D01*
X106907449Y-69909996D01*
X106847360Y-69945648D01*
X106816694Y-69949500D01*
X104176781Y-69949500D01*
X104109742Y-69929815D01*
X104076463Y-69898386D01*
X104056957Y-69871538D01*
X104047897Y-69859068D01*
X103905932Y-69717103D01*
X103828132Y-69660578D01*
X103798572Y-69639101D01*
X103755907Y-69583770D01*
X103749928Y-69514157D01*
X103782534Y-69452362D01*
X103815165Y-69428297D01*
X103848072Y-69411530D01*
X103926207Y-69354762D01*
X103926208Y-69354760D01*
X103322488Y-68751041D01*
X103382890Y-68726022D01*
X103489351Y-68654888D01*
X103579888Y-68564351D01*
X103651022Y-68457890D01*
X103676041Y-68397488D01*
X104279760Y-69001208D01*
X104279762Y-69001207D01*
X104336530Y-68923071D01*
X104441934Y-68716205D01*
X104513681Y-68495393D01*
X104550000Y-68266090D01*
X104550000Y-68033909D01*
X104518401Y-67834403D01*
X104527356Y-67765110D01*
X104572352Y-67711658D01*
X104639103Y-67691018D01*
X104672956Y-67695228D01*
G37*
%TD.AperFunction*%
%TA.AperFunction,Conductor*%
G36*
X108180834Y-63795185D02*
G01*
X108226589Y-63847989D01*
X108236533Y-63917147D01*
X108216898Y-63968390D01*
X108144058Y-64077403D01*
X108064870Y-64268579D01*
X108064868Y-64268587D01*
X108024500Y-64471530D01*
X108024500Y-64678469D01*
X108064868Y-64881412D01*
X108064870Y-64881420D01*
X108134123Y-65048612D01*
X108144059Y-65072598D01*
X108178735Y-65124494D01*
X108259024Y-65244657D01*
X108405342Y-65390975D01*
X108405345Y-65390977D01*
X108577402Y-65505941D01*
X108768580Y-65585130D01*
X108962712Y-65623745D01*
X108971530Y-65625499D01*
X108971534Y-65625500D01*
X108971535Y-65625500D01*
X109178466Y-65625500D01*
X109178467Y-65625499D01*
X109381420Y-65585130D01*
X109572598Y-65505941D01*
X109744655Y-65390977D01*
X109890977Y-65244655D01*
X109996504Y-65086720D01*
X110050115Y-65041916D01*
X110099606Y-65031612D01*
X111288857Y-65031612D01*
X111355896Y-65051297D01*
X111376538Y-65067931D01*
X114920320Y-68611713D01*
X114953805Y-68673036D01*
X114948821Y-68742728D01*
X114920322Y-68787074D01*
X114897520Y-68809876D01*
X114842818Y-68904622D01*
X114814502Y-69010297D01*
X114814502Y-69010299D01*
X114814502Y-69059396D01*
X114794817Y-69126435D01*
X114778183Y-69147077D01*
X114752302Y-69172957D01*
X114752296Y-69172965D01*
X114684996Y-69273686D01*
X114684994Y-69273690D01*
X114638637Y-69385607D01*
X114638634Y-69385619D01*
X114615002Y-69504424D01*
X114615002Y-69540500D01*
X114595317Y-69607539D01*
X114542513Y-69653294D01*
X114491002Y-69664500D01*
X113443035Y-69664500D01*
X113375996Y-69644815D01*
X113368110Y-69639304D01*
X113297343Y-69585639D01*
X113182878Y-69540500D01*
X113156564Y-69530123D01*
X113156563Y-69530122D01*
X113156561Y-69530122D01*
X113110926Y-69524642D01*
X113068102Y-69519500D01*
X112031898Y-69519500D01*
X111992853Y-69524188D01*
X111943438Y-69530122D01*
X111802652Y-69585641D01*
X111795770Y-69589511D01*
X111727687Y-69605207D01*
X111661925Y-69581603D01*
X111619364Y-69526192D01*
X111613517Y-69456568D01*
X111636628Y-69405931D01*
X111640471Y-69400921D01*
X111640480Y-69400913D01*
X111693207Y-69309588D01*
X111720500Y-69207727D01*
X111720500Y-69102273D01*
X111720500Y-67283659D01*
X111740185Y-67216620D01*
X111782500Y-67176272D01*
X111799195Y-67166634D01*
X111910999Y-67054830D01*
X111941459Y-67002072D01*
X111990053Y-66917904D01*
X111990053Y-66917902D01*
X111990056Y-66917898D01*
X112008951Y-66847377D01*
X112021336Y-66817477D01*
X112035663Y-66792664D01*
X112062957Y-66690803D01*
X112062957Y-66585349D01*
X112035663Y-66483489D01*
X111982936Y-66392164D01*
X111950375Y-66359603D01*
X111926072Y-66335299D01*
X111926071Y-66335298D01*
X111915381Y-66323108D01*
X111911000Y-66317399D01*
X111799196Y-66205595D01*
X111799188Y-66205589D01*
X111662269Y-66126540D01*
X111662265Y-66126538D01*
X111662263Y-66126537D01*
X111509536Y-66085614D01*
X111351422Y-66085614D01*
X111198695Y-66126537D01*
X111198688Y-66126540D01*
X111061769Y-66205589D01*
X111061761Y-66205595D01*
X110949960Y-66317396D01*
X110949954Y-66317404D01*
X110870905Y-66454323D01*
X110870902Y-66454330D01*
X110829979Y-66607057D01*
X110829979Y-66765171D01*
X110854718Y-66857500D01*
X110870903Y-66917900D01*
X110870904Y-66917903D01*
X110902886Y-66973296D01*
X110919500Y-67035297D01*
X110919500Y-67383873D01*
X110912448Y-67407887D01*
X110909465Y-67432740D01*
X110902773Y-67440836D01*
X110899815Y-67450912D01*
X110880900Y-67467301D01*
X110864954Y-67486596D01*
X110854948Y-67489789D01*
X110847011Y-67496667D01*
X110822235Y-67500229D01*
X110798392Y-67507839D01*
X110785397Y-67505526D01*
X110777853Y-67506611D01*
X110763350Y-67503633D01*
X110756555Y-67501808D01*
X110701564Y-67480123D01*
X110654903Y-67474519D01*
X110646337Y-67472220D01*
X110623775Y-67458453D01*
X110599487Y-67448037D01*
X110594418Y-67440539D01*
X110586694Y-67435826D01*
X110575158Y-67412050D01*
X110560355Y-67390154D01*
X110560141Y-67381101D01*
X110556194Y-67372965D01*
X110559334Y-67346805D01*
X110558712Y-67320370D01*
X110580500Y-67239057D01*
X110580500Y-67080943D01*
X110539577Y-66928216D01*
X110513576Y-66883181D01*
X110460524Y-66791290D01*
X110460518Y-66791282D01*
X110348717Y-66679481D01*
X110348709Y-66679475D01*
X110211790Y-66600426D01*
X110211786Y-66600424D01*
X110211784Y-66600423D01*
X110059057Y-66559500D01*
X109900943Y-66559500D01*
X109748216Y-66600423D01*
X109748209Y-66600426D01*
X109611290Y-66679475D01*
X109611282Y-66679481D01*
X109499481Y-66791282D01*
X109499477Y-66791287D01*
X109461250Y-66857500D01*
X109410683Y-66905715D01*
X109353863Y-66919500D01*
X105037255Y-66919500D01*
X104970216Y-66899815D01*
X104949574Y-66883181D01*
X103803574Y-65737181D01*
X103770089Y-65675858D01*
X103775073Y-65606166D01*
X103816945Y-65550233D01*
X103882409Y-65525816D01*
X103891255Y-65525500D01*
X104030551Y-65525500D01*
X104117259Y-65511765D01*
X104209409Y-65497171D01*
X104381639Y-65441211D01*
X104542994Y-65358996D01*
X104689501Y-65252553D01*
X104817553Y-65124501D01*
X104923996Y-64977994D01*
X105006211Y-64816639D01*
X105062171Y-64644409D01*
X105077303Y-64548871D01*
X105090500Y-64465551D01*
X105090500Y-64284448D01*
X105074019Y-64180397D01*
X105062171Y-64105591D01*
X105007658Y-63937817D01*
X105005664Y-63867977D01*
X105041745Y-63808144D01*
X105104446Y-63777316D01*
X105125590Y-63775500D01*
X108113795Y-63775500D01*
X108180834Y-63795185D01*
G37*
%TD.AperFunction*%
%TD*%
%TA.AperFunction,Conductor*%
%TO.N,PGND*%
G36*
X124010703Y-86986730D02*
G01*
X124017181Y-86992762D01*
X126844899Y-89820480D01*
X126936224Y-89873207D01*
X127038085Y-89900500D01*
X129863506Y-89900500D01*
X129930545Y-89920185D01*
X129951187Y-89936819D01*
X130905940Y-90891571D01*
X130905950Y-90891582D01*
X130910280Y-90895912D01*
X130910281Y-90895913D01*
X130984848Y-90970480D01*
X131032629Y-90998066D01*
X131073017Y-91021385D01*
X131073018Y-91021385D01*
X131073025Y-91021389D01*
X131076174Y-91023207D01*
X131178034Y-91050501D01*
X131178036Y-91050501D01*
X131291084Y-91050501D01*
X131291100Y-91050500D01*
X132070500Y-91050500D01*
X132137539Y-91070185D01*
X132183294Y-91122989D01*
X132194500Y-91174500D01*
X132194500Y-93070500D01*
X132174815Y-93137539D01*
X132122011Y-93183294D01*
X132070500Y-93194500D01*
X130588374Y-93194500D01*
X130581646Y-93195248D01*
X130521197Y-93201976D01*
X130468017Y-93213963D01*
X130468009Y-93213965D01*
X130427726Y-93226010D01*
X130427725Y-93226011D01*
X130331681Y-93284132D01*
X130331680Y-93284133D01*
X130279559Y-93330682D01*
X130238065Y-93376034D01*
X130238059Y-93376044D01*
X130188683Y-93476865D01*
X130170005Y-93544196D01*
X130158922Y-93630442D01*
X130187995Y-95568640D01*
X130169318Y-95635967D01*
X130117206Y-95682509D01*
X130064009Y-95694500D01*
X129955350Y-95694500D01*
X129898323Y-95699871D01*
X129852828Y-95708517D01*
X129852822Y-95708518D01*
X129841135Y-95711900D01*
X129821466Y-95715899D01*
X129811458Y-95717101D01*
X129794686Y-95719115D01*
X129779906Y-95720000D01*
X129070096Y-95720000D01*
X129055312Y-95719115D01*
X129043495Y-95717696D01*
X129028535Y-95715899D01*
X129008862Y-95711899D01*
X128997184Y-95708520D01*
X128997177Y-95708518D01*
X128997172Y-95708517D01*
X128951683Y-95699872D01*
X128951681Y-95699871D01*
X128951677Y-95699871D01*
X128894648Y-95694500D01*
X128894645Y-95694500D01*
X126697542Y-95694500D01*
X126630503Y-95674815D01*
X126603394Y-95651198D01*
X123835352Y-92421814D01*
X123806669Y-92358103D01*
X123805500Y-92341116D01*
X123805500Y-87080443D01*
X123825185Y-87013404D01*
X123877989Y-86967649D01*
X123947147Y-86957705D01*
X124010703Y-86986730D01*
G37*
%TD.AperFunction*%
%TA.AperFunction,Conductor*%
G36*
X122803794Y-67540782D02*
G01*
X122853393Y-67589994D01*
X122868512Y-67658208D01*
X122844351Y-67723767D01*
X122832475Y-67737527D01*
X121456821Y-69113182D01*
X121395498Y-69146667D01*
X121369140Y-69149501D01*
X120975295Y-69149501D01*
X120933818Y-69160615D01*
X120863968Y-69158952D01*
X120837487Y-69141028D01*
X120837576Y-69141647D01*
X120808551Y-69205203D01*
X120776839Y-69231385D01*
X120774877Y-69232519D01*
X120774874Y-69232521D01*
X120697520Y-69309875D01*
X120697518Y-69309878D01*
X120644959Y-69400913D01*
X120642816Y-69404624D01*
X120614500Y-69510299D01*
X120614500Y-69510301D01*
X120614500Y-69619700D01*
X120614499Y-69619700D01*
X120642816Y-69725378D01*
X120658764Y-69753001D01*
X120675235Y-69820902D01*
X120658765Y-69876997D01*
X120642817Y-69904620D01*
X120642816Y-69904621D01*
X120632453Y-69943297D01*
X120614500Y-70010298D01*
X120614500Y-70010299D01*
X120614500Y-70010300D01*
X120614500Y-70119699D01*
X120614499Y-70119699D01*
X120642816Y-70225378D01*
X120642818Y-70225381D01*
X120658765Y-70253003D01*
X120675236Y-70320903D01*
X120658765Y-70376999D01*
X120642818Y-70404620D01*
X120642816Y-70404623D01*
X120636136Y-70429555D01*
X120614500Y-70510300D01*
X120614500Y-70510301D01*
X120614500Y-70510302D01*
X120614500Y-70619701D01*
X120614499Y-70619701D01*
X120642816Y-70725379D01*
X120658764Y-70753002D01*
X120675235Y-70820903D01*
X120658764Y-70877000D01*
X120642816Y-70904622D01*
X120638804Y-70919596D01*
X120614500Y-71010298D01*
X120614500Y-71010299D01*
X120614500Y-71010300D01*
X120614500Y-71119699D01*
X120614499Y-71119699D01*
X120642817Y-71225379D01*
X120658764Y-71253001D01*
X120675235Y-71320902D01*
X120658764Y-71376999D01*
X120642817Y-71404620D01*
X120642816Y-71404622D01*
X120642816Y-71404623D01*
X120614500Y-71510298D01*
X120614500Y-71510300D01*
X120614500Y-71619699D01*
X120614499Y-71619699D01*
X120614500Y-71619701D01*
X120614500Y-71619702D01*
X120642816Y-71725377D01*
X120642817Y-71725378D01*
X120658764Y-71752999D01*
X120675237Y-71820899D01*
X120658765Y-71876998D01*
X120642818Y-71904619D01*
X120642816Y-71904622D01*
X120629298Y-71955072D01*
X120614500Y-72010299D01*
X120614500Y-72010300D01*
X120614500Y-72010301D01*
X120614500Y-72119700D01*
X120614499Y-72119700D01*
X120642816Y-72225378D01*
X120658764Y-72253001D01*
X120675235Y-72320902D01*
X120658765Y-72376997D01*
X120642817Y-72404620D01*
X120642816Y-72404621D01*
X120638536Y-72420595D01*
X120614500Y-72510298D01*
X120614500Y-72510299D01*
X120614500Y-72510300D01*
X120614500Y-72619699D01*
X120614499Y-72619699D01*
X120642816Y-72725378D01*
X120642818Y-72725381D01*
X120658765Y-72753003D01*
X120675236Y-72820903D01*
X120658765Y-72876999D01*
X120642818Y-72904620D01*
X120642816Y-72904623D01*
X120631389Y-72947271D01*
X120614500Y-73010300D01*
X120614500Y-73010301D01*
X120614500Y-73010302D01*
X120614500Y-73119701D01*
X120614499Y-73119701D01*
X120614500Y-73119703D01*
X120614500Y-73119704D01*
X120642816Y-73225379D01*
X120697518Y-73320125D01*
X120774877Y-73397484D01*
X120869623Y-73452186D01*
X120975298Y-73480502D01*
X120975301Y-73480502D01*
X121454698Y-73480502D01*
X121454700Y-73480502D01*
X121479931Y-73473741D01*
X121549781Y-73475402D01*
X121607644Y-73514564D01*
X121619413Y-73531515D01*
X121694919Y-73662297D01*
X121694921Y-73662300D01*
X121694922Y-73662301D01*
X121806726Y-73774105D01*
X121806728Y-73774106D01*
X121806732Y-73774109D01*
X121913785Y-73835915D01*
X121943658Y-73853162D01*
X122096385Y-73894085D01*
X122096387Y-73894085D01*
X122254497Y-73894085D01*
X122254499Y-73894085D01*
X122407226Y-73853162D01*
X122544158Y-73774105D01*
X122655962Y-73662301D01*
X122735019Y-73525369D01*
X122775942Y-73372642D01*
X122775942Y-73214528D01*
X122751040Y-73121592D01*
X122752703Y-73051743D01*
X122791866Y-72993881D01*
X122856094Y-72966377D01*
X122870815Y-72965500D01*
X123347745Y-72965500D01*
X123377185Y-72974144D01*
X123407172Y-72980668D01*
X123412187Y-72984422D01*
X123414784Y-72985185D01*
X123435426Y-73001819D01*
X123563181Y-73129574D01*
X123596666Y-73190897D01*
X123599500Y-73217255D01*
X123599500Y-80447273D01*
X123599500Y-80552727D01*
X123609298Y-80589294D01*
X123626793Y-80654589D01*
X123640652Y-80678593D01*
X123679520Y-80745913D01*
X126254087Y-83320480D01*
X126345412Y-83373207D01*
X126447273Y-83400500D01*
X126552727Y-83400500D01*
X132644096Y-83400500D01*
X132711135Y-83420185D01*
X132731777Y-83436819D01*
X132777163Y-83482205D01*
X132879937Y-83527584D01*
X132905063Y-83530499D01*
X133391573Y-83530498D01*
X133458612Y-83550182D01*
X133504367Y-83602986D01*
X133515396Y-83653217D01*
X133515490Y-83653214D01*
X133515510Y-83653739D01*
X133515572Y-83654018D01*
X133515577Y-83655423D01*
X133515578Y-83655439D01*
X133520988Y-83727334D01*
X133520994Y-83727381D01*
X133526139Y-83762249D01*
X133541742Y-83832703D01*
X133550759Y-83852252D01*
X133551395Y-83853654D01*
X133553925Y-83859324D01*
X133571587Y-83912671D01*
X133592038Y-83944729D01*
X133595790Y-83953135D01*
X133599282Y-83979012D01*
X133606553Y-84004085D01*
X133603886Y-84013123D01*
X133605135Y-84022377D01*
X133594335Y-84045493D01*
X133590884Y-84057188D01*
X133593334Y-84058306D01*
X133529931Y-84197278D01*
X133510272Y-84264327D01*
X133510272Y-84264332D01*
X133489853Y-84406753D01*
X133489853Y-84406756D01*
X133489921Y-84575562D01*
X133470263Y-84642609D01*
X133417477Y-84688385D01*
X133366850Y-84699608D01*
X127551538Y-84743169D01*
X127489780Y-84743632D01*
X127433478Y-84749294D01*
X127433475Y-84749294D01*
X127433470Y-84749295D01*
X127388601Y-84758062D01*
X127358524Y-84765541D01*
X127358518Y-84765544D01*
X127258906Y-84817307D01*
X127258895Y-84817314D01*
X127203885Y-84860364D01*
X127203871Y-84860376D01*
X127159521Y-84902940D01*
X127159515Y-84902948D01*
X127103700Y-85000349D01*
X127080690Y-85066328D01*
X127064033Y-85151666D01*
X127056836Y-85295605D01*
X127048347Y-85334899D01*
X127035123Y-85368435D01*
X127024500Y-85456897D01*
X127024500Y-85456902D01*
X127024500Y-85456903D01*
X127024500Y-86158745D01*
X127004815Y-86225784D01*
X126952011Y-86271539D01*
X126882853Y-86281483D01*
X126819297Y-86252458D01*
X126812819Y-86246426D01*
X120501818Y-79935425D01*
X120468333Y-79874102D01*
X120465499Y-79847744D01*
X120465499Y-74527005D01*
X120469724Y-74494911D01*
X120471681Y-74487609D01*
X120480499Y-74454700D01*
X120480499Y-73975298D01*
X120452183Y-73869623D01*
X120397481Y-73774877D01*
X120320122Y-73697518D01*
X120225376Y-73642816D01*
X120119701Y-73614500D01*
X120010297Y-73614500D01*
X119946892Y-73631489D01*
X119904620Y-73642816D01*
X119904619Y-73642817D01*
X119876996Y-73658765D01*
X119809096Y-73675235D01*
X119753000Y-73658764D01*
X119725377Y-73642816D01*
X119725378Y-73642816D01*
X119689688Y-73633253D01*
X119619702Y-73614500D01*
X119510298Y-73614500D01*
X119446893Y-73631489D01*
X119404621Y-73642816D01*
X119404618Y-73642818D01*
X119376997Y-73658765D01*
X119309097Y-73675236D01*
X119253001Y-73658765D01*
X119225379Y-73642818D01*
X119225376Y-73642816D01*
X119189686Y-73633253D01*
X119119700Y-73614500D01*
X119010296Y-73614500D01*
X118940310Y-73633253D01*
X118904620Y-73642816D01*
X118876998Y-73658764D01*
X118809097Y-73675235D01*
X118753000Y-73658764D01*
X118725377Y-73642816D01*
X118725378Y-73642816D01*
X118689688Y-73633253D01*
X118619702Y-73614500D01*
X118510298Y-73614500D01*
X118404623Y-73642816D01*
X118404622Y-73642816D01*
X118404620Y-73642817D01*
X118376999Y-73658764D01*
X118309098Y-73675235D01*
X118253001Y-73658764D01*
X118225379Y-73642817D01*
X118225378Y-73642816D01*
X118225377Y-73642816D01*
X118119702Y-73614500D01*
X118010298Y-73614500D01*
X117946893Y-73631489D01*
X117904621Y-73642816D01*
X117904618Y-73642818D01*
X117876997Y-73658765D01*
X117809097Y-73675236D01*
X117752999Y-73658764D01*
X117725376Y-73642816D01*
X117619701Y-73614500D01*
X117510297Y-73614500D01*
X117446892Y-73631489D01*
X117404620Y-73642816D01*
X117404619Y-73642817D01*
X117376996Y-73658765D01*
X117309096Y-73675235D01*
X117253000Y-73658764D01*
X117225377Y-73642816D01*
X117225378Y-73642816D01*
X117189688Y-73633253D01*
X117119702Y-73614500D01*
X117010298Y-73614500D01*
X116946893Y-73631489D01*
X116904621Y-73642816D01*
X116904618Y-73642818D01*
X116876997Y-73658765D01*
X116809097Y-73675236D01*
X116753001Y-73658765D01*
X116725379Y-73642818D01*
X116725376Y-73642816D01*
X116689686Y-73633253D01*
X116619700Y-73614500D01*
X116510296Y-73614500D01*
X116446891Y-73631489D01*
X116404619Y-73642816D01*
X116404618Y-73642817D01*
X116376995Y-73658765D01*
X116309095Y-73675235D01*
X116252999Y-73658764D01*
X116225376Y-73642816D01*
X116225377Y-73642816D01*
X116189687Y-73633253D01*
X116119701Y-73614500D01*
X116010297Y-73614500D01*
X115940305Y-73633253D01*
X115940297Y-73633256D01*
X115904622Y-73642816D01*
X115825936Y-73688245D01*
X115825929Y-73688249D01*
X115809879Y-73697515D01*
X115809873Y-73697520D01*
X115732519Y-73774874D01*
X115732517Y-73774877D01*
X115677815Y-73869623D01*
X115649499Y-73975298D01*
X115649499Y-73975300D01*
X115649499Y-74454700D01*
X115658317Y-74487609D01*
X115656654Y-74557459D01*
X115626223Y-74607383D01*
X114485270Y-75748336D01*
X114423947Y-75781821D01*
X114382806Y-75783771D01*
X114373940Y-75782706D01*
X114305602Y-75774500D01*
X113544398Y-75774500D01*
X113505353Y-75779188D01*
X113455938Y-75785122D01*
X113315156Y-75840639D01*
X113194577Y-75932077D01*
X113103139Y-76052656D01*
X113047622Y-76193438D01*
X113041688Y-76242853D01*
X113037000Y-76281898D01*
X113037000Y-77318102D01*
X113042626Y-77364954D01*
X113047622Y-77406561D01*
X113103139Y-77547343D01*
X113194577Y-77667922D01*
X113315156Y-77759360D01*
X113315157Y-77759360D01*
X113315158Y-77759361D01*
X113455936Y-77814877D01*
X113544398Y-77825500D01*
X113544403Y-77825500D01*
X114305597Y-77825500D01*
X114305602Y-77825500D01*
X114394064Y-77814877D01*
X114534842Y-77759361D01*
X114655422Y-77667922D01*
X114746861Y-77547342D01*
X114802377Y-77406564D01*
X114813000Y-77318102D01*
X114813000Y-76604753D01*
X114821644Y-76575312D01*
X114828168Y-76545326D01*
X114831922Y-76540310D01*
X114832685Y-76537714D01*
X114849315Y-76517076D01*
X114900320Y-76466071D01*
X114961642Y-76432587D01*
X115031334Y-76437571D01*
X115087267Y-76479443D01*
X115111684Y-76544907D01*
X115112000Y-76553753D01*
X115112000Y-77318102D01*
X115117626Y-77364954D01*
X115122622Y-77406561D01*
X115178139Y-77547343D01*
X115269577Y-77667922D01*
X115390156Y-77759360D01*
X115390157Y-77759360D01*
X115390158Y-77759361D01*
X115530936Y-77814877D01*
X115619398Y-77825500D01*
X115619403Y-77825500D01*
X116214200Y-77825500D01*
X116281239Y-77845185D01*
X116326994Y-77897989D01*
X116336938Y-77967147D01*
X116307913Y-78030703D01*
X116301881Y-78037181D01*
X115704328Y-78634733D01*
X115643005Y-78668218D01*
X115573313Y-78663234D01*
X115541722Y-78645856D01*
X115534843Y-78640639D01*
X115394061Y-78585122D01*
X115348426Y-78579642D01*
X115305602Y-78574500D01*
X114544398Y-78574500D01*
X114505353Y-78579188D01*
X114455938Y-78585122D01*
X114315156Y-78640639D01*
X114194577Y-78732077D01*
X114103139Y-78852656D01*
X114047622Y-78993438D01*
X114043505Y-79027725D01*
X114037000Y-79081898D01*
X114037000Y-80118102D01*
X114039570Y-80139500D01*
X114047622Y-80206561D01*
X114103139Y-80347343D01*
X114194577Y-80467922D01*
X114315156Y-80559360D01*
X114315157Y-80559360D01*
X114315158Y-80559361D01*
X114455936Y-80614877D01*
X114544398Y-80625500D01*
X114544403Y-80625500D01*
X115305597Y-80625500D01*
X115305602Y-80625500D01*
X115394064Y-80614877D01*
X115525010Y-80563237D01*
X115594597Y-80556957D01*
X115656533Y-80589294D01*
X115691154Y-80649983D01*
X115694500Y-80678593D01*
X115694500Y-83681700D01*
X115674815Y-83748739D01*
X115622011Y-83794494D01*
X115570500Y-83805700D01*
X107805700Y-83805700D01*
X107805700Y-88199900D01*
X110526500Y-88199900D01*
X110593539Y-88219585D01*
X110639294Y-88272389D01*
X110650500Y-88323900D01*
X110650500Y-89676100D01*
X110630815Y-89743139D01*
X110578011Y-89788894D01*
X110526500Y-89800100D01*
X107805700Y-89800100D01*
X107805700Y-93070500D01*
X107786015Y-93137539D01*
X107733211Y-93183294D01*
X107681700Y-93194500D01*
X99824500Y-93194500D01*
X99757461Y-93174815D01*
X99711706Y-93122011D01*
X99700500Y-93070500D01*
X99700500Y-83124000D01*
X99720185Y-83056961D01*
X99772989Y-83011206D01*
X99824500Y-83000000D01*
X105499999Y-83000000D01*
X105500000Y-83000000D01*
X107393260Y-80979708D01*
X107453464Y-80944253D01*
X107483739Y-80940500D01*
X108419696Y-80940500D01*
X108486735Y-80960185D01*
X108522797Y-80995608D01*
X108574487Y-81072968D01*
X108609024Y-81124657D01*
X108755342Y-81270975D01*
X108755345Y-81270977D01*
X108927402Y-81385941D01*
X109118580Y-81465130D01*
X109321530Y-81505499D01*
X109321534Y-81505500D01*
X109321535Y-81505500D01*
X109528466Y-81505500D01*
X109528467Y-81505499D01*
X109731420Y-81465130D01*
X109922598Y-81385941D01*
X110094655Y-81270977D01*
X110240977Y-81124655D01*
X110355941Y-80952598D01*
X110435130Y-80761420D01*
X110475500Y-80558465D01*
X110475500Y-80467255D01*
X110495185Y-80400216D01*
X110511819Y-80379574D01*
X111043649Y-79847744D01*
X111670480Y-79220913D01*
X111723207Y-79129588D01*
X111750500Y-79027727D01*
X111750500Y-78922273D01*
X111750500Y-76767255D01*
X111770185Y-76700216D01*
X111786819Y-76679574D01*
X114964572Y-73501821D01*
X114991499Y-73487117D01*
X115017318Y-73470525D01*
X115023518Y-73469633D01*
X115025895Y-73468336D01*
X115052253Y-73465502D01*
X115102994Y-73465502D01*
X115135087Y-73469727D01*
X115141438Y-73471428D01*
X115175300Y-73480502D01*
X115175302Y-73480502D01*
X115654699Y-73480502D01*
X115654702Y-73480502D01*
X115760377Y-73452186D01*
X115855123Y-73397484D01*
X115932482Y-73320125D01*
X115979067Y-73239436D01*
X115994888Y-73239532D01*
X115994939Y-73196436D01*
X116015500Y-73119704D01*
X116015500Y-73010300D01*
X115999498Y-72950581D01*
X115995275Y-72918352D01*
X115995526Y-72710410D01*
X115999749Y-72678482D01*
X116015500Y-72619702D01*
X116015500Y-72510298D01*
X116000098Y-72452820D01*
X115995875Y-72420595D01*
X115996131Y-72208157D01*
X116000355Y-72176222D01*
X116015500Y-72119703D01*
X116015500Y-72010299D01*
X116000698Y-71955059D01*
X115996475Y-71922837D01*
X115996737Y-71705889D01*
X116000960Y-71673963D01*
X116015500Y-71619702D01*
X116015500Y-71510298D01*
X116001299Y-71457301D01*
X115997075Y-71425068D01*
X115997342Y-71203631D01*
X116001566Y-71171700D01*
X116015500Y-71119702D01*
X116015500Y-71010298D01*
X116001900Y-70959546D01*
X115997676Y-70927310D01*
X115997948Y-70701378D01*
X116002172Y-70669442D01*
X116015500Y-70619704D01*
X116015500Y-70510300D01*
X116002499Y-70461783D01*
X115998276Y-70429555D01*
X115998554Y-70199109D01*
X116002777Y-70167182D01*
X116015500Y-70119702D01*
X116015500Y-70010298D01*
X116003099Y-69964019D01*
X115998876Y-69931795D01*
X115999159Y-69696852D01*
X116003383Y-69664919D01*
X116015500Y-69619703D01*
X116015500Y-69510299D01*
X116003699Y-69466259D01*
X115999476Y-69434036D01*
X115999765Y-69194586D01*
X116003988Y-69162663D01*
X116015500Y-69119701D01*
X116015500Y-69119699D01*
X116017604Y-69111848D01*
X116019455Y-69112344D01*
X116043466Y-69058063D01*
X116101789Y-69019590D01*
X116115842Y-69016533D01*
X116119698Y-69015500D01*
X116119701Y-69015500D01*
X116153688Y-69006392D01*
X116161780Y-69004225D01*
X116193873Y-69000000D01*
X116436124Y-69000000D01*
X116468217Y-69004225D01*
X116475829Y-69006264D01*
X116510296Y-69015500D01*
X116510298Y-69015500D01*
X116619698Y-69015500D01*
X116619700Y-69015500D01*
X116655536Y-69005897D01*
X116661779Y-69004225D01*
X116693872Y-69000000D01*
X116936126Y-69000000D01*
X116968219Y-69004225D01*
X116975831Y-69006264D01*
X117010298Y-69015500D01*
X117010300Y-69015500D01*
X117119700Y-69015500D01*
X117119702Y-69015500D01*
X117155538Y-69005897D01*
X117161781Y-69004225D01*
X117193874Y-69000000D01*
X117436125Y-69000000D01*
X117468218Y-69004225D01*
X117475830Y-69006264D01*
X117510297Y-69015500D01*
X117510299Y-69015500D01*
X117619699Y-69015500D01*
X117619701Y-69015500D01*
X117655537Y-69005897D01*
X117661780Y-69004225D01*
X117693873Y-69000000D01*
X117936126Y-69000000D01*
X117968219Y-69004225D01*
X117975831Y-69006264D01*
X118010298Y-69015500D01*
X118010300Y-69015500D01*
X118119700Y-69015500D01*
X118119702Y-69015500D01*
X118155538Y-69005897D01*
X118161781Y-69004225D01*
X118193874Y-69000000D01*
X118436126Y-69000000D01*
X118468219Y-69004225D01*
X118475831Y-69006264D01*
X118510298Y-69015500D01*
X118510300Y-69015500D01*
X118619700Y-69015500D01*
X118619702Y-69015500D01*
X118655538Y-69005897D01*
X118661781Y-69004225D01*
X118693874Y-69000000D01*
X118936124Y-69000000D01*
X118968217Y-69004225D01*
X118975829Y-69006264D01*
X119010296Y-69015500D01*
X119010298Y-69015500D01*
X119119698Y-69015500D01*
X119119700Y-69015500D01*
X119155536Y-69005897D01*
X119161779Y-69004225D01*
X119193872Y-69000000D01*
X119436126Y-69000000D01*
X119468219Y-69004225D01*
X119475831Y-69006264D01*
X119510298Y-69015500D01*
X119510300Y-69015500D01*
X119619700Y-69015500D01*
X119619702Y-69015500D01*
X119655538Y-69005897D01*
X119661781Y-69004225D01*
X119693874Y-69000000D01*
X119936125Y-69000000D01*
X119968218Y-69004225D01*
X119975830Y-69006264D01*
X120010297Y-69015500D01*
X120010299Y-69015500D01*
X120119699Y-69015500D01*
X120119701Y-69015500D01*
X120155537Y-69005897D01*
X120161780Y-69004225D01*
X120193873Y-69000000D01*
X120436127Y-69000000D01*
X120468220Y-69004225D01*
X120475832Y-69006264D01*
X120510299Y-69015500D01*
X120510301Y-69015500D01*
X120619701Y-69015500D01*
X120619703Y-69015500D01*
X120655539Y-69005897D01*
X120661782Y-69004225D01*
X120693875Y-69000000D01*
X120714838Y-69000000D01*
X120781877Y-69019685D01*
X120784187Y-69022351D01*
X120790190Y-68986657D01*
X120827026Y-68941866D01*
X122670096Y-67550871D01*
X122735464Y-67526198D01*
X122803794Y-67540782D01*
G37*
%TD.AperFunction*%
%TA.AperFunction,Conductor*%
G36*
X129652539Y-72321185D02*
G01*
X129698294Y-72373989D01*
X129709500Y-72425500D01*
X129709500Y-73537273D01*
X129709500Y-73642727D01*
X129713797Y-73658764D01*
X129736793Y-73744589D01*
X129763156Y-73790250D01*
X129789520Y-73835913D01*
X129789522Y-73835915D01*
X130863181Y-74909574D01*
X130896666Y-74970897D01*
X130899500Y-74997255D01*
X130899500Y-77532727D01*
X130926793Y-77634587D01*
X130979520Y-77725913D01*
X131054087Y-77800480D01*
X131145413Y-77853207D01*
X131247273Y-77880500D01*
X131352727Y-77880500D01*
X133382137Y-77880500D01*
X133399024Y-77885458D01*
X133416627Y-77885393D01*
X133431853Y-77895098D01*
X133449176Y-77900185D01*
X133460701Y-77913486D01*
X133475546Y-77922948D01*
X133483108Y-77939344D01*
X133494931Y-77952989D01*
X133497484Y-77970515D01*
X133504808Y-77986395D01*
X133504940Y-78021689D01*
X133495702Y-78087689D01*
X133466914Y-78151352D01*
X133408278Y-78189346D01*
X133372899Y-78194500D01*
X124624000Y-78194500D01*
X124623991Y-78194500D01*
X124623990Y-78194501D01*
X124559064Y-78201481D01*
X124559052Y-78201483D01*
X124550851Y-78203267D01*
X124481160Y-78198278D01*
X124425229Y-78156404D01*
X124400815Y-78090938D01*
X124400500Y-78082099D01*
X124400500Y-72947275D01*
X124400499Y-72947271D01*
X124392750Y-72918352D01*
X124385020Y-72889501D01*
X124373207Y-72845412D01*
X124320480Y-72754087D01*
X124079574Y-72513181D01*
X124046089Y-72451858D01*
X124051073Y-72382166D01*
X124092945Y-72326233D01*
X124158409Y-72301816D01*
X124167255Y-72301500D01*
X129585500Y-72301500D01*
X129652539Y-72321185D01*
G37*
%TD.AperFunction*%
%TA.AperFunction,Conductor*%
G36*
X132592467Y-63300185D02*
G01*
X132638222Y-63352989D01*
X132649428Y-63404500D01*
X132649428Y-63774856D01*
X132649430Y-63774882D01*
X132652341Y-63799986D01*
X132652342Y-63799990D01*
X132652343Y-63799991D01*
X132690118Y-63885544D01*
X132690157Y-63885842D01*
X132690351Y-63886074D01*
X132694687Y-63920437D01*
X132699189Y-63954820D01*
X132699060Y-63955093D01*
X132699098Y-63955394D01*
X132684108Y-63986769D01*
X132669365Y-64018005D01*
X132669065Y-64018256D01*
X132668979Y-64018438D01*
X132665143Y-64021554D01*
X132641910Y-64041086D01*
X132640353Y-64042048D01*
X132593352Y-64069273D01*
X132585680Y-64075864D01*
X132577445Y-64080958D01*
X132552720Y-64087755D01*
X132529352Y-64098310D01*
X132512218Y-64099500D01*
X132447273Y-64099500D01*
X132345410Y-64126793D01*
X132319934Y-64141503D01*
X132254087Y-64179520D01*
X132254084Y-64179522D01*
X131679522Y-64754084D01*
X131679520Y-64754087D01*
X131626793Y-64845412D01*
X131607747Y-64916494D01*
X131607747Y-64916495D01*
X131607746Y-64916494D01*
X131599500Y-64947271D01*
X131599500Y-66472745D01*
X131579815Y-66539784D01*
X131563181Y-66560426D01*
X130191022Y-67932584D01*
X130191020Y-67932587D01*
X130138293Y-68023912D01*
X130123517Y-68079058D01*
X130123517Y-68079059D01*
X130123516Y-68079058D01*
X130111000Y-68125771D01*
X130111000Y-70024500D01*
X130091315Y-70091539D01*
X130038511Y-70137294D01*
X129987000Y-70148500D01*
X122497254Y-70148500D01*
X122430215Y-70128815D01*
X122384460Y-70076011D01*
X122374516Y-70006853D01*
X122403541Y-69943297D01*
X122409573Y-69936819D01*
X129029573Y-63316819D01*
X129090896Y-63283334D01*
X129117254Y-63280500D01*
X132525428Y-63280500D01*
X132592467Y-63300185D01*
G37*
%TD.AperFunction*%
%TA.AperFunction,Conductor*%
G36*
X127258089Y-58677377D02*
G01*
X127303844Y-58730181D01*
X127313788Y-58799339D01*
X127284763Y-58862895D01*
X127281269Y-58866759D01*
X127277451Y-58870807D01*
X127277445Y-58870816D01*
X127226560Y-58970890D01*
X127206876Y-59037923D01*
X127204971Y-59051174D01*
X127181039Y-59108444D01*
X127090639Y-59227655D01*
X127090637Y-59227660D01*
X127035123Y-59368433D01*
X127035123Y-59368435D01*
X127024500Y-59456897D01*
X127024500Y-59456901D01*
X127024500Y-59456902D01*
X127024500Y-60443096D01*
X127035123Y-60531564D01*
X127035124Y-60531568D01*
X127090637Y-60672339D01*
X127090640Y-60672345D01*
X127182076Y-60792923D01*
X127261293Y-60852994D01*
X127302657Y-60884361D01*
X127443435Y-60939877D01*
X127531897Y-60950500D01*
X128475500Y-60950499D01*
X128542539Y-60970183D01*
X128588294Y-61022987D01*
X128599500Y-61074499D01*
X128599500Y-61919141D01*
X128579815Y-61986180D01*
X128563181Y-62006822D01*
X123611681Y-66958322D01*
X123550358Y-66991807D01*
X123480666Y-66986823D01*
X123424733Y-66944951D01*
X123400316Y-66879487D01*
X123400000Y-66870641D01*
X123400000Y-58781692D01*
X123419685Y-58714653D01*
X123472489Y-58668898D01*
X123524000Y-58657692D01*
X127191050Y-58657692D01*
X127258089Y-58677377D01*
G37*
%TD.AperFunction*%
%TD*%
M02*
