M48
; DRILL file {KiCad 9.0.7} date 2026-03-18T09:16:58-0700
; FORMAT={-:-/ absolute / metric / decimal}
; #@! TF.CreationDate,2026-03-18T09:16:58-07:00
; #@! TF.GenerationSoftware,Kicad,Pcbnew,9.0.7
; #@! TF.FileFunction,MixedPlating,1,2
FMAT,2
METRIC
; #@! TA.AperFunction,Plated,PTH,ViaDrill
T1C0.300
; #@! TA.AperFunction,Plated,PTH,ComponentDrill
T2C0.300
; #@! TA.AperFunction,Plated,PTH,ComponentDrill
T3C1.000
; #@! TA.AperFunction,Plated,PTH,ComponentDrill
T4C1.200
; #@! TA.AperFunction,Plated,PTH,ComponentDrill
T5C1.300
%
G90
G05
T1
X109.98Y-67.16
X111.43Y-66.686
X112.35Y-76.775
X113.6Y-68.975
X113.825Y-75.125
X114.85Y-62.425
X114.85Y-74.175
X117.476Y-66.081
X118.75Y-66.3
X121.5Y-75.0
X122.175Y-73.294
X123.0Y-73.5
X123.0Y-80.5
X124.5Y-60.0
X124.5Y-62.5
X126.0Y-64.0
X126.0Y-85.0
X127.2Y-73.43
X127.7Y-72.68
X127.7Y-74.13
X127.75Y-93.75
X127.75Y-94.5
X127.75Y-95.25
X128.0Y-68.0
X128.0Y-68.75
X128.0Y-69.5
X129.0Y-64.0
X129.0Y-76.5
X129.0Y-80.25
X129.0Y-90.888
X131.5Y-84.0
X132.08Y-73.45
X132.1Y-72.61
X132.12Y-67.98
X132.15Y-69.97
X132.5Y-94.0
X132.5Y-96.05
X134.35Y-92.815
X134.35Y-94.0
X134.35Y-95.175
X134.41Y-73.32
X134.41Y-74.505
X134.41Y-75.69
X135.405Y-92.815
X135.405Y-94.0
X135.405Y-95.165
X135.465Y-73.34
X135.465Y-74.505
X135.465Y-75.69
X135.54Y-66.815
X135.54Y-68.0
X135.54Y-69.175
X136.46Y-92.815
X136.46Y-94.0
X136.46Y-95.185
X136.52Y-73.33
X136.52Y-74.505
X136.52Y-75.69
X136.595Y-66.815
X136.595Y-68.0
X136.595Y-69.165
X137.65Y-66.815
X137.65Y-68.0
X137.65Y-69.185
T2
X116.49Y-70.63
X116.49Y-72.0
X117.63Y-69.49
X117.63Y-70.63
X117.63Y-72.0
X117.63Y-73.14
X119.0Y-69.49
X119.0Y-70.63
X119.0Y-72.0
X119.0Y-73.14
X120.14Y-70.63
X120.14Y-72.0
T3
X101.4Y-64.375
X101.46Y-75.46
X101.46Y-78.0
X101.46Y-80.54
X103.03Y-60.25
X103.94Y-64.375
X104.0Y-75.46
X104.0Y-78.0
X104.0Y-80.54
X105.57Y-60.25
X108.11Y-60.25
X110.65Y-60.25
X115.92Y-60.0
X118.46Y-60.0
X121.0Y-60.0
T4
X144.5Y-72.965
X144.5Y-75.505
X144.5Y-78.045
T5
X103.0Y-91.96
X103.0Y-94.5
X103.075Y-68.15
X103.075Y-70.69
M30
