%TF.GenerationSoftware,KiCad,Pcbnew,9.0.7*%
%TF.CreationDate,2026-03-23T23:57:09-07:00*%
%TF.ProjectId,drv8323-breakout,64727638-3332-4332-9d62-7265616b6f75,rev?*%
%TF.SameCoordinates,Original*%
%TF.FileFunction,Copper,L2,Bot*%
%TF.FilePolarity,Positive*%
%FSLAX46Y46*%
G04 Gerber Fmt 4.6, Leading zero omitted, Abs format (unit mm)*
G04 Created by KiCad (PCBNEW 9.0.7) date 2026-03-23 23:57:09*
%MOMM*%
%LPD*%
G01*
G04 APERTURE LIST*
G04 Aperture macros list*
%AMRoundRect*
0 Rectangle with rounded corners*
0 $1 Rounding radius*
0 $2 $3 $4 $5 $6 $7 $8 $9 X,Y pos of 4 corners*
0 Add a 4 corners polygon primitive as box body*
4,1,4,$2,$3,$4,$5,$6,$7,$8,$9,$2,$3,0*
0 Add four circle primitives for the rounded corners*
1,1,$1+$1,$2,$3*
1,1,$1+$1,$4,$5*
1,1,$1+$1,$6,$7*
1,1,$1+$1,$8,$9*
0 Add four rect primitives between the rounded corners*
20,1,$1+$1,$2,$3,$4,$5,0*
20,1,$1+$1,$4,$5,$6,$7,0*
20,1,$1+$1,$6,$7,$8,$9,0*
20,1,$1+$1,$8,$9,$2,$3,0*%
G04 Aperture macros list end*
%TA.AperFunction,EtchedComponent*%
%ADD10C,0.000000*%
%TD*%
%TA.AperFunction,ComponentPad*%
%ADD11C,1.700000*%
%TD*%
%TA.AperFunction,ComponentPad*%
%ADD12R,1.700000X1.700000*%
%TD*%
%TA.AperFunction,ComponentPad*%
%ADD13C,0.499999*%
%TD*%
%TA.AperFunction,ComponentPad*%
%ADD14RoundRect,0.250000X0.750000X-0.750000X0.750000X0.750000X-0.750000X0.750000X-0.750000X-0.750000X0*%
%TD*%
%TA.AperFunction,ComponentPad*%
%ADD15C,2.000000*%
%TD*%
%TA.AperFunction,ComponentPad*%
%ADD16C,1.950000*%
%TD*%
%TA.AperFunction,SMDPad,CuDef*%
%ADD17C,0.280000*%
%TD*%
%TA.AperFunction,ComponentPad*%
%ADD18C,2.600000*%
%TD*%
%TA.AperFunction,ConnectorPad*%
%ADD19C,4.400000*%
%TD*%
%TA.AperFunction,ViaPad*%
%ADD20C,0.600000*%
%TD*%
%TA.AperFunction,Conductor*%
%ADD21C,0.200000*%
%TD*%
%TA.AperFunction,Conductor*%
%ADD22C,0.500000*%
%TD*%
G04 APERTURE END LIST*
D10*
%TA.AperFunction,EtchedComponent*%
%TO.C,NT3*%
G36*
X116478710Y-69704355D02*
G01*
X115478710Y-69704355D01*
X115478710Y-69424355D01*
X116478710Y-69424355D01*
X116478710Y-69704355D01*
G37*
%TD.AperFunction*%
%TD*%
D11*
%TO.P,J7,6,Pin_6*%
%TO.N,PWM_LC*%
X104000000Y-80540000D03*
%TO.P,J7,5,Pin_5*%
%TO.N,PWM_HC*%
X101460000Y-80540000D03*
%TO.P,J7,4,Pin_4*%
%TO.N,PWM_LB*%
X104000000Y-78000000D03*
%TO.P,J7,3,Pin_3*%
%TO.N,PWM_HB*%
X101460000Y-78000000D03*
%TO.P,J7,2,Pin_2*%
%TO.N,PWM_LA*%
X104000000Y-75460000D03*
D12*
%TO.P,J7,1,Pin_1*%
%TO.N,PWM_HA*%
X101460000Y-75460000D03*
%TD*%
%TO.P,J2,1,Pin_1*%
%TO.N,SPI_MISO*%
X110650000Y-60250000D03*
D11*
%TO.P,J2,2,Pin_2*%
%TO.N,SPI_MOSI*%
X108110000Y-60250000D03*
%TO.P,J2,3,Pin_3*%
%TO.N,SPI_CLK*%
X105570000Y-60250000D03*
%TO.P,J2,4,Pin_4*%
%TO.N,SPI_CS*%
X103030000Y-60250000D03*
%TD*%
D12*
%TO.P,J1,1,Pin_1*%
%TO.N,NFLT*%
X101400000Y-64375000D03*
D11*
%TO.P,J1,2,Pin_2*%
%TO.N,MOT_EN*%
X103940000Y-64375000D03*
%TD*%
D13*
%TO.P,U7,41,PAD*%
%TO.N,PGND*%
X117630000Y-73140000D03*
X119000000Y-73140000D03*
X116490000Y-72000000D03*
X117630000Y-72000000D03*
X119000000Y-72000000D03*
X120140000Y-72000000D03*
X116490000Y-70630000D03*
X117630000Y-70630000D03*
X119000000Y-70630000D03*
X120140000Y-70630000D03*
X117630000Y-69490000D03*
X119000000Y-69490000D03*
%TD*%
D14*
%TO.P,J3,1,Pin_1*%
%TO.N,MOT_A*%
X144500000Y-78045000D03*
D15*
%TO.P,J3,2,Pin_2*%
%TO.N,MOT_B*%
X144500000Y-75505000D03*
%TO.P,J3,3,Pin_3*%
%TO.N,MOT_C*%
X144500000Y-72965000D03*
%TD*%
D12*
%TO.P,J4,1,Pin_1*%
%TO.N,SNSA*%
X118110000Y-59944000D03*
D11*
%TO.P,J4,2,Pin_2*%
%TO.N,SNSB*%
X120650000Y-59944000D03*
%TO.P,J4,3,Pin_3*%
%TO.N,SNSC*%
X123190000Y-59944000D03*
%TD*%
D16*
%TO.P,J5,1,Pin_1*%
%TO.N,PGND*%
X103000000Y-91960000D03*
%TO.P,J5,2,Pin_2*%
%TO.N,V_MOT*%
X103000000Y-94500000D03*
%TD*%
%TO.P,J6,1,Pin_1*%
%TO.N,AGND*%
X103075000Y-68150000D03*
%TO.P,J6,2,Pin_2*%
%TO.N,VCC*%
X103075000Y-70690000D03*
%TD*%
D17*
%TO.P,NT3,1,1*%
%TO.N,PGND*%
X116478710Y-69564355D03*
%TO.P,NT3,2,2*%
%TO.N,AGND*%
X115478710Y-69564355D03*
%TD*%
D18*
%TO.P,REF\u002A\u002A,1*%
%TO.N,PGND*%
X146000000Y-95157192D03*
D19*
X146000000Y-95157192D03*
%TD*%
%TO.P,REF\u002A\u002A,1*%
%TO.N,PGND*%
X103000000Y-86657192D03*
D18*
%TO.N,N/C*%
X103000000Y-86657192D03*
%TD*%
D19*
%TO.P,REF\u002A\u002A,1*%
%TO.N,PGND*%
X146000000Y-61157192D03*
D18*
X146000000Y-61157192D03*
%TD*%
D20*
%TO.N,/Motor Control/SPB*%
X122175442Y-73293585D03*
X129000000Y-80250000D03*
%TO.N,V_MOT*%
X136520000Y-73330000D03*
X135539937Y-66815001D03*
X135405063Y-93999999D03*
X132100000Y-72610000D03*
X135465000Y-74505000D03*
X136594937Y-66815001D03*
X136460063Y-95184999D03*
X136594937Y-69165000D03*
X137649937Y-66815001D03*
X132500000Y-94000000D03*
X134410000Y-75690000D03*
X135539937Y-68000001D03*
X135465000Y-75690000D03*
X135465000Y-73340001D03*
X132150000Y-69970000D03*
X134350063Y-92814999D03*
X134410000Y-74505000D03*
X135405063Y-95164998D03*
X134350063Y-93999999D03*
X136460063Y-92814999D03*
X136460063Y-93999999D03*
X136594937Y-68000001D03*
X132080000Y-73450000D03*
X137649937Y-68000001D03*
X132500000Y-95640000D03*
X134350063Y-95174999D03*
X134410000Y-73320000D03*
X135539937Y-69175001D03*
X137649937Y-69185001D03*
X135405063Y-92814999D03*
X136520000Y-75690000D03*
X136520000Y-74505000D03*
X132120000Y-67980000D03*
%TO.N,VCC*%
X111430479Y-66686114D03*
X118750000Y-66300000D03*
%TO.N,AGND*%
X113600000Y-68975000D03*
X114850000Y-62425000D03*
%TO.N,PGND*%
X127700000Y-74130000D03*
X121500000Y-75000000D03*
X127750000Y-93750000D03*
X127700000Y-72680000D03*
X128000000Y-68000000D03*
X128000000Y-69500000D03*
X127750000Y-95250000D03*
X127200000Y-73430000D03*
X113825000Y-75125000D03*
X125730000Y-60000000D03*
X128000000Y-68750000D03*
X127750000Y-94500000D03*
X112350000Y-76775000D03*
X114850000Y-74175000D03*
X125730000Y-61722000D03*
X123000000Y-80500000D03*
X131500000Y-84000000D03*
%TO.N,NFLT*%
X109980000Y-67160000D03*
X117475583Y-66080824D03*
%TO.N,/Motor Control/SNC*%
X129032000Y-64770000D03*
X127000000Y-63246000D03*
%TO.N,/Motor Control/SNB*%
X129032001Y-76700000D03*
X123000000Y-73500000D03*
%TO.N,/Motor Control/SNA*%
X126000000Y-85000000D03*
X129031998Y-90940000D03*
%TD*%
D21*
%TO.N,/Motor Control/SPB*%
X128199998Y-80250000D02*
X129000000Y-80250000D01*
X122175442Y-73293585D02*
X122175442Y-74225444D01*
X122175442Y-74225444D02*
X128199998Y-80250000D01*
%TO.N,VCC*%
X118318176Y-66731824D02*
X111476189Y-66731824D01*
X118750000Y-66300000D02*
X118318176Y-66731824D01*
X111476189Y-66731824D02*
X111430479Y-66686114D01*
D22*
%TO.N,NFLT*%
X111240000Y-65900000D02*
X109980000Y-67160000D01*
X117294759Y-65900000D02*
X111240000Y-65900000D01*
X117475583Y-66080824D02*
X117294759Y-65900000D01*
D21*
%TO.N,/Motor Control/SNC*%
X127000000Y-63246000D02*
X128524000Y-64770000D01*
X128524000Y-64770000D02*
X129032000Y-64770000D01*
%TO.N,/Motor Control/SNB*%
X126000000Y-76500000D02*
X128832001Y-76500000D01*
X123000000Y-73500000D02*
X126000000Y-76500000D01*
X128832001Y-76500000D02*
X129032001Y-76700000D01*
%TO.N,/Motor Control/SNA*%
X129031998Y-88031998D02*
X129031998Y-90940000D01*
X126000000Y-85000000D02*
X129031998Y-88031998D01*
%TD*%
%TA.AperFunction,Conductor*%
%TO.N,V_MOT*%
G36*
X140368299Y-60294685D02*
G01*
X140414054Y-60347489D01*
X140425260Y-60398739D01*
X140499739Y-95851105D01*
X140480195Y-95918186D01*
X140427487Y-95964052D01*
X140376105Y-95975365D01*
X132149279Y-95999633D01*
X132082182Y-95980147D01*
X132036271Y-95927478D01*
X132024913Y-95875721D01*
X132024896Y-95851105D01*
X132016839Y-84339116D01*
X132033452Y-84277033D01*
X132059577Y-84231784D01*
X132100500Y-84079057D01*
X132100500Y-83920943D01*
X132059577Y-83768216D01*
X132032977Y-83722143D01*
X132016364Y-83660235D01*
X132000087Y-60399087D01*
X132019725Y-60332034D01*
X132072497Y-60286242D01*
X132124087Y-60275000D01*
X140301260Y-60275000D01*
X140368299Y-60294685D01*
G37*
%TD.AperFunction*%
%TD*%
%TA.AperFunction,Conductor*%
%TO.N,PGND*%
G36*
X148442539Y-58677377D02*
G01*
X148488294Y-58730181D01*
X148499500Y-58781692D01*
X148499500Y-97532692D01*
X148479815Y-97599731D01*
X148427011Y-97645486D01*
X148375500Y-97656692D01*
X99824500Y-97656692D01*
X99757461Y-97637007D01*
X99711706Y-97584203D01*
X99700500Y-97532692D01*
X99700500Y-94399616D01*
X101724500Y-94399616D01*
X101724500Y-94600383D01*
X101755907Y-94798680D01*
X101817949Y-94989626D01*
X101909095Y-95168508D01*
X102027103Y-95330932D01*
X102169068Y-95472897D01*
X102331492Y-95590905D01*
X102416007Y-95633967D01*
X102510373Y-95682050D01*
X102510375Y-95682050D01*
X102510378Y-95682052D01*
X102701320Y-95744093D01*
X102899616Y-95775500D01*
X102899617Y-95775500D01*
X103100383Y-95775500D01*
X103100384Y-95775500D01*
X103298680Y-95744093D01*
X103489622Y-95682052D01*
X103668508Y-95590905D01*
X103830932Y-95472897D01*
X103972897Y-95330932D01*
X104090905Y-95168508D01*
X104182052Y-94989622D01*
X104244093Y-94798680D01*
X104275500Y-94600384D01*
X104275500Y-94399616D01*
X104244093Y-94201320D01*
X104182052Y-94010378D01*
X104182050Y-94010375D01*
X104182050Y-94010373D01*
X104090904Y-93831491D01*
X103972897Y-93669068D01*
X103830932Y-93527103D01*
X103668508Y-93409095D01*
X103489626Y-93317949D01*
X103298680Y-93255907D01*
X103100384Y-93224500D01*
X102899616Y-93224500D01*
X102800468Y-93240203D01*
X102701319Y-93255907D01*
X102510373Y-93317949D01*
X102331491Y-93409095D01*
X102238822Y-93476423D01*
X102169068Y-93527103D01*
X102169066Y-93527105D01*
X102169065Y-93527105D01*
X102027105Y-93669065D01*
X102027105Y-93669066D01*
X102027103Y-93669068D01*
X101976423Y-93738822D01*
X101909095Y-93831491D01*
X101817949Y-94010373D01*
X101755907Y-94201319D01*
X101724500Y-94399616D01*
X99700500Y-94399616D01*
X99700500Y-86531230D01*
X101399500Y-86531230D01*
X101399500Y-86783153D01*
X101438910Y-87031977D01*
X101516760Y-87271575D01*
X101631132Y-87496040D01*
X101779201Y-87699841D01*
X101779205Y-87699846D01*
X101957345Y-87877986D01*
X101957350Y-87877990D01*
X102096754Y-87979272D01*
X102161155Y-88026062D01*
X102276288Y-88084725D01*
X102385616Y-88140431D01*
X102385618Y-88140431D01*
X102385621Y-88140433D01*
X102625215Y-88218282D01*
X102874038Y-88257692D01*
X102874039Y-88257692D01*
X103125961Y-88257692D01*
X103125962Y-88257692D01*
X103374785Y-88218282D01*
X103614379Y-88140433D01*
X103838845Y-88026062D01*
X104042656Y-87877985D01*
X104220793Y-87699848D01*
X104368870Y-87496037D01*
X104483241Y-87271571D01*
X104561090Y-87031977D01*
X104600500Y-86783154D01*
X104600500Y-86531230D01*
X104561090Y-86282407D01*
X104483241Y-86042813D01*
X104483239Y-86042810D01*
X104483239Y-86042808D01*
X104441747Y-85961376D01*
X104368870Y-85818347D01*
X104236983Y-85636819D01*
X104220798Y-85614542D01*
X104220794Y-85614537D01*
X104042654Y-85436397D01*
X104042649Y-85436393D01*
X103838848Y-85288324D01*
X103838847Y-85288323D01*
X103838845Y-85288322D01*
X103727881Y-85231783D01*
X103614383Y-85173952D01*
X103374785Y-85096102D01*
X103267168Y-85079057D01*
X103125962Y-85056692D01*
X102874038Y-85056692D01*
X102787326Y-85070426D01*
X102625214Y-85096102D01*
X102385616Y-85173952D01*
X102161151Y-85288324D01*
X101957350Y-85436393D01*
X101957345Y-85436397D01*
X101779205Y-85614537D01*
X101779201Y-85614542D01*
X101631132Y-85818343D01*
X101516760Y-86042808D01*
X101438910Y-86282406D01*
X101399500Y-86531230D01*
X99700500Y-86531230D01*
X99700500Y-84920943D01*
X125399500Y-84920943D01*
X125399500Y-85079056D01*
X125440423Y-85231783D01*
X125440426Y-85231790D01*
X125519475Y-85368709D01*
X125519479Y-85368714D01*
X125519480Y-85368716D01*
X125631284Y-85480520D01*
X125631286Y-85480521D01*
X125631290Y-85480524D01*
X125768209Y-85559573D01*
X125768216Y-85559577D01*
X125920943Y-85600500D01*
X125982745Y-85600500D01*
X126049784Y-85620185D01*
X126070426Y-85636819D01*
X128595179Y-88161571D01*
X128628664Y-88222894D01*
X128631498Y-88249252D01*
X128631498Y-90439902D01*
X128611813Y-90506941D01*
X128595179Y-90527583D01*
X128551479Y-90571282D01*
X128551473Y-90571290D01*
X128472424Y-90708209D01*
X128472421Y-90708216D01*
X128431498Y-90860943D01*
X128431498Y-91019056D01*
X128472421Y-91171783D01*
X128472424Y-91171790D01*
X128551473Y-91308709D01*
X128551477Y-91308714D01*
X128551478Y-91308716D01*
X128663282Y-91420520D01*
X128663284Y-91420521D01*
X128663288Y-91420524D01*
X128800207Y-91499573D01*
X128800214Y-91499577D01*
X128952941Y-91540500D01*
X128952943Y-91540500D01*
X129111053Y-91540500D01*
X129111055Y-91540500D01*
X129263782Y-91499577D01*
X129400714Y-91420520D01*
X129512518Y-91308716D01*
X129591575Y-91171784D01*
X129632498Y-91019057D01*
X129632498Y-90860943D01*
X129591575Y-90708216D01*
X129591571Y-90708209D01*
X129512522Y-90571290D01*
X129512516Y-90571282D01*
X129468817Y-90527583D01*
X129435332Y-90466260D01*
X129432498Y-90439902D01*
X129432498Y-88094727D01*
X129432499Y-88094714D01*
X129432499Y-87979272D01*
X129405359Y-87877986D01*
X129405205Y-87877411D01*
X129392270Y-87855007D01*
X129352478Y-87786085D01*
X129277911Y-87711518D01*
X129277908Y-87711516D01*
X126636819Y-85070426D01*
X126603334Y-85009103D01*
X126600500Y-84982745D01*
X126600500Y-84920945D01*
X126600500Y-84920943D01*
X126559577Y-84768216D01*
X126559573Y-84768209D01*
X126480524Y-84631290D01*
X126480518Y-84631282D01*
X126368717Y-84519481D01*
X126368709Y-84519475D01*
X126231790Y-84440426D01*
X126231786Y-84440424D01*
X126231784Y-84440423D01*
X126079057Y-84399500D01*
X125920943Y-84399500D01*
X125768216Y-84440423D01*
X125768209Y-84440426D01*
X125631290Y-84519475D01*
X125631282Y-84519481D01*
X125519481Y-84631282D01*
X125519475Y-84631290D01*
X125440426Y-84768209D01*
X125440423Y-84768216D01*
X125399500Y-84920943D01*
X99700500Y-84920943D01*
X99700500Y-83124000D01*
X99720185Y-83056961D01*
X99772989Y-83011206D01*
X99824500Y-83000000D01*
X105499999Y-83000000D01*
X105500000Y-83000000D01*
X114617240Y-73271022D01*
X114677442Y-73235569D01*
X114708454Y-73231818D01*
X115994888Y-73239532D01*
X115994918Y-73214528D01*
X121574942Y-73214528D01*
X121574942Y-73372642D01*
X121613184Y-73515361D01*
X121615865Y-73525368D01*
X121615868Y-73525375D01*
X121694917Y-73662294D01*
X121694923Y-73662302D01*
X121738623Y-73706002D01*
X121772108Y-73767325D01*
X121774942Y-73793683D01*
X121774942Y-74172717D01*
X121774942Y-74278171D01*
X121788588Y-74329101D01*
X121802235Y-74380033D01*
X121828598Y-74425694D01*
X121854962Y-74471357D01*
X127954085Y-80570480D01*
X128045410Y-80623207D01*
X128147271Y-80650500D01*
X128252725Y-80650500D01*
X128499902Y-80650500D01*
X128566941Y-80670185D01*
X128587583Y-80686819D01*
X128631284Y-80730520D01*
X128631286Y-80730521D01*
X128631290Y-80730524D01*
X128767925Y-80809409D01*
X128768216Y-80809577D01*
X128920943Y-80850500D01*
X128920945Y-80850500D01*
X129079055Y-80850500D01*
X129079057Y-80850500D01*
X129231784Y-80809577D01*
X129368716Y-80730520D01*
X129480520Y-80618716D01*
X129559577Y-80481784D01*
X129600500Y-80329057D01*
X129600500Y-80170943D01*
X129559577Y-80018216D01*
X129512691Y-79937006D01*
X129480524Y-79881290D01*
X129480518Y-79881282D01*
X129368717Y-79769481D01*
X129368709Y-79769475D01*
X129231790Y-79690426D01*
X129231786Y-79690424D01*
X129231784Y-79690423D01*
X129079057Y-79649500D01*
X128920943Y-79649500D01*
X128768216Y-79690423D01*
X128768209Y-79690426D01*
X128631290Y-79769475D01*
X128631282Y-79769481D01*
X128587583Y-79813181D01*
X128560655Y-79827884D01*
X128534837Y-79844477D01*
X128528636Y-79845368D01*
X128526260Y-79846666D01*
X128499902Y-79849500D01*
X128417253Y-79849500D01*
X128350214Y-79829815D01*
X128329572Y-79813181D01*
X122828572Y-74312181D01*
X122795087Y-74250858D01*
X122800071Y-74181166D01*
X122841943Y-74125233D01*
X122907407Y-74100816D01*
X122916253Y-74100500D01*
X122920943Y-74100500D01*
X122982745Y-74100500D01*
X123049784Y-74120185D01*
X123070426Y-74136819D01*
X125679518Y-76745910D01*
X125679520Y-76745913D01*
X125754087Y-76820480D01*
X125813164Y-76854588D01*
X125821658Y-76859492D01*
X125845407Y-76873204D01*
X125845410Y-76873206D01*
X125845412Y-76873206D01*
X125845413Y-76873207D01*
X125947273Y-76900501D01*
X125947275Y-76900501D01*
X126060323Y-76900501D01*
X126060339Y-76900500D01*
X128382770Y-76900500D01*
X128449809Y-76920185D01*
X128490157Y-76962500D01*
X128551478Y-77068712D01*
X128551480Y-77068715D01*
X128551481Y-77068716D01*
X128663285Y-77180520D01*
X128663287Y-77180521D01*
X128663291Y-77180524D01*
X128784493Y-77250499D01*
X128800217Y-77259577D01*
X128952944Y-77300500D01*
X128952946Y-77300500D01*
X129111056Y-77300500D01*
X129111058Y-77300500D01*
X129263785Y-77259577D01*
X129400717Y-77180520D01*
X129512521Y-77068716D01*
X129591578Y-76931784D01*
X129632501Y-76779057D01*
X129632501Y-76620943D01*
X129591578Y-76468216D01*
X129540642Y-76379991D01*
X129512525Y-76331290D01*
X129512519Y-76331282D01*
X129400718Y-76219481D01*
X129400710Y-76219475D01*
X129263791Y-76140426D01*
X129263787Y-76140424D01*
X129263785Y-76140423D01*
X129111058Y-76099500D01*
X128952944Y-76099500D01*
X128950925Y-76100041D01*
X128948837Y-76100041D01*
X128944888Y-76100561D01*
X128944820Y-76100041D01*
X128892852Y-76100041D01*
X128892784Y-76100561D01*
X128888835Y-76100041D01*
X128886747Y-76100041D01*
X128884728Y-76099500D01*
X128884727Y-76099500D01*
X126217254Y-76099500D01*
X126150215Y-76079815D01*
X126129573Y-76063181D01*
X123636819Y-73570426D01*
X123624777Y-73548374D01*
X123609287Y-73528592D01*
X123606751Y-73515361D01*
X123603334Y-73509103D01*
X123601037Y-73494276D01*
X123600500Y-73488526D01*
X123600500Y-73420943D01*
X123587103Y-73370943D01*
X131479500Y-73370943D01*
X131479500Y-73529056D01*
X131520423Y-73681783D01*
X131520426Y-73681790D01*
X131599475Y-73818709D01*
X131599481Y-73818717D01*
X131667766Y-73887002D01*
X131701251Y-73948325D01*
X131704085Y-73974596D01*
X131710864Y-83660449D01*
X131710864Y-83660459D01*
X131721302Y-83739414D01*
X131730885Y-83775125D01*
X131737916Y-83801323D01*
X131768406Y-83874892D01*
X131768409Y-83874897D01*
X131768411Y-83874902D01*
X131770201Y-83878531D01*
X131769568Y-83878842D01*
X131779119Y-83901897D01*
X131790774Y-83945392D01*
X131795000Y-83977487D01*
X131795000Y-84022510D01*
X131790774Y-84054607D01*
X131779098Y-84098177D01*
X131770548Y-84120899D01*
X131768890Y-84124262D01*
X131738335Y-84198061D01*
X131721722Y-84260145D01*
X131711338Y-84339334D01*
X131719412Y-95875928D01*
X131719413Y-95875935D01*
X131726513Y-95941201D01*
X131737867Y-95992942D01*
X131737875Y-95992974D01*
X131749014Y-96031467D01*
X131749016Y-96031473D01*
X131805981Y-96128219D01*
X131805986Y-96128225D01*
X131805987Y-96128226D01*
X131851890Y-96180886D01*
X131851895Y-96180891D01*
X131896752Y-96222936D01*
X131947341Y-96248470D01*
X131996980Y-96273525D01*
X132064077Y-96293011D01*
X132064081Y-96293011D01*
X132064083Y-96293012D01*
X132094699Y-96297321D01*
X132150180Y-96305132D01*
X132150181Y-96305131D01*
X132150182Y-96305132D01*
X133415845Y-96301398D01*
X140377006Y-96280864D01*
X140441795Y-96273719D01*
X140493177Y-96262406D01*
X140531237Y-96251395D01*
X140628032Y-96194513D01*
X140680740Y-96148647D01*
X140722824Y-96103824D01*
X140773500Y-96003640D01*
X140776612Y-95992961D01*
X140780298Y-95980305D01*
X140793044Y-95936559D01*
X140805238Y-95850463D01*
X140756945Y-72862648D01*
X143199500Y-72862648D01*
X143199500Y-73067351D01*
X143231522Y-73269534D01*
X143294781Y-73464223D01*
X143387715Y-73646613D01*
X143508028Y-73812213D01*
X143652786Y-73956971D01*
X143793978Y-74059551D01*
X143818390Y-74077287D01*
X143902582Y-74120185D01*
X143911080Y-74124515D01*
X143961876Y-74172490D01*
X143978671Y-74240311D01*
X143956134Y-74306446D01*
X143911080Y-74345485D01*
X143818386Y-74392715D01*
X143652786Y-74513028D01*
X143508028Y-74657786D01*
X143387715Y-74823386D01*
X143294781Y-75005776D01*
X143231522Y-75200465D01*
X143199500Y-75402648D01*
X143199500Y-75607351D01*
X143231522Y-75809534D01*
X143294781Y-76004223D01*
X143387715Y-76186613D01*
X143508028Y-76352213D01*
X143508034Y-76352219D01*
X143652781Y-76496966D01*
X143693034Y-76526211D01*
X143697163Y-76529211D01*
X143739829Y-76584541D01*
X143745808Y-76654154D01*
X143713203Y-76715950D01*
X143652364Y-76750307D01*
X143639063Y-76752645D01*
X143618441Y-76755121D01*
X143477656Y-76810639D01*
X143357077Y-76902077D01*
X143265639Y-77022656D01*
X143210122Y-77163438D01*
X143204188Y-77212853D01*
X143199500Y-77251898D01*
X143199500Y-78838102D01*
X143205126Y-78884954D01*
X143210122Y-78926561D01*
X143265639Y-79067343D01*
X143357077Y-79187922D01*
X143477656Y-79279360D01*
X143477657Y-79279360D01*
X143477658Y-79279361D01*
X143618436Y-79334877D01*
X143706898Y-79345500D01*
X143706903Y-79345500D01*
X145293097Y-79345500D01*
X145293102Y-79345500D01*
X145381564Y-79334877D01*
X145522342Y-79279361D01*
X145642922Y-79187922D01*
X145734361Y-79067342D01*
X145789877Y-78926564D01*
X145800500Y-78838102D01*
X145800500Y-77251898D01*
X145789877Y-77163436D01*
X145734361Y-77022658D01*
X145734360Y-77022657D01*
X145734360Y-77022656D01*
X145642922Y-76902077D01*
X145522343Y-76810639D01*
X145442256Y-76779057D01*
X145381564Y-76755123D01*
X145381562Y-76755122D01*
X145381558Y-76755121D01*
X145360936Y-76752645D01*
X145296722Y-76725108D01*
X145257590Y-76667226D01*
X145255963Y-76597375D01*
X145292358Y-76537733D01*
X145302837Y-76529211D01*
X145347215Y-76496969D01*
X145347215Y-76496968D01*
X145347219Y-76496966D01*
X145491966Y-76352219D01*
X145491968Y-76352215D01*
X145491971Y-76352213D01*
X145544732Y-76279590D01*
X145612287Y-76186610D01*
X145705220Y-76004219D01*
X145768477Y-75809534D01*
X145800500Y-75607352D01*
X145800500Y-75402648D01*
X145768477Y-75200466D01*
X145765268Y-75190591D01*
X145705218Y-75005776D01*
X145629415Y-74857006D01*
X145612287Y-74823390D01*
X145530268Y-74710499D01*
X145491971Y-74657786D01*
X145347213Y-74513028D01*
X145181614Y-74392715D01*
X145156722Y-74380032D01*
X145088917Y-74345483D01*
X145038123Y-74297511D01*
X145021328Y-74229690D01*
X145043865Y-74163555D01*
X145088917Y-74124516D01*
X145181610Y-74077287D01*
X145206022Y-74059551D01*
X145347213Y-73956971D01*
X145347215Y-73956968D01*
X145347219Y-73956966D01*
X145491966Y-73812219D01*
X145491968Y-73812215D01*
X145491971Y-73812213D01*
X145544732Y-73739590D01*
X145612287Y-73646610D01*
X145705220Y-73464219D01*
X145768477Y-73269534D01*
X145800500Y-73067352D01*
X145800500Y-72862648D01*
X145780125Y-72734008D01*
X145768477Y-72660465D01*
X145705218Y-72465776D01*
X145660600Y-72378209D01*
X145612287Y-72283390D01*
X145604556Y-72272749D01*
X145491971Y-72117786D01*
X145347213Y-71973028D01*
X145181613Y-71852715D01*
X145181612Y-71852714D01*
X145181610Y-71852713D01*
X145124653Y-71823691D01*
X144999223Y-71759781D01*
X144804534Y-71696522D01*
X144629995Y-71668878D01*
X144602352Y-71664500D01*
X144397648Y-71664500D01*
X144373329Y-71668351D01*
X144195465Y-71696522D01*
X144000776Y-71759781D01*
X143818386Y-71852715D01*
X143652786Y-71973028D01*
X143508028Y-72117786D01*
X143387715Y-72283386D01*
X143294781Y-72465776D01*
X143231522Y-72660465D01*
X143199500Y-72862648D01*
X140756945Y-72862648D01*
X140730759Y-60398097D01*
X140729399Y-60385636D01*
X140727834Y-60371292D01*
X140723709Y-60333482D01*
X140712503Y-60282232D01*
X140701614Y-60244342D01*
X140644935Y-60147429D01*
X140599180Y-60094625D01*
X140599178Y-60094623D01*
X140599168Y-60094612D01*
X140554452Y-60052451D01*
X140554449Y-60052449D01*
X140554447Y-60052447D01*
X140454371Y-60001561D01*
X140454370Y-60001560D01*
X140454369Y-60001560D01*
X140387338Y-59981877D01*
X140387332Y-59981876D01*
X140301260Y-59969500D01*
X132124087Y-59969500D01*
X132113740Y-59970614D01*
X132059046Y-59976504D01*
X132007448Y-59987747D01*
X131969145Y-59998755D01*
X131969144Y-59998755D01*
X131872283Y-60055494D01*
X131872275Y-60055501D01*
X131819512Y-60101284D01*
X131819499Y-60101296D01*
X131777357Y-60146055D01*
X131726540Y-60246166D01*
X131726538Y-60246171D01*
X131706902Y-60313219D01*
X131706901Y-60313221D01*
X131694587Y-60399299D01*
X131694587Y-60399304D01*
X131699555Y-67499758D01*
X131679917Y-67566811D01*
X131663238Y-67587525D01*
X131639478Y-67611285D01*
X131560426Y-67748209D01*
X131560423Y-67748216D01*
X131519500Y-67900943D01*
X131519500Y-68059056D01*
X131560423Y-68211783D01*
X131560426Y-68211790D01*
X131639475Y-68348709D01*
X131639481Y-68348717D01*
X131663908Y-68373144D01*
X131697393Y-68434467D01*
X131700227Y-68460738D01*
X131700968Y-69518346D01*
X131681330Y-69585399D01*
X131673997Y-69594510D01*
X131674426Y-69594839D01*
X131669475Y-69601291D01*
X131590426Y-69738209D01*
X131590423Y-69738216D01*
X131549500Y-69890943D01*
X131549500Y-70049057D01*
X131590047Y-70200378D01*
X131590423Y-70201783D01*
X131590426Y-70201790D01*
X131669475Y-70338709D01*
X131674426Y-70345161D01*
X131672076Y-70346963D01*
X131698765Y-70395839D01*
X131701599Y-70422110D01*
X131702779Y-72106534D01*
X131683141Y-72173587D01*
X131666461Y-72194301D01*
X131619479Y-72241283D01*
X131540426Y-72378209D01*
X131540423Y-72378216D01*
X131499500Y-72530943D01*
X131499500Y-72689057D01*
X131532727Y-72813060D01*
X131540423Y-72841783D01*
X131540423Y-72841784D01*
X131603293Y-72950680D01*
X131619764Y-73018580D01*
X131603293Y-73074678D01*
X131520423Y-73218215D01*
X131520423Y-73218216D01*
X131479500Y-73370943D01*
X123587103Y-73370943D01*
X123559577Y-73268216D01*
X123559573Y-73268209D01*
X123480524Y-73131290D01*
X123480518Y-73131282D01*
X123368717Y-73019481D01*
X123368709Y-73019475D01*
X123231790Y-72940426D01*
X123231786Y-72940424D01*
X123231784Y-72940423D01*
X123079057Y-72899500D01*
X122920943Y-72899500D01*
X122761102Y-72942329D01*
X122691252Y-72940666D01*
X122641328Y-72910235D01*
X122544159Y-72813066D01*
X122544151Y-72813060D01*
X122407232Y-72734011D01*
X122407228Y-72734009D01*
X122407226Y-72734008D01*
X122254499Y-72693085D01*
X122096385Y-72693085D01*
X121943658Y-72734008D01*
X121943651Y-72734011D01*
X121806732Y-72813060D01*
X121806724Y-72813066D01*
X121694923Y-72924867D01*
X121694917Y-72924875D01*
X121615868Y-73061794D01*
X121615865Y-73061801D01*
X121574942Y-73214528D01*
X115994918Y-73214528D01*
X115999851Y-69123850D01*
X116019616Y-69056835D01*
X116072476Y-69011144D01*
X116123851Y-69000000D01*
X120750000Y-69000000D01*
X122621529Y-67587525D01*
X123399998Y-67000002D01*
X123399998Y-67000001D01*
X123400000Y-67000000D01*
X123400000Y-63166943D01*
X126399500Y-63166943D01*
X126399500Y-63325057D01*
X126434321Y-63455009D01*
X126440423Y-63477783D01*
X126440426Y-63477790D01*
X126519475Y-63614709D01*
X126519479Y-63614714D01*
X126519480Y-63614716D01*
X126631284Y-63726520D01*
X126631286Y-63726521D01*
X126631290Y-63726524D01*
X126768209Y-63805573D01*
X126768216Y-63805577D01*
X126920943Y-63846500D01*
X126982745Y-63846500D01*
X127049784Y-63866185D01*
X127070426Y-63882819D01*
X128203519Y-65015912D01*
X128203520Y-65015913D01*
X128278087Y-65090480D01*
X128369413Y-65143207D01*
X128471273Y-65170500D01*
X128531902Y-65170500D01*
X128598941Y-65190185D01*
X128619583Y-65206819D01*
X128663284Y-65250520D01*
X128663286Y-65250521D01*
X128663290Y-65250524D01*
X128800209Y-65329573D01*
X128800216Y-65329577D01*
X128952943Y-65370500D01*
X128952945Y-65370500D01*
X129111055Y-65370500D01*
X129111057Y-65370500D01*
X129263784Y-65329577D01*
X129400716Y-65250520D01*
X129512520Y-65138716D01*
X129591577Y-65001784D01*
X129632500Y-64849057D01*
X129632500Y-64690943D01*
X129591577Y-64538216D01*
X129591573Y-64538209D01*
X129512524Y-64401290D01*
X129512518Y-64401282D01*
X129400717Y-64289481D01*
X129400709Y-64289475D01*
X129263790Y-64210426D01*
X129263786Y-64210424D01*
X129263784Y-64210423D01*
X129111057Y-64169500D01*
X128952943Y-64169500D01*
X128800216Y-64210423D01*
X128800215Y-64210423D01*
X128711822Y-64261456D01*
X128643921Y-64277927D01*
X128577895Y-64255074D01*
X128562142Y-64241749D01*
X127636819Y-63316426D01*
X127603334Y-63255103D01*
X127600500Y-63228745D01*
X127600500Y-63166945D01*
X127600500Y-63166943D01*
X127559577Y-63014216D01*
X127496822Y-62905520D01*
X127480524Y-62877290D01*
X127480518Y-62877282D01*
X127368717Y-62765481D01*
X127368709Y-62765475D01*
X127231790Y-62686426D01*
X127231786Y-62686424D01*
X127231784Y-62686423D01*
X127079057Y-62645500D01*
X126920943Y-62645500D01*
X126768216Y-62686423D01*
X126768209Y-62686426D01*
X126631290Y-62765475D01*
X126631282Y-62765481D01*
X126519481Y-62877282D01*
X126519475Y-62877290D01*
X126440426Y-63014209D01*
X126440423Y-63014216D01*
X126399500Y-63166943D01*
X123400000Y-63166943D01*
X123400000Y-61175565D01*
X123419685Y-61108526D01*
X123472489Y-61062771D01*
X123485679Y-61057635D01*
X123631639Y-61010211D01*
X123792994Y-60927996D01*
X123939501Y-60821553D01*
X124067553Y-60693501D01*
X124173996Y-60546994D01*
X124256211Y-60385639D01*
X124312171Y-60213409D01*
X124329928Y-60101296D01*
X124340500Y-60034551D01*
X124340500Y-59853448D01*
X124324019Y-59749397D01*
X124312171Y-59674591D01*
X124256211Y-59502361D01*
X124256211Y-59502360D01*
X124227740Y-59446484D01*
X124173996Y-59341006D01*
X124091337Y-59227235D01*
X124067558Y-59194505D01*
X124067554Y-59194500D01*
X123939499Y-59066445D01*
X123939494Y-59066441D01*
X123792997Y-58960006D01*
X123792996Y-58960005D01*
X123792994Y-58960004D01*
X123659877Y-58892177D01*
X123609081Y-58844202D01*
X123592286Y-58776381D01*
X123614824Y-58710246D01*
X123669539Y-58666795D01*
X123716172Y-58657692D01*
X148375500Y-58657692D01*
X148442539Y-58677377D01*
G37*
%TD.AperFunction*%
%TD*%
%TA.AperFunction,Conductor*%
%TO.N,AGND*%
G36*
X117039014Y-58677377D02*
G01*
X117084769Y-58730181D01*
X117094713Y-58799339D01*
X117065688Y-58862895D01*
X117059656Y-58869373D01*
X117007794Y-58921234D01*
X116962415Y-59024006D01*
X116962415Y-59024008D01*
X116959500Y-59049131D01*
X116959500Y-60838856D01*
X116959502Y-60838882D01*
X116962413Y-60863987D01*
X116962415Y-60863991D01*
X117007793Y-60966764D01*
X117007794Y-60966765D01*
X117087235Y-61046206D01*
X117190009Y-61091585D01*
X117215135Y-61094500D01*
X119004864Y-61094499D01*
X119004879Y-61094497D01*
X119004882Y-61094497D01*
X119029987Y-61091586D01*
X119029988Y-61091585D01*
X119029991Y-61091585D01*
X119132765Y-61046206D01*
X119212206Y-60966765D01*
X119257585Y-60863991D01*
X119260500Y-60838865D01*
X119260499Y-60101125D01*
X119280183Y-60034089D01*
X119332987Y-59988334D01*
X119402146Y-59978390D01*
X119465702Y-60007415D01*
X119503476Y-60066193D01*
X119506972Y-60081729D01*
X119527829Y-60213410D01*
X119583787Y-60385636D01*
X119583788Y-60385639D01*
X119666006Y-60546997D01*
X119772441Y-60693494D01*
X119772445Y-60693499D01*
X119900500Y-60821554D01*
X119900505Y-60821558D01*
X120028287Y-60914396D01*
X120047006Y-60927996D01*
X120123094Y-60966765D01*
X120208360Y-61010211D01*
X120208363Y-61010212D01*
X120294476Y-61038191D01*
X120380591Y-61066171D01*
X120463429Y-61079291D01*
X120559449Y-61094500D01*
X120559454Y-61094500D01*
X120740551Y-61094500D01*
X120827259Y-61080765D01*
X120919409Y-61066171D01*
X121091639Y-61010211D01*
X121252994Y-60927996D01*
X121399501Y-60821553D01*
X121527553Y-60693501D01*
X121633996Y-60546994D01*
X121716211Y-60385639D01*
X121772171Y-60213409D01*
X121788190Y-60112269D01*
X121797527Y-60053321D01*
X121827456Y-59990186D01*
X121886768Y-59953255D01*
X121956630Y-59954253D01*
X122014863Y-59992863D01*
X122042473Y-60053321D01*
X122067829Y-60213410D01*
X122123787Y-60385636D01*
X122123788Y-60385639D01*
X122206006Y-60546997D01*
X122312441Y-60693494D01*
X122312445Y-60693499D01*
X122440500Y-60821554D01*
X122440505Y-60821558D01*
X122568287Y-60914396D01*
X122587006Y-60927996D01*
X122663094Y-60966765D01*
X122748360Y-61010211D01*
X122748363Y-61010212D01*
X122920590Y-61066171D01*
X122989897Y-61077148D01*
X123053032Y-61107077D01*
X123089964Y-61166388D01*
X123094500Y-61199621D01*
X123094500Y-66786059D01*
X123074815Y-66853098D01*
X123045198Y-66885034D01*
X120680813Y-68669475D01*
X120615445Y-68694148D01*
X120606115Y-68694500D01*
X116123842Y-68694500D01*
X116059093Y-68701442D01*
X116059090Y-68701443D01*
X116007717Y-68712586D01*
X116007697Y-68712591D01*
X115969679Y-68723457D01*
X115969678Y-68723458D01*
X115872698Y-68780018D01*
X115872696Y-68780019D01*
X115819832Y-68825714D01*
X115777600Y-68870397D01*
X115726596Y-68970409D01*
X115706831Y-69037422D01*
X115706827Y-69037439D01*
X115694351Y-69123475D01*
X115694350Y-69123485D01*
X115689908Y-72807600D01*
X115670143Y-72874615D01*
X115617283Y-72920306D01*
X115565165Y-72931448D01*
X114710296Y-72926322D01*
X114710282Y-72926323D01*
X114671786Y-72928527D01*
X114671754Y-72928529D01*
X114640743Y-72932280D01*
X114627988Y-72934098D01*
X114627977Y-72934101D01*
X114522418Y-72972324D01*
X114462220Y-73007774D01*
X114462208Y-73007783D01*
X114394324Y-73062122D01*
X114213812Y-73254745D01*
X114213813Y-73254746D01*
X111288540Y-76376293D01*
X111288173Y-76376683D01*
X105536694Y-82461181D01*
X105476336Y-82496377D01*
X105446581Y-82500000D01*
X99824500Y-82500000D01*
X99757461Y-82480315D01*
X99711706Y-82427511D01*
X99700500Y-82376000D01*
X99700500Y-74565131D01*
X100309500Y-74565131D01*
X100309500Y-76354856D01*
X100309502Y-76354882D01*
X100312413Y-76379987D01*
X100312415Y-76379991D01*
X100357793Y-76482764D01*
X100357794Y-76482765D01*
X100437235Y-76562206D01*
X100540009Y-76607585D01*
X100565135Y-76610500D01*
X101302873Y-76610499D01*
X101369910Y-76630183D01*
X101415665Y-76682987D01*
X101425609Y-76752146D01*
X101396584Y-76815702D01*
X101337806Y-76853476D01*
X101322270Y-76856972D01*
X101190589Y-76877829D01*
X101018363Y-76933787D01*
X101018360Y-76933788D01*
X100857002Y-77016006D01*
X100710505Y-77122441D01*
X100710500Y-77122445D01*
X100582445Y-77250500D01*
X100582441Y-77250505D01*
X100476006Y-77397002D01*
X100393788Y-77558360D01*
X100393787Y-77558363D01*
X100337829Y-77730589D01*
X100309500Y-77909448D01*
X100309500Y-78090551D01*
X100337829Y-78269410D01*
X100393787Y-78441636D01*
X100393788Y-78441639D01*
X100476006Y-78602997D01*
X100582441Y-78749494D01*
X100582445Y-78749499D01*
X100710500Y-78877554D01*
X100710505Y-78877558D01*
X100837562Y-78969869D01*
X100857006Y-78983996D01*
X100959552Y-79036246D01*
X101018360Y-79066211D01*
X101018363Y-79066212D01*
X101104476Y-79094191D01*
X101190591Y-79122171D01*
X101263639Y-79133740D01*
X101350678Y-79147527D01*
X101413813Y-79177456D01*
X101450744Y-79236768D01*
X101449746Y-79306631D01*
X101411136Y-79364863D01*
X101350678Y-79392473D01*
X101190589Y-79417829D01*
X101018363Y-79473787D01*
X101018360Y-79473788D01*
X100857002Y-79556006D01*
X100710505Y-79662441D01*
X100710500Y-79662445D01*
X100582445Y-79790500D01*
X100582441Y-79790505D01*
X100476006Y-79937002D01*
X100393788Y-80098360D01*
X100393787Y-80098363D01*
X100337829Y-80270589D01*
X100309500Y-80449448D01*
X100309500Y-80630551D01*
X100337829Y-80809410D01*
X100393787Y-80981636D01*
X100393788Y-80981639D01*
X100476006Y-81142997D01*
X100582441Y-81289494D01*
X100582445Y-81289499D01*
X100710500Y-81417554D01*
X100710505Y-81417558D01*
X100838287Y-81510396D01*
X100857006Y-81523996D01*
X100962484Y-81577740D01*
X101018360Y-81606211D01*
X101018363Y-81606212D01*
X101104476Y-81634191D01*
X101190591Y-81662171D01*
X101273429Y-81675291D01*
X101369449Y-81690500D01*
X101369454Y-81690500D01*
X101550551Y-81690500D01*
X101637259Y-81676765D01*
X101729409Y-81662171D01*
X101901639Y-81606211D01*
X102062994Y-81523996D01*
X102209501Y-81417553D01*
X102337553Y-81289501D01*
X102443996Y-81142994D01*
X102526211Y-80981639D01*
X102582171Y-80809409D01*
X102596422Y-80719425D01*
X102607527Y-80649321D01*
X102637456Y-80586186D01*
X102696768Y-80549255D01*
X102766630Y-80550253D01*
X102824863Y-80588863D01*
X102852473Y-80649321D01*
X102877829Y-80809410D01*
X102933787Y-80981636D01*
X102933788Y-80981639D01*
X103016006Y-81142997D01*
X103122441Y-81289494D01*
X103122445Y-81289499D01*
X103250500Y-81417554D01*
X103250505Y-81417558D01*
X103378287Y-81510396D01*
X103397006Y-81523996D01*
X103502484Y-81577740D01*
X103558360Y-81606211D01*
X103558363Y-81606212D01*
X103644476Y-81634191D01*
X103730591Y-81662171D01*
X103813429Y-81675291D01*
X103909449Y-81690500D01*
X103909454Y-81690500D01*
X104090551Y-81690500D01*
X104177259Y-81676765D01*
X104269409Y-81662171D01*
X104441639Y-81606211D01*
X104602994Y-81523996D01*
X104749501Y-81417553D01*
X104877553Y-81289501D01*
X104983996Y-81142994D01*
X105066211Y-80981639D01*
X105122171Y-80809409D01*
X105136765Y-80717259D01*
X105150500Y-80630551D01*
X105150500Y-80449448D01*
X105134019Y-80345397D01*
X105122171Y-80270591D01*
X105094191Y-80184476D01*
X105066212Y-80098363D01*
X105066211Y-80098360D01*
X105023196Y-80013940D01*
X104983996Y-79937006D01*
X104970396Y-79918287D01*
X104877558Y-79790505D01*
X104877554Y-79790500D01*
X104749499Y-79662445D01*
X104749494Y-79662441D01*
X104602997Y-79556006D01*
X104602996Y-79556005D01*
X104602994Y-79556004D01*
X104551300Y-79529664D01*
X104441639Y-79473788D01*
X104441636Y-79473787D01*
X104269410Y-79417829D01*
X104109321Y-79392473D01*
X104046186Y-79362544D01*
X104009255Y-79303232D01*
X104010253Y-79233370D01*
X104048863Y-79175137D01*
X104109321Y-79147527D01*
X104179425Y-79136422D01*
X104269409Y-79122171D01*
X104441639Y-79066211D01*
X104602994Y-78983996D01*
X104749501Y-78877553D01*
X104877553Y-78749501D01*
X104983996Y-78602994D01*
X105066211Y-78441639D01*
X105122171Y-78269409D01*
X105136765Y-78177259D01*
X105150500Y-78090551D01*
X105150500Y-77909448D01*
X105134019Y-77805397D01*
X105122171Y-77730591D01*
X105066211Y-77558361D01*
X105066211Y-77558360D01*
X105037740Y-77502484D01*
X104983996Y-77397006D01*
X104970396Y-77378287D01*
X104877558Y-77250505D01*
X104877554Y-77250500D01*
X104749499Y-77122445D01*
X104749494Y-77122441D01*
X104602997Y-77016006D01*
X104602996Y-77016005D01*
X104602994Y-77016004D01*
X104522312Y-76974894D01*
X104441639Y-76933788D01*
X104441636Y-76933787D01*
X104269410Y-76877829D01*
X104109321Y-76852473D01*
X104046186Y-76822544D01*
X104009255Y-76763232D01*
X104010253Y-76693370D01*
X104048863Y-76635137D01*
X104109321Y-76607527D01*
X104179425Y-76596422D01*
X104269409Y-76582171D01*
X104441639Y-76526211D01*
X104602994Y-76443996D01*
X104749501Y-76337553D01*
X104877553Y-76209501D01*
X104983996Y-76062994D01*
X105066211Y-75901639D01*
X105122171Y-75729409D01*
X105136765Y-75637259D01*
X105150500Y-75550551D01*
X105150500Y-75369448D01*
X105134019Y-75265397D01*
X105122171Y-75190591D01*
X105066211Y-75018361D01*
X105066211Y-75018360D01*
X105037740Y-74962484D01*
X104983996Y-74857006D01*
X104903384Y-74746052D01*
X104877558Y-74710505D01*
X104877554Y-74710500D01*
X104749499Y-74582445D01*
X104749494Y-74582441D01*
X104602997Y-74476006D01*
X104602996Y-74476005D01*
X104602994Y-74476004D01*
X104526906Y-74437235D01*
X104441639Y-74393788D01*
X104441636Y-74393787D01*
X104269410Y-74337829D01*
X104090551Y-74309500D01*
X104090546Y-74309500D01*
X103909454Y-74309500D01*
X103909449Y-74309500D01*
X103730589Y-74337829D01*
X103558363Y-74393787D01*
X103558360Y-74393788D01*
X103397002Y-74476006D01*
X103250505Y-74582441D01*
X103250500Y-74582445D01*
X103122445Y-74710500D01*
X103122441Y-74710505D01*
X103016006Y-74857002D01*
X102933788Y-75018360D01*
X102933787Y-75018363D01*
X102877829Y-75190589D01*
X102856972Y-75322271D01*
X102827042Y-75385405D01*
X102767731Y-75422336D01*
X102697868Y-75421338D01*
X102639636Y-75382728D01*
X102611522Y-75318764D01*
X102610499Y-75302872D01*
X102610499Y-74565143D01*
X102610499Y-74565136D01*
X102610497Y-74565117D01*
X102607586Y-74540012D01*
X102607585Y-74540010D01*
X102607585Y-74540009D01*
X102562206Y-74437235D01*
X102482765Y-74357794D01*
X102439868Y-74338853D01*
X102379992Y-74312415D01*
X102354865Y-74309500D01*
X100565143Y-74309500D01*
X100565117Y-74309502D01*
X100540012Y-74312413D01*
X100540008Y-74312415D01*
X100437235Y-74357793D01*
X100357794Y-74437234D01*
X100312415Y-74540006D01*
X100312415Y-74540008D01*
X100309500Y-74565131D01*
X99700500Y-74565131D01*
X99700500Y-68033909D01*
X101600000Y-68033909D01*
X101600000Y-68266090D01*
X101636318Y-68495393D01*
X101708065Y-68716205D01*
X101813465Y-68923064D01*
X101870238Y-69001207D01*
X102473958Y-68397487D01*
X102498978Y-68457890D01*
X102570112Y-68564351D01*
X102660649Y-68654888D01*
X102767110Y-68726022D01*
X102827510Y-68751041D01*
X102223791Y-69354759D01*
X102223791Y-69354760D01*
X102301938Y-69411536D01*
X102301937Y-69411536D01*
X102334835Y-69428298D01*
X102385631Y-69476272D01*
X102402427Y-69544093D01*
X102379890Y-69610228D01*
X102351427Y-69639100D01*
X102244074Y-69717098D01*
X102244065Y-69717105D01*
X102102105Y-69859065D01*
X102102105Y-69859066D01*
X102102103Y-69859068D01*
X102051423Y-69928822D01*
X101984095Y-70021491D01*
X101892949Y-70200373D01*
X101830907Y-70391319D01*
X101799500Y-70589616D01*
X101799500Y-70790383D01*
X101830907Y-70988680D01*
X101892949Y-71179626D01*
X101984095Y-71358508D01*
X102102103Y-71520932D01*
X102244068Y-71662897D01*
X102406492Y-71780905D01*
X102491007Y-71823967D01*
X102585373Y-71872050D01*
X102585375Y-71872050D01*
X102585378Y-71872052D01*
X102776320Y-71934093D01*
X102974616Y-71965500D01*
X102974617Y-71965500D01*
X103175383Y-71965500D01*
X103175384Y-71965500D01*
X103373680Y-71934093D01*
X103564622Y-71872052D01*
X103743508Y-71780905D01*
X103905932Y-71662897D01*
X104047897Y-71520932D01*
X104165905Y-71358508D01*
X104257052Y-71179622D01*
X104319093Y-70988680D01*
X104350500Y-70790384D01*
X104350500Y-70589616D01*
X104319093Y-70391320D01*
X104257052Y-70200378D01*
X104257050Y-70200375D01*
X104257050Y-70200373D01*
X104165904Y-70021491D01*
X104047897Y-69859068D01*
X103905932Y-69717103D01*
X103859357Y-69683264D01*
X103798572Y-69639101D01*
X103755907Y-69583770D01*
X103749928Y-69514157D01*
X103782534Y-69452362D01*
X103815165Y-69428297D01*
X103848072Y-69411530D01*
X103926207Y-69354762D01*
X103926208Y-69354760D01*
X103322488Y-68751041D01*
X103382890Y-68726022D01*
X103489351Y-68654888D01*
X103579888Y-68564351D01*
X103651022Y-68457890D01*
X103676041Y-68397489D01*
X104279760Y-69001208D01*
X104279762Y-69001207D01*
X104336530Y-68923071D01*
X104441934Y-68716205D01*
X104513681Y-68495393D01*
X104550000Y-68266090D01*
X104550000Y-68033909D01*
X104513681Y-67804606D01*
X104441934Y-67583794D01*
X104336534Y-67376935D01*
X104279760Y-67298791D01*
X104279759Y-67298791D01*
X103676041Y-67902510D01*
X103651022Y-67842110D01*
X103579888Y-67735649D01*
X103489351Y-67645112D01*
X103382890Y-67573978D01*
X103322487Y-67548957D01*
X103790503Y-67080943D01*
X109379500Y-67080943D01*
X109379500Y-67239057D01*
X109381278Y-67245690D01*
X109420423Y-67391783D01*
X109420426Y-67391790D01*
X109499475Y-67528709D01*
X109499479Y-67528714D01*
X109499480Y-67528716D01*
X109611284Y-67640520D01*
X109611286Y-67640521D01*
X109611290Y-67640524D01*
X109748209Y-67719573D01*
X109748216Y-67719577D01*
X109900943Y-67760500D01*
X109900945Y-67760500D01*
X110059055Y-67760500D01*
X110059057Y-67760500D01*
X110211784Y-67719577D01*
X110348716Y-67640520D01*
X110460520Y-67528716D01*
X110539577Y-67391784D01*
X110539577Y-67391780D01*
X110543640Y-67384745D01*
X110544262Y-67385104D01*
X110566092Y-67352431D01*
X110819147Y-67099376D01*
X110880468Y-67065893D01*
X110950160Y-67070877D01*
X110994507Y-67099378D01*
X111061763Y-67166634D01*
X111061765Y-67166635D01*
X111061769Y-67166638D01*
X111187203Y-67239056D01*
X111198695Y-67245691D01*
X111351422Y-67286614D01*
X111351424Y-67286614D01*
X111509534Y-67286614D01*
X111509536Y-67286614D01*
X111662263Y-67245691D01*
X111799195Y-67166634D01*
X111799200Y-67166628D01*
X111805640Y-67161688D01*
X111806904Y-67163336D01*
X111858509Y-67135158D01*
X111884867Y-67132324D01*
X118370901Y-67132324D01*
X118370903Y-67132324D01*
X118472764Y-67105031D01*
X118564089Y-67052304D01*
X118679574Y-66936819D01*
X118740897Y-66903334D01*
X118767255Y-66900500D01*
X118829055Y-66900500D01*
X118829057Y-66900500D01*
X118981784Y-66859577D01*
X119118716Y-66780520D01*
X119230520Y-66668716D01*
X119309577Y-66531784D01*
X119350500Y-66379057D01*
X119350500Y-66220943D01*
X119309577Y-66068216D01*
X119271213Y-66001767D01*
X119230524Y-65931290D01*
X119230521Y-65931286D01*
X119230520Y-65931284D01*
X119118716Y-65819480D01*
X119118714Y-65819479D01*
X119118709Y-65819475D01*
X118981790Y-65740426D01*
X118981786Y-65740424D01*
X118981784Y-65740423D01*
X118829057Y-65699500D01*
X118670943Y-65699500D01*
X118518216Y-65740423D01*
X118518209Y-65740426D01*
X118381290Y-65819475D01*
X118381282Y-65819481D01*
X118269478Y-65931285D01*
X118265205Y-65936854D01*
X118208774Y-65978052D01*
X118139028Y-65982202D01*
X118078110Y-65947985D01*
X118047060Y-65893453D01*
X118035160Y-65849040D01*
X118018091Y-65819475D01*
X117956107Y-65712114D01*
X117956101Y-65712106D01*
X117844300Y-65600305D01*
X117844295Y-65600301D01*
X117700329Y-65517183D01*
X117700688Y-65516561D01*
X117668013Y-65494729D01*
X117632775Y-65459491D01*
X117632774Y-65459490D01*
X117507244Y-65387016D01*
X117507245Y-65387016D01*
X117472241Y-65377637D01*
X117367234Y-65349500D01*
X111167525Y-65349500D01*
X111062517Y-65377637D01*
X111027514Y-65387016D01*
X110901986Y-65459489D01*
X110901983Y-65459491D01*
X109787567Y-66573906D01*
X109754894Y-66595740D01*
X109755253Y-66596361D01*
X109748218Y-66600422D01*
X109748216Y-66600423D01*
X109662028Y-66650182D01*
X109611285Y-66679479D01*
X109611282Y-66679481D01*
X109499481Y-66791282D01*
X109499475Y-66791290D01*
X109420426Y-66928209D01*
X109420423Y-66928216D01*
X109379500Y-67080943D01*
X103790503Y-67080943D01*
X103886311Y-66985135D01*
X103926207Y-66945238D01*
X103848064Y-66888465D01*
X103641205Y-66783065D01*
X103420393Y-66711318D01*
X103191090Y-66675000D01*
X102958910Y-66675000D01*
X102729606Y-66711318D01*
X102508794Y-66783065D01*
X102301925Y-66888470D01*
X102223791Y-66945237D01*
X102223791Y-66945238D01*
X102827511Y-67548958D01*
X102767110Y-67573978D01*
X102660649Y-67645112D01*
X102570112Y-67735649D01*
X102498978Y-67842110D01*
X102473958Y-67902511D01*
X101870238Y-67298791D01*
X101870237Y-67298791D01*
X101813470Y-67376925D01*
X101708065Y-67583794D01*
X101636318Y-67804606D01*
X101600000Y-68033909D01*
X99700500Y-68033909D01*
X99700500Y-63480131D01*
X100249500Y-63480131D01*
X100249500Y-65269856D01*
X100249502Y-65269882D01*
X100252413Y-65294987D01*
X100252415Y-65294991D01*
X100297793Y-65397764D01*
X100297794Y-65397765D01*
X100377235Y-65477206D01*
X100480009Y-65522585D01*
X100505135Y-65525500D01*
X102294864Y-65525499D01*
X102294879Y-65525497D01*
X102294882Y-65525497D01*
X102319987Y-65522586D01*
X102319988Y-65522585D01*
X102319991Y-65522585D01*
X102422765Y-65477206D01*
X102502206Y-65397765D01*
X102547585Y-65294991D01*
X102550500Y-65269865D01*
X102550499Y-64532125D01*
X102570183Y-64465089D01*
X102622987Y-64419334D01*
X102692146Y-64409390D01*
X102755702Y-64438415D01*
X102793476Y-64497193D01*
X102796972Y-64512729D01*
X102817829Y-64644410D01*
X102873787Y-64816636D01*
X102873788Y-64816639D01*
X102956006Y-64977997D01*
X103062441Y-65124494D01*
X103062445Y-65124499D01*
X103190500Y-65252554D01*
X103190505Y-65252558D01*
X103318287Y-65345396D01*
X103337006Y-65358996D01*
X103413094Y-65397765D01*
X103498360Y-65441211D01*
X103498363Y-65441212D01*
X103554619Y-65459490D01*
X103670591Y-65497171D01*
X103753429Y-65510291D01*
X103849449Y-65525500D01*
X103849454Y-65525500D01*
X104030551Y-65525500D01*
X104117259Y-65511765D01*
X104209409Y-65497171D01*
X104381639Y-65441211D01*
X104542994Y-65358996D01*
X104689501Y-65252553D01*
X104817553Y-65124501D01*
X104923996Y-64977994D01*
X105006211Y-64816639D01*
X105062171Y-64644409D01*
X105078111Y-64543770D01*
X105090500Y-64465551D01*
X105090500Y-64284448D01*
X105074019Y-64180397D01*
X105062171Y-64105591D01*
X105006211Y-63933361D01*
X105006211Y-63933360D01*
X104977740Y-63877484D01*
X104923996Y-63772006D01*
X104910396Y-63753287D01*
X104817558Y-63625505D01*
X104817554Y-63625500D01*
X104689499Y-63497445D01*
X104689494Y-63497441D01*
X104542997Y-63391006D01*
X104542996Y-63391005D01*
X104542994Y-63391004D01*
X104466906Y-63352235D01*
X104381639Y-63308788D01*
X104381636Y-63308787D01*
X104209410Y-63252829D01*
X104030551Y-63224500D01*
X104030546Y-63224500D01*
X103849454Y-63224500D01*
X103849449Y-63224500D01*
X103670589Y-63252829D01*
X103498363Y-63308787D01*
X103498360Y-63308788D01*
X103337002Y-63391006D01*
X103190505Y-63497441D01*
X103190500Y-63497445D01*
X103062445Y-63625500D01*
X103062441Y-63625505D01*
X102956006Y-63772002D01*
X102873788Y-63933360D01*
X102873787Y-63933363D01*
X102817829Y-64105589D01*
X102796972Y-64237271D01*
X102767042Y-64300405D01*
X102707731Y-64337336D01*
X102637868Y-64336338D01*
X102579636Y-64297728D01*
X102551522Y-64233764D01*
X102550499Y-64217872D01*
X102550499Y-63480143D01*
X102550499Y-63480136D01*
X102548493Y-63462837D01*
X102547586Y-63455012D01*
X102547585Y-63455010D01*
X102547585Y-63455009D01*
X102502206Y-63352235D01*
X102422765Y-63272794D01*
X102396969Y-63261404D01*
X102319992Y-63227415D01*
X102294865Y-63224500D01*
X100505143Y-63224500D01*
X100505117Y-63224502D01*
X100480012Y-63227413D01*
X100480008Y-63227415D01*
X100377235Y-63272793D01*
X100297794Y-63352234D01*
X100252415Y-63455006D01*
X100252415Y-63455008D01*
X100249500Y-63480131D01*
X99700500Y-63480131D01*
X99700500Y-60159448D01*
X101879500Y-60159448D01*
X101879500Y-60340551D01*
X101907829Y-60519410D01*
X101963787Y-60691636D01*
X101963788Y-60691639D01*
X102019664Y-60801300D01*
X102038806Y-60838868D01*
X102046006Y-60852997D01*
X102152441Y-60999494D01*
X102152445Y-60999499D01*
X102280500Y-61127554D01*
X102280505Y-61127558D01*
X102408287Y-61220396D01*
X102427006Y-61233996D01*
X102503094Y-61272765D01*
X102588360Y-61316211D01*
X102588363Y-61316212D01*
X102674476Y-61344191D01*
X102760591Y-61372171D01*
X102843429Y-61385291D01*
X102939449Y-61400500D01*
X102939454Y-61400500D01*
X103120551Y-61400500D01*
X103207259Y-61386765D01*
X103299409Y-61372171D01*
X103471639Y-61316211D01*
X103632994Y-61233996D01*
X103779501Y-61127553D01*
X103907553Y-60999501D01*
X104013996Y-60852994D01*
X104096211Y-60691639D01*
X104152171Y-60519409D01*
X104173358Y-60385639D01*
X104177527Y-60359321D01*
X104207456Y-60296186D01*
X104266768Y-60259255D01*
X104336630Y-60260253D01*
X104394863Y-60298863D01*
X104422473Y-60359321D01*
X104447829Y-60519410D01*
X104503787Y-60691636D01*
X104503788Y-60691639D01*
X104559664Y-60801300D01*
X104578806Y-60838868D01*
X104586006Y-60852997D01*
X104692441Y-60999494D01*
X104692445Y-60999499D01*
X104820500Y-61127554D01*
X104820505Y-61127558D01*
X104948287Y-61220396D01*
X104967006Y-61233996D01*
X105043094Y-61272765D01*
X105128360Y-61316211D01*
X105128363Y-61316212D01*
X105214476Y-61344191D01*
X105300591Y-61372171D01*
X105383429Y-61385291D01*
X105479449Y-61400500D01*
X105479454Y-61400500D01*
X105660551Y-61400500D01*
X105747259Y-61386765D01*
X105839409Y-61372171D01*
X106011639Y-61316211D01*
X106172994Y-61233996D01*
X106319501Y-61127553D01*
X106447553Y-60999501D01*
X106553996Y-60852994D01*
X106636211Y-60691639D01*
X106692171Y-60519409D01*
X106713358Y-60385639D01*
X106717527Y-60359321D01*
X106747456Y-60296186D01*
X106806768Y-60259255D01*
X106876630Y-60260253D01*
X106934863Y-60298863D01*
X106962473Y-60359321D01*
X106987829Y-60519410D01*
X107043787Y-60691636D01*
X107043788Y-60691639D01*
X107099664Y-60801300D01*
X107118806Y-60838868D01*
X107126006Y-60852997D01*
X107232441Y-60999494D01*
X107232445Y-60999499D01*
X107360500Y-61127554D01*
X107360505Y-61127558D01*
X107488287Y-61220396D01*
X107507006Y-61233996D01*
X107583094Y-61272765D01*
X107668360Y-61316211D01*
X107668363Y-61316212D01*
X107754476Y-61344191D01*
X107840591Y-61372171D01*
X107923429Y-61385291D01*
X108019449Y-61400500D01*
X108019454Y-61400500D01*
X108200551Y-61400500D01*
X108287259Y-61386765D01*
X108379409Y-61372171D01*
X108551639Y-61316211D01*
X108712994Y-61233996D01*
X108859501Y-61127553D01*
X108987553Y-60999501D01*
X109093996Y-60852994D01*
X109176211Y-60691639D01*
X109232171Y-60519409D01*
X109253027Y-60387729D01*
X109282956Y-60324595D01*
X109342267Y-60287663D01*
X109412130Y-60288661D01*
X109470363Y-60327271D01*
X109498477Y-60391234D01*
X109499500Y-60407127D01*
X109499500Y-61144856D01*
X109499502Y-61144882D01*
X109502413Y-61169987D01*
X109502415Y-61169991D01*
X109547793Y-61272764D01*
X109547794Y-61272765D01*
X109627235Y-61352206D01*
X109730009Y-61397585D01*
X109755135Y-61400500D01*
X111544864Y-61400499D01*
X111544879Y-61400497D01*
X111544882Y-61400497D01*
X111569987Y-61397586D01*
X111569988Y-61397585D01*
X111569991Y-61397585D01*
X111672765Y-61352206D01*
X111752206Y-61272765D01*
X111797585Y-61169991D01*
X111800500Y-61144865D01*
X111800499Y-59355136D01*
X111800497Y-59355117D01*
X111797586Y-59330012D01*
X111797585Y-59330010D01*
X111797585Y-59330009D01*
X111752206Y-59227235D01*
X111672765Y-59147794D01*
X111672763Y-59147793D01*
X111569992Y-59102415D01*
X111544865Y-59099500D01*
X109755143Y-59099500D01*
X109755117Y-59099502D01*
X109730012Y-59102413D01*
X109730008Y-59102415D01*
X109627235Y-59147793D01*
X109547794Y-59227234D01*
X109502415Y-59330006D01*
X109502415Y-59330008D01*
X109499500Y-59355131D01*
X109499500Y-60092871D01*
X109479815Y-60159910D01*
X109427011Y-60205665D01*
X109357853Y-60215609D01*
X109294297Y-60186584D01*
X109256523Y-60127806D01*
X109253027Y-60112269D01*
X109243690Y-60053321D01*
X109232171Y-59980591D01*
X109195175Y-59866728D01*
X109176212Y-59808363D01*
X109176211Y-59808360D01*
X109108050Y-59674589D01*
X109093996Y-59647006D01*
X109080396Y-59628287D01*
X108987558Y-59500505D01*
X108987554Y-59500500D01*
X108859499Y-59372445D01*
X108859494Y-59372441D01*
X108712997Y-59266006D01*
X108712996Y-59266005D01*
X108712994Y-59266004D01*
X108636906Y-59227235D01*
X108551639Y-59183788D01*
X108551636Y-59183787D01*
X108379410Y-59127829D01*
X108200551Y-59099500D01*
X108200546Y-59099500D01*
X108019454Y-59099500D01*
X108019449Y-59099500D01*
X107840589Y-59127829D01*
X107668363Y-59183787D01*
X107668360Y-59183788D01*
X107507002Y-59266006D01*
X107360505Y-59372441D01*
X107360500Y-59372445D01*
X107232445Y-59500500D01*
X107232441Y-59500505D01*
X107126006Y-59647002D01*
X107043788Y-59808360D01*
X107043787Y-59808363D01*
X106987829Y-59980589D01*
X106962473Y-60140678D01*
X106932544Y-60203813D01*
X106873232Y-60240744D01*
X106803369Y-60239746D01*
X106745137Y-60201136D01*
X106717527Y-60140678D01*
X106703690Y-60053321D01*
X106692171Y-59980591D01*
X106655175Y-59866728D01*
X106636212Y-59808363D01*
X106636211Y-59808360D01*
X106568050Y-59674589D01*
X106553996Y-59647006D01*
X106540396Y-59628287D01*
X106447558Y-59500505D01*
X106447554Y-59500500D01*
X106319499Y-59372445D01*
X106319494Y-59372441D01*
X106172997Y-59266006D01*
X106172996Y-59266005D01*
X106172994Y-59266004D01*
X106096906Y-59227235D01*
X106011639Y-59183788D01*
X106011636Y-59183787D01*
X105839410Y-59127829D01*
X105660551Y-59099500D01*
X105660546Y-59099500D01*
X105479454Y-59099500D01*
X105479449Y-59099500D01*
X105300589Y-59127829D01*
X105128363Y-59183787D01*
X105128360Y-59183788D01*
X104967002Y-59266006D01*
X104820505Y-59372441D01*
X104820500Y-59372445D01*
X104692445Y-59500500D01*
X104692441Y-59500505D01*
X104586006Y-59647002D01*
X104503788Y-59808360D01*
X104503787Y-59808363D01*
X104447829Y-59980589D01*
X104422473Y-60140678D01*
X104392544Y-60203813D01*
X104333232Y-60240744D01*
X104263369Y-60239746D01*
X104205137Y-60201136D01*
X104177527Y-60140678D01*
X104163690Y-60053321D01*
X104152171Y-59980591D01*
X104115175Y-59866728D01*
X104096212Y-59808363D01*
X104096211Y-59808360D01*
X104028050Y-59674589D01*
X104013996Y-59647006D01*
X104000396Y-59628287D01*
X103907558Y-59500505D01*
X103907554Y-59500500D01*
X103779499Y-59372445D01*
X103779494Y-59372441D01*
X103632997Y-59266006D01*
X103632996Y-59266005D01*
X103632994Y-59266004D01*
X103556906Y-59227235D01*
X103471639Y-59183788D01*
X103471636Y-59183787D01*
X103299410Y-59127829D01*
X103120551Y-59099500D01*
X103120546Y-59099500D01*
X102939454Y-59099500D01*
X102939449Y-59099500D01*
X102760589Y-59127829D01*
X102588363Y-59183787D01*
X102588360Y-59183788D01*
X102427002Y-59266006D01*
X102280505Y-59372441D01*
X102280500Y-59372445D01*
X102152445Y-59500500D01*
X102152441Y-59500505D01*
X102046006Y-59647002D01*
X101963788Y-59808360D01*
X101963787Y-59808363D01*
X101907829Y-59980589D01*
X101879500Y-60159448D01*
X99700500Y-60159448D01*
X99700500Y-58781692D01*
X99720185Y-58714653D01*
X99772989Y-58668898D01*
X99824500Y-58657692D01*
X116971975Y-58657692D01*
X117039014Y-58677377D01*
G37*
%TD.AperFunction*%
%TD*%
M02*
