%TF.GenerationSoftware,KiCad,Pcbnew,9.0.7*%
%TF.CreationDate,2026-03-23T23:57:09-07:00*%
%TF.ProjectId,drv8323-breakout,64727638-3332-4332-9d62-7265616b6f75,rev?*%
%TF.SameCoordinates,Original*%
%TF.FileFunction,Copper,L1,Top*%
%TF.FilePolarity,Positive*%
%FSLAX46Y46*%
G04 Gerber Fmt 4.6, Leading zero omitted, Abs format (unit mm)*
G04 Created by KiCad (PCBNEW 9.0.7) date 2026-03-23 23:57:09*
%MOMM*%
%LPD*%
G01*
G04 APERTURE LIST*
G04 Aperture macros list*
%AMRoundRect*
0 Rectangle with rounded corners*
0 $1 Rounding radius*
0 $2 $3 $4 $5 $6 $7 $8 $9 X,Y pos of 4 corners*
0 Add a 4 corners polygon primitive as box body*
4,1,4,$2,$3,$4,$5,$6,$7,$8,$9,$2,$3,0*
0 Add four circle primitives for the rounded corners*
1,1,$1+$1,$2,$3*
1,1,$1+$1,$4,$5*
1,1,$1+$1,$6,$7*
1,1,$1+$1,$8,$9*
0 Add four rect primitives between the rounded corners*
20,1,$1+$1,$2,$3,$4,$5,0*
20,1,$1+$1,$4,$5,$6,$7,0*
20,1,$1+$1,$6,$7,$8,$9,0*
20,1,$1+$1,$8,$9,$2,$3,0*%
G04 Aperture macros list end*
%TA.AperFunction,EtchedComponent*%
%ADD10C,0.000000*%
%TD*%
%TA.AperFunction,ComponentPad*%
%ADD11C,1.700000*%
%TD*%
%TA.AperFunction,ComponentPad*%
%ADD12R,1.700000X1.700000*%
%TD*%
%TA.AperFunction,SMDPad,CuDef*%
%ADD13RoundRect,0.250000X-0.650000X1.450000X-0.650000X-1.450000X0.650000X-1.450000X0.650000X1.450000X0*%
%TD*%
%TA.AperFunction,SMDPad,CuDef*%
%ADD14RoundRect,0.250000X0.337500X0.475000X-0.337500X0.475000X-0.337500X-0.475000X0.337500X-0.475000X0*%
%TD*%
%TA.AperFunction,SMDPad,CuDef*%
%ADD15RoundRect,0.249999X1.425001X-0.450001X1.425001X0.450001X-1.425001X0.450001X-1.425001X-0.450001X0*%
%TD*%
%TA.AperFunction,SMDPad,CuDef*%
%ADD16R,3.911600X1.498600*%
%TD*%
%TA.AperFunction,SMDPad,CuDef*%
%ADD17C,0.280000*%
%TD*%
%TA.AperFunction,SMDPad,CuDef*%
%ADD18RoundRect,0.250000X0.450000X-0.325000X0.450000X0.325000X-0.450000X0.325000X-0.450000X-0.325000X0*%
%TD*%
%TA.AperFunction,SMDPad,CuDef*%
%ADD19RoundRect,0.249999X-1.425001X0.450001X-1.425001X-0.450001X1.425001X-0.450001X1.425001X0.450001X0*%
%TD*%
%TA.AperFunction,TestPad*%
%ADD20C,1.500000*%
%TD*%
%TA.AperFunction,SMDPad,CuDef*%
%ADD21R,0.630000X0.650000*%
%TD*%
%TA.AperFunction,SMDPad,CuDef*%
%ADD22R,4.280270X4.459998*%
%TD*%
%TA.AperFunction,SMDPad,CuDef*%
%ADD23O,0.230000X0.599999*%
%TD*%
%TA.AperFunction,SMDPad,CuDef*%
%ADD24O,0.599999X0.230000*%
%TD*%
%TA.AperFunction,ComponentPad*%
%ADD25C,0.499999*%
%TD*%
%TA.AperFunction,HeatsinkPad*%
%ADD26R,4.150000X4.150000*%
%TD*%
%TA.AperFunction,SMDPad,CuDef*%
%ADD27RoundRect,0.250000X1.450000X0.650000X-1.450000X0.650000X-1.450000X-0.650000X1.450000X-0.650000X0*%
%TD*%
%TA.AperFunction,SMDPad,CuDef*%
%ADD28C,1.500000*%
%TD*%
%TA.AperFunction,SMDPad,CuDef*%
%ADD29RoundRect,0.250000X-0.475000X0.337500X-0.475000X-0.337500X0.475000X-0.337500X0.475000X0.337500X0*%
%TD*%
%TA.AperFunction,SMDPad,CuDef*%
%ADD30RoundRect,0.250000X-0.337500X-0.475000X0.337500X-0.475000X0.337500X0.475000X-0.337500X0.475000X0*%
%TD*%
%TA.AperFunction,ComponentPad*%
%ADD31RoundRect,0.250000X0.750000X-0.750000X0.750000X0.750000X-0.750000X0.750000X-0.750000X-0.750000X0*%
%TD*%
%TA.AperFunction,ComponentPad*%
%ADD32C,2.000000*%
%TD*%
%TA.AperFunction,ComponentPad*%
%ADD33C,1.950000*%
%TD*%
%TA.AperFunction,SMDPad,CuDef*%
%ADD34C,0.500000*%
%TD*%
%TA.AperFunction,SMDPad,CuDef*%
%ADD35RoundRect,0.250000X0.450000X-0.350000X0.450000X0.350000X-0.450000X0.350000X-0.450000X-0.350000X0*%
%TD*%
%TA.AperFunction,SMDPad,CuDef*%
%ADD36RoundRect,0.250000X-0.574524X-0.097227X-0.097227X-0.574524X0.574524X0.097227X0.097227X0.574524X0*%
%TD*%
%TA.AperFunction,ConnectorPad*%
%ADD37C,4.400000*%
%TD*%
%TA.AperFunction,ComponentPad*%
%ADD38C,2.600000*%
%TD*%
%TA.AperFunction,ViaPad*%
%ADD39C,0.600000*%
%TD*%
%TA.AperFunction,Conductor*%
%ADD40C,0.200000*%
%TD*%
%TA.AperFunction,Conductor*%
%ADD41C,0.800000*%
%TD*%
%TA.AperFunction,Conductor*%
%ADD42C,0.500000*%
%TD*%
G04 APERTURE END LIST*
D10*
%TA.AperFunction,EtchedComponent*%
%TO.C,NT4*%
G36*
X129172000Y-65778000D02*
G01*
X128892000Y-65778000D01*
X128892000Y-64778000D01*
X129172000Y-64778000D01*
X129172000Y-65778000D01*
G37*
%TD.AperFunction*%
%TA.AperFunction,EtchedComponent*%
%TO.C,NT6*%
G36*
X129172000Y-91940000D02*
G01*
X128892000Y-91940000D01*
X128892000Y-90940000D01*
X129172000Y-90940000D01*
X129172000Y-91940000D01*
G37*
%TD.AperFunction*%
%TA.AperFunction,EtchedComponent*%
%TO.C,NT2*%
G36*
X116478710Y-69814355D02*
G01*
X115478710Y-69814355D01*
X115478710Y-69314355D01*
X116478710Y-69314355D01*
X116478710Y-69814355D01*
G37*
%TD.AperFunction*%
%TA.AperFunction,EtchedComponent*%
%TO.C,NT5*%
G36*
X129172000Y-76700000D02*
G01*
X128892000Y-76700000D01*
X128892000Y-75700000D01*
X129172000Y-75700000D01*
X129172000Y-76700000D01*
G37*
%TD.AperFunction*%
%TD*%
D11*
%TO.P,J7,6,Pin_6*%
%TO.N,PWM_LC*%
X104000000Y-80540000D03*
%TO.P,J7,5,Pin_5*%
%TO.N,PWM_HC*%
X101460000Y-80540000D03*
%TO.P,J7,4,Pin_4*%
%TO.N,PWM_LB*%
X104000000Y-78000000D03*
%TO.P,J7,3,Pin_3*%
%TO.N,PWM_HB*%
X101460000Y-78000000D03*
%TO.P,J7,2,Pin_2*%
%TO.N,PWM_LA*%
X104000000Y-75460000D03*
D12*
%TO.P,J7,1,Pin_1*%
%TO.N,PWM_HA*%
X101460000Y-75460000D03*
%TD*%
D13*
%TO.P,TP1,1,1*%
%TO.N,MOT_A*%
X142000000Y-93500000D03*
%TD*%
D14*
%TO.P,C8,1*%
%TO.N,V_MOT*%
X131205000Y-73250000D03*
%TO.P,C8,2*%
%TO.N,PGND*%
X129130000Y-73250000D03*
%TD*%
D15*
%TO.P,R4,1*%
%TO.N,/Motor Control/SPB*%
X129000000Y-81550000D03*
%TO.P,R4,2*%
%TO.N,PGND*%
X129000000Y-75450000D03*
%TD*%
D16*
%TO.P,C1,1*%
%TO.N,V_MOT*%
X117152900Y-89000000D03*
%TO.P,C1,2*%
%TO.N,PGND*%
X108847100Y-89000000D03*
%TD*%
D17*
%TO.P,NT4,1,1*%
%TO.N,PGND*%
X129032000Y-65778000D03*
%TO.P,NT4,2,2*%
%TO.N,/Motor Control/SNC*%
X129032000Y-64778000D03*
%TD*%
D18*
%TO.P,D1,1,K*%
%TO.N,AGND*%
X107696000Y-71383000D03*
%TO.P,D1,2,A*%
%TO.N,VCC*%
X107696000Y-69333000D03*
%TD*%
D14*
%TO.P,C4,1*%
%TO.N,V_MOT*%
X117000000Y-81750000D03*
%TO.P,C4,2*%
%TO.N,PGND*%
X114925000Y-81750000D03*
%TD*%
D13*
%TO.P,TP2,1,1*%
%TO.N,MOT_B*%
X142000000Y-82500000D03*
%TD*%
D19*
%TO.P,R3,1*%
%TO.N,/Motor Control/SPA*%
X129032000Y-86356000D03*
%TO.P,R3,2*%
%TO.N,PGND*%
X129032000Y-92456000D03*
%TD*%
D12*
%TO.P,J2,1,Pin_1*%
%TO.N,SPI_MISO*%
X110650000Y-60250000D03*
D11*
%TO.P,J2,2,Pin_2*%
%TO.N,SPI_MOSI*%
X108110000Y-60250000D03*
%TO.P,J2,3,Pin_3*%
%TO.N,SPI_CLK*%
X105570000Y-60250000D03*
%TO.P,J2,4,Pin_4*%
%TO.N,SPI_CS*%
X103030000Y-60250000D03*
%TD*%
D20*
%TO.P,TP4,1,1*%
%TO.N,SNSC*%
X123698000Y-62738000D03*
%TD*%
D21*
%TO.P,U2,1,S*%
%TO.N,/Motor Control/SPA*%
X133264928Y-85595000D03*
%TO.P,U2,2,S*%
X133264928Y-86865000D03*
%TO.P,U2,3,S*%
X133264928Y-88135000D03*
%TO.P,U2,4,G*%
%TO.N,Net-(U2-G)*%
X133264928Y-89405000D03*
%TO.P,U2,5,D*%
%TO.N,MOT_A*%
X138735072Y-89405000D03*
%TO.P,U2,6,D*%
X138735072Y-88135000D03*
%TO.P,U2,7,D*%
X138735072Y-86865000D03*
%TO.P,U2,8,D*%
X138735072Y-85595000D03*
D22*
%TO.P,U2,9,ep*%
X136594937Y-87500001D03*
%TD*%
D17*
%TO.P,NT6,1,1*%
%TO.N,PGND*%
X129032000Y-91940000D03*
%TO.P,NT6,2,2*%
%TO.N,/Motor Control/SNA*%
X129032000Y-90940000D03*
%TD*%
D14*
%TO.P,C9,1*%
%TO.N,V_MOT*%
X131450000Y-69000000D03*
%TO.P,C9,2*%
%TO.N,PGND*%
X129375000Y-69000000D03*
%TD*%
D12*
%TO.P,J1,1,Pin_1*%
%TO.N,NFLT*%
X101400000Y-64375000D03*
D11*
%TO.P,J1,2,Pin_2*%
%TO.N,MOT_EN*%
X103940000Y-64375000D03*
%TD*%
D23*
%TO.P,U7,1,CPL*%
%TO.N,Net-(U7-CPL)*%
X116064999Y-74214999D03*
%TO.P,U7,2,CPH*%
%TO.N,Net-(U7-CPH)*%
X116564998Y-74214999D03*
%TO.P,U7,3,VCP*%
%TO.N,Net-(U7-VCP)*%
X117065000Y-74214999D03*
%TO.P,U7,4,VM*%
%TO.N,V_MOT*%
X117564999Y-74214999D03*
%TO.P,U7,5,VDRAIN*%
X118065000Y-74214999D03*
%TO.P,U7,6,GHA*%
%TO.N,Net-(U1-G)*%
X118565000Y-74214999D03*
%TO.P,U7,7,SHA*%
%TO.N,MOT_A*%
X119064998Y-74214999D03*
%TO.P,U7,8,GLA*%
%TO.N,Net-(U2-G)*%
X119565000Y-74214999D03*
%TO.P,U7,9,SPA*%
%TO.N,/Motor Control/SPA*%
X120064999Y-74214999D03*
%TO.P,U7,10,SNA*%
%TO.N,/Motor Control/SNA*%
X120565001Y-74214999D03*
D24*
%TO.P,U7,11,SNB*%
%TO.N,/Motor Control/SNB*%
X121214999Y-73565001D03*
%TO.P,U7,12,SPB*%
%TO.N,/Motor Control/SPB*%
X121214999Y-73065002D03*
%TO.P,U7,13,GLB*%
%TO.N,Net-(U4-G)*%
X121214999Y-72565000D03*
%TO.P,U7,14,SHB*%
%TO.N,MOT_B*%
X121214999Y-72065001D03*
%TO.P,U7,15,GHB*%
%TO.N,Net-(U3-G)*%
X121214999Y-71565000D03*
%TO.P,U7,16,GHC*%
%TO.N,Net-(U5-G)*%
X121214999Y-71065000D03*
%TO.P,U7,17,SHC*%
%TO.N,MOT_C*%
X121214999Y-70565002D03*
%TO.P,U7,18,GLC*%
%TO.N,Net-(U6-G)*%
X121214999Y-70065000D03*
%TO.P,U7,19,SPC*%
%TO.N,/Motor Control/SPC*%
X121214999Y-69565001D03*
%TO.P,U7,20,SNC*%
%TO.N,/Motor Control/SNC*%
X121214999Y-69064999D03*
D23*
%TO.P,U7,21,SOC*%
%TO.N,SNSC*%
X120565001Y-68415001D03*
%TO.P,U7,22,SOB*%
%TO.N,SNSB*%
X120064999Y-68415001D03*
%TO.P,U7,23,SOA*%
%TO.N,SNSA*%
X119565000Y-68415001D03*
%TO.P,U7,24,VREF*%
%TO.N,VCC*%
X119064998Y-68415001D03*
%TO.P,U7,25,FAULT_N*%
%TO.N,NFLT*%
X118565000Y-68415001D03*
%TO.P,U7,26,MODE_SDO*%
%TO.N,SPI_MISO*%
X118065000Y-68415001D03*
%TO.P,U7,27,IDRIVE_SDI*%
%TO.N,SPI_MOSI*%
X117564999Y-68415001D03*
%TO.P,U7,28,VDS_SCLK*%
%TO.N,SPI_CLK*%
X117065000Y-68415001D03*
%TO.P,U7,29,GAIN_SCS_N*%
%TO.N,SPI_CS*%
X116564998Y-68415001D03*
%TO.P,U7,30,ENABLE*%
%TO.N,MOT_EN*%
X116064999Y-68415001D03*
D24*
%TO.P,U7,31,CAL*%
%TO.N,CAL*%
X115415001Y-69064999D03*
%TO.P,U7,32,AGND*%
%TO.N,AGND*%
X115415001Y-69565001D03*
%TO.P,U7,33,DVDD*%
%TO.N,VCC*%
X115415001Y-70065000D03*
%TO.P,U7,34,INHA*%
%TO.N,PWM_HA*%
X115415001Y-70565002D03*
%TO.P,U7,35,INLA*%
%TO.N,PWM_LA*%
X115415001Y-71065000D03*
%TO.P,U7,36,INHB*%
%TO.N,PWM_HB*%
X115415001Y-71565000D03*
%TO.P,U7,37,INLB*%
%TO.N,PWM_LB*%
X115415001Y-72065001D03*
%TO.P,U7,38,INHC*%
%TO.N,PWM_HC*%
X115415001Y-72565000D03*
%TO.P,U7,39,INLC*%
%TO.N,PWM_LC*%
X115415001Y-73065002D03*
%TO.P,U7,40,PGND*%
%TO.N,PGND*%
X115415001Y-73565001D03*
D25*
%TO.P,U7,41,PAD*%
X117630000Y-73140000D03*
X119000000Y-73140000D03*
X116490000Y-72000000D03*
X117630000Y-72000000D03*
X119000000Y-72000000D03*
X120140000Y-72000000D03*
D26*
X118315000Y-71315000D03*
D25*
X116490000Y-70630000D03*
X117630000Y-70630000D03*
X119000000Y-70630000D03*
X120140000Y-70630000D03*
X117630000Y-69490000D03*
X119000000Y-69490000D03*
%TD*%
D27*
%TO.P,TP13,1,1*%
%TO.N,V_MOT*%
X121620000Y-95570000D03*
%TD*%
D21*
%TO.P,U5,1,S*%
%TO.N,MOT_C*%
X133264928Y-66095000D03*
%TO.P,U5,2,S*%
X133264928Y-67365000D03*
%TO.P,U5,3,S*%
X133264928Y-68635000D03*
%TO.P,U5,4,G*%
%TO.N,Net-(U5-G)*%
X133264928Y-69905000D03*
%TO.P,U5,5,D*%
%TO.N,V_MOT*%
X138735072Y-69905000D03*
%TO.P,U5,6,D*%
X138735072Y-68635000D03*
%TO.P,U5,7,D*%
X138735072Y-67365000D03*
%TO.P,U5,8,D*%
X138735072Y-66095000D03*
D22*
%TO.P,U5,9,ep*%
X136594937Y-68000001D03*
%TD*%
D28*
%TO.P,TP14,1,1*%
%TO.N,VCC*%
X115062000Y-60706000D03*
%TD*%
D21*
%TO.P,U4,1,S*%
%TO.N,/Motor Control/SPB*%
X133264928Y-79094999D03*
%TO.P,U4,2,S*%
X133264928Y-80364999D03*
%TO.P,U4,3,S*%
X133264928Y-81634999D03*
%TO.P,U4,4,G*%
%TO.N,Net-(U4-G)*%
X133264928Y-82904999D03*
%TO.P,U4,5,D*%
%TO.N,MOT_B*%
X138735072Y-82904999D03*
%TO.P,U4,6,D*%
X138735072Y-81634999D03*
%TO.P,U4,7,D*%
X138735072Y-80364999D03*
%TO.P,U4,8,D*%
X138735072Y-79094999D03*
D22*
%TO.P,U4,9,ep*%
X136594937Y-81000000D03*
%TD*%
D28*
%TO.P,TP12,1,1*%
%TO.N,PWM_LC*%
X109425000Y-80455000D03*
%TD*%
D29*
%TO.P,C2,1*%
%TO.N,AGND*%
X112550000Y-68332500D03*
%TO.P,C2,2*%
%TO.N,VCC*%
X112550000Y-70407500D03*
%TD*%
D28*
%TO.P,TP11,1,1*%
%TO.N,PWM_HC*%
X107250000Y-79075000D03*
%TD*%
D20*
%TO.P,TP6,1,1*%
%TO.N,SNSA*%
X118618000Y-62738000D03*
%TD*%
D28*
%TO.P,TP8,1,1*%
%TO.N,PWM_LA*%
X109425000Y-74935000D03*
%TD*%
D30*
%TO.P,C7,1*%
%TO.N,PGND*%
X129425000Y-95000000D03*
%TO.P,C7,2*%
%TO.N,V_MOT*%
X131500000Y-95000000D03*
%TD*%
D19*
%TO.P,R2,1*%
%TO.N,/Motor Control/SPC*%
X129000000Y-59950000D03*
%TO.P,R2,2*%
%TO.N,PGND*%
X129000000Y-66050000D03*
%TD*%
D31*
%TO.P,J3,1,Pin_1*%
%TO.N,MOT_A*%
X144500000Y-78045000D03*
D32*
%TO.P,J3,2,Pin_2*%
%TO.N,MOT_B*%
X144500000Y-75505000D03*
%TO.P,J3,3,Pin_3*%
%TO.N,MOT_C*%
X144500000Y-72965000D03*
%TD*%
D12*
%TO.P,J4,1,Pin_1*%
%TO.N,SNSA*%
X118110000Y-59944000D03*
D11*
%TO.P,J4,2,Pin_2*%
%TO.N,SNSB*%
X120650000Y-59944000D03*
%TO.P,J4,3,Pin_3*%
%TO.N,SNSC*%
X123190000Y-59944000D03*
%TD*%
D33*
%TO.P,J5,1,Pin_1*%
%TO.N,PGND*%
X103000000Y-91960000D03*
%TO.P,J5,2,Pin_2*%
%TO.N,V_MOT*%
X103000000Y-94500000D03*
%TD*%
D34*
%TO.P,NT2,1,1*%
%TO.N,PGND*%
X116478710Y-69564355D03*
%TO.P,NT2,2,2*%
%TO.N,AGND*%
X115478710Y-69564355D03*
%TD*%
D21*
%TO.P,U6,1,S*%
%TO.N,/Motor Control/SPC*%
X133264928Y-59595000D03*
%TO.P,U6,2,S*%
X133264928Y-60865000D03*
%TO.P,U6,3,S*%
X133264928Y-62135000D03*
%TO.P,U6,4,G*%
%TO.N,Net-(U6-G)*%
X133264928Y-63405000D03*
%TO.P,U6,5,D*%
%TO.N,MOT_C*%
X138735072Y-63405000D03*
%TO.P,U6,6,D*%
X138735072Y-62135000D03*
%TO.P,U6,7,D*%
X138735072Y-60865000D03*
%TO.P,U6,8,D*%
X138735072Y-59595000D03*
D22*
%TO.P,U6,9,ep*%
X136594937Y-61500001D03*
%TD*%
D28*
%TO.P,TP10,1,1*%
%TO.N,PWM_LB*%
X109425000Y-77695000D03*
%TD*%
D17*
%TO.P,NT5,1,1*%
%TO.N,PGND*%
X129032000Y-75700000D03*
%TO.P,NT5,2,2*%
%TO.N,/Motor Control/SNB*%
X129032000Y-76700000D03*
%TD*%
D28*
%TO.P,TP15,1,1*%
%TO.N,CAL*%
X109075000Y-64575000D03*
%TD*%
D20*
%TO.P,TP7,1,1*%
%TO.N,PWM_HA*%
X107250000Y-73660000D03*
%TD*%
D14*
%TO.P,C5,1*%
%TO.N,V_MOT*%
X117000000Y-79600000D03*
%TO.P,C5,2*%
%TO.N,Net-(U7-VCP)*%
X114925000Y-79600000D03*
%TD*%
D13*
%TO.P,TP3,1,1*%
%TO.N,MOT_C*%
X142000000Y-67000000D03*
%TD*%
D20*
%TO.P,TP5,1,1*%
%TO.N,SNSB*%
X121158000Y-62738000D03*
%TD*%
D33*
%TO.P,J6,1,Pin_1*%
%TO.N,AGND*%
X103075000Y-68150000D03*
%TO.P,J6,2,Pin_2*%
%TO.N,VCC*%
X103075000Y-70690000D03*
%TD*%
D14*
%TO.P,C6,1*%
%TO.N,Net-(U7-CPH)*%
X116000000Y-76800000D03*
%TO.P,C6,2*%
%TO.N,Net-(U7-CPL)*%
X113925000Y-76800000D03*
%TD*%
D21*
%TO.P,U3,1,S*%
%TO.N,MOT_B*%
X138795009Y-76410001D03*
%TO.P,U3,2,S*%
X138795009Y-75140001D03*
%TO.P,U3,3,S*%
X138795009Y-73870001D03*
%TO.P,U3,4,G*%
%TO.N,Net-(U3-G)*%
X138795009Y-72600001D03*
%TO.P,U3,5,D*%
%TO.N,V_MOT*%
X133324865Y-72600001D03*
%TO.P,U3,6,D*%
X133324865Y-73870001D03*
%TO.P,U3,7,D*%
X133324865Y-75140001D03*
%TO.P,U3,8,D*%
X133324865Y-76410001D03*
D22*
%TO.P,U3,9,ep*%
X135465000Y-74505000D03*
%TD*%
D35*
%TO.P,R1,1*%
%TO.N,VCC*%
X110120000Y-70370000D03*
%TO.P,R1,2*%
%TO.N,NFLT*%
X110120000Y-68370000D03*
%TD*%
D36*
%TO.P,C3,1*%
%TO.N,AGND*%
X115932754Y-63257754D03*
%TO.P,C3,2*%
%TO.N,VCC*%
X117400000Y-64725000D03*
%TD*%
D21*
%TO.P,U1,1,S*%
%TO.N,MOT_A*%
X138735072Y-95905000D03*
%TO.P,U1,2,S*%
X138735072Y-94635000D03*
%TO.P,U1,3,S*%
X138735072Y-93365000D03*
%TO.P,U1,4,G*%
%TO.N,Net-(U1-G)*%
X138735072Y-92095000D03*
%TO.P,U1,5,D*%
%TO.N,V_MOT*%
X133264928Y-92095000D03*
%TO.P,U1,6,D*%
X133264928Y-93365000D03*
%TO.P,U1,7,D*%
X133264928Y-94635000D03*
%TO.P,U1,8,D*%
X133264928Y-95905000D03*
D22*
%TO.P,U1,9,ep*%
X135405063Y-93999999D03*
%TD*%
D28*
%TO.P,TP9,1,1*%
%TO.N,PWM_HB*%
X107250000Y-76315000D03*
%TD*%
D37*
%TO.P,REF\u002A\u002A,1*%
%TO.N,PGND*%
X146000000Y-95157192D03*
D38*
X146000000Y-95157192D03*
%TD*%
%TO.P,REF\u002A\u002A,1*%
%TO.N,N/C*%
X103000000Y-86657192D03*
D37*
%TO.N,PGND*%
X103000000Y-86657192D03*
%TD*%
%TO.P,REF\u002A\u002A,1*%
%TO.N,PGND*%
X146000000Y-61157192D03*
D38*
X146000000Y-61157192D03*
%TD*%
D39*
%TO.N,/Motor Control/SPB*%
X122175442Y-73293585D03*
X129000000Y-80250000D03*
%TO.N,V_MOT*%
X136520000Y-73330000D03*
X135539937Y-66815001D03*
X135405063Y-93999999D03*
X132100000Y-72610000D03*
X135465000Y-74505000D03*
X136594937Y-66815001D03*
X136460063Y-95184999D03*
X136594937Y-69165000D03*
X137649937Y-66815001D03*
X132500000Y-94000000D03*
X134410000Y-75690000D03*
X135539937Y-68000001D03*
X135465000Y-75690000D03*
X135465000Y-73340001D03*
X132150000Y-69970000D03*
X134350063Y-92814999D03*
X134410000Y-74505000D03*
X135405063Y-95164998D03*
X134350063Y-93999999D03*
X136460063Y-92814999D03*
X136460063Y-93999999D03*
X136594937Y-68000001D03*
X132080000Y-73450000D03*
X137649937Y-68000001D03*
X132500000Y-95640000D03*
X134350063Y-95174999D03*
X134410000Y-73320000D03*
X135539937Y-69175001D03*
X137649937Y-69185001D03*
X135405063Y-92814999D03*
X136520000Y-75690000D03*
X136520000Y-74505000D03*
X132120000Y-67980000D03*
%TO.N,VCC*%
X111430479Y-66686114D03*
X118750000Y-66300000D03*
%TO.N,AGND*%
X113600000Y-68975000D03*
X114850000Y-62425000D03*
%TO.N,PGND*%
X127700000Y-74130000D03*
X121500000Y-75000000D03*
X127750000Y-93750000D03*
X127700000Y-72680000D03*
X128000000Y-68000000D03*
X128000000Y-69500000D03*
X127750000Y-95250000D03*
X127200000Y-73430000D03*
X113825000Y-75125000D03*
X125730000Y-60000000D03*
X128000000Y-68750000D03*
X127750000Y-94500000D03*
X112350000Y-76775000D03*
X114850000Y-74175000D03*
X125730000Y-61722000D03*
X123000000Y-80500000D03*
X131500000Y-84000000D03*
%TO.N,NFLT*%
X109980000Y-67160000D03*
X117475583Y-66080824D03*
%TO.N,/Motor Control/SNC*%
X129032000Y-64770000D03*
X127000000Y-63246000D03*
%TO.N,/Motor Control/SNB*%
X129032001Y-76700000D03*
X123000000Y-73500000D03*
%TO.N,/Motor Control/SNA*%
X126000000Y-85000000D03*
X129031998Y-90940000D03*
%TD*%
D40*
%TO.N,MOT_B*%
X137725010Y-77480000D02*
X138795009Y-76410001D01*
X131300000Y-77480000D02*
X137725010Y-77480000D01*
X131300000Y-74970000D02*
X131300000Y-77480000D01*
X130110000Y-73780000D02*
X131300000Y-74970000D01*
X130110000Y-72160000D02*
X130110000Y-73780000D01*
X121570000Y-72070000D02*
X121640000Y-72140000D01*
X130090000Y-72140000D02*
X130110000Y-72160000D01*
X121219998Y-72070000D02*
X121570000Y-72070000D01*
X121214999Y-72065001D02*
X121219998Y-72070000D01*
X121640000Y-72140000D02*
X130090000Y-72140000D01*
%TO.N,/Motor Control/SPA*%
X120064999Y-80064999D02*
X127500000Y-87500000D01*
X120064999Y-74214999D02*
X120064999Y-80064999D01*
X129355000Y-85595000D02*
X129000000Y-85950000D01*
X129000000Y-87000000D02*
X129000000Y-85950000D01*
X128500000Y-87500000D02*
X129000000Y-87000000D01*
X133264928Y-85595000D02*
X129355000Y-85595000D01*
X127500000Y-87500000D02*
X128500000Y-87500000D01*
%TO.N,/Motor Control/SPC*%
X121214999Y-69565001D02*
X121571395Y-69565001D01*
X129355000Y-59595000D02*
X129000000Y-59950000D01*
X129000000Y-62136396D02*
X129000000Y-59950000D01*
X133264928Y-59595000D02*
X129355000Y-59595000D01*
X121571395Y-69565001D02*
X129000000Y-62136396D01*
%TO.N,/Motor Control/SPB*%
X129000000Y-81550000D02*
X129000000Y-80250000D01*
X121946859Y-73065002D02*
X122175442Y-73293585D01*
X121214999Y-73065002D02*
X121946859Y-73065002D01*
%TO.N,CAL*%
X115415001Y-69064999D02*
X115415001Y-68540001D01*
X111506112Y-64631112D02*
X109468888Y-64631112D01*
X115415001Y-68540001D02*
X111506112Y-64631112D01*
X109468888Y-64631112D02*
X108925000Y-65175000D01*
%TO.N,MOT_A*%
X127160000Y-89150000D02*
X131667928Y-89150000D01*
X134013938Y-90081000D02*
X136594937Y-87500001D01*
X119064998Y-74214999D02*
X119064998Y-81054998D01*
X119064998Y-81054998D02*
X127160000Y-89150000D01*
X131667928Y-89150000D02*
X132598928Y-90081000D01*
X132598928Y-90081000D02*
X134013938Y-90081000D01*
%TO.N,MOT_C*%
X136594937Y-64500000D02*
X136594937Y-61500001D01*
X122074998Y-70565002D02*
X122400000Y-70240000D01*
X121214999Y-70565002D02*
X122074998Y-70565002D01*
X122400000Y-70240000D02*
X130463000Y-70240000D01*
X132000000Y-66690000D02*
X132000000Y-65000000D01*
X132000000Y-65000000D02*
X132500000Y-64500000D01*
X130463000Y-70240000D02*
X130511500Y-70191500D01*
X130511500Y-68178500D02*
X132000000Y-66690000D01*
X132500000Y-64500000D02*
X136594937Y-64500000D01*
X130511500Y-70191500D02*
X130511500Y-68178500D01*
%TO.N,V_MOT*%
X118076000Y-78103662D02*
X118065000Y-78114662D01*
X118065000Y-75885338D02*
X118076000Y-75896338D01*
X117564999Y-74214999D02*
X117564999Y-77978267D01*
X118065000Y-74214999D02*
X118065000Y-75885338D01*
X137896198Y-66933874D02*
X138735072Y-66095000D01*
X117000000Y-78543266D02*
X117000000Y-81750000D01*
X118076000Y-75896338D02*
X118076000Y-78103662D01*
X117564999Y-77978267D02*
X117000000Y-78543266D01*
X118065000Y-78114662D02*
X118065000Y-83500000D01*
%TO.N,PWM_HC*%
X114676368Y-72565000D02*
X115415001Y-72565000D01*
X101225000Y-80540000D02*
X102465000Y-79300000D01*
X110900000Y-78025000D02*
X110900000Y-76341368D01*
X110900000Y-76341368D02*
X114676368Y-72565000D01*
X109625000Y-79300000D02*
X110900000Y-78025000D01*
X102465000Y-79300000D02*
X109625000Y-79300000D01*
%TO.N,PWM_HA*%
X114129368Y-70565002D02*
X115415001Y-70565002D01*
X111067956Y-73625000D02*
X114078956Y-70614000D01*
X101225000Y-75460000D02*
X103060000Y-73625000D01*
X103060000Y-73625000D02*
X111067956Y-73625000D01*
X114078956Y-70614000D02*
X114080370Y-70614000D01*
X114080370Y-70614000D02*
X114129368Y-70565002D01*
%TO.N,PWM_LC*%
X111350000Y-78975000D02*
X111350000Y-76550000D01*
X114834998Y-73065002D02*
X115415001Y-73065002D01*
X103765000Y-80540000D02*
X109785000Y-80540000D01*
X111350000Y-76550000D02*
X114834998Y-73065002D01*
X109785000Y-80540000D02*
X111350000Y-78975000D01*
%TO.N,PWM_LA*%
X110116766Y-75214000D02*
X114265766Y-71065000D01*
X114265766Y-71065000D02*
X115415001Y-71065000D01*
X103765000Y-75460000D02*
X104011000Y-75214000D01*
X104011000Y-75214000D02*
X110116766Y-75214000D01*
%TO.N,SNSA*%
X118110000Y-62230000D02*
X119565000Y-63685000D01*
X119565000Y-63685000D02*
X119565000Y-68415001D01*
X118110000Y-59944000D02*
X118110000Y-62230000D01*
%TO.N,PWM_LB*%
X109076104Y-77426104D02*
X109458208Y-77044000D01*
X109458208Y-77044000D02*
X109560972Y-77044000D01*
X114539971Y-72065001D02*
X115415001Y-72065001D01*
X109375000Y-77725000D02*
X109076104Y-77426104D01*
X109560972Y-77044000D02*
X114539971Y-72065001D01*
X104040000Y-77725000D02*
X109375000Y-77725000D01*
X103765000Y-78000000D02*
X104040000Y-77725000D01*
%TO.N,PWM_HB*%
X107315000Y-76250000D02*
X109718576Y-76250000D01*
X106866221Y-76698779D02*
X107250000Y-76315000D01*
X101225000Y-78000000D02*
X102526221Y-76698779D01*
X109718576Y-76250000D02*
X114403576Y-71565000D01*
X102526221Y-76698779D02*
X106866221Y-76698779D01*
X114403576Y-71565000D02*
X115415001Y-71565000D01*
X107250000Y-76315000D02*
X107315000Y-76250000D01*
%TO.N,SNSB*%
X120050000Y-67402000D02*
X120050000Y-68400002D01*
X120050000Y-68400002D02*
X120064999Y-68415001D01*
X120650000Y-59944000D02*
X121158000Y-60452000D01*
X121158000Y-60452000D02*
X121158000Y-62738000D01*
X121158000Y-66294000D02*
X120050000Y-67402000D01*
X121158000Y-62738000D02*
X121158000Y-66294000D01*
%TO.N,SNSC*%
X120565001Y-68156999D02*
X122936000Y-65786000D01*
X123190000Y-61722000D02*
X123190000Y-59944000D01*
X123698000Y-62230000D02*
X123190000Y-61722000D01*
X123698000Y-62738000D02*
X123698000Y-62230000D01*
X120565001Y-68415001D02*
X120565001Y-68156999D01*
X122936000Y-65786000D02*
X122936000Y-63500000D01*
X122936000Y-63500000D02*
X123698000Y-62738000D01*
%TO.N,VCC*%
X107366575Y-69417424D02*
X107696001Y-69087998D01*
X111430479Y-66686114D02*
X111320000Y-66796593D01*
X115415001Y-70065000D02*
X112892499Y-70065000D01*
X117400000Y-64950000D02*
X117400000Y-64725000D01*
X111612456Y-66588076D02*
X111528517Y-66588076D01*
D41*
X108458000Y-69088000D02*
X109777498Y-70407498D01*
D40*
X111320000Y-66796593D02*
X111320000Y-69155000D01*
X103110000Y-70650000D02*
X103000000Y-70540000D01*
X119064998Y-68415001D02*
X119064998Y-66614998D01*
D41*
X107188002Y-69087998D02*
X107696001Y-69087998D01*
X109777498Y-70407498D02*
X112550001Y-70407498D01*
D40*
X117400000Y-64750000D02*
X117400000Y-64725000D01*
X117400000Y-63044000D02*
X117400000Y-64725000D01*
X111662456Y-66638076D02*
X111612456Y-66588076D01*
X111528517Y-66588076D02*
X111430479Y-66686114D01*
X111320000Y-69155000D02*
X109900000Y-70575000D01*
D41*
X103110000Y-70650000D02*
X105626000Y-70650000D01*
D40*
X112892499Y-70065000D02*
X112550001Y-70407498D01*
X119064998Y-66614998D02*
X118750000Y-66300000D01*
X115062000Y-60706000D02*
X117400000Y-63044000D01*
D41*
X105626000Y-70650000D02*
X107188002Y-69087998D01*
X107696000Y-69088000D02*
X108458000Y-69088000D01*
D40*
X118750000Y-66300000D02*
X117400000Y-64950000D01*
%TO.N,MOT_EN*%
X111024998Y-63375000D02*
X104900000Y-63375000D01*
X116064999Y-68415001D02*
X111024998Y-63375000D01*
X104900000Y-63375000D02*
X103900000Y-64375000D01*
%TO.N,SPI_CLK*%
X117065000Y-68415001D02*
X117065000Y-67864206D01*
X111200794Y-62000000D02*
X107420000Y-62000000D01*
X117065000Y-67864206D02*
X111200794Y-62000000D01*
X107420000Y-62000000D02*
X105420000Y-60000000D01*
%TO.N,SPI_CS*%
X116564998Y-68415001D02*
X116564998Y-68064998D01*
X116564998Y-68064998D02*
X111425000Y-62925000D01*
X111425000Y-62925000D02*
X105805000Y-62925000D01*
X105805000Y-62925000D02*
X102880000Y-60000000D01*
%TO.N,SPI_MOSI*%
X111288190Y-61451000D02*
X109449000Y-61451000D01*
X109385000Y-61425000D02*
X108000000Y-60040000D01*
X117564999Y-68415001D02*
X117564999Y-67727809D01*
X109449000Y-61451000D02*
X109449000Y-61425000D01*
X109449000Y-61425000D02*
X109385000Y-61425000D01*
X117564999Y-67727809D02*
X111288190Y-61451000D01*
%TO.N,SPI_MISO*%
X110500000Y-60025000D02*
X110500000Y-60000000D01*
X118065000Y-67590000D02*
X110500000Y-60025000D01*
X118065000Y-68415001D02*
X118065000Y-67590000D01*
%TO.N,AGND*%
X115682754Y-63257754D02*
X114850000Y-62425000D01*
X112375000Y-68575000D02*
X113365001Y-69565001D01*
X113365001Y-69565001D02*
X115415001Y-69565001D01*
X112375000Y-68575000D02*
X112375000Y-68650000D01*
X115932754Y-63257754D02*
X115682754Y-63257754D01*
D42*
%TO.N,NFLT*%
X118565000Y-67170241D02*
X117475583Y-66080824D01*
X104820000Y-67320000D02*
X109820000Y-67320000D01*
D40*
X109875000Y-67265000D02*
X109980000Y-67160000D01*
D42*
X109820000Y-67320000D02*
X109980000Y-67160000D01*
X101500000Y-64000000D02*
X104820000Y-67320000D01*
D40*
X109875000Y-68650000D02*
X109875000Y-67265000D01*
X118565000Y-68415001D02*
X118565000Y-67170241D01*
%TO.N,/Motor Control/SNC*%
X121214999Y-69064999D02*
X127000000Y-63279998D01*
X127000000Y-63279998D02*
X127000000Y-63246000D01*
%TO.N,/Motor Control/SNB*%
X121650998Y-74001000D02*
X122499000Y-74001000D01*
X122499000Y-74001000D02*
X123000000Y-73500000D01*
X121214999Y-73565001D02*
X121650998Y-74001000D01*
%TO.N,/Motor Control/SNA*%
X120565001Y-79565001D02*
X126000000Y-85000000D01*
X120565001Y-74214999D02*
X120565001Y-79565001D01*
%TO.N,Net-(U7-VCP)*%
X117065000Y-77840456D02*
X115438210Y-79467246D01*
X117065000Y-74214999D02*
X117065000Y-77840456D01*
X115438210Y-79467246D02*
X114782754Y-79467246D01*
%TO.N,Net-(U7-CPH)*%
X116530999Y-74248998D02*
X116530999Y-76269001D01*
X116530999Y-76269001D02*
X116000000Y-76800000D01*
X116564998Y-74214999D02*
X116530999Y-74248998D01*
%TO.N,Net-(U7-CPL)*%
X114000000Y-76800000D02*
X113925000Y-76800000D01*
X116064999Y-74214999D02*
X116064999Y-74735001D01*
X116064999Y-74735001D02*
X114000000Y-76800000D01*
D42*
%TO.N,Net-(U1-G)*%
X137290072Y-90650000D02*
X131230761Y-90650000D01*
X138735072Y-92095000D02*
X137290072Y-90650000D01*
X118565000Y-81365000D02*
X118565000Y-74920000D01*
X131230761Y-90650000D02*
X130450761Y-89870000D01*
X127070000Y-89870000D02*
X118565000Y-81365000D01*
D40*
X118565000Y-74920000D02*
X118565000Y-74214999D01*
D42*
X130450761Y-89870000D02*
X127070000Y-89870000D01*
%TO.N,Net-(U2-G)*%
X133264928Y-89405000D02*
X132459928Y-88600000D01*
D40*
X119565000Y-74910000D02*
X119565000Y-74214999D01*
D42*
X119565000Y-80701396D02*
X119565000Y-74910000D01*
X132459928Y-88600000D02*
X127463604Y-88600000D01*
X127463604Y-88600000D02*
X119565000Y-80701396D01*
D40*
%TO.N,Net-(U3-G)*%
X122695000Y-71565000D02*
X122730000Y-71600000D01*
D42*
X138795009Y-72590001D02*
X137805008Y-71600000D01*
X137805008Y-71600000D02*
X122730000Y-71600000D01*
D40*
X121214999Y-71565000D02*
X122695000Y-71565000D01*
D42*
X138795009Y-72600001D02*
X138795009Y-72590001D01*
%TO.N,Net-(U4-G)*%
X123905000Y-80495000D02*
X123905000Y-73095000D01*
X133264928Y-82904999D02*
X126314999Y-82904999D01*
D40*
X121214999Y-72565000D02*
X123375000Y-72565000D01*
X123375000Y-72565000D02*
X123905000Y-73095000D01*
D42*
X126314999Y-82904999D02*
X123905000Y-80495000D01*
%TO.N,Net-(U5-G)*%
X132289928Y-70890000D02*
X122470000Y-70890000D01*
X133264928Y-69905000D02*
X133264928Y-69915000D01*
D40*
X122295000Y-71065000D02*
X122470000Y-70890000D01*
X121214999Y-71065000D02*
X122295000Y-71065000D01*
D42*
X133264928Y-69915000D02*
X132289928Y-70890000D01*
D40*
%TO.N,Net-(U6-G)*%
X121845000Y-70065000D02*
X122170000Y-69740000D01*
D42*
X132439928Y-62580000D02*
X129330000Y-62580000D01*
X129330000Y-62580000D02*
X122170000Y-69740000D01*
X133264928Y-63405000D02*
X132439928Y-62580000D01*
D40*
X121214999Y-70065000D02*
X121845000Y-70065000D01*
%TD*%
%TA.AperFunction,Conductor*%
%TO.N,PGND*%
G36*
X146130189Y-92962972D02*
G01*
X146171356Y-92967610D01*
X146361337Y-92989014D01*
X146375041Y-92991343D01*
X146408073Y-92998883D01*
X146408074Y-92998883D01*
X146601820Y-93043104D01*
X146615170Y-93046949D01*
X146834758Y-93123787D01*
X146847579Y-93129098D01*
X147023804Y-93213963D01*
X147057155Y-93230024D01*
X147069324Y-93236749D01*
X147266286Y-93360509D01*
X147266290Y-93360511D01*
X147277627Y-93368555D01*
X147287013Y-93376040D01*
X147459498Y-93513593D01*
X147469866Y-93522859D01*
X147634331Y-93687324D01*
X147643597Y-93697692D01*
X147788637Y-93879565D01*
X147796684Y-93890906D01*
X147842492Y-93963810D01*
X147842500Y-93963821D01*
X147886787Y-94023934D01*
X147886791Y-94023939D01*
X147910582Y-94051680D01*
X147963265Y-94104633D01*
X148084305Y-94182420D01*
X148084310Y-94182422D01*
X148084315Y-94182425D01*
X148113028Y-94195537D01*
X148147438Y-94211252D01*
X148147849Y-94211441D01*
X148147858Y-94211443D01*
X148147861Y-94211445D01*
X148147864Y-94211447D01*
X148285917Y-94251981D01*
X148375500Y-94251980D01*
X148442538Y-94271664D01*
X148488294Y-94324467D01*
X148499500Y-94375980D01*
X148499500Y-95938363D01*
X148479815Y-96005402D01*
X148427011Y-96051157D01*
X148376767Y-96062356D01*
X148329535Y-96062839D01*
X148314844Y-96062989D01*
X148245795Y-96073638D01*
X148245794Y-96073638D01*
X148108175Y-96115575D01*
X148108172Y-96115577D01*
X147987931Y-96194595D01*
X147987930Y-96194596D01*
X147987924Y-96194600D01*
X147937898Y-96238849D01*
X147936354Y-96240148D01*
X147935592Y-96240887D01*
X147842482Y-96350585D01*
X147796677Y-96423484D01*
X147788631Y-96434823D01*
X147788630Y-96434825D01*
X147643597Y-96616690D01*
X147634331Y-96627058D01*
X147469866Y-96791523D01*
X147459498Y-96800789D01*
X147277624Y-96945829D01*
X147266285Y-96953875D01*
X147193377Y-96999687D01*
X147193370Y-96999692D01*
X147133257Y-97043979D01*
X147105510Y-97067775D01*
X147052560Y-97120455D01*
X146974772Y-97241496D01*
X146974762Y-97241514D01*
X146946004Y-97304488D01*
X146945751Y-97305037D01*
X146905211Y-97443109D01*
X146905212Y-97532691D01*
X146885528Y-97599730D01*
X146832725Y-97645486D01*
X146781212Y-97656692D01*
X145218827Y-97656692D01*
X145151788Y-97637007D01*
X145106033Y-97584203D01*
X145094833Y-97533957D01*
X145094820Y-97532691D01*
X145094202Y-97472048D01*
X145083554Y-97402995D01*
X145041613Y-97265364D01*
X144962596Y-97145124D01*
X144918730Y-97095530D01*
X144916779Y-97093189D01*
X144806605Y-96999675D01*
X144806603Y-96999674D01*
X144733715Y-96953876D01*
X144722373Y-96945829D01*
X144540500Y-96800789D01*
X144530132Y-96791523D01*
X144365667Y-96627058D01*
X144356401Y-96616690D01*
X144211366Y-96434823D01*
X144203321Y-96423485D01*
X144079557Y-96226515D01*
X144072832Y-96214346D01*
X144005070Y-96073638D01*
X143971911Y-96004785D01*
X143966593Y-95991944D01*
X143889758Y-95772363D01*
X143885911Y-95759011D01*
X143834149Y-95532225D01*
X143831821Y-95518517D01*
X143805780Y-95287386D01*
X143805000Y-95273503D01*
X143805000Y-95040878D01*
X143805780Y-95026995D01*
X143831821Y-94795864D01*
X143834150Y-94782155D01*
X143885914Y-94555356D01*
X143889755Y-94542026D01*
X143966592Y-94322439D01*
X143971905Y-94309610D01*
X144072838Y-94100021D01*
X144079559Y-94087861D01*
X144203324Y-93890891D01*
X144211355Y-93879572D01*
X144356404Y-93697685D01*
X144365653Y-93687337D01*
X144530145Y-93522845D01*
X144540493Y-93513596D01*
X144722380Y-93368547D01*
X144733699Y-93360516D01*
X144930671Y-93236749D01*
X144942829Y-93230030D01*
X145152418Y-93129097D01*
X145165247Y-93123784D01*
X145384834Y-93046947D01*
X145398164Y-93043106D01*
X145624967Y-92991341D01*
X145638668Y-92989013D01*
X145869804Y-92962971D01*
X145883687Y-92962192D01*
X146116307Y-92962192D01*
X146130189Y-92962972D01*
G37*
%TD.AperFunction*%
%TA.AperFunction,Conductor*%
G36*
X124010703Y-87589674D02*
G01*
X124017181Y-87595706D01*
X126731985Y-90310510D01*
X126826085Y-90364838D01*
X126857515Y-90382984D01*
X126997525Y-90420500D01*
X128423759Y-90420500D01*
X128490798Y-90440185D01*
X128536553Y-90492989D01*
X128546497Y-90562147D01*
X128531146Y-90606499D01*
X128472424Y-90708209D01*
X128472421Y-90708216D01*
X128431498Y-90860943D01*
X128431498Y-91019057D01*
X128455874Y-91110027D01*
X128472421Y-91171783D01*
X128472424Y-91171790D01*
X128551473Y-91308709D01*
X128551477Y-91308714D01*
X128551478Y-91308716D01*
X128663282Y-91420520D01*
X128663284Y-91420521D01*
X128663288Y-91420524D01*
X128800207Y-91499573D01*
X128800214Y-91499577D01*
X128952941Y-91540500D01*
X128952943Y-91540500D01*
X129111053Y-91540500D01*
X129111055Y-91540500D01*
X129263782Y-91499577D01*
X129400714Y-91420520D01*
X129512518Y-91308716D01*
X129591575Y-91171784D01*
X129632498Y-91019057D01*
X129632498Y-90860943D01*
X129591575Y-90708216D01*
X129591571Y-90708209D01*
X129532850Y-90606499D01*
X129516377Y-90538599D01*
X129539230Y-90472572D01*
X129594151Y-90429382D01*
X129640237Y-90420500D01*
X130171374Y-90420500D01*
X130238413Y-90440185D01*
X130259055Y-90456819D01*
X130892747Y-91090510D01*
X130892749Y-91090511D01*
X130892753Y-91090514D01*
X130926544Y-91110023D01*
X130926547Y-91110024D01*
X130926552Y-91110027D01*
X131018276Y-91162984D01*
X131158286Y-91200500D01*
X131158287Y-91200500D01*
X131303236Y-91200500D01*
X132070500Y-91200500D01*
X132137539Y-91220185D01*
X132183294Y-91272989D01*
X132194500Y-91324500D01*
X132194500Y-93070500D01*
X132174815Y-93137539D01*
X132122011Y-93183294D01*
X132070500Y-93194500D01*
X130588374Y-93194500D01*
X130581646Y-93195248D01*
X130521197Y-93201976D01*
X130468017Y-93213963D01*
X130468009Y-93213965D01*
X130427726Y-93226010D01*
X130427725Y-93226011D01*
X130331681Y-93284132D01*
X130331680Y-93284133D01*
X130279559Y-93330682D01*
X130238065Y-93376034D01*
X130238059Y-93376044D01*
X130188683Y-93476865D01*
X130170005Y-93544196D01*
X130158922Y-93630442D01*
X130187995Y-95568640D01*
X130169318Y-95635967D01*
X130117206Y-95682509D01*
X130064009Y-95694500D01*
X129955350Y-95694500D01*
X129898323Y-95699871D01*
X129852828Y-95708517D01*
X129852822Y-95708518D01*
X129841135Y-95711900D01*
X129821466Y-95715899D01*
X129811458Y-95717101D01*
X129794686Y-95719115D01*
X129779906Y-95720000D01*
X129070096Y-95720000D01*
X129055312Y-95719115D01*
X129043495Y-95717696D01*
X129028535Y-95715899D01*
X129008862Y-95711899D01*
X128997184Y-95708520D01*
X128997177Y-95708518D01*
X128997172Y-95708517D01*
X128951683Y-95699872D01*
X128951681Y-95699871D01*
X128951677Y-95699871D01*
X128894648Y-95694500D01*
X128894645Y-95694500D01*
X126697542Y-95694500D01*
X126630503Y-95674815D01*
X126603394Y-95651198D01*
X123835352Y-92421814D01*
X123806669Y-92358103D01*
X123805500Y-92341116D01*
X123805500Y-87683387D01*
X123825185Y-87616348D01*
X123877989Y-87570593D01*
X123947147Y-87560649D01*
X124010703Y-87589674D01*
G37*
%TD.AperFunction*%
%TA.AperFunction,Conductor*%
G36*
X116468217Y-69004225D02*
G01*
X116475829Y-69006264D01*
X116510296Y-69015500D01*
X116510298Y-69015500D01*
X116619698Y-69015500D01*
X116619700Y-69015500D01*
X116655536Y-69005897D01*
X116661779Y-69004225D01*
X116693872Y-69000000D01*
X116936126Y-69000000D01*
X116968219Y-69004225D01*
X116975831Y-69006264D01*
X117010298Y-69015500D01*
X117010300Y-69015500D01*
X117119700Y-69015500D01*
X117119702Y-69015500D01*
X117155538Y-69005897D01*
X117161781Y-69004225D01*
X117193874Y-69000000D01*
X117436125Y-69000000D01*
X117468218Y-69004225D01*
X117475830Y-69006264D01*
X117510297Y-69015500D01*
X117510299Y-69015500D01*
X117619699Y-69015500D01*
X117619701Y-69015500D01*
X117655537Y-69005897D01*
X117661780Y-69004225D01*
X117693873Y-69000000D01*
X117936126Y-69000000D01*
X117968219Y-69004225D01*
X117975831Y-69006264D01*
X118010298Y-69015500D01*
X118010300Y-69015500D01*
X118119700Y-69015500D01*
X118119702Y-69015500D01*
X118155538Y-69005897D01*
X118161781Y-69004225D01*
X118193874Y-69000000D01*
X118436126Y-69000000D01*
X118468219Y-69004225D01*
X118475831Y-69006264D01*
X118510298Y-69015500D01*
X118510300Y-69015500D01*
X118619700Y-69015500D01*
X118619702Y-69015500D01*
X118655538Y-69005897D01*
X118661781Y-69004225D01*
X118693874Y-69000000D01*
X118936124Y-69000000D01*
X118968217Y-69004225D01*
X118975829Y-69006264D01*
X119010296Y-69015500D01*
X119010298Y-69015500D01*
X119119698Y-69015500D01*
X119119700Y-69015500D01*
X119155536Y-69005897D01*
X119161779Y-69004225D01*
X119193872Y-69000000D01*
X119436126Y-69000000D01*
X119468219Y-69004225D01*
X119475831Y-69006264D01*
X119510298Y-69015500D01*
X119510300Y-69015500D01*
X119619700Y-69015500D01*
X119619702Y-69015500D01*
X119655538Y-69005897D01*
X119661781Y-69004225D01*
X119693874Y-69000000D01*
X119936125Y-69000000D01*
X119968218Y-69004225D01*
X119975830Y-69006264D01*
X120010297Y-69015500D01*
X120010299Y-69015500D01*
X120119699Y-69015500D01*
X120119701Y-69015500D01*
X120155537Y-69005897D01*
X120161780Y-69004225D01*
X120193873Y-69000000D01*
X120436127Y-69000000D01*
X120468220Y-69004225D01*
X120485007Y-69008723D01*
X120510299Y-69015500D01*
X120510300Y-69015500D01*
X120518149Y-69017603D01*
X120517652Y-69019456D01*
X120571927Y-69043459D01*
X120610406Y-69101778D01*
X120613467Y-69115846D01*
X120642816Y-69225377D01*
X120642818Y-69225380D01*
X120658765Y-69253002D01*
X120675236Y-69320902D01*
X120658765Y-69376998D01*
X120642818Y-69404619D01*
X120642816Y-69404622D01*
X120642116Y-69407235D01*
X120614500Y-69510299D01*
X120614500Y-69510301D01*
X120614500Y-69619700D01*
X120614499Y-69619700D01*
X120642816Y-69725378D01*
X120658764Y-69753001D01*
X120675235Y-69820902D01*
X120658765Y-69876997D01*
X120642817Y-69904620D01*
X120642816Y-69904621D01*
X120635535Y-69931795D01*
X120614500Y-70010298D01*
X120614500Y-70010299D01*
X120614500Y-70010300D01*
X120614500Y-70119699D01*
X120614499Y-70119699D01*
X120642816Y-70225378D01*
X120642818Y-70225381D01*
X120658765Y-70253003D01*
X120675236Y-70320903D01*
X120658765Y-70376999D01*
X120642818Y-70404620D01*
X120642816Y-70404623D01*
X120636136Y-70429555D01*
X120614500Y-70510300D01*
X120614500Y-70510301D01*
X120614500Y-70510302D01*
X120614500Y-70619701D01*
X120614499Y-70619701D01*
X120642816Y-70725379D01*
X120658764Y-70753002D01*
X120675235Y-70820903D01*
X120658764Y-70877000D01*
X120642816Y-70904622D01*
X120641362Y-70910048D01*
X120614500Y-71010298D01*
X120614500Y-71010299D01*
X120614500Y-71010300D01*
X120614500Y-71119699D01*
X120614499Y-71119699D01*
X120642817Y-71225379D01*
X120658764Y-71253001D01*
X120675235Y-71320902D01*
X120658764Y-71376999D01*
X120642817Y-71404620D01*
X120642816Y-71404622D01*
X120642816Y-71404623D01*
X120614500Y-71510298D01*
X120614500Y-71510300D01*
X120614500Y-71619699D01*
X120614499Y-71619699D01*
X120614500Y-71619701D01*
X120614500Y-71619702D01*
X120642816Y-71725377D01*
X120658764Y-71752999D01*
X120675237Y-71820899D01*
X120658765Y-71876998D01*
X120642818Y-71904619D01*
X120642816Y-71904622D01*
X120629298Y-71955072D01*
X120614500Y-72010299D01*
X120614500Y-72010300D01*
X120614500Y-72010301D01*
X120614500Y-72119700D01*
X120614499Y-72119700D01*
X120642816Y-72225378D01*
X120658764Y-72253001D01*
X120675235Y-72320902D01*
X120658765Y-72376997D01*
X120642817Y-72404620D01*
X120642816Y-72404621D01*
X120638536Y-72420595D01*
X120614500Y-72510298D01*
X120614500Y-72510299D01*
X120614500Y-72510300D01*
X120614500Y-72619699D01*
X120614499Y-72619699D01*
X120642816Y-72725378D01*
X120642818Y-72725381D01*
X120658765Y-72753003D01*
X120675236Y-72820903D01*
X120658765Y-72876999D01*
X120642818Y-72904620D01*
X120642816Y-72904623D01*
X120630500Y-72950587D01*
X120614500Y-73010300D01*
X120614500Y-73010301D01*
X120614500Y-73010302D01*
X120614500Y-73119701D01*
X120614499Y-73119701D01*
X120642816Y-73225379D01*
X120658764Y-73253002D01*
X120675235Y-73320903D01*
X120668899Y-73354551D01*
X120664949Y-73366287D01*
X120642816Y-73404624D01*
X120614500Y-73510299D01*
X120614500Y-73516196D01*
X120609381Y-73531408D01*
X120595987Y-73550561D01*
X120586529Y-73571942D01*
X120576337Y-73578664D01*
X120569342Y-73588668D01*
X120547716Y-73597541D01*
X120528203Y-73610412D01*
X120514143Y-73613470D01*
X120404622Y-73642816D01*
X120404619Y-73642818D01*
X120376998Y-73658765D01*
X120309098Y-73675236D01*
X120253002Y-73658765D01*
X120225380Y-73642818D01*
X120225377Y-73642816D01*
X120196293Y-73635023D01*
X120119701Y-73614500D01*
X120010297Y-73614500D01*
X119946892Y-73631489D01*
X119904620Y-73642816D01*
X119904619Y-73642817D01*
X119876996Y-73658765D01*
X119809096Y-73675235D01*
X119753000Y-73658764D01*
X119725377Y-73642816D01*
X119725378Y-73642816D01*
X119696294Y-73635023D01*
X119619702Y-73614500D01*
X119510298Y-73614500D01*
X119446893Y-73631489D01*
X119404621Y-73642816D01*
X119404618Y-73642818D01*
X119376997Y-73658765D01*
X119309097Y-73675236D01*
X119253001Y-73658765D01*
X119225379Y-73642818D01*
X119225376Y-73642816D01*
X119196292Y-73635023D01*
X119119700Y-73614500D01*
X119010296Y-73614500D01*
X118933704Y-73635023D01*
X118904620Y-73642816D01*
X118876998Y-73658764D01*
X118809097Y-73675235D01*
X118753000Y-73658764D01*
X118725377Y-73642816D01*
X118725378Y-73642816D01*
X118696294Y-73635023D01*
X118619702Y-73614500D01*
X118510298Y-73614500D01*
X118404623Y-73642816D01*
X118404622Y-73642816D01*
X118404620Y-73642817D01*
X118376999Y-73658764D01*
X118309098Y-73675235D01*
X118253001Y-73658764D01*
X118225379Y-73642817D01*
X118225378Y-73642816D01*
X118225377Y-73642816D01*
X118119702Y-73614500D01*
X118010298Y-73614500D01*
X117946893Y-73631489D01*
X117904621Y-73642816D01*
X117904618Y-73642818D01*
X117876997Y-73658765D01*
X117809097Y-73675236D01*
X117752999Y-73658764D01*
X117725376Y-73642816D01*
X117619701Y-73614500D01*
X117510297Y-73614500D01*
X117446892Y-73631489D01*
X117404620Y-73642816D01*
X117404619Y-73642817D01*
X117376996Y-73658765D01*
X117309096Y-73675235D01*
X117253000Y-73658764D01*
X117225377Y-73642816D01*
X117225378Y-73642816D01*
X117196294Y-73635023D01*
X117119702Y-73614500D01*
X117010298Y-73614500D01*
X116946893Y-73631489D01*
X116904621Y-73642816D01*
X116904618Y-73642818D01*
X116876997Y-73658765D01*
X116809097Y-73675236D01*
X116753001Y-73658765D01*
X116725379Y-73642818D01*
X116725376Y-73642816D01*
X116696292Y-73635023D01*
X116619700Y-73614500D01*
X116510296Y-73614500D01*
X116446891Y-73631489D01*
X116404619Y-73642816D01*
X116404618Y-73642817D01*
X116376995Y-73658765D01*
X116309095Y-73675235D01*
X116252999Y-73658764D01*
X116225376Y-73642816D01*
X116225377Y-73642816D01*
X116196293Y-73635023D01*
X116119701Y-73614500D01*
X116010297Y-73614500D01*
X115929109Y-73636254D01*
X115877409Y-73635023D01*
X115832521Y-73684403D01*
X115829984Y-73685908D01*
X115809879Y-73697515D01*
X115809873Y-73697520D01*
X115732519Y-73774874D01*
X115732517Y-73774877D01*
X115677815Y-73869623D01*
X115649499Y-73975298D01*
X115649499Y-73975300D01*
X115649499Y-74454700D01*
X115658317Y-74487609D01*
X115656654Y-74557459D01*
X115626223Y-74607383D01*
X114485270Y-75748336D01*
X114423947Y-75781821D01*
X114382806Y-75783771D01*
X114373940Y-75782706D01*
X114305602Y-75774500D01*
X113544398Y-75774500D01*
X113505353Y-75779188D01*
X113455938Y-75785122D01*
X113315156Y-75840639D01*
X113194577Y-75932077D01*
X113103139Y-76052656D01*
X113047622Y-76193438D01*
X113044496Y-76219475D01*
X113037000Y-76281898D01*
X113037000Y-77318102D01*
X113042626Y-77364954D01*
X113047622Y-77406561D01*
X113103139Y-77547343D01*
X113194577Y-77667922D01*
X113315156Y-77759360D01*
X113315157Y-77759360D01*
X113315158Y-77759361D01*
X113455936Y-77814877D01*
X113544398Y-77825500D01*
X113544403Y-77825500D01*
X114305597Y-77825500D01*
X114305602Y-77825500D01*
X114394064Y-77814877D01*
X114534842Y-77759361D01*
X114655422Y-77667922D01*
X114746861Y-77547342D01*
X114802377Y-77406564D01*
X114813000Y-77318102D01*
X114813000Y-76604753D01*
X114821644Y-76575312D01*
X114828168Y-76545326D01*
X114831922Y-76540310D01*
X114832685Y-76537714D01*
X114849315Y-76517076D01*
X114900320Y-76466071D01*
X114961642Y-76432587D01*
X115031334Y-76437571D01*
X115087267Y-76479443D01*
X115111684Y-76544907D01*
X115112000Y-76553753D01*
X115112000Y-77318102D01*
X115117626Y-77364954D01*
X115122622Y-77406561D01*
X115178139Y-77547343D01*
X115269577Y-77667922D01*
X115390156Y-77759360D01*
X115390157Y-77759360D01*
X115390158Y-77759361D01*
X115530936Y-77814877D01*
X115619398Y-77825500D01*
X115619403Y-77825500D01*
X116214200Y-77825500D01*
X116281239Y-77845185D01*
X116326994Y-77897989D01*
X116336938Y-77967147D01*
X116307913Y-78030703D01*
X116301881Y-78037181D01*
X115704328Y-78634733D01*
X115643005Y-78668218D01*
X115573313Y-78663234D01*
X115541722Y-78645856D01*
X115534843Y-78640639D01*
X115394061Y-78585122D01*
X115348426Y-78579642D01*
X115305602Y-78574500D01*
X114544398Y-78574500D01*
X114505353Y-78579188D01*
X114455938Y-78585122D01*
X114315156Y-78640639D01*
X114194577Y-78732077D01*
X114103139Y-78852656D01*
X114047622Y-78993438D01*
X114043505Y-79027725D01*
X114037000Y-79081898D01*
X114037000Y-80118102D01*
X114039570Y-80139500D01*
X114047622Y-80206561D01*
X114103139Y-80347343D01*
X114194577Y-80467922D01*
X114315156Y-80559360D01*
X114315157Y-80559360D01*
X114315158Y-80559361D01*
X114455936Y-80614877D01*
X114544398Y-80625500D01*
X114544403Y-80625500D01*
X115305597Y-80625500D01*
X115305602Y-80625500D01*
X115394064Y-80614877D01*
X115525010Y-80563237D01*
X115594597Y-80556957D01*
X115656533Y-80589294D01*
X115691154Y-80649983D01*
X115694500Y-80678593D01*
X115694500Y-83681700D01*
X115674815Y-83748739D01*
X115622011Y-83794494D01*
X115570500Y-83805700D01*
X107805700Y-83805700D01*
X107805700Y-88199900D01*
X110526500Y-88199900D01*
X110593539Y-88219585D01*
X110639294Y-88272389D01*
X110650500Y-88323900D01*
X110650500Y-89676100D01*
X110630815Y-89743139D01*
X110578011Y-89788894D01*
X110526500Y-89800100D01*
X107805700Y-89800100D01*
X107805700Y-93070500D01*
X107786015Y-93137539D01*
X107733211Y-93183294D01*
X107681700Y-93194500D01*
X99824500Y-93194500D01*
X99757461Y-93174815D01*
X99711706Y-93122011D01*
X99700500Y-93070500D01*
X99700500Y-86531230D01*
X101399500Y-86531230D01*
X101399500Y-86783153D01*
X101438910Y-87031977D01*
X101516760Y-87271575D01*
X101631132Y-87496040D01*
X101779201Y-87699841D01*
X101779205Y-87699846D01*
X101957345Y-87877986D01*
X101957350Y-87877990D01*
X102135117Y-88007144D01*
X102161155Y-88026062D01*
X102304184Y-88098939D01*
X102385616Y-88140431D01*
X102385618Y-88140431D01*
X102385621Y-88140433D01*
X102625215Y-88218282D01*
X102874038Y-88257692D01*
X102874039Y-88257692D01*
X103125961Y-88257692D01*
X103125962Y-88257692D01*
X103374785Y-88218282D01*
X103614379Y-88140433D01*
X103838845Y-88026062D01*
X104042656Y-87877985D01*
X104220793Y-87699848D01*
X104368870Y-87496037D01*
X104483241Y-87271571D01*
X104561090Y-87031977D01*
X104600500Y-86783154D01*
X104600500Y-86531230D01*
X104561090Y-86282407D01*
X104483241Y-86042813D01*
X104483239Y-86042810D01*
X104483239Y-86042808D01*
X104411248Y-85901519D01*
X104368870Y-85818347D01*
X104292023Y-85712576D01*
X104220798Y-85614542D01*
X104220794Y-85614537D01*
X104042654Y-85436397D01*
X104042649Y-85436393D01*
X103838848Y-85288324D01*
X103838847Y-85288323D01*
X103838845Y-85288322D01*
X103727881Y-85231783D01*
X103614383Y-85173952D01*
X103374785Y-85096102D01*
X103267168Y-85079057D01*
X103125962Y-85056692D01*
X102874038Y-85056692D01*
X102749626Y-85076397D01*
X102625214Y-85096102D01*
X102385616Y-85173952D01*
X102161151Y-85288324D01*
X101957350Y-85436393D01*
X101957345Y-85436397D01*
X101779205Y-85614537D01*
X101779201Y-85614542D01*
X101631132Y-85818343D01*
X101516760Y-86042808D01*
X101438910Y-86282406D01*
X101399500Y-86531230D01*
X99700500Y-86531230D01*
X99700500Y-83124000D01*
X99720185Y-83056961D01*
X99772989Y-83011206D01*
X99824500Y-83000000D01*
X105499999Y-83000000D01*
X105500000Y-83000000D01*
X107393260Y-80979708D01*
X107453464Y-80944253D01*
X107483739Y-80940500D01*
X108419696Y-80940500D01*
X108486735Y-80960185D01*
X108522797Y-80995608D01*
X108574487Y-81072968D01*
X108609024Y-81124657D01*
X108755342Y-81270975D01*
X108755345Y-81270977D01*
X108927402Y-81385941D01*
X109118580Y-81465130D01*
X109321530Y-81505499D01*
X109321534Y-81505500D01*
X109321535Y-81505500D01*
X109528466Y-81505500D01*
X109528467Y-81505499D01*
X109731420Y-81465130D01*
X109922598Y-81385941D01*
X110094655Y-81270977D01*
X110240977Y-81124655D01*
X110355941Y-80952598D01*
X110435130Y-80761420D01*
X110475500Y-80558465D01*
X110475500Y-80467255D01*
X110495185Y-80400216D01*
X110511819Y-80379574D01*
X111000416Y-79890977D01*
X111670480Y-79220913D01*
X111723207Y-79129588D01*
X111750500Y-79027727D01*
X111750500Y-78922273D01*
X111750500Y-76767255D01*
X111770185Y-76700216D01*
X111786819Y-76679574D01*
X114964572Y-73501821D01*
X114991499Y-73487117D01*
X115017318Y-73470525D01*
X115023518Y-73469633D01*
X115025895Y-73468336D01*
X115052253Y-73465502D01*
X115102994Y-73465502D01*
X115135087Y-73469727D01*
X115141438Y-73471428D01*
X115175300Y-73480502D01*
X115175302Y-73480502D01*
X115654699Y-73480502D01*
X115654702Y-73480502D01*
X115735891Y-73458747D01*
X115787588Y-73459977D01*
X115832479Y-73410597D01*
X115834973Y-73409117D01*
X115855123Y-73397484D01*
X115932482Y-73320125D01*
X115979067Y-73239436D01*
X115994888Y-73239532D01*
X115994939Y-73196436D01*
X116015500Y-73119704D01*
X116015500Y-73010300D01*
X115999498Y-72950581D01*
X115995275Y-72918352D01*
X115995526Y-72710410D01*
X115999749Y-72678482D01*
X116015500Y-72619702D01*
X116015500Y-72510298D01*
X116000098Y-72452820D01*
X115995875Y-72420595D01*
X115996131Y-72208157D01*
X116000355Y-72176222D01*
X116015500Y-72119703D01*
X116015500Y-72010299D01*
X116000698Y-71955059D01*
X115996475Y-71922837D01*
X115996737Y-71705889D01*
X116000960Y-71673963D01*
X116015500Y-71619702D01*
X116015500Y-71510298D01*
X116001299Y-71457301D01*
X115997075Y-71425068D01*
X115997342Y-71203631D01*
X116001566Y-71171700D01*
X116015500Y-71119702D01*
X116015500Y-71010298D01*
X116001900Y-70959546D01*
X115997676Y-70927310D01*
X115997948Y-70701378D01*
X116002172Y-70669442D01*
X116015500Y-70619704D01*
X116015500Y-70510300D01*
X116002499Y-70461783D01*
X115998276Y-70429555D01*
X115998554Y-70199109D01*
X116002777Y-70167182D01*
X116015500Y-70119702D01*
X116015500Y-70010298D01*
X116003099Y-69964019D01*
X115998876Y-69931795D01*
X115999077Y-69765455D01*
X116003300Y-69733526D01*
X116029210Y-69636830D01*
X116029210Y-69491880D01*
X116003783Y-69396987D01*
X115999560Y-69364758D01*
X115999765Y-69194587D01*
X116003988Y-69162663D01*
X116015500Y-69119701D01*
X116015500Y-69119699D01*
X116017604Y-69111848D01*
X116019455Y-69112344D01*
X116043466Y-69058063D01*
X116101789Y-69019590D01*
X116115842Y-69016533D01*
X116119698Y-69015500D01*
X116119701Y-69015500D01*
X116153688Y-69006392D01*
X116161780Y-69004225D01*
X116193873Y-69000000D01*
X116436124Y-69000000D01*
X116468217Y-69004225D01*
G37*
%TD.AperFunction*%
%TA.AperFunction,Conductor*%
G36*
X123238898Y-74069483D02*
G01*
X123268256Y-74070182D01*
X123273201Y-74073529D01*
X123279132Y-74074229D01*
X123301800Y-74092885D01*
X123326118Y-74109344D01*
X123328469Y-74114834D01*
X123333080Y-74118629D01*
X123342063Y-74146579D01*
X123353623Y-74173572D01*
X123354278Y-74184583D01*
X123354460Y-74185147D01*
X123354339Y-74185599D01*
X123354500Y-74188294D01*
X123354500Y-80567474D01*
X123377817Y-80654497D01*
X123392014Y-80707480D01*
X123392016Y-80707485D01*
X123464490Y-80833015D01*
X125976984Y-83345509D01*
X125976986Y-83345510D01*
X125976990Y-83345513D01*
X126076152Y-83402764D01*
X126076156Y-83402765D01*
X126089334Y-83410373D01*
X126102510Y-83417981D01*
X126102511Y-83417981D01*
X126102514Y-83417983D01*
X126242524Y-83455499D01*
X132699779Y-83455499D01*
X132766818Y-83475184D01*
X132769854Y-83477198D01*
X132777159Y-83482201D01*
X132777163Y-83482205D01*
X132879937Y-83527584D01*
X132905063Y-83530499D01*
X133391573Y-83530498D01*
X133458612Y-83550182D01*
X133504367Y-83602986D01*
X133515041Y-83651580D01*
X133515484Y-83651563D01*
X133515572Y-83653788D01*
X133520985Y-83725705D01*
X133526137Y-83760614D01*
X133526140Y-83760627D01*
X133541723Y-83831010D01*
X133541724Y-83831014D01*
X133551908Y-83853096D01*
X133552850Y-83855188D01*
X133554983Y-83860049D01*
X133574453Y-83917272D01*
X133591647Y-83943585D01*
X133595774Y-83952988D01*
X133598976Y-83977870D01*
X133606225Y-84001883D01*
X133603358Y-84011926D01*
X133604692Y-84022287D01*
X133593934Y-84044946D01*
X133590833Y-84055813D01*
X133593334Y-84056954D01*
X133529931Y-84195926D01*
X133510272Y-84262975D01*
X133510272Y-84262980D01*
X133489853Y-84405401D01*
X133489853Y-84405404D01*
X133489922Y-84575561D01*
X133470264Y-84642609D01*
X133417479Y-84688385D01*
X133366851Y-84699608D01*
X127552194Y-84743164D01*
X127489780Y-84743632D01*
X127433478Y-84749294D01*
X127433475Y-84749294D01*
X127433470Y-84749295D01*
X127388601Y-84758062D01*
X127358524Y-84765541D01*
X127358518Y-84765544D01*
X127258906Y-84817307D01*
X127258895Y-84817314D01*
X127203885Y-84860364D01*
X127203871Y-84860376D01*
X127159521Y-84902940D01*
X127159515Y-84902948D01*
X127103700Y-85000349D01*
X127080690Y-85066328D01*
X127064035Y-85151657D01*
X127064033Y-85151675D01*
X127026541Y-85901521D01*
X127032294Y-85977682D01*
X127044559Y-86037969D01*
X127051531Y-86061849D01*
X127056500Y-86096598D01*
X127056500Y-86190745D01*
X127036815Y-86257784D01*
X126984011Y-86303539D01*
X126914853Y-86313483D01*
X126851297Y-86284458D01*
X126844819Y-86278426D01*
X126278969Y-85712576D01*
X126245484Y-85651253D01*
X126250468Y-85581561D01*
X126292340Y-85525628D01*
X126304643Y-85517511D01*
X126368716Y-85480520D01*
X126480520Y-85368716D01*
X126559577Y-85231784D01*
X126600500Y-85079057D01*
X126600500Y-84920943D01*
X126559577Y-84768216D01*
X126548653Y-84749295D01*
X126480524Y-84631290D01*
X126480518Y-84631282D01*
X126368717Y-84519481D01*
X126368709Y-84519475D01*
X126231790Y-84440426D01*
X126231786Y-84440424D01*
X126231784Y-84440423D01*
X126079057Y-84399500D01*
X126079056Y-84399500D01*
X126017255Y-84399500D01*
X125950216Y-84379815D01*
X125929574Y-84363181D01*
X121001820Y-79435427D01*
X120968335Y-79374104D01*
X120965501Y-79347746D01*
X120965501Y-74527005D01*
X120969208Y-74514377D01*
X120969726Y-74494911D01*
X120974792Y-74476004D01*
X120980501Y-74454700D01*
X120980501Y-74196257D01*
X121000186Y-74129218D01*
X121052990Y-74083463D01*
X121122148Y-74073519D01*
X121185704Y-74102544D01*
X121192174Y-74108568D01*
X121198440Y-74114834D01*
X121326177Y-74242571D01*
X121326187Y-74242582D01*
X121405086Y-74321481D01*
X121433402Y-74337829D01*
X121466845Y-74357137D01*
X121466846Y-74357138D01*
X121496405Y-74374204D01*
X121496408Y-74374206D01*
X121496410Y-74374206D01*
X121496411Y-74374207D01*
X121598271Y-74401501D01*
X121598273Y-74401501D01*
X121711321Y-74401501D01*
X121711337Y-74401500D01*
X122551725Y-74401500D01*
X122551727Y-74401500D01*
X122653588Y-74374207D01*
X122744913Y-74321480D01*
X122929574Y-74136819D01*
X122990897Y-74103334D01*
X122996499Y-74102250D01*
X123006806Y-74100500D01*
X123079057Y-74100500D01*
X123204024Y-74067015D01*
X123209744Y-74066044D01*
X123238898Y-74069483D01*
G37*
%TD.AperFunction*%
%TA.AperFunction,Conductor*%
G36*
X129652539Y-72560185D02*
G01*
X129698294Y-72612989D01*
X129709500Y-72664500D01*
X129709500Y-73832726D01*
X129736793Y-73934589D01*
X129760297Y-73975298D01*
X129789520Y-74025913D01*
X129789522Y-74025915D01*
X130863181Y-75099574D01*
X130896666Y-75160897D01*
X130899500Y-75187255D01*
X130899500Y-77532727D01*
X130926793Y-77634587D01*
X130979520Y-77725913D01*
X131054087Y-77800480D01*
X131145413Y-77853207D01*
X131247273Y-77880500D01*
X131352727Y-77880500D01*
X133385756Y-77880500D01*
X133402643Y-77885458D01*
X133420246Y-77885393D01*
X133435472Y-77895098D01*
X133452795Y-77900185D01*
X133464320Y-77913486D01*
X133479165Y-77922948D01*
X133486727Y-77939344D01*
X133498550Y-77952989D01*
X133501103Y-77970515D01*
X133508427Y-77986395D01*
X133508559Y-78021689D01*
X133499321Y-78087689D01*
X133470533Y-78151352D01*
X133411897Y-78189346D01*
X133376518Y-78194500D01*
X124624000Y-78194500D01*
X124592751Y-78197859D01*
X124523995Y-78185454D01*
X124472858Y-78137843D01*
X124455500Y-78074570D01*
X124455500Y-76620943D01*
X128431501Y-76620943D01*
X128431501Y-76779057D01*
X128440489Y-76812598D01*
X128472424Y-76931783D01*
X128472427Y-76931790D01*
X128551476Y-77068709D01*
X128551480Y-77068714D01*
X128551481Y-77068716D01*
X128663285Y-77180520D01*
X128663287Y-77180521D01*
X128663291Y-77180524D01*
X128784493Y-77250499D01*
X128800217Y-77259577D01*
X128952944Y-77300500D01*
X128952946Y-77300500D01*
X129111056Y-77300500D01*
X129111058Y-77300500D01*
X129263785Y-77259577D01*
X129400717Y-77180520D01*
X129512521Y-77068716D01*
X129591578Y-76931784D01*
X129632501Y-76779057D01*
X129632501Y-76620943D01*
X129591578Y-76468216D01*
X129526135Y-76354864D01*
X129512525Y-76331290D01*
X129512519Y-76331282D01*
X129400718Y-76219481D01*
X129400710Y-76219475D01*
X129263791Y-76140426D01*
X129263787Y-76140424D01*
X129263785Y-76140423D01*
X129111058Y-76099500D01*
X128952944Y-76099500D01*
X128800217Y-76140423D01*
X128800210Y-76140426D01*
X128663291Y-76219475D01*
X128663283Y-76219481D01*
X128551482Y-76331282D01*
X128551476Y-76331290D01*
X128472427Y-76468209D01*
X128472424Y-76468216D01*
X128431501Y-76620943D01*
X124455500Y-76620943D01*
X124455500Y-73022527D01*
X124455500Y-73022525D01*
X124417984Y-72882515D01*
X124414799Y-72876999D01*
X124345511Y-72756988D01*
X124345506Y-72756982D01*
X124340705Y-72752181D01*
X124307220Y-72690858D01*
X124312204Y-72621166D01*
X124354076Y-72565233D01*
X124419540Y-72540816D01*
X124428386Y-72540500D01*
X129585500Y-72540500D01*
X129652539Y-72560185D01*
G37*
%TD.AperFunction*%
%TA.AperFunction,Conductor*%
G36*
X132227580Y-63150185D02*
G01*
X132248222Y-63166819D01*
X132613109Y-63531706D01*
X132646594Y-63593029D01*
X132649428Y-63619386D01*
X132649428Y-63774856D01*
X132649430Y-63774881D01*
X132652341Y-63799987D01*
X132652343Y-63799991D01*
X132690118Y-63885544D01*
X132690157Y-63885842D01*
X132690351Y-63886074D01*
X132694687Y-63920437D01*
X132699189Y-63954820D01*
X132699060Y-63955093D01*
X132699098Y-63955394D01*
X132684108Y-63986769D01*
X132669365Y-64018005D01*
X132669065Y-64018256D01*
X132668979Y-64018438D01*
X132665143Y-64021554D01*
X132641910Y-64041086D01*
X132640353Y-64042048D01*
X132593352Y-64069273D01*
X132585680Y-64075864D01*
X132577445Y-64080958D01*
X132552720Y-64087755D01*
X132529352Y-64098310D01*
X132512218Y-64099500D01*
X132447273Y-64099500D01*
X132345410Y-64126793D01*
X132319934Y-64141503D01*
X132254087Y-64179520D01*
X132254084Y-64179522D01*
X131679522Y-64754084D01*
X131679520Y-64754087D01*
X131626793Y-64845412D01*
X131607747Y-64916494D01*
X131607747Y-64916495D01*
X131607746Y-64916494D01*
X131599500Y-64947271D01*
X131599500Y-66472745D01*
X131579815Y-66539784D01*
X131563181Y-66560426D01*
X130191022Y-67932584D01*
X130191020Y-67932587D01*
X130138293Y-68023912D01*
X130123517Y-68079058D01*
X130123517Y-68079059D01*
X130123516Y-68079058D01*
X130111000Y-68125771D01*
X130111000Y-69715500D01*
X130091315Y-69782539D01*
X130038511Y-69828294D01*
X129987000Y-69839500D01*
X123148387Y-69839500D01*
X123081348Y-69819815D01*
X123035593Y-69767011D01*
X123025649Y-69697853D01*
X123054674Y-69634297D01*
X123060706Y-69627819D01*
X125633695Y-67054830D01*
X128263096Y-64425428D01*
X128324417Y-64391945D01*
X128394109Y-64396929D01*
X128450042Y-64438801D01*
X128474459Y-64504265D01*
X128470550Y-64545204D01*
X128448426Y-64627773D01*
X128431500Y-64690943D01*
X128431500Y-64849057D01*
X128457817Y-64947271D01*
X128472423Y-65001783D01*
X128472426Y-65001790D01*
X128551475Y-65138709D01*
X128551479Y-65138714D01*
X128551480Y-65138716D01*
X128663284Y-65250520D01*
X128663286Y-65250521D01*
X128663290Y-65250524D01*
X128800209Y-65329573D01*
X128800216Y-65329577D01*
X128952943Y-65370500D01*
X128952945Y-65370500D01*
X129111055Y-65370500D01*
X129111057Y-65370500D01*
X129263784Y-65329577D01*
X129400716Y-65250520D01*
X129512520Y-65138716D01*
X129591577Y-65001784D01*
X129632500Y-64849057D01*
X129632500Y-64690943D01*
X129591577Y-64538216D01*
X129553079Y-64471535D01*
X129512524Y-64401290D01*
X129512518Y-64401282D01*
X129400717Y-64289481D01*
X129400709Y-64289475D01*
X129263790Y-64210426D01*
X129263786Y-64210424D01*
X129263784Y-64210423D01*
X129111057Y-64169500D01*
X128952943Y-64169500D01*
X128807204Y-64208550D01*
X128737354Y-64206887D01*
X128679492Y-64167724D01*
X128651988Y-64103495D01*
X128663575Y-64034593D01*
X128687427Y-64001097D01*
X129521706Y-63166819D01*
X129583029Y-63133334D01*
X129609387Y-63130500D01*
X132160541Y-63130500D01*
X132227580Y-63150185D01*
G37*
%TD.AperFunction*%
%TA.AperFunction,Conductor*%
G36*
X127258089Y-58677377D02*
G01*
X127303844Y-58730181D01*
X127313788Y-58799339D01*
X127284763Y-58862895D01*
X127281269Y-58866759D01*
X127277451Y-58870807D01*
X127277445Y-58870816D01*
X127226560Y-58970890D01*
X127206876Y-59037923D01*
X127204971Y-59051174D01*
X127181039Y-59108444D01*
X127090639Y-59227655D01*
X127090637Y-59227660D01*
X127035123Y-59368433D01*
X127035123Y-59368435D01*
X127024500Y-59456897D01*
X127024500Y-59456901D01*
X127024500Y-59456902D01*
X127024500Y-60443096D01*
X127035123Y-60531564D01*
X127035124Y-60531568D01*
X127090637Y-60672339D01*
X127090640Y-60672345D01*
X127182076Y-60792923D01*
X127302654Y-60884359D01*
X127302657Y-60884361D01*
X127443435Y-60939877D01*
X127531897Y-60950500D01*
X128475500Y-60950499D01*
X128542539Y-60970183D01*
X128588294Y-61022987D01*
X128599500Y-61074499D01*
X128599500Y-61919140D01*
X128579815Y-61986179D01*
X128563181Y-62006821D01*
X127672458Y-62897543D01*
X127611135Y-62931028D01*
X127541443Y-62926044D01*
X127485510Y-62884172D01*
X127483701Y-62881430D01*
X127480518Y-62877282D01*
X127368717Y-62765481D01*
X127368709Y-62765475D01*
X127231790Y-62686426D01*
X127231786Y-62686424D01*
X127231784Y-62686423D01*
X127079057Y-62645500D01*
X126920943Y-62645500D01*
X126768216Y-62686423D01*
X126768209Y-62686426D01*
X126631290Y-62765475D01*
X126631282Y-62765481D01*
X126519481Y-62877282D01*
X126519475Y-62877290D01*
X126440426Y-63014209D01*
X126440423Y-63014216D01*
X126399500Y-63166943D01*
X126399500Y-63262743D01*
X126379815Y-63329782D01*
X126363181Y-63350424D01*
X123611681Y-66101924D01*
X123550358Y-66135409D01*
X123480666Y-66130425D01*
X123424733Y-66088553D01*
X123400316Y-66023089D01*
X123400000Y-66014243D01*
X123400000Y-63900899D01*
X123419685Y-63833860D01*
X123472489Y-63788105D01*
X123541647Y-63778161D01*
X123548192Y-63779282D01*
X123594532Y-63788500D01*
X123594535Y-63788500D01*
X123801466Y-63788500D01*
X123801467Y-63788499D01*
X124004420Y-63748130D01*
X124195598Y-63668941D01*
X124367655Y-63553977D01*
X124513977Y-63407655D01*
X124628941Y-63235598D01*
X124708130Y-63044420D01*
X124748500Y-62841465D01*
X124748500Y-62634535D01*
X124708130Y-62431580D01*
X124628941Y-62240402D01*
X124513977Y-62068345D01*
X124513975Y-62068342D01*
X124367657Y-61922024D01*
X124221700Y-61824500D01*
X124195598Y-61807059D01*
X124095983Y-61765797D01*
X124004420Y-61727870D01*
X124004412Y-61727868D01*
X123801469Y-61687500D01*
X123801465Y-61687500D01*
X123773255Y-61687500D01*
X123743814Y-61678855D01*
X123713828Y-61672332D01*
X123708812Y-61668577D01*
X123706216Y-61667815D01*
X123685574Y-61651181D01*
X123626819Y-61592426D01*
X123593334Y-61531103D01*
X123590500Y-61504745D01*
X123590500Y-61107159D01*
X123610185Y-61040120D01*
X123658202Y-60996675D01*
X123792994Y-60927996D01*
X123939501Y-60821553D01*
X124067553Y-60693501D01*
X124173996Y-60546994D01*
X124256211Y-60385639D01*
X124312171Y-60213409D01*
X124326765Y-60121259D01*
X124340500Y-60034551D01*
X124340500Y-59853448D01*
X124315830Y-59697696D01*
X124312171Y-59674591D01*
X124261269Y-59517928D01*
X124256212Y-59502363D01*
X124256211Y-59502360D01*
X124227740Y-59446484D01*
X124173996Y-59341006D01*
X124154883Y-59314699D01*
X124067558Y-59194505D01*
X124067554Y-59194500D01*
X123939499Y-59066445D01*
X123939494Y-59066441D01*
X123792997Y-58960006D01*
X123792996Y-58960005D01*
X123792994Y-58960004D01*
X123659877Y-58892177D01*
X123609081Y-58844202D01*
X123592286Y-58776381D01*
X123614824Y-58710246D01*
X123669539Y-58666795D01*
X123716172Y-58657692D01*
X127191050Y-58657692D01*
X127258089Y-58677377D01*
G37*
%TD.AperFunction*%
%TA.AperFunction,Conductor*%
G36*
X146789247Y-58660062D02*
G01*
X146797567Y-58658780D01*
X146822277Y-58669761D01*
X146848212Y-58677377D01*
X146853722Y-58683736D01*
X146861415Y-58687155D01*
X146876264Y-58709751D01*
X146893967Y-58730181D01*
X146896162Y-58740029D01*
X146899787Y-58745545D01*
X146905167Y-58780427D01*
X146905798Y-58842337D01*
X146916446Y-58911389D01*
X146958386Y-59049019D01*
X147037402Y-59169257D01*
X147037410Y-59169267D01*
X147081267Y-59218850D01*
X147083219Y-59221193D01*
X147193387Y-59314702D01*
X147193388Y-59314704D01*
X147235249Y-59341006D01*
X147257735Y-59355135D01*
X147266279Y-59360503D01*
X147277620Y-59368549D01*
X147445413Y-59502361D01*
X147459498Y-59513593D01*
X147469866Y-59522859D01*
X147634331Y-59687324D01*
X147643597Y-59697692D01*
X147788637Y-59879565D01*
X147796684Y-59890906D01*
X147842492Y-59963810D01*
X147842500Y-59963821D01*
X147886787Y-60023934D01*
X147886791Y-60023939D01*
X147910582Y-60051680D01*
X147963265Y-60104633D01*
X148084305Y-60182420D01*
X148084310Y-60182422D01*
X148084315Y-60182425D01*
X148113028Y-60195537D01*
X148147438Y-60211252D01*
X148147849Y-60211441D01*
X148147858Y-60211443D01*
X148147861Y-60211445D01*
X148147864Y-60211447D01*
X148285917Y-60251981D01*
X148375500Y-60251980D01*
X148442538Y-60271664D01*
X148488294Y-60324467D01*
X148499500Y-60375980D01*
X148499500Y-61938363D01*
X148479815Y-62005402D01*
X148427011Y-62051157D01*
X148376767Y-62062356D01*
X148329535Y-62062839D01*
X148314844Y-62062989D01*
X148245795Y-62073638D01*
X148245794Y-62073638D01*
X148108175Y-62115575D01*
X148108172Y-62115577D01*
X147987931Y-62194595D01*
X147987930Y-62194596D01*
X147987924Y-62194600D01*
X147937898Y-62238849D01*
X147936354Y-62240148D01*
X147935592Y-62240887D01*
X147842482Y-62350585D01*
X147796677Y-62423484D01*
X147788631Y-62434823D01*
X147788630Y-62434825D01*
X147643597Y-62616690D01*
X147634331Y-62627058D01*
X147469866Y-62791523D01*
X147459498Y-62800789D01*
X147277631Y-62945824D01*
X147266290Y-62953871D01*
X147069328Y-63077630D01*
X147057158Y-63084356D01*
X146964269Y-63129089D01*
X146847586Y-63185280D01*
X146834742Y-63190601D01*
X146615179Y-63267429D01*
X146601818Y-63271278D01*
X146375042Y-63323039D01*
X146361333Y-63325368D01*
X146245759Y-63338390D01*
X146130182Y-63351412D01*
X146116301Y-63352192D01*
X145883695Y-63352192D01*
X145869813Y-63351412D01*
X145638664Y-63325368D01*
X145624955Y-63323039D01*
X145398180Y-63271278D01*
X145384819Y-63267429D01*
X145165256Y-63190601D01*
X145152418Y-63185283D01*
X144942837Y-63084354D01*
X144930670Y-63077630D01*
X144733708Y-62953871D01*
X144722367Y-62945824D01*
X144540500Y-62800789D01*
X144530132Y-62791523D01*
X144365667Y-62627058D01*
X144356401Y-62616690D01*
X144211363Y-62434819D01*
X144203321Y-62423485D01*
X144079557Y-62226515D01*
X144072832Y-62214346D01*
X144040958Y-62148160D01*
X143971911Y-62004785D01*
X143966593Y-61991944D01*
X143889758Y-61772363D01*
X143885911Y-61759011D01*
X143834149Y-61532225D01*
X143831821Y-61518517D01*
X143805780Y-61287386D01*
X143805000Y-61273503D01*
X143805000Y-61040878D01*
X143805780Y-61026995D01*
X143815595Y-60939877D01*
X143831821Y-60795860D01*
X143834150Y-60782155D01*
X143839411Y-60759106D01*
X143885914Y-60555356D01*
X143889755Y-60542026D01*
X143966592Y-60322439D01*
X143971905Y-60309610D01*
X144072838Y-60100021D01*
X144079559Y-60087861D01*
X144203324Y-59890891D01*
X144211355Y-59879572D01*
X144356404Y-59697685D01*
X144365653Y-59687337D01*
X144530149Y-59522841D01*
X144540498Y-59513593D01*
X144722376Y-59368551D01*
X144733685Y-59360525D01*
X144806610Y-59314705D01*
X144866747Y-59270401D01*
X144894488Y-59246610D01*
X144947441Y-59193927D01*
X145025228Y-59072887D01*
X145054075Y-59009720D01*
X145054250Y-59009340D01*
X145054253Y-59009331D01*
X145054255Y-59009328D01*
X145094789Y-58871275D01*
X145094788Y-58781691D01*
X145114472Y-58714654D01*
X145167275Y-58668898D01*
X145218788Y-58657692D01*
X146781173Y-58657692D01*
X146789247Y-58660062D01*
G37*
%TD.AperFunction*%
%TD*%
%TA.AperFunction,Conductor*%
%TO.N,AGND*%
G36*
X117039014Y-58677377D02*
G01*
X117084769Y-58730181D01*
X117094713Y-58799339D01*
X117065688Y-58862895D01*
X117059656Y-58869373D01*
X117007794Y-58921234D01*
X116962415Y-59024006D01*
X116962415Y-59024008D01*
X116959500Y-59049131D01*
X116959500Y-60838856D01*
X116959502Y-60838882D01*
X116962413Y-60863987D01*
X116962415Y-60863991D01*
X117007793Y-60966764D01*
X117007794Y-60966765D01*
X117087235Y-61046206D01*
X117190009Y-61091585D01*
X117215135Y-61094500D01*
X117585500Y-61094499D01*
X117652539Y-61114183D01*
X117698294Y-61166987D01*
X117709500Y-61218499D01*
X117709500Y-62169201D01*
X117699536Y-62217903D01*
X117695008Y-62228505D01*
X117687059Y-62240402D01*
X117607870Y-62431580D01*
X117607513Y-62433372D01*
X117604206Y-62441117D01*
X117586104Y-62463083D01*
X117570497Y-62486879D01*
X117564174Y-62489695D01*
X117559772Y-62495038D01*
X117532671Y-62503730D01*
X117506674Y-62515312D01*
X117499831Y-62514263D01*
X117493241Y-62516377D01*
X117465742Y-62509037D01*
X117437611Y-62504725D01*
X117430252Y-62499564D01*
X117425735Y-62498359D01*
X117420788Y-62492928D01*
X117402489Y-62480096D01*
X116090497Y-61168104D01*
X116057012Y-61106781D01*
X116061996Y-61037089D01*
X116063619Y-61032966D01*
X116067441Y-61023741D01*
X116072130Y-61012420D01*
X116112500Y-60809465D01*
X116112500Y-60602535D01*
X116072130Y-60399580D01*
X115992941Y-60208402D01*
X115877977Y-60036345D01*
X115877975Y-60036342D01*
X115731657Y-59890024D01*
X115606310Y-59806271D01*
X115559598Y-59775059D01*
X115368420Y-59695870D01*
X115368412Y-59695868D01*
X115165469Y-59655500D01*
X115165465Y-59655500D01*
X114958535Y-59655500D01*
X114958530Y-59655500D01*
X114755587Y-59695868D01*
X114755579Y-59695870D01*
X114564403Y-59775058D01*
X114392342Y-59890024D01*
X114246024Y-60036342D01*
X114131058Y-60208403D01*
X114051870Y-60399579D01*
X114051868Y-60399587D01*
X114011500Y-60602530D01*
X114011500Y-60809469D01*
X114051868Y-61012412D01*
X114051870Y-61012420D01*
X114109462Y-61151460D01*
X114131059Y-61203598D01*
X114141016Y-61218500D01*
X114246024Y-61375657D01*
X114392342Y-61521975D01*
X114392345Y-61521977D01*
X114564402Y-61636941D01*
X114755580Y-61716130D01*
X114931005Y-61751024D01*
X114958530Y-61756499D01*
X114958534Y-61756500D01*
X114958535Y-61756500D01*
X115165466Y-61756500D01*
X115165467Y-61756499D01*
X115368420Y-61716130D01*
X115388967Y-61707618D01*
X115458435Y-61700147D01*
X115520915Y-61731420D01*
X115524104Y-61734497D01*
X116963181Y-63173574D01*
X116996666Y-63234897D01*
X116999500Y-63261255D01*
X116999500Y-63818316D01*
X116979815Y-63885355D01*
X116963181Y-63905997D01*
X116405744Y-64463433D01*
X116405735Y-64463443D01*
X116350694Y-64533507D01*
X116350691Y-64533511D01*
X116290406Y-64672302D01*
X116269800Y-64822226D01*
X116269800Y-64822228D01*
X116284314Y-64927831D01*
X116273941Y-64996927D01*
X116227859Y-65049445D01*
X116160698Y-65068713D01*
X116093782Y-65048612D01*
X116073788Y-65032396D01*
X114350181Y-63308789D01*
X111836818Y-60795425D01*
X111803333Y-60734102D01*
X111800499Y-60707744D01*
X111800499Y-59355143D01*
X111800499Y-59355136D01*
X111800497Y-59355117D01*
X111797586Y-59330012D01*
X111797585Y-59330010D01*
X111797585Y-59330009D01*
X111752206Y-59227235D01*
X111672765Y-59147794D01*
X111672763Y-59147793D01*
X111569992Y-59102415D01*
X111544865Y-59099500D01*
X109755143Y-59099500D01*
X109755117Y-59099502D01*
X109730012Y-59102413D01*
X109730008Y-59102415D01*
X109627235Y-59147793D01*
X109547794Y-59227234D01*
X109502415Y-59330006D01*
X109502415Y-59330008D01*
X109499500Y-59355131D01*
X109499500Y-60092868D01*
X109479815Y-60159907D01*
X109427011Y-60205662D01*
X109357853Y-60215606D01*
X109294297Y-60186581D01*
X109256523Y-60127803D01*
X109253027Y-60112266D01*
X109241685Y-60040664D01*
X109232171Y-59980591D01*
X109195175Y-59866728D01*
X109176212Y-59808363D01*
X109176211Y-59808360D01*
X109135454Y-59728372D01*
X109093996Y-59647006D01*
X109080396Y-59628287D01*
X108987558Y-59500505D01*
X108987554Y-59500500D01*
X108859499Y-59372445D01*
X108859494Y-59372441D01*
X108712997Y-59266006D01*
X108712996Y-59266005D01*
X108712994Y-59266004D01*
X108636906Y-59227235D01*
X108551639Y-59183788D01*
X108551636Y-59183787D01*
X108379410Y-59127829D01*
X108200551Y-59099500D01*
X108200546Y-59099500D01*
X108019454Y-59099500D01*
X108019449Y-59099500D01*
X107840589Y-59127829D01*
X107668363Y-59183787D01*
X107668360Y-59183788D01*
X107507002Y-59266006D01*
X107360505Y-59372441D01*
X107360500Y-59372445D01*
X107232445Y-59500500D01*
X107232441Y-59500505D01*
X107126006Y-59647002D01*
X107043788Y-59808360D01*
X107043787Y-59808363D01*
X106987829Y-59980589D01*
X106962473Y-60140678D01*
X106932544Y-60203813D01*
X106873232Y-60240744D01*
X106803369Y-60239746D01*
X106745137Y-60201136D01*
X106717527Y-60140678D01*
X106703690Y-60053321D01*
X106692171Y-59980591D01*
X106655175Y-59866728D01*
X106636212Y-59808363D01*
X106636211Y-59808360D01*
X106595454Y-59728372D01*
X106553996Y-59647006D01*
X106540396Y-59628287D01*
X106447558Y-59500505D01*
X106447554Y-59500500D01*
X106319499Y-59372445D01*
X106319494Y-59372441D01*
X106172997Y-59266006D01*
X106172996Y-59266005D01*
X106172994Y-59266004D01*
X106096906Y-59227235D01*
X106011639Y-59183788D01*
X106011636Y-59183787D01*
X105839410Y-59127829D01*
X105660551Y-59099500D01*
X105660546Y-59099500D01*
X105479454Y-59099500D01*
X105479449Y-59099500D01*
X105300589Y-59127829D01*
X105128363Y-59183787D01*
X105128360Y-59183788D01*
X104967002Y-59266006D01*
X104820505Y-59372441D01*
X104820500Y-59372445D01*
X104692445Y-59500500D01*
X104692441Y-59500505D01*
X104586006Y-59647002D01*
X104503788Y-59808360D01*
X104503787Y-59808363D01*
X104447829Y-59980589D01*
X104422473Y-60140678D01*
X104392544Y-60203813D01*
X104333232Y-60240744D01*
X104263369Y-60239746D01*
X104205137Y-60201136D01*
X104177527Y-60140678D01*
X104163690Y-60053321D01*
X104152171Y-59980591D01*
X104115175Y-59866728D01*
X104096212Y-59808363D01*
X104096211Y-59808360D01*
X104055454Y-59728372D01*
X104013996Y-59647006D01*
X104000396Y-59628287D01*
X103907558Y-59500505D01*
X103907554Y-59500500D01*
X103779499Y-59372445D01*
X103779494Y-59372441D01*
X103632997Y-59266006D01*
X103632996Y-59266005D01*
X103632994Y-59266004D01*
X103556906Y-59227235D01*
X103471639Y-59183788D01*
X103471636Y-59183787D01*
X103299410Y-59127829D01*
X103120551Y-59099500D01*
X103120546Y-59099500D01*
X102939454Y-59099500D01*
X102939449Y-59099500D01*
X102760589Y-59127829D01*
X102588363Y-59183787D01*
X102588360Y-59183788D01*
X102427002Y-59266006D01*
X102280505Y-59372441D01*
X102280500Y-59372445D01*
X102152445Y-59500500D01*
X102152441Y-59500505D01*
X102046006Y-59647002D01*
X101963788Y-59808360D01*
X101963787Y-59808363D01*
X101907829Y-59980589D01*
X101879500Y-60159448D01*
X101879500Y-60340551D01*
X101907829Y-60519410D01*
X101963787Y-60691636D01*
X101963788Y-60691639D01*
X102019664Y-60801300D01*
X102038806Y-60838868D01*
X102046006Y-60852997D01*
X102152441Y-60999494D01*
X102152445Y-60999499D01*
X102280500Y-61127554D01*
X102280505Y-61127558D01*
X102405676Y-61218499D01*
X102427006Y-61233996D01*
X102532484Y-61287740D01*
X102588360Y-61316211D01*
X102588363Y-61316212D01*
X102674476Y-61344191D01*
X102760591Y-61372171D01*
X102843429Y-61385291D01*
X102939449Y-61400500D01*
X102939454Y-61400500D01*
X103120551Y-61400500D01*
X103228120Y-61383462D01*
X103299409Y-61372171D01*
X103356819Y-61353517D01*
X103471633Y-61316213D01*
X103471633Y-61316212D01*
X103471639Y-61316211D01*
X103496152Y-61303720D01*
X103564818Y-61290821D01*
X103629559Y-61317095D01*
X103640130Y-61326522D01*
X105076427Y-62762819D01*
X105087039Y-62782255D01*
X105101540Y-62798989D01*
X105103456Y-62812320D01*
X105109912Y-62824142D01*
X105108332Y-62846228D01*
X105111484Y-62868147D01*
X105105888Y-62880398D01*
X105104928Y-62893834D01*
X105091657Y-62911560D01*
X105082459Y-62931703D01*
X105071127Y-62938985D01*
X105063056Y-62949767D01*
X105042310Y-62957504D01*
X105023681Y-62969477D01*
X105001762Y-62972628D01*
X104997592Y-62974184D01*
X104988746Y-62974500D01*
X104960339Y-62974500D01*
X104960323Y-62974499D01*
X104952727Y-62974499D01*
X104847273Y-62974499D01*
X104779366Y-62992695D01*
X104745412Y-63001793D01*
X104654084Y-63054522D01*
X104579520Y-63129086D01*
X104579520Y-63129087D01*
X104579518Y-63129089D01*
X104513631Y-63194976D01*
X104449091Y-63259516D01*
X104387768Y-63293000D01*
X104323093Y-63289765D01*
X104209412Y-63252829D01*
X104030551Y-63224500D01*
X104030546Y-63224500D01*
X103849454Y-63224500D01*
X103849449Y-63224500D01*
X103670589Y-63252829D01*
X103498363Y-63308787D01*
X103498360Y-63308788D01*
X103337002Y-63391006D01*
X103190505Y-63497441D01*
X103190500Y-63497445D01*
X103062445Y-63625500D01*
X103062441Y-63625505D01*
X102956006Y-63772002D01*
X102873788Y-63933360D01*
X102873787Y-63933363D01*
X102817829Y-64105589D01*
X102796972Y-64237273D01*
X102767043Y-64300408D01*
X102707731Y-64337339D01*
X102637868Y-64336341D01*
X102579636Y-64297731D01*
X102551522Y-64233767D01*
X102550499Y-64217875D01*
X102550499Y-63480143D01*
X102550499Y-63480136D01*
X102550497Y-63480117D01*
X102547586Y-63455012D01*
X102547585Y-63455010D01*
X102547585Y-63455009D01*
X102502206Y-63352235D01*
X102422765Y-63272794D01*
X102392693Y-63259516D01*
X102319992Y-63227415D01*
X102294865Y-63224500D01*
X100505143Y-63224500D01*
X100505117Y-63224502D01*
X100480012Y-63227413D01*
X100480008Y-63227415D01*
X100377235Y-63272793D01*
X100297794Y-63352234D01*
X100252415Y-63455006D01*
X100252415Y-63455008D01*
X100249500Y-63480131D01*
X100249500Y-65269856D01*
X100249502Y-65269882D01*
X100252413Y-65294987D01*
X100252415Y-65294991D01*
X100297793Y-65397764D01*
X100297794Y-65397765D01*
X100377235Y-65477206D01*
X100480009Y-65522585D01*
X100505135Y-65525500D01*
X102195612Y-65525499D01*
X102262651Y-65545184D01*
X102283293Y-65561818D01*
X103184794Y-66463319D01*
X103218279Y-66524642D01*
X103213295Y-66594334D01*
X103171423Y-66650267D01*
X103105959Y-66674684D01*
X103097113Y-66675000D01*
X102958910Y-66675000D01*
X102729606Y-66711318D01*
X102508794Y-66783065D01*
X102301925Y-66888470D01*
X102223791Y-66945237D01*
X102223791Y-66945238D01*
X102827511Y-67548958D01*
X102767110Y-67573978D01*
X102660649Y-67645112D01*
X102570112Y-67735649D01*
X102498978Y-67842110D01*
X102473958Y-67902511D01*
X101870238Y-67298791D01*
X101870237Y-67298791D01*
X101813470Y-67376925D01*
X101708065Y-67583794D01*
X101636318Y-67804606D01*
X101600000Y-68033909D01*
X101600000Y-68266090D01*
X101636318Y-68495393D01*
X101708065Y-68716205D01*
X101813465Y-68923064D01*
X101870238Y-69001207D01*
X102473958Y-68397487D01*
X102498978Y-68457890D01*
X102570112Y-68564351D01*
X102660649Y-68654888D01*
X102767110Y-68726022D01*
X102827510Y-68751041D01*
X102223791Y-69354759D01*
X102223791Y-69354760D01*
X102301938Y-69411536D01*
X102301937Y-69411536D01*
X102334835Y-69428298D01*
X102385631Y-69476272D01*
X102402427Y-69544093D01*
X102379890Y-69610228D01*
X102351427Y-69639100D01*
X102244074Y-69717098D01*
X102244065Y-69717105D01*
X102102105Y-69859065D01*
X102102105Y-69859066D01*
X102102103Y-69859068D01*
X102073537Y-69898386D01*
X101984095Y-70021491D01*
X101892949Y-70200373D01*
X101830907Y-70391319D01*
X101830907Y-70391320D01*
X101799500Y-70589616D01*
X101799500Y-70790384D01*
X101809189Y-70851558D01*
X101830907Y-70988680D01*
X101892949Y-71179626D01*
X101962021Y-71315185D01*
X101984095Y-71358508D01*
X102102103Y-71520932D01*
X102244068Y-71662897D01*
X102406492Y-71780905D01*
X102468471Y-71812485D01*
X102585373Y-71872050D01*
X102585375Y-71872050D01*
X102585378Y-71872052D01*
X102776320Y-71934093D01*
X102974616Y-71965500D01*
X102974617Y-71965500D01*
X103175383Y-71965500D01*
X103175384Y-71965500D01*
X103373680Y-71934093D01*
X103564622Y-71872052D01*
X103743508Y-71780905D01*
X103905932Y-71662897D01*
X104047897Y-71520932D01*
X104134586Y-71401615D01*
X104189916Y-71358949D01*
X104234904Y-71350500D01*
X105694996Y-71350500D01*
X105786040Y-71332389D01*
X105830328Y-71323580D01*
X105923766Y-71284877D01*
X105957807Y-71270777D01*
X105957808Y-71270776D01*
X105957811Y-71270775D01*
X106072543Y-71194114D01*
X107031054Y-70235601D01*
X107092375Y-70202118D01*
X107133514Y-70200168D01*
X107202898Y-70208500D01*
X107202904Y-70208500D01*
X108189097Y-70208500D01*
X108189102Y-70208500D01*
X108277564Y-70197877D01*
X108416810Y-70142964D01*
X108486396Y-70136683D01*
X108548332Y-70169019D01*
X108549981Y-70170638D01*
X109086046Y-70706703D01*
X109119531Y-70768026D01*
X109121480Y-70779599D01*
X109130121Y-70851558D01*
X109185639Y-70992343D01*
X109277077Y-71112922D01*
X109397656Y-71204360D01*
X109397657Y-71204360D01*
X109397658Y-71204361D01*
X109538436Y-71259877D01*
X109626898Y-71270500D01*
X109626903Y-71270500D01*
X110613097Y-71270500D01*
X110613102Y-71270500D01*
X110701564Y-71259877D01*
X110842342Y-71204361D01*
X110929955Y-71137922D01*
X110936190Y-71133194D01*
X111001501Y-71108371D01*
X111011115Y-71107998D01*
X111600918Y-71107998D01*
X111667957Y-71127683D01*
X111675843Y-71133194D01*
X111802656Y-71229360D01*
X111802657Y-71229360D01*
X111802658Y-71229361D01*
X111943436Y-71284877D01*
X112031898Y-71295500D01*
X112531701Y-71295500D01*
X112598740Y-71315185D01*
X112644495Y-71367989D01*
X112654439Y-71437147D01*
X112625414Y-71500703D01*
X112619382Y-71507181D01*
X110938382Y-73188181D01*
X110877059Y-73221666D01*
X110850701Y-73224500D01*
X108288456Y-73224500D01*
X108221417Y-73204815D01*
X108185950Y-73166381D01*
X108184325Y-73167467D01*
X108065975Y-72990342D01*
X107919657Y-72844024D01*
X107833626Y-72786541D01*
X107747598Y-72729059D01*
X107556420Y-72649870D01*
X107556412Y-72649868D01*
X107353469Y-72609500D01*
X107353465Y-72609500D01*
X107146535Y-72609500D01*
X107146530Y-72609500D01*
X106943587Y-72649868D01*
X106943579Y-72649870D01*
X106752403Y-72729058D01*
X106580342Y-72844024D01*
X106434024Y-72990342D01*
X106315675Y-73167467D01*
X106313782Y-73166202D01*
X106271934Y-73208801D01*
X106211544Y-73224500D01*
X103007273Y-73224500D01*
X102905410Y-73251793D01*
X102814087Y-73304520D01*
X102814084Y-73304522D01*
X101845424Y-74273181D01*
X101784101Y-74306666D01*
X101757743Y-74309500D01*
X100565143Y-74309500D01*
X100565117Y-74309502D01*
X100540012Y-74312413D01*
X100540008Y-74312415D01*
X100437235Y-74357793D01*
X100357794Y-74437234D01*
X100312415Y-74540006D01*
X100312415Y-74540008D01*
X100309500Y-74565131D01*
X100309500Y-76354856D01*
X100309502Y-76354882D01*
X100312413Y-76379987D01*
X100312415Y-76379991D01*
X100357793Y-76482764D01*
X100357794Y-76482765D01*
X100437235Y-76562206D01*
X100540009Y-76607585D01*
X100565135Y-76610500D01*
X101302873Y-76610499D01*
X101369911Y-76630183D01*
X101415666Y-76682987D01*
X101425610Y-76752146D01*
X101396585Y-76815702D01*
X101337807Y-76853476D01*
X101322271Y-76856972D01*
X101190589Y-76877829D01*
X101018363Y-76933787D01*
X101018360Y-76933788D01*
X100857002Y-77016006D01*
X100710505Y-77122441D01*
X100710500Y-77122445D01*
X100582445Y-77250500D01*
X100582441Y-77250505D01*
X100476006Y-77397002D01*
X100393788Y-77558360D01*
X100393787Y-77558363D01*
X100337829Y-77730589D01*
X100309500Y-77909448D01*
X100309500Y-78090551D01*
X100337829Y-78269410D01*
X100393787Y-78441636D01*
X100393788Y-78441639D01*
X100476006Y-78602997D01*
X100582441Y-78749494D01*
X100582445Y-78749499D01*
X100710500Y-78877554D01*
X100710505Y-78877558D01*
X100778272Y-78926793D01*
X100857006Y-78983996D01*
X100962484Y-79037740D01*
X101018360Y-79066211D01*
X101018363Y-79066212D01*
X101104476Y-79094191D01*
X101190591Y-79122171D01*
X101263639Y-79133740D01*
X101350678Y-79147527D01*
X101413813Y-79177456D01*
X101450744Y-79236768D01*
X101449746Y-79306631D01*
X101411136Y-79364863D01*
X101350678Y-79392473D01*
X101190589Y-79417829D01*
X101018363Y-79473787D01*
X101018360Y-79473788D01*
X100857002Y-79556006D01*
X100710505Y-79662441D01*
X100710500Y-79662445D01*
X100582445Y-79790500D01*
X100582441Y-79790505D01*
X100476006Y-79937002D01*
X100393788Y-80098360D01*
X100393788Y-80098362D01*
X100337829Y-80270589D01*
X100309500Y-80449448D01*
X100309500Y-80630551D01*
X100337829Y-80809410D01*
X100393787Y-80981636D01*
X100393788Y-80981639D01*
X100476006Y-81142997D01*
X100582441Y-81289494D01*
X100582445Y-81289499D01*
X100710500Y-81417554D01*
X100710505Y-81417558D01*
X100838287Y-81510396D01*
X100857006Y-81523996D01*
X100962484Y-81577740D01*
X101018360Y-81606211D01*
X101018363Y-81606212D01*
X101104476Y-81634191D01*
X101190591Y-81662171D01*
X101273429Y-81675291D01*
X101369449Y-81690500D01*
X101369454Y-81690500D01*
X101550551Y-81690500D01*
X101637259Y-81676765D01*
X101729409Y-81662171D01*
X101901639Y-81606211D01*
X102062994Y-81523996D01*
X102209501Y-81417553D01*
X102337553Y-81289501D01*
X102443996Y-81142994D01*
X102526211Y-80981639D01*
X102582171Y-80809409D01*
X102596422Y-80719425D01*
X102607527Y-80649321D01*
X102637456Y-80586186D01*
X102696768Y-80549255D01*
X102766630Y-80550253D01*
X102824863Y-80588863D01*
X102852473Y-80649321D01*
X102877829Y-80809410D01*
X102933787Y-80981636D01*
X102933788Y-80981639D01*
X103016006Y-81142997D01*
X103122441Y-81289494D01*
X103122445Y-81289499D01*
X103250500Y-81417554D01*
X103250505Y-81417558D01*
X103378287Y-81510396D01*
X103397006Y-81523996D01*
X103502484Y-81577740D01*
X103558360Y-81606211D01*
X103558363Y-81606212D01*
X103644476Y-81634191D01*
X103730591Y-81662171D01*
X103813429Y-81675291D01*
X103909449Y-81690500D01*
X103909454Y-81690500D01*
X104090551Y-81690500D01*
X104177259Y-81676765D01*
X104269409Y-81662171D01*
X104441639Y-81606211D01*
X104602994Y-81523996D01*
X104749501Y-81417553D01*
X104877553Y-81289501D01*
X104983996Y-81142994D01*
X105052675Y-81008205D01*
X105100650Y-80957409D01*
X105163160Y-80940500D01*
X106686300Y-80940500D01*
X106753339Y-80960185D01*
X106799094Y-81012989D01*
X106809038Y-81082147D01*
X106780013Y-81145703D01*
X106776413Y-81149681D01*
X105536694Y-82461181D01*
X105476336Y-82496377D01*
X105446581Y-82500000D01*
X99824500Y-82500000D01*
X99757461Y-82480315D01*
X99711706Y-82427511D01*
X99700500Y-82376000D01*
X99700500Y-58781692D01*
X99720185Y-58714653D01*
X99772989Y-58668898D01*
X99824500Y-58657692D01*
X116971975Y-58657692D01*
X117039014Y-58677377D01*
G37*
%TD.AperFunction*%
%TA.AperFunction,Conductor*%
G36*
X104698647Y-67857403D02*
G01*
X104747525Y-67870500D01*
X104747526Y-67870500D01*
X104892474Y-67870500D01*
X108995500Y-67870500D01*
X109062539Y-67890185D01*
X109108294Y-67942989D01*
X109119500Y-67994500D01*
X109119500Y-68459480D01*
X109099815Y-68526519D01*
X109047011Y-68572274D01*
X108977853Y-68582218D01*
X108914297Y-68553193D01*
X108907819Y-68547161D01*
X108904545Y-68543887D01*
X108789807Y-68467222D01*
X108662332Y-68414421D01*
X108662322Y-68414418D01*
X108526996Y-68387500D01*
X108526994Y-68387500D01*
X108526993Y-68387500D01*
X107771138Y-68387500D01*
X107771098Y-68387498D01*
X107764994Y-68387498D01*
X107119009Y-68387498D01*
X107119005Y-68387498D01*
X107021136Y-68406965D01*
X107021131Y-68406966D01*
X107010593Y-68409063D01*
X106983673Y-68414418D01*
X106930868Y-68436290D01*
X106856191Y-68467223D01*
X106854845Y-68468123D01*
X106843469Y-68475723D01*
X106843464Y-68475726D01*
X106741463Y-68543881D01*
X106741455Y-68543887D01*
X105372162Y-69913181D01*
X105310839Y-69946666D01*
X105284481Y-69949500D01*
X104176781Y-69949500D01*
X104109742Y-69929815D01*
X104076463Y-69898386D01*
X104047897Y-69859068D01*
X103905932Y-69717103D01*
X103819706Y-69654456D01*
X103798572Y-69639101D01*
X103755907Y-69583770D01*
X103749928Y-69514157D01*
X103782534Y-69452362D01*
X103815165Y-69428297D01*
X103848072Y-69411530D01*
X103926207Y-69354762D01*
X103926208Y-69354760D01*
X103322488Y-68751041D01*
X103382890Y-68726022D01*
X103489351Y-68654888D01*
X103579888Y-68564351D01*
X103651022Y-68457890D01*
X103676041Y-68397488D01*
X104279760Y-69001208D01*
X104279762Y-69001207D01*
X104336530Y-68923071D01*
X104441934Y-68716205D01*
X104513681Y-68495393D01*
X104550000Y-68266090D01*
X104550000Y-68033909D01*
X104544087Y-67996577D01*
X104553041Y-67927284D01*
X104598038Y-67873832D01*
X104664789Y-67853192D01*
X104698647Y-67857403D01*
G37*
%TD.AperFunction*%
%TA.AperFunction,Conductor*%
G36*
X108180834Y-63795185D02*
G01*
X108226589Y-63847989D01*
X108236533Y-63917147D01*
X108216898Y-63968390D01*
X108144058Y-64077403D01*
X108064870Y-64268579D01*
X108064868Y-64268587D01*
X108024500Y-64471530D01*
X108024500Y-64678469D01*
X108064868Y-64881412D01*
X108064870Y-64881420D01*
X108134123Y-65048612D01*
X108144059Y-65072598D01*
X108178735Y-65124494D01*
X108259024Y-65244657D01*
X108405342Y-65390975D01*
X108405345Y-65390977D01*
X108577402Y-65505941D01*
X108768580Y-65585130D01*
X108971530Y-65625499D01*
X108971534Y-65625500D01*
X108971535Y-65625500D01*
X109178466Y-65625500D01*
X109178467Y-65625499D01*
X109381420Y-65585130D01*
X109572598Y-65505941D01*
X109744655Y-65390977D01*
X109890977Y-65244655D01*
X109996504Y-65086720D01*
X110050115Y-65041916D01*
X110099606Y-65031612D01*
X111288857Y-65031612D01*
X111355896Y-65051297D01*
X111376538Y-65067931D01*
X114920320Y-68611713D01*
X114953805Y-68673036D01*
X114948821Y-68742728D01*
X114920322Y-68787074D01*
X114897520Y-68809876D01*
X114842818Y-68904622D01*
X114814502Y-69010297D01*
X114814502Y-69010299D01*
X114814502Y-69059396D01*
X114794817Y-69126435D01*
X114778183Y-69147077D01*
X114752302Y-69172957D01*
X114752296Y-69172965D01*
X114684996Y-69273686D01*
X114684994Y-69273690D01*
X114638637Y-69385607D01*
X114638634Y-69385619D01*
X114615002Y-69504424D01*
X114615002Y-69540500D01*
X114595317Y-69607539D01*
X114542513Y-69653294D01*
X114491002Y-69664500D01*
X113443035Y-69664500D01*
X113375996Y-69644815D01*
X113368110Y-69639304D01*
X113297343Y-69585639D01*
X113182878Y-69540500D01*
X113156564Y-69530123D01*
X113156563Y-69530122D01*
X113156561Y-69530122D01*
X113110926Y-69524642D01*
X113068102Y-69519500D01*
X112031898Y-69519500D01*
X111992853Y-69524188D01*
X111943438Y-69530122D01*
X111802652Y-69585641D01*
X111795770Y-69589511D01*
X111727687Y-69605207D01*
X111661925Y-69581603D01*
X111619364Y-69526192D01*
X111613517Y-69456568D01*
X111636628Y-69405931D01*
X111640471Y-69400921D01*
X111640480Y-69400913D01*
X111693207Y-69309588D01*
X111720500Y-69207727D01*
X111720500Y-69102273D01*
X111720500Y-67283659D01*
X111740185Y-67216620D01*
X111782500Y-67176272D01*
X111799195Y-67166634D01*
X111910999Y-67054830D01*
X111941459Y-67002072D01*
X111990053Y-66917904D01*
X111990053Y-66917902D01*
X111990056Y-66917898D01*
X112008951Y-66847377D01*
X112021336Y-66817477D01*
X112035663Y-66792664D01*
X112062957Y-66690803D01*
X112062957Y-66585349D01*
X112035663Y-66483489D01*
X111982936Y-66392164D01*
X111942081Y-66351309D01*
X111926072Y-66335299D01*
X111926071Y-66335298D01*
X111915381Y-66323108D01*
X111911000Y-66317399D01*
X111799196Y-66205595D01*
X111799188Y-66205589D01*
X111662269Y-66126540D01*
X111662265Y-66126538D01*
X111662263Y-66126537D01*
X111509536Y-66085614D01*
X111351422Y-66085614D01*
X111198695Y-66126537D01*
X111198688Y-66126540D01*
X111061769Y-66205589D01*
X111061761Y-66205595D01*
X110949960Y-66317396D01*
X110949954Y-66317404D01*
X110870905Y-66454323D01*
X110870902Y-66454330D01*
X110829979Y-66607057D01*
X110829979Y-66765171D01*
X110836975Y-66791282D01*
X110870903Y-66917900D01*
X110870904Y-66917903D01*
X110902886Y-66973296D01*
X110919500Y-67035297D01*
X110919500Y-67383873D01*
X110912448Y-67407887D01*
X110909465Y-67432740D01*
X110902773Y-67440836D01*
X110899815Y-67450912D01*
X110880900Y-67467301D01*
X110864954Y-67486596D01*
X110854948Y-67489789D01*
X110847011Y-67496667D01*
X110822235Y-67500229D01*
X110798392Y-67507839D01*
X110785397Y-67505526D01*
X110777853Y-67506611D01*
X110763350Y-67503633D01*
X110756555Y-67501808D01*
X110701564Y-67480123D01*
X110654903Y-67474519D01*
X110646337Y-67472220D01*
X110623775Y-67458453D01*
X110599487Y-67448037D01*
X110594418Y-67440539D01*
X110586694Y-67435826D01*
X110575158Y-67412050D01*
X110560355Y-67390154D01*
X110560141Y-67381101D01*
X110556194Y-67372965D01*
X110559334Y-67346805D01*
X110558712Y-67320370D01*
X110580500Y-67239057D01*
X110580500Y-67080943D01*
X110539577Y-66928216D01*
X110516630Y-66888470D01*
X110460524Y-66791290D01*
X110460518Y-66791282D01*
X110348717Y-66679481D01*
X110348709Y-66679475D01*
X110211790Y-66600426D01*
X110211786Y-66600424D01*
X110211784Y-66600423D01*
X110059057Y-66559500D01*
X109900943Y-66559500D01*
X109748216Y-66600423D01*
X109748209Y-66600426D01*
X109611290Y-66679475D01*
X109611282Y-66679481D01*
X109557583Y-66733181D01*
X109496260Y-66766666D01*
X109469902Y-66769500D01*
X105099387Y-66769500D01*
X105032348Y-66749815D01*
X105011706Y-66733181D01*
X104007081Y-65728556D01*
X103973596Y-65667233D01*
X103978580Y-65597541D01*
X104020452Y-65541608D01*
X104075364Y-65518402D01*
X104121708Y-65511061D01*
X104209409Y-65497171D01*
X104381639Y-65441211D01*
X104542994Y-65358996D01*
X104689501Y-65252553D01*
X104817553Y-65124501D01*
X104923996Y-64977994D01*
X105006211Y-64816639D01*
X105062171Y-64644409D01*
X105076765Y-64552259D01*
X105090500Y-64465551D01*
X105090500Y-64284448D01*
X105074019Y-64180397D01*
X105062171Y-64105591D01*
X105007658Y-63937817D01*
X105005664Y-63867977D01*
X105041745Y-63808144D01*
X105104446Y-63777316D01*
X105125590Y-63775500D01*
X108113795Y-63775500D01*
X108180834Y-63795185D01*
G37*
%TD.AperFunction*%
%TD*%
%TA.AperFunction,Conductor*%
%TO.N,MOT_A*%
G36*
X148440296Y-77039508D02*
G01*
X148487169Y-77091322D01*
X148499500Y-77145231D01*
X148499500Y-93628888D01*
X148479815Y-93695927D01*
X148427011Y-93741682D01*
X148357853Y-93751626D01*
X148294297Y-93722601D01*
X148270506Y-93694860D01*
X148254534Y-93669441D01*
X148205892Y-93592028D01*
X148016779Y-93354888D01*
X147802304Y-93140413D01*
X147565164Y-92951300D01*
X147308341Y-92789927D01*
X147308338Y-92789925D01*
X147035068Y-92658325D01*
X146748783Y-92558149D01*
X146748771Y-92558145D01*
X146520556Y-92506056D01*
X146453063Y-92490652D01*
X146453060Y-92490651D01*
X146453048Y-92490649D01*
X146151663Y-92456692D01*
X146151657Y-92456692D01*
X145848343Y-92456692D01*
X145848336Y-92456692D01*
X145546951Y-92490649D01*
X145546937Y-92490652D01*
X145251228Y-92558145D01*
X145251216Y-92558149D01*
X144964931Y-92658325D01*
X144691661Y-92789925D01*
X144434837Y-92951299D01*
X144197696Y-93140412D01*
X143983220Y-93354888D01*
X143794107Y-93592029D01*
X143632733Y-93848853D01*
X143501133Y-94122123D01*
X143400957Y-94408408D01*
X143400953Y-94408420D01*
X143333460Y-94704129D01*
X143333457Y-94704143D01*
X143299500Y-95005528D01*
X143299500Y-95308855D01*
X143333457Y-95610240D01*
X143333460Y-95610254D01*
X143400953Y-95905963D01*
X143400957Y-95905975D01*
X143501133Y-96192260D01*
X143632733Y-96465530D01*
X143632735Y-96465533D01*
X143794108Y-96722356D01*
X143983221Y-96959496D01*
X144197696Y-97173971D01*
X144434836Y-97363084D01*
X144512249Y-97411726D01*
X144537668Y-97427698D01*
X144583959Y-97480033D01*
X144594607Y-97549086D01*
X144566232Y-97612935D01*
X144507842Y-97651307D01*
X144471696Y-97656692D01*
X138124000Y-97656692D01*
X138056961Y-97637007D01*
X138011206Y-97584203D01*
X138000000Y-97532692D01*
X138000000Y-96465192D01*
X138007818Y-96421859D01*
X138039289Y-96337480D01*
X138045698Y-96277871D01*
X138045697Y-92993139D01*
X138065382Y-92926101D01*
X138118186Y-92880346D01*
X138187344Y-92870402D01*
X138213030Y-92876958D01*
X138312589Y-92914091D01*
X138372199Y-92920500D01*
X139097944Y-92920499D01*
X139157555Y-92914091D01*
X139292403Y-92863796D01*
X139407618Y-92777546D01*
X139493868Y-92662331D01*
X139544163Y-92527483D01*
X139550572Y-92467873D01*
X139550571Y-91722128D01*
X139544163Y-91662517D01*
X139493868Y-91527669D01*
X139493867Y-91527668D01*
X139493865Y-91527664D01*
X139407619Y-91412455D01*
X139407616Y-91412452D01*
X139292407Y-91326206D01*
X139292400Y-91326202D01*
X139157554Y-91275908D01*
X139157555Y-91275908D01*
X139097955Y-91269501D01*
X139097953Y-91269500D01*
X139097945Y-91269500D01*
X139097937Y-91269500D01*
X139022301Y-91269500D01*
X138955262Y-91249815D01*
X138934620Y-91233181D01*
X137768493Y-90067052D01*
X137768486Y-90067046D01*
X137694801Y-90017812D01*
X137694801Y-90017813D01*
X137645563Y-89984913D01*
X137508989Y-89928343D01*
X137508979Y-89928340D01*
X137363992Y-89899500D01*
X137363990Y-89899500D01*
X134204428Y-89899500D01*
X134137389Y-89879815D01*
X134091634Y-89827011D01*
X134080428Y-89775500D01*
X134080427Y-89032129D01*
X134080426Y-89032123D01*
X134074019Y-88972516D01*
X134023725Y-88837670D01*
X134019475Y-88829888D01*
X134022664Y-88828146D01*
X134004278Y-88778828D01*
X134019140Y-88710557D01*
X134019751Y-88709607D01*
X134023718Y-88702337D01*
X134023724Y-88702331D01*
X134074019Y-88567483D01*
X134080428Y-88507873D01*
X134080427Y-87762128D01*
X134074019Y-87702517D01*
X134023724Y-87567669D01*
X134023721Y-87567665D01*
X134023721Y-87567664D01*
X134019472Y-87559882D01*
X134022661Y-87558140D01*
X134004278Y-87508828D01*
X134019140Y-87440557D01*
X134019747Y-87439612D01*
X134023719Y-87432336D01*
X134023724Y-87432331D01*
X134074019Y-87297483D01*
X134080428Y-87237873D01*
X134080427Y-86492128D01*
X134074019Y-86432517D01*
X134023724Y-86297669D01*
X134023721Y-86297665D01*
X134023721Y-86297664D01*
X134019472Y-86289882D01*
X134022666Y-86288137D01*
X134004280Y-86238870D01*
X134019118Y-86170594D01*
X134019735Y-86169634D01*
X134023721Y-86162335D01*
X134023720Y-86162335D01*
X134023724Y-86162331D01*
X134074019Y-86027483D01*
X134080428Y-85967873D01*
X134080427Y-85222128D01*
X134074019Y-85162517D01*
X134023724Y-85027669D01*
X134023721Y-85027665D01*
X134023721Y-85027664D01*
X134020305Y-85023101D01*
X133995887Y-84957637D01*
X133995572Y-84948871D01*
X133995354Y-84405196D01*
X134015012Y-84338151D01*
X134067798Y-84292375D01*
X134118412Y-84281153D01*
X140572139Y-84232207D01*
X140639322Y-84251381D01*
X140678614Y-84291105D01*
X140757288Y-84418656D01*
X140881344Y-84542712D01*
X141030666Y-84634814D01*
X141197203Y-84689999D01*
X141299991Y-84700500D01*
X142700008Y-84700499D01*
X142802797Y-84689999D01*
X142969334Y-84634814D01*
X143118656Y-84542712D01*
X143242712Y-84418656D01*
X143334797Y-84269360D01*
X143386745Y-84222636D01*
X143439394Y-84210461D01*
X145435956Y-84195319D01*
X145398716Y-77206828D01*
X145418043Y-77139685D01*
X145470602Y-77093650D01*
X145520061Y-77082197D01*
X148372855Y-77021260D01*
X148440296Y-77039508D01*
G37*
%TD.AperFunction*%
%TD*%
%TA.AperFunction,Conductor*%
%TO.N,V_MOT*%
G36*
X132485032Y-66911422D02*
G01*
X132537952Y-66957043D01*
X132557807Y-67024032D01*
X132557803Y-67025336D01*
X132535541Y-69815483D01*
X132515322Y-69882364D01*
X132499226Y-69902175D01*
X132098222Y-70303181D01*
X132036899Y-70336666D01*
X132010541Y-70339500D01*
X131125187Y-70339500D01*
X131058148Y-70319815D01*
X131012393Y-70267011D01*
X131001188Y-70214983D01*
X131004125Y-69509830D01*
X131009174Y-68298060D01*
X131029138Y-68231107D01*
X131045483Y-68210909D01*
X132141551Y-67114841D01*
X132147731Y-67109072D01*
X132352369Y-66930839D01*
X132415848Y-66901654D01*
X132485032Y-66911422D01*
G37*
%TD.AperFunction*%
%TD*%
%TA.AperFunction,Conductor*%
%TO.N,MOT_B*%
G36*
X141721799Y-71679659D02*
G01*
X141788749Y-71699635D01*
X141833387Y-71750717D01*
X142058306Y-72227124D01*
X143030779Y-74286944D01*
X143030779Y-74286943D01*
X143030780Y-74286945D01*
X143758822Y-74286600D01*
X143815175Y-74300115D01*
X143924003Y-74355566D01*
X143924005Y-74355566D01*
X143924008Y-74355568D01*
X144044412Y-74394689D01*
X144148631Y-74428553D01*
X144381903Y-74465500D01*
X144381908Y-74465500D01*
X144618097Y-74465500D01*
X144851368Y-74428553D01*
X145075992Y-74355568D01*
X145186203Y-74299412D01*
X145242433Y-74285897D01*
X148375443Y-74284414D01*
X148442490Y-74304067D01*
X148488270Y-74356849D01*
X148499500Y-74408414D01*
X148499500Y-76392595D01*
X148479815Y-76459634D01*
X148427011Y-76505389D01*
X148366551Y-76514746D01*
X148366484Y-76516097D01*
X148362061Y-76515875D01*
X148362060Y-76515875D01*
X148124327Y-76520953D01*
X145509255Y-76576812D01*
X145507543Y-76577027D01*
X145507019Y-76576975D01*
X145506068Y-76577045D01*
X145506056Y-76576881D01*
X145453162Y-76571690D01*
X145402798Y-76555001D01*
X145300010Y-76544500D01*
X143699998Y-76544500D01*
X143699981Y-76544501D01*
X143597203Y-76555000D01*
X143597200Y-76555001D01*
X143430668Y-76610185D01*
X143430663Y-76610187D01*
X143281342Y-76702289D01*
X143157289Y-76826342D01*
X143065187Y-76975663D01*
X143065185Y-76975668D01*
X143064634Y-76977332D01*
X143010001Y-77142203D01*
X143010001Y-77142204D01*
X143010000Y-77142204D01*
X142999500Y-77244983D01*
X142999500Y-78845001D01*
X142999501Y-78845018D01*
X143010000Y-78947796D01*
X143010001Y-78947799D01*
X143065185Y-79114331D01*
X143065186Y-79114334D01*
X143157288Y-79263656D01*
X143281344Y-79387712D01*
X143430666Y-79479814D01*
X143597203Y-79534999D01*
X143699991Y-79545500D01*
X144782329Y-79545499D01*
X144849368Y-79565184D01*
X144895123Y-79617987D01*
X144906327Y-79668838D01*
X144927115Y-83569939D01*
X144907788Y-83637083D01*
X144855229Y-83683118D01*
X144804057Y-83694596D01*
X143435568Y-83704975D01*
X143435565Y-83704975D01*
X143325515Y-83717956D01*
X143325490Y-83717960D01*
X143272868Y-83730129D01*
X143272858Y-83730131D01*
X143168278Y-83766782D01*
X143048699Y-83846796D01*
X143004804Y-83886276D01*
X143004797Y-83886283D01*
X142996752Y-83893520D01*
X142996746Y-83893525D01*
X142904555Y-84003989D01*
X142902364Y-84007540D01*
X142896775Y-84014157D01*
X142871464Y-84030875D01*
X142847519Y-84049500D01*
X142841530Y-84050648D01*
X142838476Y-84052666D01*
X142830487Y-84052766D01*
X142802489Y-84058136D01*
X141199468Y-84063801D01*
X141132360Y-84044354D01*
X141101554Y-84016447D01*
X141038005Y-83935622D01*
X141035542Y-83933132D01*
X140998712Y-83895896D01*
X140909380Y-83824065D01*
X140778059Y-83765293D01*
X140778057Y-83765292D01*
X140778052Y-83765290D01*
X140710869Y-83746116D01*
X140710865Y-83746115D01*
X140710864Y-83746115D01*
X140568301Y-83726721D01*
X134146006Y-83775428D01*
X134137071Y-83772877D01*
X134127876Y-83774235D01*
X134104005Y-83763441D01*
X134078820Y-83756253D01*
X134072681Y-83749276D01*
X134064213Y-83745447D01*
X134049967Y-83723460D01*
X134032666Y-83703797D01*
X134030264Y-83693052D01*
X134026220Y-83686810D01*
X134021068Y-83651901D01*
X134020515Y-83503763D01*
X134028330Y-83459978D01*
X134074019Y-83337482D01*
X134080428Y-83277872D01*
X134080427Y-82532127D01*
X134074019Y-82472516D01*
X134023825Y-82337940D01*
X134022850Y-82332592D01*
X134021161Y-82329985D01*
X134016010Y-82295079D01*
X134015828Y-82246331D01*
X134023645Y-82202541D01*
X134030806Y-82183341D01*
X134074019Y-82067482D01*
X134080428Y-82007872D01*
X134080427Y-81262127D01*
X134074019Y-81202516D01*
X134023724Y-81067668D01*
X134023723Y-81067667D01*
X134020624Y-81059357D01*
X134022797Y-81058546D01*
X134022741Y-81058330D01*
X134016384Y-81048518D01*
X134011233Y-81013612D01*
X134011136Y-80987491D01*
X134022801Y-80941454D01*
X134020624Y-80940642D01*
X134029359Y-80917221D01*
X134074019Y-80797482D01*
X134080428Y-80737872D01*
X134080427Y-79992127D01*
X134074019Y-79932516D01*
X134023724Y-79797668D01*
X134023720Y-79797663D01*
X134021632Y-79793838D01*
X134017966Y-79779587D01*
X134011620Y-79769794D01*
X134006466Y-79734885D01*
X134006434Y-79726108D01*
X134021602Y-79666215D01*
X134023719Y-79662335D01*
X134023724Y-79662330D01*
X134074019Y-79527482D01*
X134080428Y-79467872D01*
X134080427Y-78722127D01*
X134074019Y-78662516D01*
X134023724Y-78527668D01*
X134023721Y-78527664D01*
X134019474Y-78519886D01*
X134021724Y-78518657D01*
X134002020Y-78465826D01*
X134001705Y-78457444D01*
X134000436Y-78117102D01*
X134019870Y-78049992D01*
X134072503Y-78004040D01*
X134116884Y-77992872D01*
X138100000Y-77750000D01*
X138127984Y-73505655D01*
X138148110Y-73438750D01*
X138201214Y-73393344D01*
X138270437Y-73383857D01*
X138295315Y-73390294D01*
X138372526Y-73419092D01*
X138432136Y-73425501D01*
X139157881Y-73425500D01*
X139217492Y-73419092D01*
X139352340Y-73368797D01*
X139467555Y-73282547D01*
X139553805Y-73167332D01*
X139604100Y-73032484D01*
X139610509Y-72972874D01*
X139610508Y-72227129D01*
X139604100Y-72167518D01*
X139553805Y-72032670D01*
X139520047Y-71987575D01*
X139511901Y-71965736D01*
X139499683Y-71945890D01*
X139497282Y-71926540D01*
X139495630Y-71922111D01*
X139495337Y-71910889D01*
X139497636Y-71792127D01*
X139518613Y-71725485D01*
X139572293Y-71680760D01*
X139622150Y-71670531D01*
X141721799Y-71679659D01*
G37*
%TD.AperFunction*%
%TD*%
%TA.AperFunction,Conductor*%
%TO.N,V_MOT*%
G36*
X137613371Y-72120185D02*
G01*
X137634013Y-72136819D01*
X138083681Y-72586487D01*
X138098384Y-72613414D01*
X138114977Y-72639233D01*
X138115868Y-72645433D01*
X138117166Y-72647810D01*
X138120000Y-72674168D01*
X138120000Y-72802663D01*
X138100315Y-72869702D01*
X138047511Y-72915457D01*
X138030152Y-72921867D01*
X137994257Y-72932150D01*
X137872703Y-73009142D01*
X137819599Y-73054548D01*
X137724672Y-73162651D01*
X137724670Y-73162654D01*
X137664039Y-73293128D01*
X137643913Y-73360031D01*
X137643910Y-73360041D01*
X137643910Y-73360043D01*
X137622494Y-73502324D01*
X137599392Y-77006318D01*
X137579266Y-77073226D01*
X137526162Y-77118632D01*
X137475395Y-77129500D01*
X131774500Y-77129500D01*
X131707461Y-77109815D01*
X131661706Y-77057011D01*
X131650500Y-77005500D01*
X131650500Y-74923858D01*
X131650500Y-74923856D01*
X131626614Y-74834712D01*
X131600988Y-74790327D01*
X131600988Y-74790325D01*
X131580474Y-74754794D01*
X131580468Y-74754786D01*
X131326319Y-74500637D01*
X131292834Y-74439314D01*
X131290000Y-74412956D01*
X131290000Y-74010000D01*
X130948614Y-73995157D01*
X130882493Y-73972579D01*
X130839075Y-73917837D01*
X130830000Y-73871274D01*
X130830000Y-72224500D01*
X130849685Y-72157461D01*
X130902489Y-72111706D01*
X130954000Y-72100500D01*
X137546332Y-72100500D01*
X137613371Y-72120185D01*
G37*
%TD.AperFunction*%
%TD*%
%TA.AperFunction,Conductor*%
%TO.N,/Motor Control/SPA*%
G36*
X133460446Y-85024101D02*
G01*
X133506595Y-85076561D01*
X133515355Y-85102553D01*
X133522262Y-85134300D01*
X133546678Y-85199758D01*
X133546681Y-85199765D01*
X133547841Y-85201889D01*
X133555188Y-85217977D01*
X133567109Y-85249938D01*
X133574927Y-85293272D01*
X133574927Y-85896726D01*
X133567110Y-85940057D01*
X133540622Y-86011076D01*
X133540888Y-86012922D01*
X133534344Y-86038571D01*
X133525148Y-86063244D01*
X133510309Y-86131523D01*
X133500074Y-86275025D01*
X133523053Y-86380564D01*
X133524943Y-86389242D01*
X133525521Y-86397319D01*
X133528358Y-86404928D01*
X133530234Y-86413544D01*
X133530235Y-86413547D01*
X133530685Y-86415612D01*
X133530688Y-86415621D01*
X133530689Y-86415623D01*
X133533509Y-86423180D01*
X133534101Y-86431440D01*
X133567109Y-86519938D01*
X133574927Y-86563271D01*
X133574927Y-87166726D01*
X133574459Y-87169611D01*
X133574849Y-87171137D01*
X133571414Y-87188407D01*
X133568586Y-87205871D01*
X133567880Y-87207991D01*
X133550095Y-87255679D01*
X133551802Y-87256315D01*
X133535806Y-87304398D01*
X133535157Y-87305331D01*
X133534323Y-87308601D01*
X133525210Y-87333024D01*
X133525208Y-87333030D01*
X133525208Y-87333032D01*
X133510346Y-87401303D01*
X133500060Y-87544805D01*
X133524948Y-87659309D01*
X133525521Y-87667319D01*
X133528320Y-87674825D01*
X133530205Y-87683496D01*
X133530618Y-87685398D01*
X133530620Y-87685405D01*
X133533529Y-87693207D01*
X133534120Y-87701491D01*
X133567109Y-87789938D01*
X133574927Y-87833271D01*
X133574927Y-88436726D01*
X133574459Y-88439611D01*
X133574849Y-88441137D01*
X133571414Y-88458407D01*
X133568586Y-88475871D01*
X133567880Y-88477991D01*
X133550095Y-88525679D01*
X133551802Y-88526315D01*
X133535806Y-88574398D01*
X133535157Y-88575331D01*
X133534323Y-88578601D01*
X133525210Y-88603024D01*
X133525209Y-88603025D01*
X133522781Y-88614182D01*
X133489286Y-88675499D01*
X133427958Y-88708974D01*
X133358267Y-88703979D01*
X133313938Y-88675485D01*
X132797944Y-88159491D01*
X132797943Y-88159490D01*
X132672413Y-88087016D01*
X132672414Y-88087016D01*
X132637410Y-88077637D01*
X132532403Y-88049500D01*
X132532400Y-88049500D01*
X129646140Y-88049500D01*
X129579101Y-88029815D01*
X129533346Y-87977011D01*
X129522148Y-87926927D01*
X129500000Y-86000000D01*
X129499999Y-86000000D01*
X127458356Y-86046934D01*
X127390882Y-86028796D01*
X127343925Y-85977057D01*
X127331661Y-85916775D01*
X127369153Y-85166925D01*
X127392160Y-85100955D01*
X127447183Y-85057894D01*
X127492068Y-85049123D01*
X133393262Y-85004919D01*
X133460446Y-85024101D01*
G37*
%TD.AperFunction*%
%TD*%
%TA.AperFunction,Conductor*%
%TO.N,MOT_C*%
G36*
X144538735Y-58677377D02*
G01*
X144584490Y-58730181D01*
X144594434Y-58799339D01*
X144565409Y-58862895D01*
X144537668Y-58886686D01*
X144434837Y-58951299D01*
X144197696Y-59140412D01*
X143983220Y-59354888D01*
X143794107Y-59592029D01*
X143632733Y-59848853D01*
X143501133Y-60122123D01*
X143400957Y-60408408D01*
X143400953Y-60408420D01*
X143333460Y-60704129D01*
X143333457Y-60704143D01*
X143299500Y-61005528D01*
X143299500Y-61308855D01*
X143333457Y-61610240D01*
X143333460Y-61610254D01*
X143400953Y-61905963D01*
X143400957Y-61905975D01*
X143501133Y-62192260D01*
X143632733Y-62465530D01*
X143632735Y-62465533D01*
X143794108Y-62722356D01*
X143983221Y-62959496D01*
X144197696Y-63173971D01*
X144434836Y-63363084D01*
X144691659Y-63524457D01*
X144964935Y-63656060D01*
X145179951Y-63731297D01*
X145251216Y-63756234D01*
X145251228Y-63756238D01*
X145546937Y-63823732D01*
X145546946Y-63823733D01*
X145546951Y-63823734D01*
X145747874Y-63846372D01*
X145848337Y-63857691D01*
X145848340Y-63857692D01*
X145848343Y-63857692D01*
X146151660Y-63857692D01*
X146151661Y-63857691D01*
X146330992Y-63837486D01*
X146453048Y-63823734D01*
X146453051Y-63823733D01*
X146453063Y-63823732D01*
X146748772Y-63756238D01*
X147035065Y-63656060D01*
X147308341Y-63524457D01*
X147565164Y-63363084D01*
X147802304Y-63173971D01*
X148016779Y-62959496D01*
X148205892Y-62722356D01*
X148270506Y-62619522D01*
X148322840Y-62573232D01*
X148391894Y-62562583D01*
X148455742Y-62590958D01*
X148494115Y-62649348D01*
X148499500Y-62685495D01*
X148499500Y-73654913D01*
X148479815Y-73721952D01*
X148427011Y-73767707D01*
X148375559Y-73778913D01*
X145252860Y-73780391D01*
X145242194Y-73780397D01*
X145234968Y-73781255D01*
X145124307Y-73794393D01*
X145124303Y-73794394D01*
X145068063Y-73807911D01*
X144956711Y-73849007D01*
X144956708Y-73849008D01*
X144890641Y-73882671D01*
X144872665Y-73890117D01*
X144742271Y-73932484D01*
X144723353Y-73937026D01*
X144619633Y-73953455D01*
X144587953Y-73958473D01*
X144568556Y-73960000D01*
X144431443Y-73960000D01*
X144412044Y-73958473D01*
X144276643Y-73937026D01*
X144257724Y-73932484D01*
X144203310Y-73914804D01*
X144203252Y-73914784D01*
X144127325Y-73890115D01*
X144109354Y-73882672D01*
X144044668Y-73849712D01*
X143933065Y-73808554D01*
X143904888Y-73801796D01*
X143876717Y-73795040D01*
X143876715Y-73795039D01*
X143876712Y-73795039D01*
X143758582Y-73781100D01*
X143758574Y-73781099D01*
X143429681Y-73781255D01*
X143362632Y-73761602D01*
X143317491Y-73710194D01*
X142290508Y-71534913D01*
X142290506Y-71534911D01*
X142290504Y-71534905D01*
X142234910Y-71449984D01*
X142214030Y-71418089D01*
X142169391Y-71367007D01*
X142063897Y-71275578D01*
X142063891Y-71275574D01*
X141933287Y-71215239D01*
X141918577Y-71210850D01*
X141866330Y-71195261D01*
X141866322Y-71195259D01*
X141866320Y-71195258D01*
X141866318Y-71195258D01*
X141723997Y-71174164D01*
X141723989Y-71174163D01*
X139624346Y-71165035D01*
X139520551Y-71175346D01*
X139470703Y-71185573D01*
X139470697Y-71185575D01*
X139371238Y-71216964D01*
X139371236Y-71216964D01*
X139371236Y-71216965D01*
X139248710Y-71292397D01*
X139195036Y-71337117D01*
X139195034Y-71337119D01*
X139098727Y-71444013D01*
X139098037Y-71445043D01*
X139097084Y-71445836D01*
X139092791Y-71450602D01*
X139092106Y-71449984D01*
X139092009Y-71450065D01*
X139088750Y-71457203D01*
X139065547Y-71472114D01*
X139044359Y-71489769D01*
X139035081Y-71491693D01*
X139029972Y-71494977D01*
X138995037Y-71500000D01*
X138817738Y-71500000D01*
X138750699Y-71480315D01*
X138730057Y-71463681D01*
X138283429Y-71017052D01*
X138283428Y-71017051D01*
X138203906Y-70963917D01*
X138203905Y-70963916D01*
X138194454Y-70957601D01*
X138149649Y-70903989D01*
X138140942Y-70834664D01*
X138171097Y-70771636D01*
X138230540Y-70734917D01*
X138263344Y-70730499D01*
X138372190Y-70730499D01*
X138372199Y-70730500D01*
X139097944Y-70730499D01*
X139157555Y-70724091D01*
X139292403Y-70673796D01*
X139407618Y-70587546D01*
X139493868Y-70472331D01*
X139544163Y-70337483D01*
X139550572Y-70277873D01*
X139550571Y-69532128D01*
X139544163Y-69472517D01*
X139544163Y-69472516D01*
X139493869Y-69337670D01*
X139489619Y-69329888D01*
X139492829Y-69328134D01*
X139474433Y-69279001D01*
X139489199Y-69210709D01*
X139489824Y-69209736D01*
X139493869Y-69202329D01*
X139505124Y-69172150D01*
X139544163Y-69067483D01*
X139550572Y-69007873D01*
X139550571Y-68262128D01*
X139544163Y-68202517D01*
X139544163Y-68202516D01*
X139493869Y-68067670D01*
X139489619Y-68059888D01*
X139492829Y-68058134D01*
X139474433Y-68009001D01*
X139489199Y-67940709D01*
X139489824Y-67939736D01*
X139493869Y-67932329D01*
X139505124Y-67902150D01*
X139544163Y-67797483D01*
X139550572Y-67737873D01*
X139550571Y-66992128D01*
X139544163Y-66932517D01*
X139544163Y-66932516D01*
X139493869Y-66797670D01*
X139489619Y-66789888D01*
X139492829Y-66788134D01*
X139474433Y-66739001D01*
X139489199Y-66670709D01*
X139489824Y-66669736D01*
X139493869Y-66662329D01*
X139505124Y-66632150D01*
X139544163Y-66527483D01*
X139550572Y-66467873D01*
X139550571Y-65722128D01*
X139544163Y-65662517D01*
X139493868Y-65527669D01*
X139493867Y-65527668D01*
X139493865Y-65527664D01*
X139407619Y-65412455D01*
X139407616Y-65412452D01*
X139292407Y-65326206D01*
X139292400Y-65326202D01*
X139157558Y-65275910D01*
X139157557Y-65275909D01*
X139157555Y-65275909D01*
X139097945Y-65269500D01*
X139097935Y-65269500D01*
X138369412Y-65269500D01*
X138369366Y-65269502D01*
X134406931Y-65269502D01*
X134406925Y-65269503D01*
X134347318Y-65275910D01*
X134212473Y-65326204D01*
X134212466Y-65326208D01*
X134097257Y-65412454D01*
X134097254Y-65412457D01*
X134031719Y-65500000D01*
X134000000Y-65500000D01*
X134000000Y-64045293D01*
X134019685Y-63978254D01*
X134023454Y-63972825D01*
X134023721Y-63972334D01*
X134023724Y-63972331D01*
X134074019Y-63837483D01*
X134080428Y-63777873D01*
X134080427Y-63032128D01*
X134074019Y-62972517D01*
X134069162Y-62959496D01*
X134023725Y-62837671D01*
X134019474Y-62829886D01*
X134022652Y-62828150D01*
X134004272Y-62778741D01*
X134019181Y-62710480D01*
X134019794Y-62709526D01*
X134023721Y-62702335D01*
X134023720Y-62702335D01*
X134023724Y-62702331D01*
X134074019Y-62567483D01*
X134080428Y-62507873D01*
X134080427Y-61762128D01*
X134074019Y-61702517D01*
X134023724Y-61567669D01*
X134023723Y-61567668D01*
X134019474Y-61559886D01*
X134022652Y-61558150D01*
X134004272Y-61508741D01*
X134019181Y-61440480D01*
X134019794Y-61439526D01*
X134023721Y-61432335D01*
X134023720Y-61432335D01*
X134023724Y-61432331D01*
X134074019Y-61297483D01*
X134080428Y-61237873D01*
X134080427Y-60492128D01*
X134074019Y-60432517D01*
X134065031Y-60408420D01*
X134023725Y-60297671D01*
X134019474Y-60289886D01*
X134022652Y-60288150D01*
X134004272Y-60238741D01*
X134019181Y-60170480D01*
X134019794Y-60169526D01*
X134023721Y-60162335D01*
X134023720Y-60162335D01*
X134023724Y-60162331D01*
X134074019Y-60027483D01*
X134080428Y-59967873D01*
X134080427Y-59222128D01*
X134074019Y-59162517D01*
X134065774Y-59140412D01*
X134023725Y-59027672D01*
X134023724Y-59027669D01*
X134023721Y-59027665D01*
X134019474Y-59019887D01*
X134021012Y-59019046D01*
X134016993Y-59008266D01*
X134005023Y-58989641D01*
X134001870Y-58967713D01*
X134000315Y-58963543D01*
X134000000Y-58954706D01*
X134000000Y-58781692D01*
X134019685Y-58714653D01*
X134072489Y-58668898D01*
X134124000Y-58657692D01*
X144471696Y-58657692D01*
X144538735Y-58677377D01*
G37*
%TD.AperFunction*%
%TD*%
%TA.AperFunction,Conductor*%
%TO.N,V_MOT*%
G36*
X117957539Y-75019685D02*
G01*
X118003294Y-75072489D01*
X118014500Y-75124000D01*
X118014500Y-81437475D01*
X118037684Y-81523996D01*
X118052016Y-81577485D01*
X118068601Y-81606211D01*
X118124489Y-81703013D01*
X118124491Y-81703016D01*
X123463681Y-87042206D01*
X123497166Y-87103529D01*
X123500000Y-87129887D01*
X123500000Y-92500000D01*
X126500000Y-96000000D01*
X126500001Y-96000000D01*
X128894645Y-96000000D01*
X128940134Y-96008645D01*
X128955936Y-96014877D01*
X129044398Y-96025500D01*
X129044403Y-96025500D01*
X129805597Y-96025500D01*
X129805602Y-96025500D01*
X129894064Y-96014877D01*
X129909865Y-96008645D01*
X129955355Y-96000000D01*
X130500000Y-96000000D01*
X130464388Y-93625860D01*
X130483065Y-93558533D01*
X130535177Y-93511991D01*
X130588374Y-93500000D01*
X132500000Y-93500000D01*
X132500000Y-91324500D01*
X132519685Y-91257461D01*
X132572489Y-91211706D01*
X132624000Y-91200500D01*
X137010685Y-91200500D01*
X137077724Y-91220185D01*
X137098366Y-91236819D01*
X137963681Y-92102133D01*
X137978384Y-92129060D01*
X137994977Y-92154879D01*
X137995868Y-92161079D01*
X137997166Y-92163456D01*
X138000000Y-92189814D01*
X138000000Y-92300744D01*
X137980315Y-92367783D01*
X137927511Y-92413538D01*
X137910946Y-92419718D01*
X137908198Y-92420524D01*
X137908189Y-92420529D01*
X137787159Y-92498311D01*
X137787148Y-92498319D01*
X137734354Y-92544065D01*
X137734351Y-92544068D01*
X137640135Y-92652796D01*
X137640133Y-92652800D01*
X137580357Y-92783685D01*
X137580356Y-92783688D01*
X137561304Y-92848571D01*
X137560805Y-92850162D01*
X137560672Y-92850724D01*
X137540197Y-92993138D01*
X137540197Y-96207079D01*
X137534627Y-96242462D01*
X137534921Y-96242543D01*
X137534202Y-96245162D01*
X137534201Y-96245171D01*
X137534194Y-96245190D01*
X137510348Y-96332113D01*
X137502530Y-96375447D01*
X137502530Y-96375449D01*
X137494500Y-96465187D01*
X137494500Y-97532692D01*
X137474815Y-97599731D01*
X137422011Y-97645486D01*
X137370500Y-97656692D01*
X99824500Y-97656692D01*
X99757461Y-97637007D01*
X99711706Y-97584203D01*
X99700500Y-97532692D01*
X99700500Y-93624000D01*
X99720185Y-93556961D01*
X99772989Y-93511206D01*
X99824500Y-93500000D01*
X107681700Y-93500000D01*
X107748739Y-93519685D01*
X107794494Y-93572489D01*
X107805700Y-93624000D01*
X107805700Y-94194300D01*
X118194300Y-94194300D01*
X118194300Y-89800100D01*
X116124000Y-89800100D01*
X116056961Y-89780415D01*
X116011206Y-89727611D01*
X116000000Y-89676100D01*
X116000000Y-88323900D01*
X116019685Y-88256861D01*
X116072489Y-88211106D01*
X116124000Y-88199900D01*
X118194300Y-88199900D01*
X118194300Y-83805700D01*
X116124000Y-83805700D01*
X116056961Y-83786015D01*
X116011206Y-83733211D01*
X116000000Y-83681700D01*
X116000000Y-79523211D01*
X116019685Y-79456172D01*
X116036319Y-79435530D01*
X116703269Y-78768580D01*
X117385480Y-78086369D01*
X117438206Y-77995044D01*
X117438207Y-77995043D01*
X117465500Y-77893183D01*
X117465500Y-75124000D01*
X117485185Y-75056961D01*
X117537989Y-75011206D01*
X117589500Y-75000000D01*
X117890500Y-75000000D01*
X117957539Y-75019685D01*
G37*
%TD.AperFunction*%
%TD*%
%TA.AperFunction,Conductor*%
%TO.N,/Motor Control/SPC*%
G36*
X133443039Y-59019685D02*
G01*
X133488794Y-59072489D01*
X133500000Y-59124000D01*
X133500000Y-62562185D01*
X133480315Y-62629224D01*
X133427511Y-62674979D01*
X133358353Y-62684923D01*
X133294797Y-62655898D01*
X133288319Y-62649866D01*
X132777944Y-62139491D01*
X132777943Y-62139490D01*
X132652413Y-62067016D01*
X132652414Y-62067016D01*
X132617410Y-62057637D01*
X132512403Y-62029500D01*
X129624000Y-62029500D01*
X129556961Y-62009815D01*
X129511206Y-61957011D01*
X129500000Y-61905500D01*
X129500000Y-60000000D01*
X127624000Y-60000000D01*
X127556961Y-59980315D01*
X127511206Y-59927511D01*
X127500000Y-59876000D01*
X127500000Y-59124000D01*
X127519685Y-59056961D01*
X127572489Y-59011206D01*
X127624000Y-59000000D01*
X133376000Y-59000000D01*
X133443039Y-59019685D01*
G37*
%TD.AperFunction*%
%TD*%
%TA.AperFunction,Conductor*%
%TO.N,/Motor Control/SPB*%
G36*
X133424587Y-78507962D02*
G01*
X133452436Y-78512847D01*
X133457675Y-78517678D01*
X133464510Y-78519685D01*
X133483016Y-78541042D01*
X133503804Y-78560209D01*
X133507734Y-78569568D01*
X133510265Y-78572489D01*
X133515248Y-78587462D01*
X133517469Y-78592750D01*
X133518101Y-78595178D01*
X133528389Y-78642473D01*
X133535112Y-78660501D01*
X133536711Y-78666638D01*
X133536659Y-78668298D01*
X133567109Y-78749937D01*
X133574927Y-78793270D01*
X133574927Y-79396725D01*
X133574284Y-79400547D01*
X133574787Y-79402620D01*
X133570062Y-79425660D01*
X133568109Y-79437277D01*
X133567625Y-79438674D01*
X133550095Y-79485678D01*
X133551214Y-79486095D01*
X133534579Y-79534168D01*
X133533792Y-79535272D01*
X133532839Y-79538883D01*
X133531576Y-79542103D01*
X133531568Y-79542126D01*
X133516404Y-79602006D01*
X133516401Y-79602020D01*
X133500938Y-79727934D01*
X133500937Y-79727959D01*
X133500968Y-79736735D01*
X133506385Y-79808699D01*
X133506389Y-79808739D01*
X133511538Y-79843612D01*
X133511540Y-79843624D01*
X133511541Y-79843626D01*
X133527138Y-79914042D01*
X133528677Y-79917379D01*
X133532332Y-79926178D01*
X133550177Y-79974289D01*
X133550095Y-79974320D01*
X133567187Y-80020145D01*
X133567212Y-80020507D01*
X133574927Y-80063269D01*
X133574927Y-80666726D01*
X133567110Y-80710057D01*
X133546997Y-80763985D01*
X133526676Y-80833187D01*
X133526676Y-80833190D01*
X133526640Y-80833697D01*
X133523163Y-80855272D01*
X133521122Y-80863329D01*
X133521121Y-80863336D01*
X133505638Y-80989372D01*
X133505735Y-81015481D01*
X133505735Y-81015487D01*
X133511148Y-81087403D01*
X133511150Y-81087421D01*
X133516299Y-81122307D01*
X133516304Y-81122334D01*
X133531888Y-81192719D01*
X133536980Y-81203761D01*
X133541696Y-81215538D01*
X133544017Y-81222320D01*
X133546995Y-81236010D01*
X133567699Y-81291521D01*
X133568247Y-81293121D01*
X133568429Y-81297257D01*
X133574927Y-81333271D01*
X133574927Y-81936723D01*
X133567110Y-81980054D01*
X133550014Y-82025890D01*
X133526013Y-82113700D01*
X133526010Y-82113715D01*
X133518197Y-82157480D01*
X133518195Y-82157494D01*
X133518195Y-82157498D01*
X133513106Y-82216208D01*
X133487707Y-82281296D01*
X133431149Y-82322320D01*
X133389570Y-82329499D01*
X132925251Y-82329499D01*
X132852192Y-82344031D01*
X132852188Y-82344032D01*
X132792968Y-82383602D01*
X132726290Y-82404479D01*
X132724078Y-82404499D01*
X126573674Y-82404499D01*
X126506635Y-82384814D01*
X126485993Y-82368180D01*
X124536319Y-80418505D01*
X124502834Y-80357182D01*
X124500000Y-80330824D01*
X124500000Y-78624000D01*
X124519685Y-78556961D01*
X124572489Y-78511206D01*
X124624000Y-78500000D01*
X133397471Y-78500000D01*
X133424587Y-78507962D01*
G37*
%TD.AperFunction*%
%TD*%
%TA.AperFunction,Conductor*%
%TO.N,MOT_C*%
G36*
X134000000Y-65500000D02*
G01*
X134075417Y-65500000D01*
X133928981Y-65863563D01*
X133870000Y-66009999D01*
X133870000Y-68936000D01*
X133850315Y-69003039D01*
X133797511Y-69048794D01*
X133746000Y-69060000D01*
X132972071Y-69060000D01*
X132905032Y-69040315D01*
X132859277Y-68987511D01*
X132848075Y-68935013D01*
X132863293Y-67027773D01*
X132863302Y-67026273D01*
X132863306Y-67024969D01*
X132850712Y-66937217D01*
X132830857Y-66870228D01*
X132807543Y-66813338D01*
X132737426Y-66725655D01*
X132737425Y-66725654D01*
X132737270Y-66725460D01*
X132710775Y-66660809D01*
X132710115Y-66647498D01*
X132714927Y-65500000D01*
X132719482Y-64413479D01*
X132739448Y-64346524D01*
X132792443Y-64300991D01*
X132843481Y-64290000D01*
X134000000Y-64290000D01*
X134000000Y-65500000D01*
G37*
%TD.AperFunction*%
%TD*%
M02*
