%TF.GenerationSoftware,KiCad,Pcbnew,9.0.7*%
%TF.CreationDate,2026-03-23T23:57:09-07:00*%
%TF.ProjectId,drv8323-breakout,64727638-3332-4332-9d62-7265616b6f75,rev?*%
%TF.SameCoordinates,Original*%
%TF.FileFunction,Legend,Top*%
%TF.FilePolarity,Positive*%
%FSLAX46Y46*%
G04 Gerber Fmt 4.6, Leading zero omitted, Abs format (unit mm)*
G04 Created by KiCad (PCBNEW 9.0.7) date 2026-03-23 23:57:09*
%MOMM*%
%LPD*%
G01*
G04 APERTURE LIST*
%ADD10C,0.100000*%
%ADD11C,0.120000*%
%ADD12C,0.150000*%
%ADD13C,0.130000*%
%ADD14C,0.152400*%
%ADD15C,0.200000*%
%ADD16C,0.400000*%
G04 APERTURE END LIST*
D10*
X100180000Y-74170000D02*
X102720000Y-74170000D01*
X102720000Y-76710000D01*
X100180000Y-76710000D01*
X100180000Y-74170000D01*
X100180000Y-74170000D02*
X102720000Y-74170000D01*
X102720000Y-81790000D01*
X100180000Y-81790000D01*
X100180000Y-74170000D01*
X100180000Y-74170000D02*
X105260000Y-74170000D01*
X105260000Y-81790000D01*
X100180000Y-81790000D01*
X100180000Y-74170000D01*
D11*
X110751566Y-64394664D02*
X110713470Y-64432760D01*
X110713470Y-64432760D02*
X110599185Y-64470855D01*
X110599185Y-64470855D02*
X110522994Y-64470855D01*
X110522994Y-64470855D02*
X110408708Y-64432760D01*
X110408708Y-64432760D02*
X110332518Y-64356569D01*
X110332518Y-64356569D02*
X110294423Y-64280379D01*
X110294423Y-64280379D02*
X110256327Y-64127998D01*
X110256327Y-64127998D02*
X110256327Y-64013712D01*
X110256327Y-64013712D02*
X110294423Y-63861331D01*
X110294423Y-63861331D02*
X110332518Y-63785140D01*
X110332518Y-63785140D02*
X110408708Y-63708950D01*
X110408708Y-63708950D02*
X110522994Y-63670855D01*
X110522994Y-63670855D02*
X110599185Y-63670855D01*
X110599185Y-63670855D02*
X110713470Y-63708950D01*
X110713470Y-63708950D02*
X110751566Y-63747045D01*
X111056327Y-64242283D02*
X111437280Y-64242283D01*
X110980137Y-64470855D02*
X111246804Y-63670855D01*
X111246804Y-63670855D02*
X111513470Y-64470855D01*
X112161089Y-64470855D02*
X111780137Y-64470855D01*
X111780137Y-64470855D02*
X111780137Y-63670855D01*
X112156375Y-80921855D02*
X111775423Y-80921855D01*
X111775423Y-80921855D02*
X111775423Y-80121855D01*
X112880185Y-80845664D02*
X112842089Y-80883760D01*
X112842089Y-80883760D02*
X112727804Y-80921855D01*
X112727804Y-80921855D02*
X112651613Y-80921855D01*
X112651613Y-80921855D02*
X112537327Y-80883760D01*
X112537327Y-80883760D02*
X112461137Y-80807569D01*
X112461137Y-80807569D02*
X112423042Y-80731379D01*
X112423042Y-80731379D02*
X112384946Y-80578998D01*
X112384946Y-80578998D02*
X112384946Y-80464712D01*
X112384946Y-80464712D02*
X112423042Y-80312331D01*
X112423042Y-80312331D02*
X112461137Y-80236140D01*
X112461137Y-80236140D02*
X112537327Y-80159950D01*
X112537327Y-80159950D02*
X112651613Y-80121855D01*
X112651613Y-80121855D02*
X112727804Y-80121855D01*
X112727804Y-80121855D02*
X112842089Y-80159950D01*
X112842089Y-80159950D02*
X112880185Y-80198045D01*
X121291428Y-64881760D02*
X121405714Y-64919855D01*
X121405714Y-64919855D02*
X121596190Y-64919855D01*
X121596190Y-64919855D02*
X121672381Y-64881760D01*
X121672381Y-64881760D02*
X121710476Y-64843664D01*
X121710476Y-64843664D02*
X121748571Y-64767474D01*
X121748571Y-64767474D02*
X121748571Y-64691283D01*
X121748571Y-64691283D02*
X121710476Y-64615093D01*
X121710476Y-64615093D02*
X121672381Y-64576998D01*
X121672381Y-64576998D02*
X121596190Y-64538902D01*
X121596190Y-64538902D02*
X121443809Y-64500807D01*
X121443809Y-64500807D02*
X121367619Y-64462712D01*
X121367619Y-64462712D02*
X121329524Y-64424617D01*
X121329524Y-64424617D02*
X121291428Y-64348426D01*
X121291428Y-64348426D02*
X121291428Y-64272236D01*
X121291428Y-64272236D02*
X121329524Y-64196045D01*
X121329524Y-64196045D02*
X121367619Y-64157950D01*
X121367619Y-64157950D02*
X121443809Y-64119855D01*
X121443809Y-64119855D02*
X121634286Y-64119855D01*
X121634286Y-64119855D02*
X121748571Y-64157950D01*
X122358095Y-64500807D02*
X122472381Y-64538902D01*
X122472381Y-64538902D02*
X122510476Y-64576998D01*
X122510476Y-64576998D02*
X122548572Y-64653188D01*
X122548572Y-64653188D02*
X122548572Y-64767474D01*
X122548572Y-64767474D02*
X122510476Y-64843664D01*
X122510476Y-64843664D02*
X122472381Y-64881760D01*
X122472381Y-64881760D02*
X122396191Y-64919855D01*
X122396191Y-64919855D02*
X122091429Y-64919855D01*
X122091429Y-64919855D02*
X122091429Y-64119855D01*
X122091429Y-64119855D02*
X122358095Y-64119855D01*
X122358095Y-64119855D02*
X122434286Y-64157950D01*
X122434286Y-64157950D02*
X122472381Y-64196045D01*
X122472381Y-64196045D02*
X122510476Y-64272236D01*
X122510476Y-64272236D02*
X122510476Y-64348426D01*
X122510476Y-64348426D02*
X122472381Y-64424617D01*
X122472381Y-64424617D02*
X122434286Y-64462712D01*
X122434286Y-64462712D02*
X122358095Y-64500807D01*
X122358095Y-64500807D02*
X122091429Y-64500807D01*
D12*
X146815350Y-73099866D02*
X146782017Y-73133200D01*
X146782017Y-73133200D02*
X146682017Y-73166533D01*
X146682017Y-73166533D02*
X146615350Y-73166533D01*
X146615350Y-73166533D02*
X146515350Y-73133200D01*
X146515350Y-73133200D02*
X146448684Y-73066533D01*
X146448684Y-73066533D02*
X146415350Y-72999866D01*
X146415350Y-72999866D02*
X146382017Y-72866533D01*
X146382017Y-72866533D02*
X146382017Y-72766533D01*
X146382017Y-72766533D02*
X146415350Y-72633200D01*
X146415350Y-72633200D02*
X146448684Y-72566533D01*
X146448684Y-72566533D02*
X146515350Y-72499866D01*
X146515350Y-72499866D02*
X146615350Y-72466533D01*
X146615350Y-72466533D02*
X146682017Y-72466533D01*
X146682017Y-72466533D02*
X146782017Y-72499866D01*
X146782017Y-72499866D02*
X146815350Y-72533200D01*
X103235350Y-63166533D02*
X103235350Y-62466533D01*
X103235350Y-62466533D02*
X103468684Y-62966533D01*
X103468684Y-62966533D02*
X103702017Y-62466533D01*
X103702017Y-62466533D02*
X103702017Y-63166533D01*
X103868684Y-63233200D02*
X104402017Y-63233200D01*
X104568683Y-62799866D02*
X104802017Y-62799866D01*
X104902017Y-63166533D02*
X104568683Y-63166533D01*
X104568683Y-63166533D02*
X104568683Y-62466533D01*
X104568683Y-62466533D02*
X104902017Y-62466533D01*
X105202016Y-63166533D02*
X105202016Y-62466533D01*
X105202016Y-62466533D02*
X105602016Y-63166533D01*
X105602016Y-63166533D02*
X105602016Y-62466533D01*
X105888684Y-77849866D02*
X105988684Y-77883200D01*
X105988684Y-77883200D02*
X106022017Y-77916533D01*
X106022017Y-77916533D02*
X106055350Y-77983200D01*
X106055350Y-77983200D02*
X106055350Y-78083200D01*
X106055350Y-78083200D02*
X106022017Y-78149866D01*
X106022017Y-78149866D02*
X105988684Y-78183200D01*
X105988684Y-78183200D02*
X105922017Y-78216533D01*
X105922017Y-78216533D02*
X105655350Y-78216533D01*
X105655350Y-78216533D02*
X105655350Y-77516533D01*
X105655350Y-77516533D02*
X105888684Y-77516533D01*
X105888684Y-77516533D02*
X105955350Y-77549866D01*
X105955350Y-77549866D02*
X105988684Y-77583200D01*
X105988684Y-77583200D02*
X106022017Y-77649866D01*
X106022017Y-77649866D02*
X106022017Y-77716533D01*
X106022017Y-77716533D02*
X105988684Y-77783200D01*
X105988684Y-77783200D02*
X105955350Y-77816533D01*
X105955350Y-77816533D02*
X105888684Y-77849866D01*
X105888684Y-77849866D02*
X105655350Y-77849866D01*
X99875350Y-71306533D02*
X100108684Y-72006533D01*
X100108684Y-72006533D02*
X100342017Y-71306533D01*
X100975350Y-72006533D02*
X100742017Y-71673200D01*
X100575350Y-72006533D02*
X100575350Y-71306533D01*
X100575350Y-71306533D02*
X100842017Y-71306533D01*
X100842017Y-71306533D02*
X100908684Y-71339866D01*
X100908684Y-71339866D02*
X100942017Y-71373200D01*
X100942017Y-71373200D02*
X100975350Y-71439866D01*
X100975350Y-71439866D02*
X100975350Y-71539866D01*
X100975350Y-71539866D02*
X100942017Y-71606533D01*
X100942017Y-71606533D02*
X100908684Y-71639866D01*
X100908684Y-71639866D02*
X100842017Y-71673200D01*
X100842017Y-71673200D02*
X100575350Y-71673200D01*
X101275350Y-71639866D02*
X101508684Y-71639866D01*
X101608684Y-72006533D02*
X101275350Y-72006533D01*
X101275350Y-72006533D02*
X101275350Y-71306533D01*
X101275350Y-71306533D02*
X101608684Y-71306533D01*
X102142017Y-71639866D02*
X101908683Y-71639866D01*
X101908683Y-72006533D02*
X101908683Y-71306533D01*
X101908683Y-71306533D02*
X102242017Y-71306533D01*
D11*
X120218381Y-93075855D02*
X120485048Y-93875855D01*
X120485048Y-93875855D02*
X120751714Y-93075855D01*
X121018381Y-93875855D02*
X121018381Y-93075855D01*
X121018381Y-93075855D02*
X121285047Y-93647283D01*
X121285047Y-93647283D02*
X121551714Y-93075855D01*
X121551714Y-93075855D02*
X121551714Y-93875855D01*
X122085048Y-93075855D02*
X122237429Y-93075855D01*
X122237429Y-93075855D02*
X122313619Y-93113950D01*
X122313619Y-93113950D02*
X122389810Y-93190140D01*
X122389810Y-93190140D02*
X122427905Y-93342521D01*
X122427905Y-93342521D02*
X122427905Y-93609188D01*
X122427905Y-93609188D02*
X122389810Y-93761569D01*
X122389810Y-93761569D02*
X122313619Y-93837760D01*
X122313619Y-93837760D02*
X122237429Y-93875855D01*
X122237429Y-93875855D02*
X122085048Y-93875855D01*
X122085048Y-93875855D02*
X122008857Y-93837760D01*
X122008857Y-93837760D02*
X121932667Y-93761569D01*
X121932667Y-93761569D02*
X121894571Y-93609188D01*
X121894571Y-93609188D02*
X121894571Y-93342521D01*
X121894571Y-93342521D02*
X121932667Y-93190140D01*
X121932667Y-93190140D02*
X122008857Y-93113950D01*
X122008857Y-93113950D02*
X122085048Y-93075855D01*
X122656476Y-93075855D02*
X123113619Y-93075855D01*
X122885047Y-93875855D02*
X122885047Y-93075855D01*
D12*
X102505350Y-62159866D02*
X102472017Y-62193200D01*
X102472017Y-62193200D02*
X102372017Y-62226533D01*
X102372017Y-62226533D02*
X102305350Y-62226533D01*
X102305350Y-62226533D02*
X102205350Y-62193200D01*
X102205350Y-62193200D02*
X102138684Y-62126533D01*
X102138684Y-62126533D02*
X102105350Y-62059866D01*
X102105350Y-62059866D02*
X102072017Y-61926533D01*
X102072017Y-61926533D02*
X102072017Y-61826533D01*
X102072017Y-61826533D02*
X102105350Y-61693200D01*
X102105350Y-61693200D02*
X102138684Y-61626533D01*
X102138684Y-61626533D02*
X102205350Y-61559866D01*
X102205350Y-61559866D02*
X102305350Y-61526533D01*
X102305350Y-61526533D02*
X102372017Y-61526533D01*
X102372017Y-61526533D02*
X102472017Y-61559866D01*
X102472017Y-61559866D02*
X102505350Y-61593200D01*
X102772017Y-62193200D02*
X102872017Y-62226533D01*
X102872017Y-62226533D02*
X103038684Y-62226533D01*
X103038684Y-62226533D02*
X103105350Y-62193200D01*
X103105350Y-62193200D02*
X103138684Y-62159866D01*
X103138684Y-62159866D02*
X103172017Y-62093200D01*
X103172017Y-62093200D02*
X103172017Y-62026533D01*
X103172017Y-62026533D02*
X103138684Y-61959866D01*
X103138684Y-61959866D02*
X103105350Y-61926533D01*
X103105350Y-61926533D02*
X103038684Y-61893200D01*
X103038684Y-61893200D02*
X102905350Y-61859866D01*
X102905350Y-61859866D02*
X102838684Y-61826533D01*
X102838684Y-61826533D02*
X102805350Y-61793200D01*
X102805350Y-61793200D02*
X102772017Y-61726533D01*
X102772017Y-61726533D02*
X102772017Y-61659866D01*
X102772017Y-61659866D02*
X102805350Y-61593200D01*
X102805350Y-61593200D02*
X102838684Y-61559866D01*
X102838684Y-61559866D02*
X102905350Y-61526533D01*
X102905350Y-61526533D02*
X103072017Y-61526533D01*
X103072017Y-61526533D02*
X103172017Y-61559866D01*
X146432017Y-78336533D02*
X146765350Y-78336533D01*
X146365350Y-78536533D02*
X146598684Y-77836533D01*
X146598684Y-77836533D02*
X146832017Y-78536533D01*
D11*
X123831428Y-64881760D02*
X123945714Y-64919855D01*
X123945714Y-64919855D02*
X124136190Y-64919855D01*
X124136190Y-64919855D02*
X124212381Y-64881760D01*
X124212381Y-64881760D02*
X124250476Y-64843664D01*
X124250476Y-64843664D02*
X124288571Y-64767474D01*
X124288571Y-64767474D02*
X124288571Y-64691283D01*
X124288571Y-64691283D02*
X124250476Y-64615093D01*
X124250476Y-64615093D02*
X124212381Y-64576998D01*
X124212381Y-64576998D02*
X124136190Y-64538902D01*
X124136190Y-64538902D02*
X123983809Y-64500807D01*
X123983809Y-64500807D02*
X123907619Y-64462712D01*
X123907619Y-64462712D02*
X123869524Y-64424617D01*
X123869524Y-64424617D02*
X123831428Y-64348426D01*
X123831428Y-64348426D02*
X123831428Y-64272236D01*
X123831428Y-64272236D02*
X123869524Y-64196045D01*
X123869524Y-64196045D02*
X123907619Y-64157950D01*
X123907619Y-64157950D02*
X123983809Y-64119855D01*
X123983809Y-64119855D02*
X124174286Y-64119855D01*
X124174286Y-64119855D02*
X124288571Y-64157950D01*
X125088572Y-64843664D02*
X125050476Y-64881760D01*
X125050476Y-64881760D02*
X124936191Y-64919855D01*
X124936191Y-64919855D02*
X124860000Y-64919855D01*
X124860000Y-64919855D02*
X124745714Y-64881760D01*
X124745714Y-64881760D02*
X124669524Y-64805569D01*
X124669524Y-64805569D02*
X124631429Y-64729379D01*
X124631429Y-64729379D02*
X124593333Y-64576998D01*
X124593333Y-64576998D02*
X124593333Y-64462712D01*
X124593333Y-64462712D02*
X124631429Y-64310331D01*
X124631429Y-64310331D02*
X124669524Y-64234140D01*
X124669524Y-64234140D02*
X124745714Y-64157950D01*
X124745714Y-64157950D02*
X124860000Y-64119855D01*
X124860000Y-64119855D02*
X124936191Y-64119855D01*
X124936191Y-64119855D02*
X125050476Y-64157950D01*
X125050476Y-64157950D02*
X125088572Y-64196045D01*
X143789524Y-66933900D02*
X143789524Y-66133900D01*
X143789524Y-66133900D02*
X144056190Y-66705328D01*
X144056190Y-66705328D02*
X144322857Y-66133900D01*
X144322857Y-66133900D02*
X144322857Y-66933900D01*
X144856191Y-66133900D02*
X145008572Y-66133900D01*
X145008572Y-66133900D02*
X145084762Y-66171995D01*
X145084762Y-66171995D02*
X145160953Y-66248185D01*
X145160953Y-66248185D02*
X145199048Y-66400566D01*
X145199048Y-66400566D02*
X145199048Y-66667233D01*
X145199048Y-66667233D02*
X145160953Y-66819614D01*
X145160953Y-66819614D02*
X145084762Y-66895805D01*
X145084762Y-66895805D02*
X145008572Y-66933900D01*
X145008572Y-66933900D02*
X144856191Y-66933900D01*
X144856191Y-66933900D02*
X144780000Y-66895805D01*
X144780000Y-66895805D02*
X144703810Y-66819614D01*
X144703810Y-66819614D02*
X144665714Y-66667233D01*
X144665714Y-66667233D02*
X144665714Y-66400566D01*
X144665714Y-66400566D02*
X144703810Y-66248185D01*
X144703810Y-66248185D02*
X144780000Y-66171995D01*
X144780000Y-66171995D02*
X144856191Y-66133900D01*
X145427619Y-66133900D02*
X145884762Y-66133900D01*
X145656190Y-66933900D02*
X145656190Y-66133900D01*
X145027619Y-68145664D02*
X144989523Y-68183760D01*
X144989523Y-68183760D02*
X144875238Y-68221855D01*
X144875238Y-68221855D02*
X144799047Y-68221855D01*
X144799047Y-68221855D02*
X144684761Y-68183760D01*
X144684761Y-68183760D02*
X144608571Y-68107569D01*
X144608571Y-68107569D02*
X144570476Y-68031379D01*
X144570476Y-68031379D02*
X144532380Y-67878998D01*
X144532380Y-67878998D02*
X144532380Y-67764712D01*
X144532380Y-67764712D02*
X144570476Y-67612331D01*
X144570476Y-67612331D02*
X144608571Y-67536140D01*
X144608571Y-67536140D02*
X144684761Y-67459950D01*
X144684761Y-67459950D02*
X144799047Y-67421855D01*
X144799047Y-67421855D02*
X144875238Y-67421855D01*
X144875238Y-67421855D02*
X144989523Y-67459950D01*
X144989523Y-67459950D02*
X145027619Y-67498045D01*
D12*
X100020684Y-72612533D02*
X100454017Y-72612533D01*
X100454017Y-72612533D02*
X100220684Y-72879200D01*
X100220684Y-72879200D02*
X100320684Y-72879200D01*
X100320684Y-72879200D02*
X100387350Y-72912533D01*
X100387350Y-72912533D02*
X100420684Y-72945866D01*
X100420684Y-72945866D02*
X100454017Y-73012533D01*
X100454017Y-73012533D02*
X100454017Y-73179200D01*
X100454017Y-73179200D02*
X100420684Y-73245866D01*
X100420684Y-73245866D02*
X100387350Y-73279200D01*
X100387350Y-73279200D02*
X100320684Y-73312533D01*
X100320684Y-73312533D02*
X100120684Y-73312533D01*
X100120684Y-73312533D02*
X100054017Y-73279200D01*
X100054017Y-73279200D02*
X100020684Y-73245866D01*
X100754017Y-73245866D02*
X100787351Y-73279200D01*
X100787351Y-73279200D02*
X100754017Y-73312533D01*
X100754017Y-73312533D02*
X100720684Y-73279200D01*
X100720684Y-73279200D02*
X100754017Y-73245866D01*
X100754017Y-73245866D02*
X100754017Y-73312533D01*
X101020684Y-72612533D02*
X101454017Y-72612533D01*
X101454017Y-72612533D02*
X101220684Y-72879200D01*
X101220684Y-72879200D02*
X101320684Y-72879200D01*
X101320684Y-72879200D02*
X101387350Y-72912533D01*
X101387350Y-72912533D02*
X101420684Y-72945866D01*
X101420684Y-72945866D02*
X101454017Y-73012533D01*
X101454017Y-73012533D02*
X101454017Y-73179200D01*
X101454017Y-73179200D02*
X101420684Y-73245866D01*
X101420684Y-73245866D02*
X101387350Y-73279200D01*
X101387350Y-73279200D02*
X101320684Y-73312533D01*
X101320684Y-73312533D02*
X101120684Y-73312533D01*
X101120684Y-73312533D02*
X101054017Y-73279200D01*
X101054017Y-73279200D02*
X101020684Y-73245866D01*
X101654017Y-72612533D02*
X101887351Y-73312533D01*
X101887351Y-73312533D02*
X102120684Y-72612533D01*
X107005350Y-62206533D02*
X107005350Y-61506533D01*
X107005350Y-61506533D02*
X107238684Y-62006533D01*
X107238684Y-62006533D02*
X107472017Y-61506533D01*
X107472017Y-61506533D02*
X107472017Y-62206533D01*
X107938684Y-61506533D02*
X108072017Y-61506533D01*
X108072017Y-61506533D02*
X108138684Y-61539866D01*
X108138684Y-61539866D02*
X108205350Y-61606533D01*
X108205350Y-61606533D02*
X108238684Y-61739866D01*
X108238684Y-61739866D02*
X108238684Y-61973200D01*
X108238684Y-61973200D02*
X108205350Y-62106533D01*
X108205350Y-62106533D02*
X108138684Y-62173200D01*
X108138684Y-62173200D02*
X108072017Y-62206533D01*
X108072017Y-62206533D02*
X107938684Y-62206533D01*
X107938684Y-62206533D02*
X107872017Y-62173200D01*
X107872017Y-62173200D02*
X107805350Y-62106533D01*
X107805350Y-62106533D02*
X107772017Y-61973200D01*
X107772017Y-61973200D02*
X107772017Y-61739866D01*
X107772017Y-61739866D02*
X107805350Y-61606533D01*
X107805350Y-61606533D02*
X107872017Y-61539866D01*
X107872017Y-61539866D02*
X107938684Y-61506533D01*
X108505350Y-62173200D02*
X108605350Y-62206533D01*
X108605350Y-62206533D02*
X108772017Y-62206533D01*
X108772017Y-62206533D02*
X108838683Y-62173200D01*
X108838683Y-62173200D02*
X108872017Y-62139866D01*
X108872017Y-62139866D02*
X108905350Y-62073200D01*
X108905350Y-62073200D02*
X108905350Y-62006533D01*
X108905350Y-62006533D02*
X108872017Y-61939866D01*
X108872017Y-61939866D02*
X108838683Y-61906533D01*
X108838683Y-61906533D02*
X108772017Y-61873200D01*
X108772017Y-61873200D02*
X108638683Y-61839866D01*
X108638683Y-61839866D02*
X108572017Y-61806533D01*
X108572017Y-61806533D02*
X108538683Y-61773200D01*
X108538683Y-61773200D02*
X108505350Y-61706533D01*
X108505350Y-61706533D02*
X108505350Y-61639866D01*
X108505350Y-61639866D02*
X108538683Y-61573200D01*
X108538683Y-61573200D02*
X108572017Y-61539866D01*
X108572017Y-61539866D02*
X108638683Y-61506533D01*
X108638683Y-61506533D02*
X108805350Y-61506533D01*
X108805350Y-61506533D02*
X108905350Y-61539866D01*
X109205350Y-62206533D02*
X109205350Y-61506533D01*
X146648684Y-75459866D02*
X146748684Y-75493200D01*
X146748684Y-75493200D02*
X146782017Y-75526533D01*
X146782017Y-75526533D02*
X146815350Y-75593200D01*
X146815350Y-75593200D02*
X146815350Y-75693200D01*
X146815350Y-75693200D02*
X146782017Y-75759866D01*
X146782017Y-75759866D02*
X146748684Y-75793200D01*
X146748684Y-75793200D02*
X146682017Y-75826533D01*
X146682017Y-75826533D02*
X146415350Y-75826533D01*
X146415350Y-75826533D02*
X146415350Y-75126533D01*
X146415350Y-75126533D02*
X146648684Y-75126533D01*
X146648684Y-75126533D02*
X146715350Y-75159866D01*
X146715350Y-75159866D02*
X146748684Y-75193200D01*
X146748684Y-75193200D02*
X146782017Y-75259866D01*
X146782017Y-75259866D02*
X146782017Y-75326533D01*
X146782017Y-75326533D02*
X146748684Y-75393200D01*
X146748684Y-75393200D02*
X146715350Y-75426533D01*
X146715350Y-75426533D02*
X146648684Y-75459866D01*
X146648684Y-75459866D02*
X146415350Y-75459866D01*
D11*
X112156375Y-78127855D02*
X111775423Y-78127855D01*
X111775423Y-78127855D02*
X111775423Y-77327855D01*
X112689708Y-77708807D02*
X112803994Y-77746902D01*
X112803994Y-77746902D02*
X112842089Y-77784998D01*
X112842089Y-77784998D02*
X112880185Y-77861188D01*
X112880185Y-77861188D02*
X112880185Y-77975474D01*
X112880185Y-77975474D02*
X112842089Y-78051664D01*
X112842089Y-78051664D02*
X112803994Y-78089760D01*
X112803994Y-78089760D02*
X112727804Y-78127855D01*
X112727804Y-78127855D02*
X112423042Y-78127855D01*
X112423042Y-78127855D02*
X112423042Y-77327855D01*
X112423042Y-77327855D02*
X112689708Y-77327855D01*
X112689708Y-77327855D02*
X112765899Y-77365950D01*
X112765899Y-77365950D02*
X112803994Y-77404045D01*
X112803994Y-77404045D02*
X112842089Y-77480236D01*
X112842089Y-77480236D02*
X112842089Y-77556426D01*
X112842089Y-77556426D02*
X112803994Y-77632617D01*
X112803994Y-77632617D02*
X112765899Y-77670712D01*
X112765899Y-77670712D02*
X112689708Y-77708807D01*
X112689708Y-77708807D02*
X112423042Y-77708807D01*
X110251423Y-76603855D02*
X110251423Y-75803855D01*
X110251423Y-76184807D02*
X110708566Y-76184807D01*
X110708566Y-76603855D02*
X110708566Y-75803855D01*
X111356184Y-76184807D02*
X111470470Y-76222902D01*
X111470470Y-76222902D02*
X111508565Y-76260998D01*
X111508565Y-76260998D02*
X111546661Y-76337188D01*
X111546661Y-76337188D02*
X111546661Y-76451474D01*
X111546661Y-76451474D02*
X111508565Y-76527664D01*
X111508565Y-76527664D02*
X111470470Y-76565760D01*
X111470470Y-76565760D02*
X111394280Y-76603855D01*
X111394280Y-76603855D02*
X111089518Y-76603855D01*
X111089518Y-76603855D02*
X111089518Y-75803855D01*
X111089518Y-75803855D02*
X111356184Y-75803855D01*
X111356184Y-75803855D02*
X111432375Y-75841950D01*
X111432375Y-75841950D02*
X111470470Y-75880045D01*
X111470470Y-75880045D02*
X111508565Y-75956236D01*
X111508565Y-75956236D02*
X111508565Y-76032426D01*
X111508565Y-76032426D02*
X111470470Y-76108617D01*
X111470470Y-76108617D02*
X111432375Y-76146712D01*
X111432375Y-76146712D02*
X111356184Y-76184807D01*
X111356184Y-76184807D02*
X111089518Y-76184807D01*
D12*
X100325350Y-62669866D02*
X100325350Y-63136533D01*
X100325350Y-62736533D02*
X100358684Y-62703200D01*
X100358684Y-62703200D02*
X100425350Y-62669866D01*
X100425350Y-62669866D02*
X100525350Y-62669866D01*
X100525350Y-62669866D02*
X100592017Y-62703200D01*
X100592017Y-62703200D02*
X100625350Y-62769866D01*
X100625350Y-62769866D02*
X100625350Y-63136533D01*
X101192017Y-62769866D02*
X100958683Y-62769866D01*
X100958683Y-63136533D02*
X100958683Y-62436533D01*
X100958683Y-62436533D02*
X101292017Y-62436533D01*
X101892017Y-63136533D02*
X101558683Y-63136533D01*
X101558683Y-63136533D02*
X101558683Y-62436533D01*
X102025350Y-62436533D02*
X102425350Y-62436533D01*
X102225350Y-63136533D02*
X102225350Y-62436533D01*
X104875350Y-62109866D02*
X104842017Y-62143200D01*
X104842017Y-62143200D02*
X104742017Y-62176533D01*
X104742017Y-62176533D02*
X104675350Y-62176533D01*
X104675350Y-62176533D02*
X104575350Y-62143200D01*
X104575350Y-62143200D02*
X104508684Y-62076533D01*
X104508684Y-62076533D02*
X104475350Y-62009866D01*
X104475350Y-62009866D02*
X104442017Y-61876533D01*
X104442017Y-61876533D02*
X104442017Y-61776533D01*
X104442017Y-61776533D02*
X104475350Y-61643200D01*
X104475350Y-61643200D02*
X104508684Y-61576533D01*
X104508684Y-61576533D02*
X104575350Y-61509866D01*
X104575350Y-61509866D02*
X104675350Y-61476533D01*
X104675350Y-61476533D02*
X104742017Y-61476533D01*
X104742017Y-61476533D02*
X104842017Y-61509866D01*
X104842017Y-61509866D02*
X104875350Y-61543200D01*
X105508684Y-62176533D02*
X105175350Y-62176533D01*
X105175350Y-62176533D02*
X105175350Y-61476533D01*
X105742017Y-62176533D02*
X105742017Y-61476533D01*
X106142017Y-62176533D02*
X105842017Y-61776533D01*
X106142017Y-61476533D02*
X105742017Y-61876533D01*
X106015350Y-80789866D02*
X105982017Y-80823200D01*
X105982017Y-80823200D02*
X105882017Y-80856533D01*
X105882017Y-80856533D02*
X105815350Y-80856533D01*
X105815350Y-80856533D02*
X105715350Y-80823200D01*
X105715350Y-80823200D02*
X105648684Y-80756533D01*
X105648684Y-80756533D02*
X105615350Y-80689866D01*
X105615350Y-80689866D02*
X105582017Y-80556533D01*
X105582017Y-80556533D02*
X105582017Y-80456533D01*
X105582017Y-80456533D02*
X105615350Y-80323200D01*
X105615350Y-80323200D02*
X105648684Y-80256533D01*
X105648684Y-80256533D02*
X105715350Y-80189866D01*
X105715350Y-80189866D02*
X105815350Y-80156533D01*
X105815350Y-80156533D02*
X105882017Y-80156533D01*
X105882017Y-80156533D02*
X105982017Y-80189866D01*
X105982017Y-80189866D02*
X106015350Y-80223200D01*
D11*
X110251423Y-73555855D02*
X110251423Y-72755855D01*
X110251423Y-73136807D02*
X110708566Y-73136807D01*
X110708566Y-73555855D02*
X110708566Y-72755855D01*
X111051422Y-73327283D02*
X111432375Y-73327283D01*
X110975232Y-73555855D02*
X111241899Y-72755855D01*
X111241899Y-72755855D02*
X111508565Y-73555855D01*
X143789524Y-82427900D02*
X143789524Y-81627900D01*
X143789524Y-81627900D02*
X144056190Y-82199328D01*
X144056190Y-82199328D02*
X144322857Y-81627900D01*
X144322857Y-81627900D02*
X144322857Y-82427900D01*
X144856191Y-81627900D02*
X145008572Y-81627900D01*
X145008572Y-81627900D02*
X145084762Y-81665995D01*
X145084762Y-81665995D02*
X145160953Y-81742185D01*
X145160953Y-81742185D02*
X145199048Y-81894566D01*
X145199048Y-81894566D02*
X145199048Y-82161233D01*
X145199048Y-82161233D02*
X145160953Y-82313614D01*
X145160953Y-82313614D02*
X145084762Y-82389805D01*
X145084762Y-82389805D02*
X145008572Y-82427900D01*
X145008572Y-82427900D02*
X144856191Y-82427900D01*
X144856191Y-82427900D02*
X144780000Y-82389805D01*
X144780000Y-82389805D02*
X144703810Y-82313614D01*
X144703810Y-82313614D02*
X144665714Y-82161233D01*
X144665714Y-82161233D02*
X144665714Y-81894566D01*
X144665714Y-81894566D02*
X144703810Y-81742185D01*
X144703810Y-81742185D02*
X144780000Y-81665995D01*
X144780000Y-81665995D02*
X144856191Y-81627900D01*
X145427619Y-81627900D02*
X145884762Y-81627900D01*
X145656190Y-82427900D02*
X145656190Y-81627900D01*
X144837142Y-83296807D02*
X144951428Y-83334902D01*
X144951428Y-83334902D02*
X144989523Y-83372998D01*
X144989523Y-83372998D02*
X145027619Y-83449188D01*
X145027619Y-83449188D02*
X145027619Y-83563474D01*
X145027619Y-83563474D02*
X144989523Y-83639664D01*
X144989523Y-83639664D02*
X144951428Y-83677760D01*
X144951428Y-83677760D02*
X144875238Y-83715855D01*
X144875238Y-83715855D02*
X144570476Y-83715855D01*
X144570476Y-83715855D02*
X144570476Y-82915855D01*
X144570476Y-82915855D02*
X144837142Y-82915855D01*
X144837142Y-82915855D02*
X144913333Y-82953950D01*
X144913333Y-82953950D02*
X144951428Y-82992045D01*
X144951428Y-82992045D02*
X144989523Y-83068236D01*
X144989523Y-83068236D02*
X144989523Y-83144426D01*
X144989523Y-83144426D02*
X144951428Y-83220617D01*
X144951428Y-83220617D02*
X144913333Y-83258712D01*
X144913333Y-83258712D02*
X144837142Y-83296807D01*
X144837142Y-83296807D02*
X144570476Y-83296807D01*
X110251423Y-79651855D02*
X110251423Y-78851855D01*
X110251423Y-79232807D02*
X110708566Y-79232807D01*
X110708566Y-79651855D02*
X110708566Y-78851855D01*
X111546661Y-79575664D02*
X111508565Y-79613760D01*
X111508565Y-79613760D02*
X111394280Y-79651855D01*
X111394280Y-79651855D02*
X111318089Y-79651855D01*
X111318089Y-79651855D02*
X111203803Y-79613760D01*
X111203803Y-79613760D02*
X111127613Y-79537569D01*
X111127613Y-79537569D02*
X111089518Y-79461379D01*
X111089518Y-79461379D02*
X111051422Y-79308998D01*
X111051422Y-79308998D02*
X111051422Y-79194712D01*
X111051422Y-79194712D02*
X111089518Y-79042331D01*
X111089518Y-79042331D02*
X111127613Y-78966140D01*
X111127613Y-78966140D02*
X111203803Y-78889950D01*
X111203803Y-78889950D02*
X111318089Y-78851855D01*
X111318089Y-78851855D02*
X111394280Y-78851855D01*
X111394280Y-78851855D02*
X111508565Y-78889950D01*
X111508565Y-78889950D02*
X111546661Y-78928045D01*
D12*
X100292017Y-91629866D02*
X100225350Y-91596533D01*
X100225350Y-91596533D02*
X100125350Y-91596533D01*
X100125350Y-91596533D02*
X100025350Y-91629866D01*
X100025350Y-91629866D02*
X99958684Y-91696533D01*
X99958684Y-91696533D02*
X99925350Y-91763200D01*
X99925350Y-91763200D02*
X99892017Y-91896533D01*
X99892017Y-91896533D02*
X99892017Y-91996533D01*
X99892017Y-91996533D02*
X99925350Y-92129866D01*
X99925350Y-92129866D02*
X99958684Y-92196533D01*
X99958684Y-92196533D02*
X100025350Y-92263200D01*
X100025350Y-92263200D02*
X100125350Y-92296533D01*
X100125350Y-92296533D02*
X100192017Y-92296533D01*
X100192017Y-92296533D02*
X100292017Y-92263200D01*
X100292017Y-92263200D02*
X100325350Y-92229866D01*
X100325350Y-92229866D02*
X100325350Y-91996533D01*
X100325350Y-91996533D02*
X100192017Y-91996533D01*
X100625350Y-92296533D02*
X100625350Y-91596533D01*
X100625350Y-91596533D02*
X101025350Y-92296533D01*
X101025350Y-92296533D02*
X101025350Y-91596533D01*
X101358683Y-92296533D02*
X101358683Y-91596533D01*
X101358683Y-91596533D02*
X101525350Y-91596533D01*
X101525350Y-91596533D02*
X101625350Y-91629866D01*
X101625350Y-91629866D02*
X101692017Y-91696533D01*
X101692017Y-91696533D02*
X101725350Y-91763200D01*
X101725350Y-91763200D02*
X101758683Y-91896533D01*
X101758683Y-91896533D02*
X101758683Y-91996533D01*
X101758683Y-91996533D02*
X101725350Y-92129866D01*
X101725350Y-92129866D02*
X101692017Y-92196533D01*
X101692017Y-92196533D02*
X101625350Y-92263200D01*
X101625350Y-92263200D02*
X101525350Y-92296533D01*
X101525350Y-92296533D02*
X101358683Y-92296533D01*
D13*
X99802192Y-95277573D02*
X100035526Y-95977573D01*
X100035526Y-95977573D02*
X100268859Y-95277573D01*
X100502192Y-95977573D02*
X100502192Y-95277573D01*
X100502192Y-95277573D02*
X100735526Y-95777573D01*
X100735526Y-95777573D02*
X100968859Y-95277573D01*
X100968859Y-95277573D02*
X100968859Y-95977573D01*
X101435526Y-95277573D02*
X101568859Y-95277573D01*
X101568859Y-95277573D02*
X101635526Y-95310906D01*
X101635526Y-95310906D02*
X101702192Y-95377573D01*
X101702192Y-95377573D02*
X101735526Y-95510906D01*
X101735526Y-95510906D02*
X101735526Y-95744240D01*
X101735526Y-95744240D02*
X101702192Y-95877573D01*
X101702192Y-95877573D02*
X101635526Y-95944240D01*
X101635526Y-95944240D02*
X101568859Y-95977573D01*
X101568859Y-95977573D02*
X101435526Y-95977573D01*
X101435526Y-95977573D02*
X101368859Y-95944240D01*
X101368859Y-95944240D02*
X101302192Y-95877573D01*
X101302192Y-95877573D02*
X101268859Y-95744240D01*
X101268859Y-95744240D02*
X101268859Y-95510906D01*
X101268859Y-95510906D02*
X101302192Y-95377573D01*
X101302192Y-95377573D02*
X101368859Y-95310906D01*
X101368859Y-95310906D02*
X101435526Y-95277573D01*
X101935525Y-95277573D02*
X102335525Y-95277573D01*
X102135525Y-95977573D02*
X102135525Y-95277573D01*
D12*
X100265350Y-96916533D02*
X100198684Y-96883200D01*
X100198684Y-96883200D02*
X100165350Y-96849866D01*
X100165350Y-96849866D02*
X100132017Y-96783200D01*
X100132017Y-96783200D02*
X100132017Y-96749866D01*
X100132017Y-96749866D02*
X100165350Y-96683200D01*
X100165350Y-96683200D02*
X100198684Y-96649866D01*
X100198684Y-96649866D02*
X100265350Y-96616533D01*
X100265350Y-96616533D02*
X100398684Y-96616533D01*
X100398684Y-96616533D02*
X100465350Y-96649866D01*
X100465350Y-96649866D02*
X100498684Y-96683200D01*
X100498684Y-96683200D02*
X100532017Y-96749866D01*
X100532017Y-96749866D02*
X100532017Y-96783200D01*
X100532017Y-96783200D02*
X100498684Y-96849866D01*
X100498684Y-96849866D02*
X100465350Y-96883200D01*
X100465350Y-96883200D02*
X100398684Y-96916533D01*
X100398684Y-96916533D02*
X100265350Y-96916533D01*
X100265350Y-96916533D02*
X100198684Y-96949866D01*
X100198684Y-96949866D02*
X100165350Y-96983200D01*
X100165350Y-96983200D02*
X100132017Y-97049866D01*
X100132017Y-97049866D02*
X100132017Y-97183200D01*
X100132017Y-97183200D02*
X100165350Y-97249866D01*
X100165350Y-97249866D02*
X100198684Y-97283200D01*
X100198684Y-97283200D02*
X100265350Y-97316533D01*
X100265350Y-97316533D02*
X100398684Y-97316533D01*
X100398684Y-97316533D02*
X100465350Y-97283200D01*
X100465350Y-97283200D02*
X100498684Y-97249866D01*
X100498684Y-97249866D02*
X100532017Y-97183200D01*
X100532017Y-97183200D02*
X100532017Y-97049866D01*
X100532017Y-97049866D02*
X100498684Y-96983200D01*
X100498684Y-96983200D02*
X100465350Y-96949866D01*
X100465350Y-96949866D02*
X100398684Y-96916533D01*
X100832017Y-97049866D02*
X101365351Y-97049866D01*
X101998684Y-96849866D02*
X101998684Y-97316533D01*
X101832018Y-96583200D02*
X101665351Y-97083200D01*
X101665351Y-97083200D02*
X102098684Y-97083200D01*
X102698685Y-96616533D02*
X102365351Y-96616533D01*
X102365351Y-96616533D02*
X102332018Y-96949866D01*
X102332018Y-96949866D02*
X102365351Y-96916533D01*
X102365351Y-96916533D02*
X102432018Y-96883200D01*
X102432018Y-96883200D02*
X102598685Y-96883200D01*
X102598685Y-96883200D02*
X102665351Y-96916533D01*
X102665351Y-96916533D02*
X102698685Y-96949866D01*
X102698685Y-96949866D02*
X102732018Y-97016533D01*
X102732018Y-97016533D02*
X102732018Y-97183200D01*
X102732018Y-97183200D02*
X102698685Y-97249866D01*
X102698685Y-97249866D02*
X102665351Y-97283200D01*
X102665351Y-97283200D02*
X102598685Y-97316533D01*
X102598685Y-97316533D02*
X102432018Y-97316533D01*
X102432018Y-97316533D02*
X102365351Y-97283200D01*
X102365351Y-97283200D02*
X102332018Y-97249866D01*
X102932018Y-96616533D02*
X103165352Y-97316533D01*
X103165352Y-97316533D02*
X103398685Y-96616533D01*
X104028684Y-82964533D02*
X103695350Y-82964533D01*
X103695350Y-82964533D02*
X103695350Y-82264533D01*
X104395351Y-82264533D02*
X104528684Y-82264533D01*
X104528684Y-82264533D02*
X104595351Y-82297866D01*
X104595351Y-82297866D02*
X104662017Y-82364533D01*
X104662017Y-82364533D02*
X104695351Y-82497866D01*
X104695351Y-82497866D02*
X104695351Y-82731200D01*
X104695351Y-82731200D02*
X104662017Y-82864533D01*
X104662017Y-82864533D02*
X104595351Y-82931200D01*
X104595351Y-82931200D02*
X104528684Y-82964533D01*
X104528684Y-82964533D02*
X104395351Y-82964533D01*
X104395351Y-82964533D02*
X104328684Y-82931200D01*
X104328684Y-82931200D02*
X104262017Y-82864533D01*
X104262017Y-82864533D02*
X104228684Y-82731200D01*
X104228684Y-82731200D02*
X104228684Y-82497866D01*
X104228684Y-82497866D02*
X104262017Y-82364533D01*
X104262017Y-82364533D02*
X104328684Y-82297866D01*
X104328684Y-82297866D02*
X104395351Y-82264533D01*
X100472017Y-67899866D02*
X100405350Y-67866533D01*
X100405350Y-67866533D02*
X100305350Y-67866533D01*
X100305350Y-67866533D02*
X100205350Y-67899866D01*
X100205350Y-67899866D02*
X100138684Y-67966533D01*
X100138684Y-67966533D02*
X100105350Y-68033200D01*
X100105350Y-68033200D02*
X100072017Y-68166533D01*
X100072017Y-68166533D02*
X100072017Y-68266533D01*
X100072017Y-68266533D02*
X100105350Y-68399866D01*
X100105350Y-68399866D02*
X100138684Y-68466533D01*
X100138684Y-68466533D02*
X100205350Y-68533200D01*
X100205350Y-68533200D02*
X100305350Y-68566533D01*
X100305350Y-68566533D02*
X100372017Y-68566533D01*
X100372017Y-68566533D02*
X100472017Y-68533200D01*
X100472017Y-68533200D02*
X100505350Y-68499866D01*
X100505350Y-68499866D02*
X100505350Y-68266533D01*
X100505350Y-68266533D02*
X100372017Y-68266533D01*
X100805350Y-68566533D02*
X100805350Y-67866533D01*
X100805350Y-67866533D02*
X101205350Y-68566533D01*
X101205350Y-68566533D02*
X101205350Y-67866533D01*
X101538683Y-68566533D02*
X101538683Y-67866533D01*
X101538683Y-67866533D02*
X101705350Y-67866533D01*
X101705350Y-67866533D02*
X101805350Y-67899866D01*
X101805350Y-67899866D02*
X101872017Y-67966533D01*
X101872017Y-67966533D02*
X101905350Y-68033200D01*
X101905350Y-68033200D02*
X101938683Y-68166533D01*
X101938683Y-68166533D02*
X101938683Y-68266533D01*
X101938683Y-68266533D02*
X101905350Y-68399866D01*
X101905350Y-68399866D02*
X101872017Y-68466533D01*
X101872017Y-68466533D02*
X101805350Y-68533200D01*
X101805350Y-68533200D02*
X101705350Y-68566533D01*
X101705350Y-68566533D02*
X101538683Y-68566533D01*
X110005350Y-62256533D02*
X110005350Y-61556533D01*
X110005350Y-61556533D02*
X110238684Y-62056533D01*
X110238684Y-62056533D02*
X110472017Y-61556533D01*
X110472017Y-61556533D02*
X110472017Y-62256533D01*
X110805350Y-62256533D02*
X110805350Y-61556533D01*
X111105350Y-62223200D02*
X111205350Y-62256533D01*
X111205350Y-62256533D02*
X111372017Y-62256533D01*
X111372017Y-62256533D02*
X111438683Y-62223200D01*
X111438683Y-62223200D02*
X111472017Y-62189866D01*
X111472017Y-62189866D02*
X111505350Y-62123200D01*
X111505350Y-62123200D02*
X111505350Y-62056533D01*
X111505350Y-62056533D02*
X111472017Y-61989866D01*
X111472017Y-61989866D02*
X111438683Y-61956533D01*
X111438683Y-61956533D02*
X111372017Y-61923200D01*
X111372017Y-61923200D02*
X111238683Y-61889866D01*
X111238683Y-61889866D02*
X111172017Y-61856533D01*
X111172017Y-61856533D02*
X111138683Y-61823200D01*
X111138683Y-61823200D02*
X111105350Y-61756533D01*
X111105350Y-61756533D02*
X111105350Y-61689866D01*
X111105350Y-61689866D02*
X111138683Y-61623200D01*
X111138683Y-61623200D02*
X111172017Y-61589866D01*
X111172017Y-61589866D02*
X111238683Y-61556533D01*
X111238683Y-61556533D02*
X111405350Y-61556533D01*
X111405350Y-61556533D02*
X111505350Y-61589866D01*
X111938684Y-61556533D02*
X112072017Y-61556533D01*
X112072017Y-61556533D02*
X112138684Y-61589866D01*
X112138684Y-61589866D02*
X112205350Y-61656533D01*
X112205350Y-61656533D02*
X112238684Y-61789866D01*
X112238684Y-61789866D02*
X112238684Y-62023200D01*
X112238684Y-62023200D02*
X112205350Y-62156533D01*
X112205350Y-62156533D02*
X112138684Y-62223200D01*
X112138684Y-62223200D02*
X112072017Y-62256533D01*
X112072017Y-62256533D02*
X111938684Y-62256533D01*
X111938684Y-62256533D02*
X111872017Y-62223200D01*
X111872017Y-62223200D02*
X111805350Y-62156533D01*
X111805350Y-62156533D02*
X111772017Y-62023200D01*
X111772017Y-62023200D02*
X111772017Y-61789866D01*
X111772017Y-61789866D02*
X111805350Y-61656533D01*
X111805350Y-61656533D02*
X111872017Y-61589866D01*
X111872017Y-61589866D02*
X111938684Y-61556533D01*
D11*
X112156375Y-75079855D02*
X111775423Y-75079855D01*
X111775423Y-75079855D02*
X111775423Y-74279855D01*
X112384946Y-74851283D02*
X112765899Y-74851283D01*
X112308756Y-75079855D02*
X112575423Y-74279855D01*
X112575423Y-74279855D02*
X112842089Y-75079855D01*
D12*
X105712017Y-75476533D02*
X106045350Y-75476533D01*
X105645350Y-75676533D02*
X105878684Y-74976533D01*
X105878684Y-74976533D02*
X106112017Y-75676533D01*
D11*
X143279524Y-90457900D02*
X143279524Y-89657900D01*
X143279524Y-89657900D02*
X143546190Y-90229328D01*
X143546190Y-90229328D02*
X143812857Y-89657900D01*
X143812857Y-89657900D02*
X143812857Y-90457900D01*
X144346191Y-89657900D02*
X144498572Y-89657900D01*
X144498572Y-89657900D02*
X144574762Y-89695995D01*
X144574762Y-89695995D02*
X144650953Y-89772185D01*
X144650953Y-89772185D02*
X144689048Y-89924566D01*
X144689048Y-89924566D02*
X144689048Y-90191233D01*
X144689048Y-90191233D02*
X144650953Y-90343614D01*
X144650953Y-90343614D02*
X144574762Y-90419805D01*
X144574762Y-90419805D02*
X144498572Y-90457900D01*
X144498572Y-90457900D02*
X144346191Y-90457900D01*
X144346191Y-90457900D02*
X144270000Y-90419805D01*
X144270000Y-90419805D02*
X144193810Y-90343614D01*
X144193810Y-90343614D02*
X144155714Y-90191233D01*
X144155714Y-90191233D02*
X144155714Y-89924566D01*
X144155714Y-89924566D02*
X144193810Y-89772185D01*
X144193810Y-89772185D02*
X144270000Y-89695995D01*
X144270000Y-89695995D02*
X144346191Y-89657900D01*
X144917619Y-89657900D02*
X145374762Y-89657900D01*
X145146190Y-90457900D02*
X145146190Y-89657900D01*
X144079523Y-91517283D02*
X144460476Y-91517283D01*
X144003333Y-91745855D02*
X144270000Y-90945855D01*
X144270000Y-90945855D02*
X144536666Y-91745855D01*
X118808571Y-64881760D02*
X118922857Y-64919855D01*
X118922857Y-64919855D02*
X119113333Y-64919855D01*
X119113333Y-64919855D02*
X119189524Y-64881760D01*
X119189524Y-64881760D02*
X119227619Y-64843664D01*
X119227619Y-64843664D02*
X119265714Y-64767474D01*
X119265714Y-64767474D02*
X119265714Y-64691283D01*
X119265714Y-64691283D02*
X119227619Y-64615093D01*
X119227619Y-64615093D02*
X119189524Y-64576998D01*
X119189524Y-64576998D02*
X119113333Y-64538902D01*
X119113333Y-64538902D02*
X118960952Y-64500807D01*
X118960952Y-64500807D02*
X118884762Y-64462712D01*
X118884762Y-64462712D02*
X118846667Y-64424617D01*
X118846667Y-64424617D02*
X118808571Y-64348426D01*
X118808571Y-64348426D02*
X118808571Y-64272236D01*
X118808571Y-64272236D02*
X118846667Y-64196045D01*
X118846667Y-64196045D02*
X118884762Y-64157950D01*
X118884762Y-64157950D02*
X118960952Y-64119855D01*
X118960952Y-64119855D02*
X119151429Y-64119855D01*
X119151429Y-64119855D02*
X119265714Y-64157950D01*
X119570476Y-64691283D02*
X119951429Y-64691283D01*
X119494286Y-64919855D02*
X119760953Y-64119855D01*
X119760953Y-64119855D02*
X120027619Y-64919855D01*
D12*
X100925350Y-82994533D02*
X100925350Y-82294533D01*
X100925350Y-82627866D02*
X101325350Y-82627866D01*
X101325350Y-82994533D02*
X101325350Y-82294533D01*
X101658683Y-82994533D02*
X101658683Y-82294533D01*
D11*
X112928571Y-58785855D02*
X113195238Y-59585855D01*
X113195238Y-59585855D02*
X113461904Y-58785855D01*
X114185714Y-59585855D02*
X113919047Y-59204902D01*
X113728571Y-59585855D02*
X113728571Y-58785855D01*
X113728571Y-58785855D02*
X114033333Y-58785855D01*
X114033333Y-58785855D02*
X114109523Y-58823950D01*
X114109523Y-58823950D02*
X114147618Y-58862045D01*
X114147618Y-58862045D02*
X114185714Y-58938236D01*
X114185714Y-58938236D02*
X114185714Y-59052521D01*
X114185714Y-59052521D02*
X114147618Y-59128712D01*
X114147618Y-59128712D02*
X114109523Y-59166807D01*
X114109523Y-59166807D02*
X114033333Y-59204902D01*
X114033333Y-59204902D02*
X113728571Y-59204902D01*
X114528571Y-59166807D02*
X114795237Y-59166807D01*
X114909523Y-59585855D02*
X114528571Y-59585855D01*
X114528571Y-59585855D02*
X114528571Y-58785855D01*
X114528571Y-58785855D02*
X114909523Y-58785855D01*
X115519047Y-59166807D02*
X115252381Y-59166807D01*
X115252381Y-59585855D02*
X115252381Y-58785855D01*
X115252381Y-58785855D02*
X115633333Y-58785855D01*
D12*
X127341333Y-73765580D02*
X127293714Y-73813200D01*
X127293714Y-73813200D02*
X127150857Y-73860819D01*
X127150857Y-73860819D02*
X127055619Y-73860819D01*
X127055619Y-73860819D02*
X126912762Y-73813200D01*
X126912762Y-73813200D02*
X126817524Y-73717961D01*
X126817524Y-73717961D02*
X126769905Y-73622723D01*
X126769905Y-73622723D02*
X126722286Y-73432247D01*
X126722286Y-73432247D02*
X126722286Y-73289390D01*
X126722286Y-73289390D02*
X126769905Y-73098914D01*
X126769905Y-73098914D02*
X126817524Y-73003676D01*
X126817524Y-73003676D02*
X126912762Y-72908438D01*
X126912762Y-72908438D02*
X127055619Y-72860819D01*
X127055619Y-72860819D02*
X127150857Y-72860819D01*
X127150857Y-72860819D02*
X127293714Y-72908438D01*
X127293714Y-72908438D02*
X127341333Y-72956057D01*
X127912762Y-73289390D02*
X127817524Y-73241771D01*
X127817524Y-73241771D02*
X127769905Y-73194152D01*
X127769905Y-73194152D02*
X127722286Y-73098914D01*
X127722286Y-73098914D02*
X127722286Y-73051295D01*
X127722286Y-73051295D02*
X127769905Y-72956057D01*
X127769905Y-72956057D02*
X127817524Y-72908438D01*
X127817524Y-72908438D02*
X127912762Y-72860819D01*
X127912762Y-72860819D02*
X128103238Y-72860819D01*
X128103238Y-72860819D02*
X128198476Y-72908438D01*
X128198476Y-72908438D02*
X128246095Y-72956057D01*
X128246095Y-72956057D02*
X128293714Y-73051295D01*
X128293714Y-73051295D02*
X128293714Y-73098914D01*
X128293714Y-73098914D02*
X128246095Y-73194152D01*
X128246095Y-73194152D02*
X128198476Y-73241771D01*
X128198476Y-73241771D02*
X128103238Y-73289390D01*
X128103238Y-73289390D02*
X127912762Y-73289390D01*
X127912762Y-73289390D02*
X127817524Y-73337009D01*
X127817524Y-73337009D02*
X127769905Y-73384628D01*
X127769905Y-73384628D02*
X127722286Y-73479866D01*
X127722286Y-73479866D02*
X127722286Y-73670342D01*
X127722286Y-73670342D02*
X127769905Y-73765580D01*
X127769905Y-73765580D02*
X127817524Y-73813200D01*
X127817524Y-73813200D02*
X127912762Y-73860819D01*
X127912762Y-73860819D02*
X128103238Y-73860819D01*
X128103238Y-73860819D02*
X128198476Y-73813200D01*
X128198476Y-73813200D02*
X128246095Y-73765580D01*
X128246095Y-73765580D02*
X128293714Y-73670342D01*
X128293714Y-73670342D02*
X128293714Y-73479866D01*
X128293714Y-73479866D02*
X128246095Y-73384628D01*
X128246095Y-73384628D02*
X128198476Y-73337009D01*
X128198476Y-73337009D02*
X128103238Y-73289390D01*
X128833333Y-78954819D02*
X128500000Y-78478628D01*
X128261905Y-78954819D02*
X128261905Y-77954819D01*
X128261905Y-77954819D02*
X128642857Y-77954819D01*
X128642857Y-77954819D02*
X128738095Y-78002438D01*
X128738095Y-78002438D02*
X128785714Y-78050057D01*
X128785714Y-78050057D02*
X128833333Y-78145295D01*
X128833333Y-78145295D02*
X128833333Y-78288152D01*
X128833333Y-78288152D02*
X128785714Y-78383390D01*
X128785714Y-78383390D02*
X128738095Y-78431009D01*
X128738095Y-78431009D02*
X128642857Y-78478628D01*
X128642857Y-78478628D02*
X128261905Y-78478628D01*
X129690476Y-78288152D02*
X129690476Y-78954819D01*
X129452381Y-77907200D02*
X129214286Y-78621485D01*
X129214286Y-78621485D02*
X129833333Y-78621485D01*
X112833333Y-89359580D02*
X112785714Y-89407200D01*
X112785714Y-89407200D02*
X112642857Y-89454819D01*
X112642857Y-89454819D02*
X112547619Y-89454819D01*
X112547619Y-89454819D02*
X112404762Y-89407200D01*
X112404762Y-89407200D02*
X112309524Y-89311961D01*
X112309524Y-89311961D02*
X112261905Y-89216723D01*
X112261905Y-89216723D02*
X112214286Y-89026247D01*
X112214286Y-89026247D02*
X112214286Y-88883390D01*
X112214286Y-88883390D02*
X112261905Y-88692914D01*
X112261905Y-88692914D02*
X112309524Y-88597676D01*
X112309524Y-88597676D02*
X112404762Y-88502438D01*
X112404762Y-88502438D02*
X112547619Y-88454819D01*
X112547619Y-88454819D02*
X112642857Y-88454819D01*
X112642857Y-88454819D02*
X112785714Y-88502438D01*
X112785714Y-88502438D02*
X112833333Y-88550057D01*
X113785714Y-89454819D02*
X113214286Y-89454819D01*
X113500000Y-89454819D02*
X113500000Y-88454819D01*
X113500000Y-88454819D02*
X113404762Y-88597676D01*
X113404762Y-88597676D02*
X113309524Y-88692914D01*
X113309524Y-88692914D02*
X113214286Y-88740533D01*
X108629524Y-71745295D02*
X108629524Y-70945295D01*
X108629524Y-70945295D02*
X108820000Y-70945295D01*
X108820000Y-70945295D02*
X108934286Y-70983390D01*
X108934286Y-70983390D02*
X109010476Y-71059580D01*
X109010476Y-71059580D02*
X109048571Y-71135771D01*
X109048571Y-71135771D02*
X109086667Y-71288152D01*
X109086667Y-71288152D02*
X109086667Y-71402438D01*
X109086667Y-71402438D02*
X109048571Y-71554819D01*
X109048571Y-71554819D02*
X109010476Y-71631009D01*
X109010476Y-71631009D02*
X108934286Y-71707200D01*
X108934286Y-71707200D02*
X108820000Y-71745295D01*
X108820000Y-71745295D02*
X108629524Y-71745295D01*
X109848571Y-71745295D02*
X109391428Y-71745295D01*
X109620000Y-71745295D02*
X109620000Y-70945295D01*
X109620000Y-70945295D02*
X109543809Y-71059580D01*
X109543809Y-71059580D02*
X109467619Y-71135771D01*
X109467619Y-71135771D02*
X109391428Y-71173866D01*
X119033333Y-82159580D02*
X118985714Y-82207200D01*
X118985714Y-82207200D02*
X118842857Y-82254819D01*
X118842857Y-82254819D02*
X118747619Y-82254819D01*
X118747619Y-82254819D02*
X118604762Y-82207200D01*
X118604762Y-82207200D02*
X118509524Y-82111961D01*
X118509524Y-82111961D02*
X118461905Y-82016723D01*
X118461905Y-82016723D02*
X118414286Y-81826247D01*
X118414286Y-81826247D02*
X118414286Y-81683390D01*
X118414286Y-81683390D02*
X118461905Y-81492914D01*
X118461905Y-81492914D02*
X118509524Y-81397676D01*
X118509524Y-81397676D02*
X118604762Y-81302438D01*
X118604762Y-81302438D02*
X118747619Y-81254819D01*
X118747619Y-81254819D02*
X118842857Y-81254819D01*
X118842857Y-81254819D02*
X118985714Y-81302438D01*
X118985714Y-81302438D02*
X119033333Y-81350057D01*
X119890476Y-81588152D02*
X119890476Y-82254819D01*
X119652381Y-81207200D02*
X119414286Y-81921485D01*
X119414286Y-81921485D02*
X120033333Y-81921485D01*
X128865333Y-89860819D02*
X128532000Y-89384628D01*
X128293905Y-89860819D02*
X128293905Y-88860819D01*
X128293905Y-88860819D02*
X128674857Y-88860819D01*
X128674857Y-88860819D02*
X128770095Y-88908438D01*
X128770095Y-88908438D02*
X128817714Y-88956057D01*
X128817714Y-88956057D02*
X128865333Y-89051295D01*
X128865333Y-89051295D02*
X128865333Y-89194152D01*
X128865333Y-89194152D02*
X128817714Y-89289390D01*
X128817714Y-89289390D02*
X128770095Y-89337009D01*
X128770095Y-89337009D02*
X128674857Y-89384628D01*
X128674857Y-89384628D02*
X128293905Y-89384628D01*
X129198667Y-88860819D02*
X129817714Y-88860819D01*
X129817714Y-88860819D02*
X129484381Y-89241771D01*
X129484381Y-89241771D02*
X129627238Y-89241771D01*
X129627238Y-89241771D02*
X129722476Y-89289390D01*
X129722476Y-89289390D02*
X129770095Y-89337009D01*
X129770095Y-89337009D02*
X129817714Y-89432247D01*
X129817714Y-89432247D02*
X129817714Y-89670342D01*
X129817714Y-89670342D02*
X129770095Y-89765580D01*
X129770095Y-89765580D02*
X129722476Y-89813200D01*
X129722476Y-89813200D02*
X129627238Y-89860819D01*
X129627238Y-89860819D02*
X129341524Y-89860819D01*
X129341524Y-89860819D02*
X129246286Y-89813200D01*
X129246286Y-89813200D02*
X129198667Y-89765580D01*
X139446095Y-88608819D02*
X139446095Y-89418342D01*
X139446095Y-89418342D02*
X139493714Y-89513580D01*
X139493714Y-89513580D02*
X139541333Y-89561200D01*
X139541333Y-89561200D02*
X139636571Y-89608819D01*
X139636571Y-89608819D02*
X139827047Y-89608819D01*
X139827047Y-89608819D02*
X139922285Y-89561200D01*
X139922285Y-89561200D02*
X139969904Y-89513580D01*
X139969904Y-89513580D02*
X140017523Y-89418342D01*
X140017523Y-89418342D02*
X140017523Y-88608819D01*
X140446095Y-88704057D02*
X140493714Y-88656438D01*
X140493714Y-88656438D02*
X140588952Y-88608819D01*
X140588952Y-88608819D02*
X140827047Y-88608819D01*
X140827047Y-88608819D02*
X140922285Y-88656438D01*
X140922285Y-88656438D02*
X140969904Y-88704057D01*
X140969904Y-88704057D02*
X141017523Y-88799295D01*
X141017523Y-88799295D02*
X141017523Y-88894533D01*
X141017523Y-88894533D02*
X140969904Y-89037390D01*
X140969904Y-89037390D02*
X140398476Y-89608819D01*
X140398476Y-89608819D02*
X141017523Y-89608819D01*
X126579333Y-69447580D02*
X126531714Y-69495200D01*
X126531714Y-69495200D02*
X126388857Y-69542819D01*
X126388857Y-69542819D02*
X126293619Y-69542819D01*
X126293619Y-69542819D02*
X126150762Y-69495200D01*
X126150762Y-69495200D02*
X126055524Y-69399961D01*
X126055524Y-69399961D02*
X126007905Y-69304723D01*
X126007905Y-69304723D02*
X125960286Y-69114247D01*
X125960286Y-69114247D02*
X125960286Y-68971390D01*
X125960286Y-68971390D02*
X126007905Y-68780914D01*
X126007905Y-68780914D02*
X126055524Y-68685676D01*
X126055524Y-68685676D02*
X126150762Y-68590438D01*
X126150762Y-68590438D02*
X126293619Y-68542819D01*
X126293619Y-68542819D02*
X126388857Y-68542819D01*
X126388857Y-68542819D02*
X126531714Y-68590438D01*
X126531714Y-68590438D02*
X126579333Y-68638057D01*
X127055524Y-69542819D02*
X127246000Y-69542819D01*
X127246000Y-69542819D02*
X127341238Y-69495200D01*
X127341238Y-69495200D02*
X127388857Y-69447580D01*
X127388857Y-69447580D02*
X127484095Y-69304723D01*
X127484095Y-69304723D02*
X127531714Y-69114247D01*
X127531714Y-69114247D02*
X127531714Y-68733295D01*
X127531714Y-68733295D02*
X127484095Y-68638057D01*
X127484095Y-68638057D02*
X127436476Y-68590438D01*
X127436476Y-68590438D02*
X127341238Y-68542819D01*
X127341238Y-68542819D02*
X127150762Y-68542819D01*
X127150762Y-68542819D02*
X127055524Y-68590438D01*
X127055524Y-68590438D02*
X127007905Y-68638057D01*
X127007905Y-68638057D02*
X126960286Y-68733295D01*
X126960286Y-68733295D02*
X126960286Y-68971390D01*
X126960286Y-68971390D02*
X127007905Y-69066628D01*
X127007905Y-69066628D02*
X127055524Y-69114247D01*
X127055524Y-69114247D02*
X127150762Y-69161866D01*
X127150762Y-69161866D02*
X127341238Y-69161866D01*
X127341238Y-69161866D02*
X127436476Y-69114247D01*
X127436476Y-69114247D02*
X127484095Y-69066628D01*
X127484095Y-69066628D02*
X127531714Y-68971390D01*
X121158095Y-74892819D02*
X121158095Y-75702342D01*
X121158095Y-75702342D02*
X121205714Y-75797580D01*
X121205714Y-75797580D02*
X121253333Y-75845200D01*
X121253333Y-75845200D02*
X121348571Y-75892819D01*
X121348571Y-75892819D02*
X121539047Y-75892819D01*
X121539047Y-75892819D02*
X121634285Y-75845200D01*
X121634285Y-75845200D02*
X121681904Y-75797580D01*
X121681904Y-75797580D02*
X121729523Y-75702342D01*
X121729523Y-75702342D02*
X121729523Y-74892819D01*
X122110476Y-74892819D02*
X122777142Y-74892819D01*
X122777142Y-74892819D02*
X122348571Y-75892819D01*
X139700095Y-69304819D02*
X139700095Y-70114342D01*
X139700095Y-70114342D02*
X139747714Y-70209580D01*
X139747714Y-70209580D02*
X139795333Y-70257200D01*
X139795333Y-70257200D02*
X139890571Y-70304819D01*
X139890571Y-70304819D02*
X140081047Y-70304819D01*
X140081047Y-70304819D02*
X140176285Y-70257200D01*
X140176285Y-70257200D02*
X140223904Y-70209580D01*
X140223904Y-70209580D02*
X140271523Y-70114342D01*
X140271523Y-70114342D02*
X140271523Y-69304819D01*
X141223904Y-69304819D02*
X140747714Y-69304819D01*
X140747714Y-69304819D02*
X140700095Y-69781009D01*
X140700095Y-69781009D02*
X140747714Y-69733390D01*
X140747714Y-69733390D02*
X140842952Y-69685771D01*
X140842952Y-69685771D02*
X141081047Y-69685771D01*
X141081047Y-69685771D02*
X141176285Y-69733390D01*
X141176285Y-69733390D02*
X141223904Y-69781009D01*
X141223904Y-69781009D02*
X141271523Y-69876247D01*
X141271523Y-69876247D02*
X141271523Y-70114342D01*
X141271523Y-70114342D02*
X141223904Y-70209580D01*
X141223904Y-70209580D02*
X141176285Y-70257200D01*
X141176285Y-70257200D02*
X141081047Y-70304819D01*
X141081047Y-70304819D02*
X140842952Y-70304819D01*
X140842952Y-70304819D02*
X140747714Y-70257200D01*
X140747714Y-70257200D02*
X140700095Y-70209580D01*
X139446095Y-78702819D02*
X139446095Y-79512342D01*
X139446095Y-79512342D02*
X139493714Y-79607580D01*
X139493714Y-79607580D02*
X139541333Y-79655200D01*
X139541333Y-79655200D02*
X139636571Y-79702819D01*
X139636571Y-79702819D02*
X139827047Y-79702819D01*
X139827047Y-79702819D02*
X139922285Y-79655200D01*
X139922285Y-79655200D02*
X139969904Y-79607580D01*
X139969904Y-79607580D02*
X140017523Y-79512342D01*
X140017523Y-79512342D02*
X140017523Y-78702819D01*
X140922285Y-79036152D02*
X140922285Y-79702819D01*
X140684190Y-78655200D02*
X140446095Y-79369485D01*
X140446095Y-79369485D02*
X141065142Y-79369485D01*
X112408333Y-66917080D02*
X112360714Y-66964700D01*
X112360714Y-66964700D02*
X112217857Y-67012319D01*
X112217857Y-67012319D02*
X112122619Y-67012319D01*
X112122619Y-67012319D02*
X111979762Y-66964700D01*
X111979762Y-66964700D02*
X111884524Y-66869461D01*
X111884524Y-66869461D02*
X111836905Y-66774223D01*
X111836905Y-66774223D02*
X111789286Y-66583747D01*
X111789286Y-66583747D02*
X111789286Y-66440890D01*
X111789286Y-66440890D02*
X111836905Y-66250414D01*
X111836905Y-66250414D02*
X111884524Y-66155176D01*
X111884524Y-66155176D02*
X111979762Y-66059938D01*
X111979762Y-66059938D02*
X112122619Y-66012319D01*
X112122619Y-66012319D02*
X112217857Y-66012319D01*
X112217857Y-66012319D02*
X112360714Y-66059938D01*
X112360714Y-66059938D02*
X112408333Y-66107557D01*
X112789286Y-66107557D02*
X112836905Y-66059938D01*
X112836905Y-66059938D02*
X112932143Y-66012319D01*
X112932143Y-66012319D02*
X113170238Y-66012319D01*
X113170238Y-66012319D02*
X113265476Y-66059938D01*
X113265476Y-66059938D02*
X113313095Y-66107557D01*
X113313095Y-66107557D02*
X113360714Y-66202795D01*
X113360714Y-66202795D02*
X113360714Y-66298033D01*
X113360714Y-66298033D02*
X113313095Y-66440890D01*
X113313095Y-66440890D02*
X112741667Y-67012319D01*
X112741667Y-67012319D02*
X113360714Y-67012319D01*
X126633333Y-95239580D02*
X126585714Y-95287200D01*
X126585714Y-95287200D02*
X126442857Y-95334819D01*
X126442857Y-95334819D02*
X126347619Y-95334819D01*
X126347619Y-95334819D02*
X126204762Y-95287200D01*
X126204762Y-95287200D02*
X126109524Y-95191961D01*
X126109524Y-95191961D02*
X126061905Y-95096723D01*
X126061905Y-95096723D02*
X126014286Y-94906247D01*
X126014286Y-94906247D02*
X126014286Y-94763390D01*
X126014286Y-94763390D02*
X126061905Y-94572914D01*
X126061905Y-94572914D02*
X126109524Y-94477676D01*
X126109524Y-94477676D02*
X126204762Y-94382438D01*
X126204762Y-94382438D02*
X126347619Y-94334819D01*
X126347619Y-94334819D02*
X126442857Y-94334819D01*
X126442857Y-94334819D02*
X126585714Y-94382438D01*
X126585714Y-94382438D02*
X126633333Y-94430057D01*
X126966667Y-94334819D02*
X127633333Y-94334819D01*
X127633333Y-94334819D02*
X127204762Y-95334819D01*
X128833333Y-63454819D02*
X128500000Y-62978628D01*
X128261905Y-63454819D02*
X128261905Y-62454819D01*
X128261905Y-62454819D02*
X128642857Y-62454819D01*
X128642857Y-62454819D02*
X128738095Y-62502438D01*
X128738095Y-62502438D02*
X128785714Y-62550057D01*
X128785714Y-62550057D02*
X128833333Y-62645295D01*
X128833333Y-62645295D02*
X128833333Y-62788152D01*
X128833333Y-62788152D02*
X128785714Y-62883390D01*
X128785714Y-62883390D02*
X128738095Y-62931009D01*
X128738095Y-62931009D02*
X128642857Y-62978628D01*
X128642857Y-62978628D02*
X128261905Y-62978628D01*
X129214286Y-62550057D02*
X129261905Y-62502438D01*
X129261905Y-62502438D02*
X129357143Y-62454819D01*
X129357143Y-62454819D02*
X129595238Y-62454819D01*
X129595238Y-62454819D02*
X129690476Y-62502438D01*
X129690476Y-62502438D02*
X129738095Y-62550057D01*
X129738095Y-62550057D02*
X129785714Y-62645295D01*
X129785714Y-62645295D02*
X129785714Y-62740533D01*
X129785714Y-62740533D02*
X129738095Y-62883390D01*
X129738095Y-62883390D02*
X129166667Y-63454819D01*
X129166667Y-63454819D02*
X129785714Y-63454819D01*
X139446095Y-61176819D02*
X139446095Y-61986342D01*
X139446095Y-61986342D02*
X139493714Y-62081580D01*
X139493714Y-62081580D02*
X139541333Y-62129200D01*
X139541333Y-62129200D02*
X139636571Y-62176819D01*
X139636571Y-62176819D02*
X139827047Y-62176819D01*
X139827047Y-62176819D02*
X139922285Y-62129200D01*
X139922285Y-62129200D02*
X139969904Y-62081580D01*
X139969904Y-62081580D02*
X140017523Y-61986342D01*
X140017523Y-61986342D02*
X140017523Y-61176819D01*
X140922285Y-61176819D02*
X140731809Y-61176819D01*
X140731809Y-61176819D02*
X140636571Y-61224438D01*
X140636571Y-61224438D02*
X140588952Y-61272057D01*
X140588952Y-61272057D02*
X140493714Y-61414914D01*
X140493714Y-61414914D02*
X140446095Y-61605390D01*
X140446095Y-61605390D02*
X140446095Y-61986342D01*
X140446095Y-61986342D02*
X140493714Y-62081580D01*
X140493714Y-62081580D02*
X140541333Y-62129200D01*
X140541333Y-62129200D02*
X140636571Y-62176819D01*
X140636571Y-62176819D02*
X140827047Y-62176819D01*
X140827047Y-62176819D02*
X140922285Y-62129200D01*
X140922285Y-62129200D02*
X140969904Y-62081580D01*
X140969904Y-62081580D02*
X141017523Y-61986342D01*
X141017523Y-61986342D02*
X141017523Y-61748247D01*
X141017523Y-61748247D02*
X140969904Y-61653009D01*
X140969904Y-61653009D02*
X140922285Y-61605390D01*
X140922285Y-61605390D02*
X140827047Y-61557771D01*
X140827047Y-61557771D02*
X140636571Y-61557771D01*
X140636571Y-61557771D02*
X140541333Y-61605390D01*
X140541333Y-61605390D02*
X140493714Y-61653009D01*
X140493714Y-61653009D02*
X140446095Y-61748247D01*
X118633333Y-79959580D02*
X118585714Y-80007200D01*
X118585714Y-80007200D02*
X118442857Y-80054819D01*
X118442857Y-80054819D02*
X118347619Y-80054819D01*
X118347619Y-80054819D02*
X118204762Y-80007200D01*
X118204762Y-80007200D02*
X118109524Y-79911961D01*
X118109524Y-79911961D02*
X118061905Y-79816723D01*
X118061905Y-79816723D02*
X118014286Y-79626247D01*
X118014286Y-79626247D02*
X118014286Y-79483390D01*
X118014286Y-79483390D02*
X118061905Y-79292914D01*
X118061905Y-79292914D02*
X118109524Y-79197676D01*
X118109524Y-79197676D02*
X118204762Y-79102438D01*
X118204762Y-79102438D02*
X118347619Y-79054819D01*
X118347619Y-79054819D02*
X118442857Y-79054819D01*
X118442857Y-79054819D02*
X118585714Y-79102438D01*
X118585714Y-79102438D02*
X118633333Y-79150057D01*
X119538095Y-79054819D02*
X119061905Y-79054819D01*
X119061905Y-79054819D02*
X119014286Y-79531009D01*
X119014286Y-79531009D02*
X119061905Y-79483390D01*
X119061905Y-79483390D02*
X119157143Y-79435771D01*
X119157143Y-79435771D02*
X119395238Y-79435771D01*
X119395238Y-79435771D02*
X119490476Y-79483390D01*
X119490476Y-79483390D02*
X119538095Y-79531009D01*
X119538095Y-79531009D02*
X119585714Y-79626247D01*
X119585714Y-79626247D02*
X119585714Y-79864342D01*
X119585714Y-79864342D02*
X119538095Y-79959580D01*
X119538095Y-79959580D02*
X119490476Y-80007200D01*
X119490476Y-80007200D02*
X119395238Y-80054819D01*
X119395238Y-80054819D02*
X119157143Y-80054819D01*
X119157143Y-80054819D02*
X119061905Y-80007200D01*
X119061905Y-80007200D02*
X119014286Y-79959580D01*
X118033333Y-77159580D02*
X117985714Y-77207200D01*
X117985714Y-77207200D02*
X117842857Y-77254819D01*
X117842857Y-77254819D02*
X117747619Y-77254819D01*
X117747619Y-77254819D02*
X117604762Y-77207200D01*
X117604762Y-77207200D02*
X117509524Y-77111961D01*
X117509524Y-77111961D02*
X117461905Y-77016723D01*
X117461905Y-77016723D02*
X117414286Y-76826247D01*
X117414286Y-76826247D02*
X117414286Y-76683390D01*
X117414286Y-76683390D02*
X117461905Y-76492914D01*
X117461905Y-76492914D02*
X117509524Y-76397676D01*
X117509524Y-76397676D02*
X117604762Y-76302438D01*
X117604762Y-76302438D02*
X117747619Y-76254819D01*
X117747619Y-76254819D02*
X117842857Y-76254819D01*
X117842857Y-76254819D02*
X117985714Y-76302438D01*
X117985714Y-76302438D02*
X118033333Y-76350057D01*
X118890476Y-76254819D02*
X118700000Y-76254819D01*
X118700000Y-76254819D02*
X118604762Y-76302438D01*
X118604762Y-76302438D02*
X118557143Y-76350057D01*
X118557143Y-76350057D02*
X118461905Y-76492914D01*
X118461905Y-76492914D02*
X118414286Y-76683390D01*
X118414286Y-76683390D02*
X118414286Y-77064342D01*
X118414286Y-77064342D02*
X118461905Y-77159580D01*
X118461905Y-77159580D02*
X118509524Y-77207200D01*
X118509524Y-77207200D02*
X118604762Y-77254819D01*
X118604762Y-77254819D02*
X118795238Y-77254819D01*
X118795238Y-77254819D02*
X118890476Y-77207200D01*
X118890476Y-77207200D02*
X118938095Y-77159580D01*
X118938095Y-77159580D02*
X118985714Y-77064342D01*
X118985714Y-77064342D02*
X118985714Y-76826247D01*
X118985714Y-76826247D02*
X118938095Y-76731009D01*
X118938095Y-76731009D02*
X118890476Y-76683390D01*
X118890476Y-76683390D02*
X118795238Y-76635771D01*
X118795238Y-76635771D02*
X118604762Y-76635771D01*
X118604762Y-76635771D02*
X118509524Y-76683390D01*
X118509524Y-76683390D02*
X118461905Y-76731009D01*
X118461905Y-76731009D02*
X118414286Y-76826247D01*
X139389433Y-75941020D02*
X139389433Y-76750543D01*
X139389433Y-76750543D02*
X139437052Y-76845781D01*
X139437052Y-76845781D02*
X139484671Y-76893401D01*
X139484671Y-76893401D02*
X139579909Y-76941020D01*
X139579909Y-76941020D02*
X139770385Y-76941020D01*
X139770385Y-76941020D02*
X139865623Y-76893401D01*
X139865623Y-76893401D02*
X139913242Y-76845781D01*
X139913242Y-76845781D02*
X139960861Y-76750543D01*
X139960861Y-76750543D02*
X139960861Y-75941020D01*
X140341814Y-75941020D02*
X140960861Y-75941020D01*
X140960861Y-75941020D02*
X140627528Y-76321972D01*
X140627528Y-76321972D02*
X140770385Y-76321972D01*
X140770385Y-76321972D02*
X140865623Y-76369591D01*
X140865623Y-76369591D02*
X140913242Y-76417210D01*
X140913242Y-76417210D02*
X140960861Y-76512448D01*
X140960861Y-76512448D02*
X140960861Y-76750543D01*
X140960861Y-76750543D02*
X140913242Y-76845781D01*
X140913242Y-76845781D02*
X140865623Y-76893401D01*
X140865623Y-76893401D02*
X140770385Y-76941020D01*
X140770385Y-76941020D02*
X140484671Y-76941020D01*
X140484671Y-76941020D02*
X140389433Y-76893401D01*
X140389433Y-76893401D02*
X140341814Y-76845781D01*
X109843333Y-66764819D02*
X109510000Y-66288628D01*
X109271905Y-66764819D02*
X109271905Y-65764819D01*
X109271905Y-65764819D02*
X109652857Y-65764819D01*
X109652857Y-65764819D02*
X109748095Y-65812438D01*
X109748095Y-65812438D02*
X109795714Y-65860057D01*
X109795714Y-65860057D02*
X109843333Y-65955295D01*
X109843333Y-65955295D02*
X109843333Y-66098152D01*
X109843333Y-66098152D02*
X109795714Y-66193390D01*
X109795714Y-66193390D02*
X109748095Y-66241009D01*
X109748095Y-66241009D02*
X109652857Y-66288628D01*
X109652857Y-66288628D02*
X109271905Y-66288628D01*
X110795714Y-66764819D02*
X110224286Y-66764819D01*
X110510000Y-66764819D02*
X110510000Y-65764819D01*
X110510000Y-65764819D02*
X110414762Y-65907676D01*
X110414762Y-65907676D02*
X110319524Y-66002914D01*
X110319524Y-66002914D02*
X110224286Y-66050533D01*
X114927887Y-65261411D02*
X114860543Y-65261411D01*
X114860543Y-65261411D02*
X114725856Y-65194067D01*
X114725856Y-65194067D02*
X114658513Y-65126724D01*
X114658513Y-65126724D02*
X114591169Y-64992037D01*
X114591169Y-64992037D02*
X114591169Y-64857350D01*
X114591169Y-64857350D02*
X114624841Y-64756335D01*
X114624841Y-64756335D02*
X114725856Y-64587976D01*
X114725856Y-64587976D02*
X114826871Y-64486961D01*
X114826871Y-64486961D02*
X114995230Y-64385945D01*
X114995230Y-64385945D02*
X115096245Y-64352274D01*
X115096245Y-64352274D02*
X115230932Y-64352274D01*
X115230932Y-64352274D02*
X115365619Y-64419617D01*
X115365619Y-64419617D02*
X115432963Y-64486961D01*
X115432963Y-64486961D02*
X115500306Y-64621648D01*
X115500306Y-64621648D02*
X115500306Y-64688991D01*
X115803352Y-64857350D02*
X116241085Y-65295083D01*
X116241085Y-65295083D02*
X115736009Y-65328754D01*
X115736009Y-65328754D02*
X115837024Y-65429770D01*
X115837024Y-65429770D02*
X115870696Y-65530785D01*
X115870696Y-65530785D02*
X115870696Y-65598128D01*
X115870696Y-65598128D02*
X115837024Y-65699144D01*
X115837024Y-65699144D02*
X115668665Y-65867502D01*
X115668665Y-65867502D02*
X115567650Y-65901174D01*
X115567650Y-65901174D02*
X115500306Y-65901174D01*
X115500306Y-65901174D02*
X115399291Y-65867502D01*
X115399291Y-65867502D02*
X115197261Y-65665472D01*
X115197261Y-65665472D02*
X115163589Y-65564457D01*
X115163589Y-65564457D02*
X115163589Y-65497113D01*
X139954095Y-96482819D02*
X139954095Y-97292342D01*
X139954095Y-97292342D02*
X140001714Y-97387580D01*
X140001714Y-97387580D02*
X140049333Y-97435200D01*
X140049333Y-97435200D02*
X140144571Y-97482819D01*
X140144571Y-97482819D02*
X140335047Y-97482819D01*
X140335047Y-97482819D02*
X140430285Y-97435200D01*
X140430285Y-97435200D02*
X140477904Y-97387580D01*
X140477904Y-97387580D02*
X140525523Y-97292342D01*
X140525523Y-97292342D02*
X140525523Y-96482819D01*
X141525523Y-97482819D02*
X140954095Y-97482819D01*
X141239809Y-97482819D02*
X141239809Y-96482819D01*
X141239809Y-96482819D02*
X141144571Y-96625676D01*
X141144571Y-96625676D02*
X141049333Y-96720914D01*
X141049333Y-96720914D02*
X140954095Y-96768533D01*
%TO.C,TP1*%
D11*
X143100000Y-91600000D02*
X140900000Y-91600000D01*
X140900000Y-95400000D01*
X143100000Y-95400000D01*
X143100000Y-91600000D01*
%TO.C,C8*%
X130428752Y-72515000D02*
X129906248Y-72515000D01*
X130428752Y-73985000D02*
X129906248Y-73985000D01*
%TO.C,R4*%
X127290000Y-80677064D02*
X127290000Y-76322936D01*
X130710000Y-80677064D02*
X130710000Y-76322936D01*
D14*
%TO.C,C1*%
X107627900Y-83627900D02*
X107627900Y-87917960D01*
X107627900Y-90082040D02*
X107627900Y-94372100D01*
X107627900Y-94372100D02*
X118372100Y-94372100D01*
X118372100Y-83627900D02*
X107627900Y-83627900D01*
X118372100Y-87917960D02*
X118372100Y-83627900D01*
X118372100Y-94372100D02*
X118372100Y-90082040D01*
X119845300Y-89000000D02*
X120607300Y-89000000D01*
X120226300Y-89381000D02*
X120226300Y-88619000D01*
D11*
%TO.C,D1*%
X106736000Y-69358000D02*
X106736000Y-72218000D01*
X106736000Y-72218000D02*
X108656000Y-72218000D01*
X108656000Y-72218000D02*
X108656000Y-69358000D01*
%TO.C,C4*%
X116223753Y-81015000D02*
X115701247Y-81015000D01*
X116223753Y-82485000D02*
X115701247Y-82485000D01*
%TO.C,TP2*%
X143100000Y-80600000D02*
X140900000Y-80600000D01*
X140900000Y-84400000D01*
X143100000Y-84400000D01*
X143100000Y-80600000D01*
%TO.C,R3*%
X127322000Y-87228936D02*
X127322000Y-91583064D01*
X130742000Y-87228936D02*
X130742000Y-91583064D01*
%TO.C,TP4*%
X124648000Y-62738000D02*
G75*
G02*
X122748000Y-62738000I-950000J0D01*
G01*
X122748000Y-62738000D02*
G75*
G02*
X124648000Y-62738000I950000J0D01*
G01*
D14*
%TO.C,U2*%
X132973001Y-90127000D02*
X139026999Y-90127000D01*
X139026999Y-84873000D02*
X132973001Y-84873000D01*
X131984799Y-85595000D02*
G75*
G02*
X131832399Y-85595000I-76200J0D01*
G01*
X131832399Y-85595000D02*
G75*
G02*
X131984799Y-85595000I76200J0D01*
G01*
D11*
%TO.C,C9*%
X130673752Y-68265000D02*
X130151248Y-68265000D01*
X130673752Y-69735000D02*
X130151248Y-69735000D01*
D15*
%TO.C,U7*%
X115090000Y-68315001D02*
X115090000Y-68090000D01*
X115090000Y-74540000D02*
X115090000Y-73965000D01*
X115315001Y-68090000D02*
X115090000Y-68090000D01*
X115665000Y-74540000D02*
X115090000Y-74540000D01*
X121540000Y-68090000D02*
X121314999Y-68090000D01*
X121540000Y-68315001D02*
X121540000Y-68090000D01*
X121540000Y-74540000D02*
X121314999Y-74540000D01*
X121540000Y-74540000D02*
X121540000Y-74314999D01*
%TO.C,TP13*%
D11*
X123520000Y-96670000D02*
X119720000Y-96670000D01*
X119720000Y-94470000D01*
X123520000Y-94470000D01*
X123520000Y-96670000D01*
D14*
%TO.C,U5*%
X132973001Y-70627000D02*
X139026999Y-70627000D01*
X139026999Y-65373000D02*
X132973001Y-65373000D01*
X131984799Y-66095000D02*
G75*
G02*
X131832399Y-66095000I-76200J0D01*
G01*
X131832399Y-66095000D02*
G75*
G02*
X131984799Y-66095000I76200J0D01*
G01*
D11*
%TO.C,TP14*%
X116012000Y-60706000D02*
G75*
G02*
X114112000Y-60706000I-950000J0D01*
G01*
X114112000Y-60706000D02*
G75*
G02*
X116012000Y-60706000I950000J0D01*
G01*
D14*
%TO.C,U4*%
X132973001Y-83626999D02*
X139026999Y-83626999D01*
X139026999Y-78372999D02*
X132973001Y-78372999D01*
X131984799Y-79094999D02*
G75*
G02*
X131832399Y-79094999I-76200J0D01*
G01*
X131832399Y-79094999D02*
G75*
G02*
X131984799Y-79094999I76200J0D01*
G01*
D11*
%TO.C,TP12*%
X110375000Y-80455000D02*
G75*
G02*
X108475000Y-80455000I-950000J0D01*
G01*
X108475000Y-80455000D02*
G75*
G02*
X110375000Y-80455000I950000J0D01*
G01*
%TO.C,C2*%
X111815000Y-69108747D02*
X111815000Y-69631253D01*
X113285000Y-69108747D02*
X113285000Y-69631253D01*
%TO.C,TP11*%
X108200000Y-79075000D02*
G75*
G02*
X106300000Y-79075000I-950000J0D01*
G01*
X106300000Y-79075000D02*
G75*
G02*
X108200000Y-79075000I950000J0D01*
G01*
%TO.C,TP6*%
X119568000Y-62738000D02*
G75*
G02*
X117668000Y-62738000I-950000J0D01*
G01*
X117668000Y-62738000D02*
G75*
G02*
X119568000Y-62738000I950000J0D01*
G01*
%TO.C,TP8*%
X110375000Y-74935000D02*
G75*
G02*
X108475000Y-74935000I-950000J0D01*
G01*
X108475000Y-74935000D02*
G75*
G02*
X110375000Y-74935000I950000J0D01*
G01*
%TO.C,C7*%
X130201248Y-94265000D02*
X130723752Y-94265000D01*
X130201248Y-95735000D02*
X130723752Y-95735000D01*
%TO.C,R2*%
X127290000Y-60822936D02*
X127290000Y-65177064D01*
X130710000Y-60822936D02*
X130710000Y-65177064D01*
%TO.C,J3*%
X141280000Y-71325000D02*
X148020000Y-71325000D01*
X141280000Y-79685000D02*
X141280000Y-71325000D01*
X143000000Y-79685000D02*
X143000000Y-71325000D01*
X146100000Y-79685000D02*
X146100000Y-71325000D01*
X147100000Y-79685000D02*
X147100000Y-71325000D01*
X148020000Y-71325000D02*
X148020000Y-77745000D01*
X148020000Y-78345000D02*
X148020000Y-79685000D01*
X148020000Y-79685000D02*
X141280000Y-79685000D01*
X148630000Y-78485000D02*
X148020000Y-78045000D01*
X148630000Y-77605000D01*
X148630000Y-78485000D01*
G36*
X148630000Y-78485000D02*
G01*
X148020000Y-78045000D01*
X148630000Y-77605000D01*
X148630000Y-78485000D01*
G37*
D15*
%TO.C,J5*%
X99650000Y-90390000D02*
X106350000Y-90390000D01*
X99650000Y-96070000D02*
X99650000Y-90390000D01*
X106350000Y-90390000D02*
X106350000Y-96070000D01*
X106350000Y-96070000D02*
X99650000Y-96070000D01*
D16*
X104800000Y-91030000D02*
G75*
G02*
X104600000Y-91030000I-100000J0D01*
G01*
X104600000Y-91030000D02*
G75*
G02*
X104800000Y-91030000I100000J0D01*
G01*
D14*
%TO.C,U6*%
X132973001Y-64127000D02*
X139026999Y-64127000D01*
X139026999Y-58873000D02*
X132973001Y-58873000D01*
X131984799Y-59595000D02*
G75*
G02*
X131832399Y-59595000I-76200J0D01*
G01*
X131832399Y-59595000D02*
G75*
G02*
X131984799Y-59595000I76200J0D01*
G01*
D11*
%TO.C,TP10*%
X110375000Y-77695000D02*
G75*
G02*
X108475000Y-77695000I-950000J0D01*
G01*
X108475000Y-77695000D02*
G75*
G02*
X110375000Y-77695000I950000J0D01*
G01*
%TO.C,TP15*%
X110025000Y-64575000D02*
G75*
G02*
X108125000Y-64575000I-950000J0D01*
G01*
X108125000Y-64575000D02*
G75*
G02*
X110025000Y-64575000I950000J0D01*
G01*
%TO.C,TP7*%
X108200000Y-73660000D02*
G75*
G02*
X106300000Y-73660000I-950000J0D01*
G01*
X106300000Y-73660000D02*
G75*
G02*
X108200000Y-73660000I950000J0D01*
G01*
%TO.C,C5*%
X116223753Y-78865000D02*
X115701247Y-78865000D01*
X116223753Y-80335000D02*
X115701247Y-80335000D01*
%TO.C,TP3*%
X143100000Y-65100000D02*
X140900000Y-65100000D01*
X140900000Y-68900000D01*
X143100000Y-68900000D01*
X143100000Y-65100000D01*
%TO.C,TP5*%
X122108000Y-62738000D02*
G75*
G02*
X120208000Y-62738000I-950000J0D01*
G01*
X120208000Y-62738000D02*
G75*
G02*
X122108000Y-62738000I950000J0D01*
G01*
D15*
%TO.C,J6*%
X99725000Y-66580000D02*
X106425000Y-66580000D01*
X99725000Y-72260000D02*
X99725000Y-66580000D01*
X106425000Y-66580000D02*
X106425000Y-72260000D01*
X106425000Y-72260000D02*
X99725000Y-72260000D01*
D16*
X104875000Y-67220000D02*
G75*
G02*
X104675000Y-67220000I-100000J0D01*
G01*
X104675000Y-67220000D02*
G75*
G02*
X104875000Y-67220000I100000J0D01*
G01*
D11*
%TO.C,C6*%
X115223753Y-76065000D02*
X114701247Y-76065000D01*
X115223753Y-77535000D02*
X114701247Y-77535000D01*
D14*
%TO.C,U3*%
X133032938Y-77132001D02*
X139086936Y-77132001D01*
X139086936Y-71878001D02*
X133032938Y-71878001D01*
X140227538Y-76410001D02*
G75*
G02*
X140075138Y-76410001I-76200J0D01*
G01*
X140075138Y-76410001D02*
G75*
G02*
X140227538Y-76410001I76200J0D01*
G01*
D11*
%TO.C,R1*%
X109385000Y-69597064D02*
X109385000Y-69142936D01*
X110855000Y-69597064D02*
X110855000Y-69142936D01*
%TO.C,C3*%
X115961920Y-64326367D02*
X116331387Y-64695834D01*
X117001367Y-63286920D02*
X117370834Y-63656387D01*
D14*
%TO.C,U1*%
X132973001Y-96627000D02*
X139026999Y-96627000D01*
X139026999Y-91373000D02*
X132973001Y-91373000D01*
X140167601Y-95905000D02*
G75*
G02*
X140015201Y-95905000I-76200J0D01*
G01*
X140015201Y-95905000D02*
G75*
G02*
X140167601Y-95905000I76200J0D01*
G01*
D11*
%TO.C,TP9*%
X108200000Y-76315000D02*
G75*
G02*
X106300000Y-76315000I-950000J0D01*
G01*
X106300000Y-76315000D02*
G75*
G02*
X108200000Y-76315000I950000J0D01*
G01*
%TD*%
M02*
